<?xml version="1.0" standalone="no"?>
<!DOCTYPE svg PUBLIC "-//W3C//DTD SVG 20010904//EN"
 "http://www.w3.org/TR/2001/REC-SVG-20010904/DTD/svg10.dtd">
<svg version="1.0" xmlns="http://www.w3.org/2000/svg"
 width="400.000000pt" height="222.000000pt" viewBox="0 0 400.000000 222.000000"
 preserveAspectRatio="xMidYMid meet">

<g transform="translate(0.000000,222.000000) scale(0.100000,-0.100000)"
fill="#4861ab" stroke="none">
<path d="M0 1125 l0 -585 125 0 125 0 0 210 0 210 176 0 c145 0 181 3 204 16
45 27 60 63 60 148 l0 76 -220 0 -220 0 0 130 0 130 210 0 c286 0 300 8 300
162 l0 88 -380 0 -380 0 0 -585z"/>
<path d="M917 1704 c-4 -4 -7 -170 -7 -369 0 -417 2 -432 76 -514 54 -61 126
-96 223 -111 85 -14 103 -6 62 24 -36 26 -61 57 -87 106 -17 32 -19 66 -24
370 l-5 336 -26 49 c-17 34 -39 58 -70 77 -44 27 -128 46 -142 32z"/>
<path d="M1875 1705 c-5 -2 -22 -6 -37 -9 -38 -8 -95 -61 -121 -110 -20 -39
-22 -59 -27 -341 -5 -281 -6 -303 -27 -347 -27 -58 -103 -141 -161 -175 -136
-80 -331 -85 -476 -11 l-39 20 23 -32 c30 -42 114 -104 180 -133 110 -48 244
-60 355 -32 187 49 346 212 385 395 7 37 10 170 8 415 l-3 360 -25 2 c-14 1
-29 0 -35 -2z"/>
<path d="M2080 1121 l0 -591 125 0 125 0 0 214 0 214 183 4 183 3 65 32 c216
107 278 367 134 563 -20 27 -40 50 -45 50 -4 0 -1 -21 7 -47 39 -126 -32 -270
-161 -329 -46 -21 -67 -23 -206 -25 l-155 -1 -3 126 -3 126 176 0 c186 0 217
-6 248 -50 25 -36 42 1 42 94 0 70 -3 85 -25 114 -13 18 -49 45 -80 60 l-55
27 -277 3 -278 4 0 -591z"/>
<path d="M3425 1694 c-154 -24 -273 -97 -325 -201 -36 -70 -40 -190 -10 -261
46 -106 140 -161 384 -222 178 -45 229 -68 251 -110 25 -48 19 -78 -23 -120
-97 -98 -330 -72 -496 55 -27 20 -49 35 -50 33 -2 -2 -31 -41 -66 -87 l-64
-85 44 -38 c55 -49 165 -102 255 -124 96 -23 289 -24 374 -1 129 35 210 99
259 206 21 45 26 72 26 136 1 190 -99 275 -415 354 -86 21 -174 48 -196 59
-95 49 -72 156 41 192 84 27 260 -11 357 -76 28 -19 54 -32 58 -30 3 3 34 40
69 84 l62 81 -33 27 c-42 36 -157 89 -231 109 -62 16 -219 27 -271 19z"/>
</g>
</svg>
