<svg xmlns="http://www.w3.org/2000/svg" width="52" height="14" viewBox="0 0 52 14">
    <defs>
        <linearGradient id="a" x1="0%" y1="50%" y2="50%">
            <stop offset="0%" stop-color="#E14955"/>
            <stop offset="100%" stop-color="#93079C"/>
        </linearGradient>
    </defs>
    <path fill="url(#a)" fill-rule="evenodd" d="M73.041 22.203c-.355.176-.846.34-1.478.491l-.87.19c-.455.126-.782.289-.985.489-.167.245-.26.533-.266.829 0 .377.114.678.34.905.228.2.556.301.985.301.707 0 1.262-.2 1.667-.603.403-.402.605-.954.605-1.658v-.944h.002zm.606 4.637a4.696 4.696 0 0 1-1.685.509c-.594.062-1.116.094-1.573.094-.909 0-1.704-.245-2.385-.734-.68-.491-1.023-1.301-1.023-2.434 0-1.054.31-1.808.929-2.26.618-.453 1.407-.754 2.367-.905.125 0 .276-.019.453-.057.177-.037.379-.069.605-.095 1.112-.15 1.668-.476 1.668-.98 0-.378-.196-.623-.588-.735a3.959 3.959 0 0 0-1.08-.17c-.353 0-.67.052-.946.151a1.028 1.028 0 0 0-.605.566h-2.538c.102-.779.455-1.42 1.06-1.923.683-.577 1.653-.867 2.915-.867 1.414 0 2.475.238 3.18.717.734.502 1.102 1.206 1.102 2.11v3.432c0 1.005-.185 1.79-.55 2.357-.365.565-.8.974-1.306 1.224zm-12.383.414v-4.862c0-.98.144-1.803.435-2.469.29-.665.687-1.2 1.193-1.601.5-.388 1.073-.67 1.685-.83a7.569 7.569 0 0 1 1.988-.265h.378v2.675h-.87c-.735 0-1.276.176-1.63.528-.353.352-.53.906-.53 1.66v5.164h-2.65zm-2.841-5.05c-.354.175-.847.338-1.476.49l-.87.19c-.455.126-.783.289-.985.489a1.532 1.532 0 0 0-.265.829c0 .377.114.678.34.905.228.2.556.301.985.301.706 0 1.262-.2 1.667-.603.403-.402.605-.954.605-1.658v-.944h-.001zm.605 4.636a4.696 4.696 0 0 1-1.685.509c-.594.062-1.116.094-1.572.094-.909 0-1.704-.245-2.385-.734-.682-.491-1.023-1.301-1.023-2.434 0-1.054.308-1.808.928-2.26.62-.453 1.407-.754 2.368-.905.127 0 .278-.019.454-.057.177-.037.38-.069.606-.095 1.111-.15 1.667-.476 1.667-.98 0-.378-.196-.623-.586-.735a3.899 3.899 0 0 0-1.08-.17c-.353 0-.67.052-.946.151a1.028 1.028 0 0 0-.605.566H52.63c.101-.779.455-1.42 1.06-1.923.683-.577 1.653-.867 2.915-.867 1.414 0 2.475.238 3.18.717.733.502 1.099 1.206 1.099 2.11v3.432c0 1.005-.183 1.79-.55 2.357-.366.565-.803.974-1.307 1.224zm-9.504-4.562c0-.979-.19-1.732-.569-2.262-.377-.526-.922-.79-1.629-.79-.68 0-1.21.264-1.59.792-.353.478-.53 1.232-.53 2.262 0 .955.19 1.672.569 2.149.379.526.92.79 1.629.79.656 0 1.174-.264 1.553-.792s.567-1.243.567-2.149zm-4.318 7.39a1.23 1.23 0 0 1-.379.905 1.25 1.25 0 0 1-.909.376h-1.286v-9.386c0-1.76.517-2.96 1.553-3.6a6.295 6.295 0 0 1 3.371-.961c.631 0 1.269.12 1.913.358.642.238 1.153.582 1.532 1.035.757.981 1.136 2.237 1.136 3.77 0 1.584-.38 2.865-1.136 3.845-.758.956-1.73 1.433-2.917 1.433-.63 0-1.186-.112-1.667-.339a2.84 2.84 0 0 1-1.21-1.168v3.733zm-5.415-7.465c-.355.176-.847.34-1.478.491l-.869.188c-.456.126-.783.29-.986.49a1.532 1.532 0 0 0-.265.828c0 .378.114.678.34.906.229.201.556.3.985.3.707 0 1.263-.2 1.667-.603.403-.401.606-.953.606-1.657v-.943zm.607 4.637a4.706 4.706 0 0 1-1.685.509c-.594.062-1.118.094-1.572.094-.91 0-1.704-.245-2.385-.734-.681-.491-1.023-1.301-1.023-2.434 0-1.054.308-1.808.928-2.26.62-.453 1.407-.754 2.367-.905.126 0 .277-.019.455-.057.177-.037.379-.069.605-.095 1.11-.15 1.666-.476 1.666-.979 0-.377-.196-.622-.586-.734a3.916 3.916 0 0 0-1.081-.171c-.354 0-.67.05-.946.15a1.033 1.033 0 0 0-.606.566h-2.537c.1-.779.454-1.42 1.06-1.923.68-.577 1.652-.867 2.916-.867 1.414 0 2.475.238 3.18.717.733.504 1.099 1.206 1.099 2.112v3.43c0 1.005-.183 1.79-.55 2.357-.366.566-.8.974-1.305 1.224zm-13.823 2.829c0 .352-.127.653-.378.904a1.25 1.25 0 0 1-.909.376H24v-9.386c0-1.76.517-2.96 1.553-3.6a6.29 6.29 0 0 1 3.37-.961c.63 0 1.268.12 1.912.358.644.238 1.155.584 1.534 1.035.758.981 1.137 2.237 1.137 3.77 0 1.584-.379 2.865-1.137 3.845-.758.956-1.73 1.433-2.916 1.433-.632 0-1.187-.112-1.668-.339a2.835 2.835 0 0 1-1.212-1.168v3.733h.002zm4.317-7.39c0-.98-.19-1.733-.569-2.263-.377-.526-.92-.79-1.627-.79-.682 0-1.212.264-1.591.792-.354.478-.53 1.232-.53 2.262 0 .955.189 1.672.568 2.149.38.528.92.792 1.629.792.655 0 1.172-.264 1.551-.792.38-.528.569-1.245.569-2.15z" transform="translate(-24 -17)"/>
</svg>
