<?xml version="1.0" encoding="UTF-8"?>
<svg id="Layer_1" xmlns="http://www.w3.org/2000/svg" xmlns:xlink="http://www.w3.org/1999/xlink" version="1.1" viewBox="0 0 132.9 57.6">
  <!-- Generator: Adobe Illustrator 29.2.1, SVG Export Plug-In . SVG Version: 2.1.0 Build 116)  -->
  <defs>
    <style>
      .st0 {
        fill: #ffc800;
      }

      .st1 {
        fill: #33337b;
      }
    </style>
  </defs>
  <g>
    <path class="st1" d="M10.2,36.9c-2.3,0-4,.8-5.2,2.2v-1.7H0v20.2h5.6v-7.4c1.1,1,2.7,1.7,4.7,1.7,4.5,0,7.5-3.1,7.5-7.5s-3.1-7.5-7.6-7.5ZM8.9,47.6c-1.9,0-3.3-1.3-3.3-3.2s1.4-3.2,3.3-3.2,3.3,1.3,3.3,3.2c0,1.9-1.4,3.2-3.3,3.2Z"/>
    <path class="st1" d="M31.7,39.1c-1.1-1.3-2.8-2.2-5.2-2.2-4.5,0-7.5,3.1-7.5,7.5s3,7.5,7.5,7.5,4-.8,5.2-2.2v1.7h5.1v-14h-5.1v1.7ZM27.9,47.6c-1.9,0-3.3-1.3-3.3-3.2s1.4-3.2,3.3-3.2,3.3,1.3,3.3,3.2c.1,1.9-1.4,3.2-3.3,3.2Z"/>
    <path class="st1" d="M45.4,39.9v-2.5h-5.2v13.9h5.6v-5c0-2.8,1.4-4.2,3.4-4.2s1,0,1.5.3l1.2-5.1c-.4,0-.9-.3-1.8-.3-2.1-.1-3.7,1.1-4.7,2.9Z"/>
    <path class="st1" d="M64.8,39.1c-1.1-1.3-2.8-2.2-5.2-2.2-4.5,0-7.5,3.1-7.5,7.5s3,7.5,7.5,7.5,4-.8,5.2-2.2v1.7h5.1v-14h-5.1v1.7ZM61,47.6c-1.9,0-3.3-1.3-3.3-3.2s1.4-3.2,3.3-3.2,3.3,1.3,3.3,3.2c0,1.9-1.3,3.2-3.3,3.2Z"/>
    <polygon class="st1" points="85.9 41.6 85.9 37.4 73.2 37.4 73.2 41.6 79.2 41.6 72.7 47.2 72.7 51.4 86.2 51.4 86.2 47.2 79.4 47.2 85.9 41.6"/>
    <path class="st1" d="M98.6,37.4v7.3c0,1.6-.7,2.5-2,2.5s-2-.9-2-2.5v-7.3h-5.6v7.3c0,4.6,2.3,7.1,6.7,7.1s2.4-.5,3.4-1.4v1.4h5.1v-14.4h-5.6Z"/>
    <path class="st1" d="M127.8,37.4v1.7c-1.1-1.3-2.8-2.2-5.2-2.2-4.5,0-7.5,3.1-7.5,7.5s3,7.5,7.5,7.5,4-.8,5.2-2.2v1.7h5.1v-14h-5.1ZM124,47.6c-1.9,0-3.3-1.3-3.3-3.2s1.4-3.2,3.3-3.2,3.3,1.3,3.3,3.2-1.4,3.2-3.3,3.2Z"/>
  </g>
  <path class="st1" d="M113.6,54.6c.1,0,.1,0,.1,0l-2.8-25.1h0c0-.1-.8-6.9-.8-6.9,0-.2-.1-.5-.3-.7-.3-.3-.7-.5-1.1-.5l-2.4.3c-.7.1-1.3.7-1.2,1.5l.8,6.7v.2l2.8,25c0,0,.1,0,.1,0l4.8-.5ZM106.4,21.9l2.4-.3h.1c.2,0,.4.1.6.2.2.2.3.4.3.6l.6,5.1q0,.1-.1.1l-4.1.5q-.1,0-.1-.1l-.6-5c0-.5.3-1,.9-1.1Z"/>
  <path class="st0" d="M101.5,11.1s.1,0,.2.3c.1.4.2,2.3,1,3.1.7.7,3.2.7,3.2.7,0,0,.1,0,.2.1.1.1,0,.2-.2.2s-1.1.2-1.8.3c-.6.1-1.1.5-1.4,1-.6,1.1-.6,2.7-.6,2.7,0,0,0,.4-.1.5s-.2,0-.2-.3c.1-.9-.2-3-1.7-3.6-1.5-.5-2.5-.6-2.5-.6,0,0-.4-.2.1-.3s2.6.1,3.1-.9c.4-.9.5-1.4.6-1.8.1-.7.1-1.1.2-1.2-.2-.2-.1-.2-.1-.2Z"/>
  <path class="st0" d="M110.2,0s.2-.1.5.5c.4.7,1.6,3.7,3.3,4.6,1.5.8,5.6-.4,5.6-.4,0,0,.2,0,.3,0s.1.3-.3.5c-.3,0-1.7.9-2.9,1.5-1,.5-1.7,1.3-1.9,2.3-.5,2.2.5,4.8.5,4.8,0,0,.2.6.1.8-.1.2-.4.1-.5-.4-.4-1.5-1.9-4.9-4.7-5-2.8-.1-4.6.3-4.6.3,0,0-.8,0,.1-.6.4-.3,3.4-.4,4.7-2.6.5-.8.3-3,.1-3.7-.2-1.2-.6-1.9-.6-2.2C110,0,110.2,0,110.2,0Z"/>
  <path class="st0" d="M114.5,17.8s.1,0,0,.2c0,.3-.2,1.4.1,1.9s1.7,1,1.7,1c0,0,.1,0,.1.1s0,.1-.2.1-.7-.1-1.1-.1c-.4-.1-.7.1-1,.3-.5.5-.8,1.5-.8,1.5v.2q-.2,0-.2-.2c.2-.5.4-1.8-.4-2.3-.8-.6-1.4-.8-1.4-.8,0,0-.2-.2.1-.1.3,0,1.4.5,1.9,0,.4-.5.5-.7.6-.9.2-.4.3-.6.3-.7.2-.2.3-.2.3-.2Z"/>
</svg>