<?xml version="1.0" encoding="UTF-8"?>
<!DOCTYPE svg PUBLIC "-//W3C//DTD SVG 1.1//EN" "http://www.w3.org/Graphics/SVG/1.1/DTD/svg11.dtd">
<!-- Creator: CorelDRAW 2020 (64-Bit) -->
<svg xmlns="http://www.w3.org/2000/svg" xml:space="preserve" width="99.087mm" height="30.509mm" version="1.1" style="shape-rendering:geometricPrecision; text-rendering:geometricPrecision; image-rendering:optimizeQuality; fill-rule:evenodd; clip-rule:evenodd"
viewBox="0 0 9908.7 3050.9"
 xmlns:xlink="http://www.w3.org/1999/xlink"
 xmlns:xodm="http://www.corel.com/coreldraw/odm/2003">
 <defs>
  <style type="text/css">
   <![CDATA[
    .fil2 {fill:#3D6B9F}
    .fil1 {fill:#FDC928}
    .fil0 {fill:#3D6B9F;fill-rule:nonzero}
   ]]>
  </style>
 </defs>
 <g id="Katman_x0020_1">
  <metadata id="CorelCorpID_0Corel-Layer"/>
  <g id="_1899296098016">
   <path class="fil0" d="M3280.38 587.16l-171.5 1577.22 319.94 0 54.22 -500.2 255.16 0c297.42,0 566.46,-187.03 605.04,-538.51 38.57,-351.48 -190.35,-538.51 -487.74,-538.51l-575.12 0zm572.87 306.44c121.68,0 211.99,69.85 194.55,232.07 -17.45,162.21 -123.74,232.08 -245.38,232.08l-286.16 0 50.84 -464.15 286.15 0zm1078.36 130.4c-335.72,0 -585.85,232.23 -623.5,577.09 -37.61,344.54 156.11,597.09 491.83,597.09 103.65,0 266.79,-42.81 375.57,-166.74l-13.87 132.94 288.09 0 122.51 -1126.59 -288.1 0 -13.93 150.69c-80.49,-123.92 -234.96,-164.48 -338.6,-164.48l0 0zm-36.48 903.79c-153.21,0 -332.1,-85.94 -306.79,-320.08 47.62,-440.66 685.16,-433.94 636.47,-0.01 -25.54,227.69 -178.72,320.09 -329.68,320.09zm1629.53 -890l-340.72 756.28 -200.05 -756.28 -328.95 0 344.34 1097.7c-73.94,157.72 -146.71,228.05 -306.68,228.05l-25.98 250.1c299.67,0 443.68,-105.77 613.79,-451.51l553.2 -1124.34 -308.95 0zm1059.2 -13.79c-103.63,0 -289.11,20.56 -393.39,144.48l62.95 -581.32 -279.68 0 -171.49 1577.22 279.66 0 13.87 -132.94c80.48,123.93 252.78,166.74 356.43,166.74 335.72,0 568.06,-251.91 605.74,-597.09 37.59,-344.25 -180.7,-562.53 -474.09,-577.09l0 0zm-167.15 903.79c-150.95,0 -306.15,-99 -280.59,-326.7 25.52,-227.39 201.59,-326.71 352.55,-326.71 153.21,0 297.13,92.84 271.86,326.71 -25.37,234.79 -190.6,326.7 -343.82,326.7l0 0zm1393.87 -903.79c-325.79,0 -615.02,253.46 -650.52,577.09 -40.29,367.22 169.91,597.09 498.86,597.09 328.96,0 632.47,-229.87 672.78,-597.09 40.3,-367.24 -192.15,-577.09 -521.12,-577.09zm-99.96 900.28c-117.17,0 -296.21,-88.75 -270.9,-323.19 25.29,-234.13 222.01,-313.19 339.18,-313.19 117.16,0 298.41,79.06 273.13,313.19 -25.32,234.43 -224.25,323.19 -341.41,323.19zm1190.97 -1370.91l-281.97 0 -174.96 1611.01 281.98 0 174.95 -1611.01z"/>
   <path class="fil1" d="M2649.44 844c0,0 -720.93,-495.75 -1115.84,-726.58 -394.91,-230.83 -867.69,-125.14 -1001.18,364.32l1256.34 851.7 860.68 -489.44z"/>
   <path class="fil2" d="M2649.44 844l-194.68 931.65 -2461.91 1275.8c0,0 150.18,-869.78 1048.46,-1348.12 898.28,-478.34 1608.13,-859.33 1608.13,-859.33z"/>
  </g>
 </g>
</svg>
