<?xml version="1.0" encoding="UTF-8"?>
<svg id="Layer_1" data-name="Layer 1" xmlns="http://www.w3.org/2000/svg" viewBox="0 0 88.78 26.59">
  <defs>
    <style>
      .cls-1 {
        fill: #4e4e4e;
      }

      .cls-1, .cls-2 {
        stroke-width: 0px;
      }

      .cls-2 {
        fill: #e33627;
      }
    </style>
  </defs>
  <g>
    <path class="cls-1" d="M15.63,6.76c0,4.34-3.17,6.85-7.96,6.85h-3.88v6.93H0V0h7.67c4.79,0,7.96,2.42,7.96,6.76ZM11.69,6.76c0-2.28-1.57-3.51-4.02-3.51h-3.88v7.13h3.88c2.45,0,4.02-1.31,4.02-3.62Z"/>
    <path class="cls-1" d="M32.46,6.85v13.69h-3.34v-2.42c-1.08,1.68-2.88,2.8-5.39,2.8-4.19,0-6.99-2.97-6.99-7.22s2.8-7.22,6.99-7.22c2.51,0,4.31,1.11,5.39,2.8v-2.42h3.34ZM28.81,13.69c0-2.42-1.77-4.25-4.22-4.25s-4.22,1.83-4.22,4.25,1.71,4.25,4.22,4.25,4.22-1.8,4.22-4.25Z"/>
    <path class="cls-1" d="M34.54,5.75h4.16l3.54,10.5,3.45-10.5h4.05l-5.22,14.23-.93,2.58c-.34.86-.67,1.52-.98,1.98-.31.45-.67.82-1.07,1.11s-.9.5-1.49.66c-.59.16-1.26.24-2,.24s-1.49-.08-2.21-.24l-.35-3.06c.61.12,1.17.18,1.66.18.91,0,1.58-.27,2.02-.8.44-.53.77-1.21,1-2.04l-5.63-14.83Z"/>
  </g>
  <path class="cls-2" d="M55.41,3.39v6.05h9.04v3.28h-9.04v7.93h-3.79V.11h13.72v3.28h-9.93Z"/>
  <path class="cls-2" d="M67.61,2.51c0-1.26.88-2.28,2.25-2.28s2.25,1.03,2.25,2.28-.88,2.25-2.25,2.25-2.25-1.03-2.25-2.25ZM67.98,6.96h3.68v13.69h-3.68V6.96Z"/>
  <path class="cls-2" d="M84.67,20.65l-3.48-4.42-3.39,4.42h-3.99l5.39-6.96-5.31-6.73h4.14l3.39,4.34,3.17-4.34h3.96l-5.13,6.85,5.36,6.85h-4.11Z"/>
</svg>