<svg width="509" height="103" viewBox="0 0 509 103" fill="none" xmlns="http://www.w3.org/2000/svg">
<g clip-path="url(#clip0_1_12)">
<rect width="509" height="103" fill="white"/>
<path d="M22.4632 33.3748H4.12297C3.22984 35.7084 2.51037 38.1168 1.98317 40.6126C4.67497 40.806 23.9579 40.0697 26.0543 41.1804C30.2471 42.5281 33.2304 46.1345 33.249 50.421V98.8889C35.5687 99.7874 37.9627 100.511 40.4437 101.048V50.265C40.4561 46.7771 39.259 43.3454 37.2061 40.6126C33.8196 36.0203 28.2065 33.3561 22.4632 33.3748Z" fill="#20680E"/>
<path d="M97.877 62.3133C97.0335 57.8646 94.7139 54.0086 91.2406 51.2633C103.44 41.224 97.4056 19.1177 80.9447 18.8993H12.5767C10.7098 21.1518 9.01039 23.5727 7.54044 26.1371H51C48.5005 29.5438 47.4275 34.2421 47.6321 38.4288V102.09C50.0014 102.252 52.4513 102.258 54.8268 102.09V36.9875C54.8516 32.2268 58.0706 26.4178 63.0635 26.1371H81.3479C88.2821 26.0123 92.8097 34.2858 90.5335 40.6063C89.2558 44.6807 85.7391 47.7942 81.4285 47.8441C79.971 47.869 76.4046 48.0313 76.4046 48.0313V55.0818H81.8379C94.7449 55.6683 94.7573 76.1961 81.8379 76.7888H78.9538C73.4709 76.7639 69.2348 71.8784 69.2162 65.9384V48.6926C70.0039 43.6137 73.8989 39.7016 78.8049 39.6767H81.3231V32.4389C80.5912 32.4576 79.7911 32.4202 78.6623 32.4389C67.8827 32.3391 61.7176 39.8389 61.8726 54.1459L62.0277 58.5447V62.3133C61.8726 76.6204 68.0315 84.1202 78.8173 84.0203C91.2281 85.1934 100.073 74.3804 97.8894 62.3133H97.877Z" fill="#20680E"/>
<path d="M12.1053 70.4184C8.7685 63.4863 7.30476 55.5685 7.97461 47.8441H0.934989C-0.627992 66.9617 9.71745 86.2041 26.0543 95.4385V87.0589C20.1125 82.8099 15.2871 77.0821 12.0991 70.4184H12.1053Z" fill="#20680E"/>
<path d="M33.3544 11.6678C34.6507 11.0813 35.9718 10.551 37.3301 10.0955C39.2528 9.43409 41.2252 8.91622 43.2285 8.54185C48.5687 7.54354 54.1074 7.56226 59.4537 8.58553C62.7906 9.22195 66.053 10.2515 69.1355 11.6678H82.5015C80.5788 10.1391 78.5444 8.74152 76.4109 7.51235C59.0568 -2.82016 35.6431 -1.10432 19.9823 11.6678C19.9823 11.6678 20.311 11.6678 20.8568 11.6678H33.3544Z" fill="#20680E"/>
<path fill-rule="evenodd" clip-rule="evenodd" d="M4.12297 33.3748H22.4632C28.2065 33.3561 33.8196 36.0203 37.2061 40.6126C39.259 43.3454 40.4561 46.7771 40.4437 50.265V101.048C40.1829 100.991 39.9231 100.933 39.6643 100.872C37.4603 100.357 35.3249 99.693 33.249 98.8889V50.421C33.2304 46.1345 30.2471 42.5281 26.0543 41.1804C24.6042 40.4121 14.9306 40.5276 8.21323 40.6077C5.89539 40.6354 3.92886 40.6589 2.77442 40.6404C2.43796 40.635 2.17042 40.626 1.98317 40.6126C2.03809 40.3526 2.09509 40.0936 2.15416 39.8354C2.66215 37.6158 3.32287 35.4653 4.12297 33.3748ZM32.4696 50.4224C32.4518 46.5292 29.7392 43.19 25.8177 41.9295L25.7525 41.9085L25.6919 41.8764C25.6567 41.8577 25.5421 41.8132 25.3045 41.7618C25.0803 41.7132 24.7908 41.6676 24.438 41.6259C23.7328 41.5427 22.8191 41.4806 21.7549 41.4358C19.6287 41.3464 16.9522 41.3282 14.245 41.3387C12.1704 41.3468 10.0858 41.3717 8.22439 41.3939C7.65794 41.4006 7.11215 41.4072 6.59361 41.4129C4.39475 41.4371 2.64158 41.4481 1.92779 41.3968L1.03418 41.3326L1.22088 40.4487C1.75695 37.9109 2.48841 35.4626 3.39587 33.0916L3.5884 32.5886L22.4607 32.5886L22.4616 32.5886C28.4334 32.5694 34.2853 35.3365 37.8294 40.1406C39.9793 43.0037 41.2357 46.6 41.2231 50.2661V102.02L40.2803 101.817C37.7591 101.271 35.3263 100.536 32.9696 99.6229L32.4696 99.4292V50.4224ZM12.5767 18.8993H80.9447C97.1268 19.114 103.233 40.4814 91.8448 50.7429C91.6486 50.9197 91.4472 51.0932 91.2406 51.2633C91.4497 51.4286 91.6546 51.5979 91.8553 51.7712C94.9878 54.4751 97.0843 58.1325 97.877 62.3133H97.8894C100.073 74.3804 91.2281 85.1934 78.8173 84.0203C68.0315 84.1202 61.8726 76.6204 62.0277 62.3133V58.5447L61.8726 54.1459C61.7176 39.8389 67.8827 32.3391 78.6623 32.4389C79.2478 32.4292 79.7449 32.4346 80.1899 32.4394C80.3115 32.4407 80.4291 32.442 80.5437 32.4429C80.8181 32.4451 81.0745 32.4453 81.3231 32.4389V39.6767H78.8049C73.8989 39.7016 70.0039 43.6137 69.2162 48.6926V65.9384C69.2348 71.8784 73.4709 76.7639 78.9538 76.7888H81.8379C94.7573 76.1961 94.7449 55.6683 81.8379 55.0818H76.4046V48.0313C76.4046 48.0313 79.971 47.869 81.4285 47.8441C85.7391 47.7942 89.2558 44.6807 90.5335 40.6063C92.8097 34.2858 88.2821 26.0123 81.3479 26.1371H63.0635C58.0706 26.4178 54.8516 32.2268 54.8268 36.9875V102.09C52.4513 102.258 50.0014 102.252 47.6321 102.09V38.4288C47.4428 34.5556 48.3469 30.2445 50.4625 26.9233C50.6337 26.6545 50.8128 26.3922 51 26.1371H7.54044C7.69154 25.8735 7.84506 25.6114 8.00094 25.3508C9.36153 23.0767 10.9017 20.9202 12.5767 18.8993ZM49.5452 26.9233H6.18945L6.86571 25.7435C8.35946 23.1376 10.085 20.6798 11.9788 18.395L12.2124 18.1131H80.955C89.5866 18.2276 95.4658 24.0974 97.5865 31.1709C99.6213 37.9578 98.2356 45.9727 92.4507 51.2508C95.5103 53.9248 97.608 57.4778 98.5109 61.5271H98.5395L98.6562 62.1722C100.921 74.6902 91.7362 86.006 78.7845 84.8068C73.2147 84.849 68.7455 82.9225 65.7089 79.0578C62.6886 75.2138 61.1703 69.5597 61.2483 62.3091V58.5586L61.0934 54.1642L61.0933 54.1545C61.0147 46.9016 62.5345 41.246 65.5562 37.4014C68.599 33.5299 73.0786 31.6033 78.6594 31.6526C79.231 31.6433 79.7192 31.6481 80.1499 31.6527L80.1915 31.6532C80.6103 31.6577 80.9655 31.6616 81.3033 31.6529L82.1025 31.6325V40.4629H78.8071C74.3687 40.4864 70.7556 44.018 69.9956 48.7548L69.9956 65.936L69.9956 65.9378C70.0139 71.5268 73.9796 75.9792 78.956 76.0026L78.9573 76.0026L81.8198 76.0026C84.8172 75.8605 87.0254 74.5745 88.4968 72.7357C89.9835 70.8778 90.7441 68.4194 90.7434 65.9332C90.7426 63.447 89.9805 60.9889 88.4935 59.1316C87.0217 57.2934 84.8142 56.0086 81.8201 55.868H75.6252V47.2797L76.3695 47.2458L76.5262 47.2388C76.6268 47.2343 76.7721 47.2278 76.9509 47.22C77.3086 47.2044 77.8007 47.1833 78.3386 47.1614C79.411 47.1178 80.6759 47.0706 81.4153 47.058L81.4196 47.0579C85.3381 47.0125 88.5964 44.1766 89.7904 40.3692L89.7953 40.3534L89.8009 40.3379C90.8471 37.4329 90.3381 34.0324 88.7287 31.3633C87.1235 28.7012 84.4905 26.8669 81.3618 26.9232L81.3548 26.9233H63.0859C60.9097 27.0535 59.06 28.3855 57.7225 30.3304C56.3799 32.283 55.6183 34.7699 55.6062 36.9893V102.823L54.8815 102.874C52.4683 103.045 49.9825 103.039 47.5794 102.874L46.8527 102.824V38.448C46.6688 34.6128 47.5168 30.3379 49.5452 26.9233ZM12.1003 70.4208C12.102 70.4243 12.1037 70.4278 12.1053 70.4313C12.2294 70.6905 12.356 70.9482 12.485 71.2046C15.6706 77.5328 20.3475 82.9779 26.0543 87.0589V95.4385C25.793 95.2908 25.5332 95.1405 25.2749 94.9877C9.38951 85.5885 -0.602989 66.6559 0.934989 47.8441H7.97461C7.9519 48.1059 7.93164 48.368 7.91383 48.6303C7.42592 55.8133 8.76976 63.1285 11.7368 69.6321C11.855 69.8912 11.9758 70.149 12.0991 70.4055C12.1008 70.4089 12.1025 70.4124 12.1042 70.4159L12.1053 70.4184H12.0991L12.1003 70.4208ZM13.1538 70.7965L12.8065 70.0749C9.53091 63.2702 8.09354 55.4947 8.75105 47.9126L8.82517 47.0578H0.217216L0.158221 47.7794C-1.4301 67.207 9.07305 86.7411 25.6733 96.1244L26.8337 96.7803V86.6526L26.5051 86.4175C20.8851 82.3986 16.2823 77.0326 13.1538 70.7965ZM33.5212 12.454H17.7785L19.4923 11.0564C35.4051 -1.92123 59.1692 -3.6633 76.8022 6.83239C78.9696 8.08138 81.0343 9.50021 82.984 11.0503L84.7495 12.454H68.9664L68.8125 12.3833C65.7888 10.994 62.5864 9.98316 59.3089 9.35806C54.0567 8.35281 48.615 8.33449 43.3705 9.3149C41.4037 9.68246 39.4679 10.1908 37.5817 10.8396L37.576 10.8416C36.246 11.2876 34.9494 11.8078 33.6734 12.3852L33.5212 12.454ZM76.4109 7.51235C59.4194 -2.60424 36.619 -1.17077 20.9741 10.8816C20.935 10.9118 20.8959 10.942 20.8568 10.9723C20.5627 11.2003 20.2712 11.4322 19.9823 11.6678H33.3544C34.6507 11.0813 35.9718 10.551 37.3301 10.0955C39.2528 9.43409 41.2252 8.91622 43.2285 8.54185C48.5687 7.54354 54.1074 7.56226 59.4537 8.58553C62.7906 9.22195 66.053 10.2515 69.1355 11.6678H82.5015C82.1668 11.4017 81.8287 11.1396 81.4873 10.8816C79.8675 9.65765 78.173 8.52754 76.4109 7.51235Z" fill="#20680E"/>
<path d="M256.035 37.4074V28.2821H299.028V37.4074H283.002V80.6312H272.061V37.4074H256.035Z" fill="black"/>
<path d="M239.26 43.3376C239.056 41.2757 238.178 39.6739 236.627 38.5321C235.077 37.3904 232.972 36.8195 230.314 36.8195C228.507 36.8195 226.982 37.0751 225.738 37.5864C224.494 38.0805 223.54 38.7707 222.875 39.6568C222.228 40.5429 221.904 41.5483 221.904 42.673C221.87 43.6103 222.066 44.4282 222.492 45.1269C222.935 45.8256 223.54 46.4305 224.307 46.9417C225.074 47.4359 225.96 47.8704 226.965 48.2453C227.971 48.6032 229.044 48.9099 230.186 49.1655L234.889 50.2902C237.173 50.8015 239.269 51.4831 241.177 52.3351C243.086 53.1872 244.739 54.2352 246.136 55.4791C247.533 56.7231 248.615 58.1886 249.382 59.8756C250.166 61.5627 250.567 63.4968 250.584 65.678C250.567 68.8817 249.749 71.6593 248.13 74.0109C246.528 76.3455 244.21 78.1603 241.177 79.4554C238.161 80.7335 234.523 81.3725 230.263 81.3725C226.037 81.3725 222.356 80.725 219.22 79.4299C216.102 78.1348 213.665 76.2177 211.91 73.6786C210.172 71.1225 209.26 67.9615 209.175 64.1955H219.885C220.004 65.9507 220.507 67.4162 221.393 68.592C222.296 69.7508 223.497 70.6283 224.997 71.2248C226.514 71.8042 228.226 72.0938 230.135 72.0938C232.009 72.0938 233.637 71.8212 235.017 71.2759C236.414 70.7306 237.496 69.9723 238.263 69.001C239.03 68.0296 239.413 66.9135 239.413 65.6525C239.413 64.4766 239.064 63.4883 238.365 62.6874C237.684 61.8864 236.678 61.2048 235.349 60.6425C234.037 60.0801 232.427 59.5689 230.518 59.1088L224.818 57.6774C220.405 56.6038 216.92 54.9253 214.364 52.6419C211.808 50.3584 210.538 47.2825 210.555 43.4143C210.538 40.2447 211.381 37.4756 213.086 35.1069C214.807 32.7383 217.167 30.8894 220.166 29.5602C223.165 28.231 226.573 27.5664 230.39 27.5664C234.276 27.5664 237.667 28.231 240.564 29.5602C243.478 30.8894 245.744 32.7383 247.363 35.1069C248.982 37.4756 249.817 40.2192 249.868 43.3376H239.26Z" fill="black"/>
<path d="M166.788 80.6312V28.2821H202.062V37.4074H177.856V49.8812H200.247V59.0066H177.856V71.5059H202.165V80.6312H166.788Z" fill="black"/>
<path d="M116.714 37.4074V28.2821H159.708V37.4074H143.681V80.6312H132.741V37.4074H116.714Z" fill="black"/>
<path d="M463.304 80.6312V28.2821H474.372V51.3638H475.062L493.901 28.2821H507.167L487.74 51.7216L507.397 80.6312H494.156L479.817 59.1088L474.372 65.7547V80.6312H463.304Z" fill="#20680E"/>
<path d="M454.16 28.2821V80.6312H444.6L421.825 47.683H421.441V80.6312H410.373V28.2821H420.087L442.683 61.2048H443.143V28.2821H454.16Z" fill="#20680E"/>
<path d="M365.552 80.6312H353.692L371.763 28.2821H386.026L404.073 80.6312H392.212L379.099 40.2447H378.69L365.552 80.6312ZM364.811 60.0546H392.826V68.6942H364.811V60.0546Z" fill="#20680E"/>
<path d="M308.941 80.6312V28.2821H329.901C333.752 28.2821 336.964 28.853 339.537 29.9947C342.11 31.1364 344.044 32.7212 345.34 34.7491C346.635 36.7599 347.282 39.0774 347.282 41.7017C347.282 43.7466 346.873 45.5444 346.055 47.0951C345.237 48.6287 344.113 49.8898 342.681 50.8781C341.267 51.8494 339.648 52.5396 337.825 52.9486V53.4598C339.818 53.545 341.684 54.1073 343.423 55.1468C345.178 56.1863 346.601 57.6433 347.691 59.5178C348.782 61.3752 349.327 63.5905 349.327 66.1637C349.327 68.9413 348.637 71.4207 347.257 73.6019C345.893 75.7661 343.874 77.4787 341.199 78.7397C338.523 80.0007 335.226 80.6312 331.307 80.6312H308.941ZM320.009 71.5826H329.032C332.116 71.5826 334.365 70.9947 335.78 69.8189C337.194 68.626 337.901 67.0413 337.901 65.0645C337.901 63.6161 337.552 62.338 336.853 61.2304C336.155 60.1227 335.158 59.2536 333.863 58.6231C332.585 57.9926 331.059 57.6774 329.287 57.6774H320.009V71.5826ZM320.009 50.188H328.214C329.73 50.188 331.076 49.9238 332.252 49.3956C333.445 48.8503 334.382 48.0834 335.064 47.0951C335.763 46.1067 336.112 44.9224 336.112 43.5421C336.112 41.6506 335.439 40.1254 334.093 38.9667C332.764 37.8079 330.872 37.2285 328.418 37.2285H320.009V50.188Z" fill="#20680E"/>
<path fill-rule="evenodd" clip-rule="evenodd" d="M256.035 39.1212C255.088 39.1212 254.321 38.3539 254.321 37.4074V28.2821C254.321 27.3356 255.088 26.5683 256.035 26.5683H299.028C299.975 26.5683 300.742 27.3356 300.742 28.2821V37.4074C300.742 38.3539 299.975 39.1212 299.028 39.1212H284.715V80.6312C284.715 81.5778 283.948 82.3451 283.002 82.3451H272.061C271.115 82.3451 270.348 81.5778 270.348 80.6312V39.1212H256.035ZM272.061 37.4074V80.6312H283.002V37.4074H299.028V28.2821H256.035V37.4074H272.061Z" fill="black"/>
<path fill-rule="evenodd" clip-rule="evenodd" d="M239.26 45.0514C238.379 45.0514 237.642 44.3835 237.555 43.5067C237.394 41.8866 236.739 40.7424 235.611 39.9122C234.448 39.056 232.743 38.5333 230.314 38.5333C228.659 38.5333 227.369 38.769 226.39 39.1715L226.371 39.1791C225.364 39.5792 224.692 40.0946 224.253 40.6766C223.83 41.2593 223.618 41.906 223.618 42.673C223.618 42.6938 223.618 42.7145 223.617 42.7353C223.593 43.38 223.726 43.8526 223.948 44.2223C224.246 44.6889 224.667 45.1205 225.247 45.5086C225.889 45.9208 226.653 46.2991 227.552 46.6351C228.483 46.9657 229.485 47.2523 230.56 47.4931L230.585 47.4987L235.264 48.6178C235.268 48.6187 235.272 48.6196 235.276 48.6205C237.653 49.1535 239.855 49.868 241.876 50.7702C243.927 51.6857 245.732 52.8252 247.276 54.1991C248.848 55.5986 250.073 57.2556 250.939 59.1593C251.841 61.1021 252.279 63.2827 252.297 65.6646L252.297 65.6871C252.279 69.1911 251.379 72.3139 249.541 74.9827C247.727 77.6264 245.132 79.6306 241.85 81.0316L241.846 81.0334C238.565 82.4237 234.687 83.0863 230.263 83.0863C225.865 83.0863 221.953 82.4129 218.566 81.0139L218.563 81.0126C215.17 79.6036 212.46 77.4883 210.5 74.6532L210.493 74.6423C208.531 71.7584 207.552 68.2579 207.461 64.2342C207.451 63.7731 207.627 63.3272 207.949 62.9974C208.272 62.6676 208.713 62.4817 209.175 62.4817H219.885C220.786 62.4817 221.534 63.1799 221.595 64.0793C221.695 65.5619 222.108 66.6885 222.753 67.5494C223.448 68.4369 224.385 69.135 225.62 69.628C226.908 70.1182 228.404 70.38 230.135 70.38C231.848 70.38 233.253 70.1302 234.387 69.682L234.394 69.6793C235.567 69.2214 236.376 68.625 236.918 67.939C237.441 67.2763 237.7 66.536 237.7 65.6525C237.7 64.8435 237.471 64.2688 237.074 63.814L237.06 63.7981C236.604 63.2619 235.851 62.7158 234.681 62.2208L234.674 62.2177C233.476 61.7044 231.964 61.2202 230.117 60.7749L230.101 60.771L224.413 59.3426C224.411 59.3421 224.409 59.3416 224.407 59.3411C219.808 58.2217 216.044 56.4409 213.222 53.9199C210.252 51.2672 208.824 47.6998 208.841 43.4146C208.824 39.9193 209.762 36.7923 211.694 34.1061L211.699 34.0995C213.618 31.4583 216.23 29.4298 219.472 27.9933C222.722 26.5527 226.373 25.8526 230.39 25.8526C234.468 25.8526 238.111 26.55 241.275 28.0012C241.276 28.0016 241.277 28.0021 241.278 28.0025L240.565 29.5577L241.275 28.0012C241.275 28.0011 241.276 28.0012 241.275 28.0012C244.439 29.4444 246.963 31.4844 248.778 34.1399C250.603 36.8097 251.525 39.8861 251.582 43.3095C251.589 43.7689 251.412 44.212 251.09 44.5395C250.768 44.867 250.327 45.0514 249.868 45.0514H239.26ZM210.555 43.4143C210.538 47.2825 211.807 50.3584 214.364 52.6418C216.92 54.9253 220.405 56.6038 224.818 57.6774L230.518 59.1088C232.427 59.5689 234.037 60.0801 235.349 60.6425C236.678 61.2048 237.684 61.8864 238.365 62.6874C239.064 63.4883 239.413 64.4766 239.413 65.6525C239.413 66.9135 239.03 68.0296 238.263 69.001C237.496 69.9723 236.414 70.7306 235.017 71.2759C233.637 71.8212 232.009 72.0938 230.135 72.0938C228.226 72.0938 226.514 71.8042 224.997 71.2248C223.497 70.6283 222.296 69.7507 221.393 68.592C220.507 67.4162 220.004 65.9507 219.885 64.1955H209.175C209.188 64.7814 209.221 65.3526 209.274 65.9093C209.564 68.9304 210.442 71.5202 211.91 73.6786C213.665 76.2177 216.102 78.1348 219.22 79.4299C222.356 80.725 226.037 81.3725 230.263 81.3725C234.523 81.3725 238.161 80.7335 241.177 79.4554C244.21 78.1604 246.528 76.3455 248.13 74.0109C249.749 71.6593 250.567 68.8817 250.584 65.678C250.567 63.4968 250.166 61.5627 249.382 59.8756C248.615 58.1886 247.533 56.7231 246.136 55.4791C244.739 54.2352 243.086 53.1872 241.177 52.3351C239.269 51.4831 237.173 50.8014 234.889 50.2902L230.186 49.1655C229.044 48.9099 227.971 48.6032 226.965 48.2453C225.96 47.8704 225.074 47.4359 224.307 46.9417C223.54 46.4305 222.935 45.8256 222.492 45.1269C222.066 44.4282 221.87 43.6103 221.904 42.673C221.904 41.5483 222.228 40.5429 222.875 39.6568C223.54 38.7707 224.494 38.0805 225.738 37.5864C226.982 37.0751 228.507 36.8195 230.314 36.8195C232.972 36.8195 235.077 37.3904 236.627 38.5321C238.178 39.6739 239.056 41.2757 239.26 43.3376H249.868C249.858 42.7532 249.821 42.1819 249.757 41.6238C249.476 39.204 248.678 37.0317 247.363 35.1069C245.744 32.7383 243.478 30.8894 240.564 29.5602C237.667 28.231 234.276 27.5664 230.39 27.5664C226.573 27.5664 223.165 28.231 220.166 29.5602C217.167 30.8894 214.807 32.7383 213.086 35.1069C211.381 37.4756 210.538 40.2447 210.555 43.4143Z" fill="black"/>
<path fill-rule="evenodd" clip-rule="evenodd" d="M166.788 82.3451C165.842 82.3451 165.074 81.5778 165.074 80.6312V28.2821C165.074 27.3356 165.842 26.5683 166.788 26.5683H202.062C203.009 26.5683 203.776 27.3356 203.776 28.2821V37.4074C203.776 38.3539 203.009 39.1212 202.062 39.1212H179.57V48.1674H200.247C201.194 48.1674 201.961 48.9347 201.961 49.8812V59.0066C201.961 59.9531 201.194 60.7204 200.247 60.7204H179.57V69.7921H202.165C203.111 69.7921 203.878 70.5594 203.878 71.5059V80.6312C203.878 81.5778 203.111 82.3451 202.165 82.3451H166.788ZM177.856 71.5059V59.0066H200.247V49.8812H177.856V37.4074H202.062V28.2821H166.788V80.6312H202.165V71.5059H177.856Z" fill="black"/>
<path fill-rule="evenodd" clip-rule="evenodd" d="M116.714 39.1212C115.767 39.1212 115 38.3539 115 37.4074V28.2821C115 27.3356 115.767 26.5683 116.714 26.5683H159.708C160.654 26.5683 161.421 27.3356 161.421 28.2821V37.4074C161.421 38.3539 160.654 39.1212 159.708 39.1212H145.395V80.6312C145.395 81.5778 144.627 82.3451 143.681 82.3451H132.741C131.794 82.3451 131.027 81.5778 131.027 80.6312V39.1212H116.714ZM132.741 37.4074V80.6312H143.681V37.4074H159.708V28.2821H116.714V37.4074H132.741Z" fill="black"/>
<path fill-rule="evenodd" clip-rule="evenodd" d="M463.304 82.3451C462.358 82.3451 461.59 81.5778 461.59 80.6312V28.2821C461.59 27.3356 462.358 26.5683 463.304 26.5683H474.372C475.319 26.5683 476.086 27.3356 476.086 28.2821V47.3991L492.573 27.1985C492.898 26.7997 493.386 26.5683 493.901 26.5683H507.167C507.831 26.5683 508.435 26.952 508.718 27.5531C509 28.1542 508.91 28.8644 508.486 29.3757L489.882 51.8234L508.814 79.6676C509.171 80.1926 509.209 80.8719 508.912 81.433C508.615 81.9941 508.032 82.3451 507.397 82.3451H494.156C493.583 82.3451 493.048 82.0585 492.73 81.5815L479.675 61.9865L476.086 66.3671V80.6312C476.086 81.5778 475.319 82.3451 474.372 82.3451H463.304ZM474.372 65.7547L479.817 59.1088L494.156 80.6312H507.397L487.74 51.7216L507.167 28.2821H493.901L475.062 51.3638H474.372V28.2821H463.304V80.6312H474.372V65.7547Z" fill="#20680E"/>
<path fill-rule="evenodd" clip-rule="evenodd" d="M454.16 26.5683C455.106 26.5683 455.873 27.3356 455.873 28.2821V80.6312C455.873 81.5778 455.106 82.3451 454.16 82.3451H444.6C444.037 82.3451 443.51 82.0687 443.19 81.6057L423.155 52.6217V80.6312C423.155 81.5778 422.388 82.3451 421.441 82.3451H410.373C409.427 82.3451 408.66 81.5778 408.66 80.6312V28.2821C408.66 27.3356 409.427 26.5683 410.373 26.5683H420.087C420.651 26.5683 421.18 26.8466 421.5 27.3123L441.429 56.3495V28.2821C441.429 27.3356 442.196 26.5683 443.143 26.5683H454.16ZM443.143 61.2048H442.683L420.087 28.2821H410.373V80.6312H421.441V47.683H421.825L444.6 80.6312H454.16V28.2821H443.143V61.2048Z" fill="#20680E"/>
<path fill-rule="evenodd" clip-rule="evenodd" d="M367.182 81.1614C366.952 81.8673 366.294 82.3451 365.552 82.3451H353.692C353.138 82.3451 352.618 82.0772 352.296 81.6259C351.974 81.1747 351.891 80.5958 352.072 80.072L370.143 27.7229C370.382 27.0319 371.032 26.5683 371.763 26.5683H386.026C386.758 26.5683 387.408 27.0323 387.647 27.7236L405.693 80.0727C405.873 80.5964 405.79 81.1752 405.468 81.6262C405.146 82.0773 404.627 82.3451 404.073 82.3451H392.212C391.47 82.3451 390.812 81.8668 390.582 81.1605L387.091 70.408H370.68L367.182 81.1614ZM365.552 80.6312H353.692L371.763 28.2821H386.026L404.073 80.6312H392.212L388.337 68.6942H369.435L365.552 80.6312ZM372.246 60.0546H385.531L379.099 40.2447H378.69L372.246 60.0546ZM374.606 58.3408H383.173L378.894 45.1603L374.606 58.3408Z" fill="#20680E"/>
<path fill-rule="evenodd" clip-rule="evenodd" d="M308.941 82.3451C307.994 82.3451 307.227 81.5778 307.227 80.6312V28.2821C307.227 27.3356 307.994 26.5683 308.941 26.5683H329.901C333.908 26.5683 337.375 27.1606 340.232 28.4282C343.058 29.6822 345.277 31.4682 346.782 33.8237C348.271 36.1373 348.996 38.7826 348.996 41.7017C348.996 43.9788 348.539 46.0594 347.571 47.8947L347.568 47.9016C346.621 49.6768 345.311 51.1448 343.655 52.2884L343.651 52.2909C343.355 52.4946 343.051 52.6869 342.74 52.868C343.27 53.1011 343.79 53.3699 344.299 53.6742C346.319 54.8715 347.944 56.5449 349.171 58.6532C350.442 60.8201 351.041 63.3464 351.041 66.1637C351.041 69.2394 350.272 72.0409 348.706 74.5169C347.143 76.9979 344.853 78.9122 341.929 80.29C338.964 81.6877 335.4 82.3451 331.307 82.3451H308.941ZM347.257 73.6019C348.637 71.4207 349.327 68.9413 349.327 66.1637C349.327 63.5905 348.782 61.3752 347.691 59.5178C346.601 57.6433 345.178 56.1863 343.423 55.1468C342.51 54.6009 341.561 54.1866 340.578 53.9038C339.725 53.6587 338.846 53.5125 337.941 53.4653C337.902 53.4633 337.863 53.4615 337.825 53.4598V52.9486C337.832 52.9469 337.839 52.9453 337.847 52.9436C338.77 52.7351 339.641 52.4543 340.46 52.1013C341.249 51.7608 341.99 51.3531 342.681 50.8781C344.113 49.8898 345.237 48.6288 346.055 47.0951C346.873 45.5444 347.282 43.7466 347.282 41.7017C347.282 39.0774 346.635 36.7599 345.34 34.7491C344.044 32.7212 342.11 31.1364 339.537 29.9947C336.964 28.853 333.752 28.2821 329.901 28.2821H308.941V80.6312H331.307C335.226 80.6312 338.523 80.0007 341.199 78.7397C343.874 77.4787 345.893 75.7661 347.257 73.6019ZM333.112 60.164L333.104 60.1601C332.113 59.6708 330.859 59.3912 329.287 59.3912H321.722V69.8688H329.032C331.96 69.8688 333.721 69.2992 334.68 68.5048C335.676 67.6626 336.188 66.5731 336.188 65.0645C336.188 63.9042 335.912 62.9501 335.404 62.1447C334.892 61.3335 334.15 60.6693 333.112 60.164ZM335.78 69.8189C334.365 70.9947 332.116 71.5826 329.032 71.5826H320.009V57.6774H329.287C331.059 57.6774 332.585 57.9926 333.863 58.6231C335.158 59.2537 336.155 60.1227 336.853 61.2304C337.552 62.338 337.901 63.6161 337.901 65.0645C337.901 67.0413 337.194 68.6261 335.78 69.8189ZM333.653 46.1221L333.665 46.1058C334.131 45.4462 334.398 44.6197 334.398 43.5421C334.398 42.1128 333.916 41.0755 332.975 40.2656L332.966 40.2585C332.053 39.462 330.62 38.9423 328.418 38.9423H321.722V48.4742H328.214C329.528 48.4742 330.626 48.2462 331.545 47.8346C332.481 47.4059 333.164 46.8313 333.653 46.1221ZM332.252 49.3956C331.076 49.9238 329.73 50.188 328.214 50.188H320.009V37.2285H328.418C330.872 37.2285 332.764 37.8079 334.093 38.9667C335.439 40.1254 336.112 41.6506 336.112 43.5421C336.112 44.9224 335.763 46.1067 335.064 47.0951C334.382 48.0834 333.445 48.8503 332.252 49.3956Z" fill="#20680E"/>
</g>
<defs>
<clipPath id="clip0_1_12">
<rect width="509" height="103" fill="white"/>
</clipPath>
</defs>
</svg>
