<?xml version="1.0" encoding="utf-8"?>
<!-- Generator: Adobe Illustrator 23.0.1, SVG Export Plug-In . SVG Version: 6.00 Build 0)  -->
<svg version="1.1" id="Ebene_1" xmlns="http://www.w3.org/2000/svg" xmlns:xlink="http://www.w3.org/1999/xlink" x="0px" y="0px"
	 viewBox="0 0 123.7 23.1" style="enable-background:new 0 0 123.7 23.1;" xml:space="preserve">
<style type="text/css">
	.st0{fill:#009A61;}
	.st1{fill:#083650;}
	.st2{fill:#053752;}
	.st3{fill:#009A62;}
</style>
<g>
	<path class="st0" d="M82.3,8.5C83.6,7.9,85,7.9,86.4,8c2.6,0.2,4.3,1.9,4.3,4.6c0.1,3.1,0,6.2,0,9.3c0,0.6-0.2,0.9-0.9,0.9
		C87,23,87,23,87,20.2c0-2.3,0-4.4,0-6.7c0-1-0.3-1.9-1.2-2.4c-1.1-0.5-2.2-0.4-3.3,0.2c-0.5,0.2-0.3,0.8-0.3,1.2c0,3-0.1,6.1,0,9
		c0,1-0.2,1.5-1.3,1.4c-2.3-0.1-2.4,0-2.4-2.4c0-5.9,0-11.8,0-17.7c0-1,0.3-1.2,1.2-1.2c2.5,0.1,2.4,0,2.5,2.5c0,1.4,0,2.8,0,4.2
		C82.1,8.2,82.2,8.2,82.3,8.5z"/>
	<path class="st1" d="M41.4,8.1c-1.4,3.9-2.7,7.5-4,11.3c0,0.1-0.1,0.2-0.1,0.2c-1.2,3.2-1.2,3.2-4.5,3.2c-0.7,0-1-0.2-1.2-0.9
		c-1.6-4.3-3-8.6-4.7-12.8c-0.3-0.9,0-1,0.8-1c3,0,3-0.1,3.9,2.8c0.9,2.7,1.6,5.5,2.5,8.4c1-3.3,2-6.5,2.9-9.8
		c0.3-1.1,0.7-1.6,1.9-1.4C39.4,8.2,40.3,8.1,41.4,8.1z"/>
	<path class="st0" d="M71.5,23c-0.9-0.1-1.8-0.1-2.7-0.3c-2.2-0.5-2.2-0.5-1.2-2.6c0.3-0.7,0.5-0.9,1.2-0.5c1,0.5,2.2,0.7,3.3,0.5
		c0.8-0.2,1.3-0.5,1.5-1.3s-0.3-1.3-0.9-1.6c-1.1-0.5-2.3-0.9-3.3-1.6c-1.9-1-2.6-2.8-2-4.8c0.4-1.4,1.4-2.3,2.8-2.7
		c2-0.6,4-0.4,6.1,0.3c0.6,0.2,1,0.5,0.5,1.1c-0.5,0.5-0.1,1.9-1.5,1.4c-0.9-0.3-1.8-0.6-2.8-0.5c-0.7,0.2-1.3,0.5-1.5,1.2
		c-0.2,0.9,0.3,1.4,0.9,1.7c1.1,0.5,2.2,0.9,3.3,1.4c1.3,0.6,2.2,1.7,2.3,3.3c0.1,2.6-1.5,4.5-4.3,4.7C72.6,23,71.9,23,71.5,23z"/>
	<path class="st0" d="M49.2,23c-4.4,0-7.1-3.1-6.9-7.9C42.4,9.7,46,6.8,50.9,8c0.5,0.2,1.6,0.3,1.5,0.9c0,0.8-0.5,1.6-0.9,2.3
		c-0.2,0.3-0.5,0-0.7-0.1c-2.6-0.8-4.5,0.5-4.7,3.3c-0.1,1-0.2,2.1,0.2,3.1c0.7,2.2,2.3,3,4.4,2.3c0.7-0.2,0.9-0.2,1.2,0.5
		c0.9,2,0.6,2.3-1.6,2.6C49.9,23,49.4,23,49.2,23z"/>
	<path class="st2" d="M115.5,11.2c-0.6-1-1.1-2-1.4-3.1c3.1,0,6.2,0,9.6,0c-0.7,1-1.3,1.9-1.9,2.8c-0.3,0.5-0.8,0.3-1.2,0.3
		C118.8,11.2,117.1,11.2,115.5,11.2z"/>
	<path class="st0" d="M102.7,16.8c1.2,0,2.6,0.1,3.8,0.1c-0.7,1.8-1.5,3.5-2.1,5.3c-0.2,0.5-0.5,0.5-1,0.5c-1.1,0-2.2,0-3.5,0
		C100.9,20.7,101.8,18.7,102.7,16.8z"/>
	<path class="st2" d="M117.8,16.6c-0.5-0.9-1.2-1.9-1.3-3c1.1,0,2.2,0,3.5,0C119.2,14.6,118.6,15.6,117.8,16.6z"/>
	<path class="st1" d="M25.6,20.8c-0.1-3,0-6.1,0-9c0-2.6,0-5.1,0-7.6c0-2.9,0-2.9-2.9-2.8c-0.7,0-0.9,0.2-0.9,0.9
		c0.1,1.6,0,3.3,0,4.8c0,0.9-0.2,1-1.1,0.9c-4.7-0.5-7.8,2.2-7.9,6.8c0,1.1,0,2.2,0.3,3.3c0.6,2.6,2.6,4.4,5.1,4.7
		c2,0.3,4,0.2,6-0.4C25.3,22.3,25.7,21.9,25.6,20.8z M20.7,20.1c-1.9,0.2-3.3-0.6-3.8-2.6c-0.5-1.5-0.5-3,0.1-4.5
		c0.4-1.1,1.1-1.9,2.3-2.2c2-0.5,2.6,0,2.6,1.9c0,0.9,0,1.8,0,2.6c0,1.2-0.1,2.3,0,3.4C21.9,19.8,21.5,20.1,20.7,20.1z"/>
	<path class="st1" d="M12.2,17C12.1,17,12.1,17,12.2,17c0-1.6,0.1-3-0.1-4.6c-0.2-2.6-1.5-4-4-4.4C5.9,7.5,3.8,7.9,1.8,8.5
		C1.3,8.6,0.5,8.7,1.2,9.4C1.6,10,1,11.4,2.6,11c0.9-0.2,1.8-0.4,2.7-0.5c0.9-0.2,1.8,0,2.6,0.4c0.8,0.5,0.9,1.2,0.9,2
		s-0.9,0.5-1.3,0.5c-1.6,0.2-3,0.5-4.4,1c-2.1,0.8-3,2.2-3,4.4c0.1,2,1.2,3.5,3.3,4c2.7,0.7,5.4,0.5,8-0.3c0.5-0.2,0.9-0.5,0.8-1.2
		C12.1,19.8,12.2,18.4,12.2,17z M5.8,20.5c-1.5-0.2-2.3-0.9-2.3-2c-0.1-1.2,0.5-1.9,2-2.3C5.8,16.1,6,16,6.2,16
		c2.5-0.5,2.5-0.5,2.5,2.1C8.7,20.5,8.3,20.8,5.8,20.5z"/>
	<path class="st3" d="M65.5,16.8L65.5,16.8c0-1.5,0-3,0-4.4c-0.1-2.3-1.3-3.8-3.4-4.3c-2.4-0.5-4.7-0.2-7.1,0.5
		c-0.6,0.2-0.9,0.5-0.5,1c0.4,0.5,0,1.8,1.3,1.5c1.2-0.3,2.3-0.6,3.6-0.6c0.9,0,1.8,0.2,2.3,1c0.8,1.1,0.4,1.9-0.9,2
		c-1.5,0.1-2.9,0.3-4.2,0.8c-2.3,0.8-3.3,2.2-3.1,4.4c0.1,2,1.3,3.5,3.5,4c2.6,0.6,5.1,0.5,7.6-0.3c0.8-0.2,1-0.7,1-1.5
		C65.4,19.6,65.5,18.2,65.5,16.8z M62.1,18c0,2.3-0.5,2.8-3,2.4c-1.5-0.2-2.3-0.9-2.3-2.1c-0.1-1.2,0.5-1.9,2-2.3
		c0.2-0.1,0.5-0.2,0.8-0.2C62.1,15.6,62.1,14.9,62.1,18z"/>
	<path class="st0" d="M116.5,13.5c-0.3-0.8-1.8-4.4-2.4-5.4c-1.2-2.6-2.4-5.3-3.7-8.1c-1.2,2.6-2.3,5.1-3.4,7.5
		c-0.1,0.2-0.1,0.3-0.2,0.5c5,0.2,4.8,3.3,5,3.3c0.3,0.8,3.7,8.9,4.5,10.7c0.2,0.4,0.2,0.9,0.9,0.8c1.2,0,2.4,0,3.7,0
		C119.7,20.5,117.1,14.4,116.5,13.5z"/>
	<path class="st2" d="M108.8,11.4c0.9-0.4,1.9-0.2,2.9-0.1l0,0c-0.5-1.5-1.3-3.2-1.3-3.2c-0.9,0-1.4,0-3.1-0.1
		c-0.2,0-0.3-0.1-0.5-0.1c-3.2,0-6.4,0-9.9,0c0.6,0.9,1,1.4,1.4,1.9c0.5,0.9,1.2,1.3,2.4,1.3C102.2,11.2,108.8,11.5,108.8,11.4z"/>
	<path class="st2" d="M112.5,13.5L112.5,13.5c-1.5,0-3-0.1-4.5-0.1c0.1-0.2,0.1-0.2,0.2-0.4h-0.1c-1.3-0.1-2.6-0.3-4,0.3h-3.4
		c0.6,1.4,1.7,2.1,2,3.3c0,0,0,0.1,0.1,0.1c1.1,0,4.7-0.2,5.2-0.2c1.9,0,3.9-0.1,5.9-0.1C113.6,15.5,113.1,14.5,112.5,13.5z"/>
	<path class="st0" d="M108,13.5c0.2-0.7,0.5-1.4,0.8-2.1l0,0l0,0c-1.2,0-2.4,0-3.7,0c-0.3,0.7-0.7,1.4-1,2.1
		C105.5,13.5,106.8,13.5,108,13.5L108,13.5L108,13.5z"/>
</g>
</svg>
