<?xml version="1.0" encoding="utf-8"?>
<!-- Generator: Adobe Illustrator 23.0.1, SVG Export Plug-In . SVG Version: 6.00 Build 0)  -->
<svg version="1.1" id="Layer_1" xmlns="http://www.w3.org/2000/svg" xmlns:xlink="http://www.w3.org/1999/xlink" x="0px" y="0px"
	 viewBox="0 0 60.7 36.6" style="enable-background:new 0 0 60.7 36.6;" xml:space="preserve">
<style type="text/css">
	.st0{fill:#231F20;}
</style>
<path class="st0" d="M35.5,13.4h-1.4V0h1.4V13.4z M38.8,13.4h4.4V0h-4.4V13.4z M52.5,0v13.4h1.9V0H52.5z M23.5,13.4h1.7V0h-1.7V13.4
	z M15.3,13.4h4.1V0h-4.1V13.4z M5.8,13.4h2.6V0H5.8C5.8,0,5.8,13.4,5.8,13.4z M58.4,0v36.6h2.3V0H58.4z M0,36.6h2.3V0H0V36.6z
	 M5.8,36.4v-6.5h2c0.8,0,1.3,0.2,1.7,0.4c0.3,0.3,0.6,0.7,0.6,1.2c0,0.3-0.1,0.6-0.3,0.9c-0.2,0.3-0.4,0.4-0.8,0.5
	c0.3,0.1,0.7,0.3,1,0.5c0.3,0.3,0.3,0.6,0.3,1.1c0,0.6-0.3,1.1-0.7,1.4c-0.4,0.3-1.1,0.4-2,0.4C7.7,36.4,5.8,36.4,5.8,36.4z
	 M7.2,32.4h0.5c0.3,0,0.5-0.1,0.7-0.2c0.2-0.2,0.3-0.3,0.3-0.5c0-0.3-0.1-0.4-0.3-0.5C8.3,31.1,8,31,7.7,31H7.2
	C7.2,31,7.2,32.4,7.2,32.4z M7.2,35.1h0.6c0.3,0,0.5-0.1,0.7-0.3c0.2-0.2,0.3-0.3,0.3-0.6c0-0.3-0.1-0.4-0.3-0.6s-0.4-0.2-0.7-0.2
	H7.2V35.1z M10.7,36.4l3.3-6.7h0.1l3.3,6.7h-1.6l-0.4-1h-2.6l-0.4,1C12.3,36.4,10.7,36.4,10.7,36.4z M13.2,34.2h1.7l-0.9-2
	L13.2,34.2z M18.4,36.4v-6.7h0.2l4.1,3.8v-3.6h1.4v6.8h-0.2l-4.1-3.8v3.5H18.4z M30.6,31.9c-0.3-0.3-0.5-0.5-0.9-0.6
	c-0.3-0.2-0.6-0.2-0.9-0.2c-0.5,0-1,0.2-1.3,0.5c-0.3,0.3-0.5,0.9-0.5,1.5c0,0.6,0.2,1.1,0.5,1.4c0.3,0.3,0.8,0.5,1.3,0.5
	c0.3,0,0.6-0.1,1-0.2c0.3-0.2,0.6-0.3,1-0.6L30.7,36c-0.3,0.2-0.6,0.3-0.9,0.4c-0.3,0.1-0.7,0.2-1.1,0.2s-0.8-0.1-1.1-0.2
	c-0.3-0.1-0.7-0.3-1-0.5c-0.4-0.3-0.7-0.7-1-1.2c-0.3-0.4-0.3-1-0.3-1.6c0-0.4,0.1-1,0.3-1.3c0.2-0.4,0.4-0.8,0.7-1.1
	c0.3-0.3,0.7-0.5,1.1-0.7c0.4-0.2,0.9-0.3,1.3-0.3c0.3,0,0.7,0.1,1.1,0.2c0.3,0.1,0.6,0.3,1,0.4L30.6,31.9z M31.4,36.4l3.3-6.7h0.1
	l3.3,6.7h-1.6l-0.4-1h-2.6l-0.4,1C33,36.4,31.4,36.4,31.4,36.4z M33.8,34.2h1.7l-0.9-2C34.6,32.2,33.8,34.2,33.8,34.2z M34.1,29.1
	l0.9-1.6h1l-1.3,1.6H34.1z M39,36.4v-6.5h1.7c0.5,0,1,0,1.2,0.1c0.3,0.1,0.5,0.2,0.8,0.3c0.3,0.2,0.4,0.3,0.5,0.6
	c0.2,0.3,0.2,0.5,0.2,0.8c0,0.4-0.1,0.8-0.3,1.1c-0.2,0.3-0.5,0.5-0.9,0.7l1.9,2.8h-1.8l-1.8-2.6h-0.2v2.6L39,36.4L39,36.4L39,36.4z
	 M40.8,31h-0.3v1.8h0.3c0.3,0,0.7-0.1,0.9-0.3c0.2-0.2,0.3-0.3,0.3-0.7c0-0.3-0.1-0.5-0.3-0.7C41.6,31.1,41.2,31,40.8,31z
	 M45.3,36.4v-6.5h1.5v6.5H45.3z M48.2,33.1c0-0.4,0.1-1,0.3-1.3c0.2-0.4,0.4-0.8,0.7-1.1c0.3-0.3,0.6-0.5,1.1-0.7
	c0.4-0.2,0.8-0.3,1.2-0.3s0.9,0.1,1.2,0.3c0.4,0.2,0.8,0.4,1.1,0.7c0.3,0.3,0.5,0.7,0.7,1.1c0.2,0.4,0.3,0.9,0.3,1.3
	c0,0.5-0.1,0.8-0.2,1.1c-0.1,0.3-0.3,0.7-0.5,1c-0.3,0.4-0.7,0.7-1.1,1c-0.4,0.3-1,0.3-1.5,0.3c-0.4,0-0.9-0.1-1.2-0.3
	c-0.4-0.2-0.8-0.4-1.1-0.7c-0.3-0.3-0.5-0.7-0.7-1.1C48.3,34,48.2,33.5,48.2,33.1z M49.8,33.1c0,0.5,0.2,1.1,0.5,1.4
	c0.3,0.3,0.7,0.5,1.2,0.5c0.5,0,0.9-0.2,1.2-0.5c0.3-0.3,0.5-0.9,0.5-1.4c0-0.5-0.2-1.1-0.5-1.4c-0.3-0.3-0.7-0.5-1.2-0.5
	c-0.4,0-0.9,0.2-1.2,0.5C49.9,32,49.8,32.5,49.8,33.1z M5.5,26.4v-9.2h2.8c1.1,0,1.9,0.2,2.4,0.6c0.5,0.3,0.8,1,0.8,1.8
	c0,0.4-0.1,0.9-0.3,1.2c-0.3,0.3-0.6,0.6-1.1,0.8c0.5,0.1,1,0.3,1.3,0.8c0.3,0.3,0.4,0.9,0.4,1.4c0,0.9-0.3,1.6-1,2
	s-1.6,0.7-2.9,0.7H5.5V26.4z M7.6,20.9h0.7c0.4,0,0.8-0.1,1-0.3c0.3-0.2,0.3-0.4,0.3-0.8S9.5,19.2,9.2,19c-0.3-0.2-0.6-0.3-1.1-0.3
	H7.5L7.6,20.9L7.6,20.9L7.6,20.9z M7.6,24.8h0.9c0.4,0,0.8-0.1,1.1-0.3c0.3-0.2,0.3-0.5,0.3-0.9S9.8,23,9.5,22.7
	c-0.3-0.2-0.6-0.3-1.1-0.3H7.6C7.6,22.5,7.6,24.8,7.6,24.8z M12.9,21.8c0-0.7,0.1-1.3,0.3-1.9c0.3-0.6,0.6-1.1,1.1-1.6
	c0.4-0.4,1-0.8,1.5-1.1c0.5-0.3,1.1-0.3,1.8-0.3c0.6,0,1.2,0.1,1.8,0.3s1.1,0.6,1.5,1.1c0.4,0.4,0.8,1,1,1.6
	c0.3,0.6,0.3,1.2,0.3,1.9c0,0.6-0.1,1.1-0.3,1.6c-0.2,0.5-0.4,1-0.7,1.4c-0.4,0.6-1,1.1-1.7,1.4c-0.6,0.3-1.3,0.5-2,0.5
	c-0.6,0-1.2-0.1-1.8-0.3c-0.5-0.3-1.1-0.6-1.5-1.1c-0.4-0.4-0.8-1-1.1-1.6C13.1,23.2,12.9,22.5,12.9,21.8z M15.2,21.8
	c0,0.8,0.3,1.5,0.7,2s1.1,0.8,1.8,0.8c0.7,0,1.2-0.3,1.8-0.8c0.4-0.5,0.7-1.2,0.7-2c0-0.8-0.3-1.5-0.7-2C19,19.3,18.4,19,17.7,19
	c-0.7,0-1.2,0.3-1.8,0.8C15.4,20.4,15.2,21,15.2,21.8z M23.9,26.4v-9.2h2.2v7.2h3.5v1.9C29.6,26.4,23.9,26.4,23.9,26.4z M30.7,26.4
	v-9.2h5.6v1.9h-3.5v1.7h3v1.9h-3v1.9h3.5v1.9L30.7,26.4L30.7,26.4z M40.2,26.4v-7.2h-2.9v-1.9h8v1.9h-2.9v7.2
	C42.3,26.4,40.2,26.4,40.2,26.4z M45.8,21.8c0-0.7,0.1-1.3,0.3-1.9c0.3-0.6,0.6-1.1,1.1-1.6c0.4-0.4,1-0.8,1.5-1.1
	c0.5-0.3,1.1-0.3,1.8-0.3s1.2,0.1,1.8,0.3s1.1,0.6,1.5,1.1c0.4,0.4,0.8,1,1.1,1.6c0.3,0.6,0.3,1.2,0.3,1.9c0,0.6-0.1,1.1-0.3,1.6
	c-0.2,0.5-0.4,1-0.7,1.4c-0.4,0.6-1,1.1-1.7,1.4c-0.6,0.3-1.3,0.5-2,0.5c-0.6,0-1.2-0.1-1.8-0.3c-0.5-0.3-1.1-0.6-1.5-1.1
	c-0.4-0.4-0.8-1-1.1-1.6C45.9,23.2,45.8,22.5,45.8,21.8z M48,21.8c0,0.8,0.3,1.5,0.7,2c0.4,0.5,1.1,0.8,1.8,0.8
	c0.7,0,1.2-0.3,1.8-0.8c0.4-0.5,0.7-1.2,0.7-2c0-0.8-0.3-1.5-0.7-2c-0.4-0.5-1.1-0.8-1.8-0.8c-0.7,0-1.2,0.3-1.8,0.8
	C48.2,20.3,48,21,48,21.8z"/>
</svg>
