<?xml version="1.0" encoding="utf-8"?>
<!-- Generator: Adobe Illustrator 23.0.1, SVG Export Plug-In . SVG Version: 6.00 Build 0)  -->
<svg version="1.1" id="Layer_1" xmlns="http://www.w3.org/2000/svg" xmlns:xlink="http://www.w3.org/1999/xlink" x="0px" y="0px"
	 viewBox="0 0 62.3 49" style="enable-background:new 0 0 62.3 49;" xml:space="preserve">
<style type="text/css">
	.st0{fill:#43C4A7;}
	.st1{fill:#497391;}
	.st2{fill:#FFFFFF;}
	.st3{fill:#3D3E3C;}
	.st4{fill:#B6B7BA;}
	.st5{fill:#F8F9F7;}
	.st6{fill:#F99400;}
	.st7{fill:#0986D3;}
	.st8{fill:#266BA6;}
	.st9{fill:#2C71AE;}
	.st10{fill:#208ABE;}
</style>
<g id="Page-1">
	<g id="Group-14">
		<g>
			<path id="Layer" d="M3.9,49c-0.5,0-1-0.1-1.5-0.3c-0.5-0.2-0.9-0.5-1.2-0.8c-0.3-0.4-0.6-0.8-0.8-1.3c-0.2-0.5-0.3-1-0.3-1.7
				c0-0.6,0.1-1.2,0.3-1.7s0.5-0.9,0.9-1.3c0.3-0.4,0.8-0.6,1.2-0.8c0.5-0.2,1-0.3,1.5-0.3c0.5,0,1,0.1,1.4,0.2
				c0.4,0.1,0.7,0.4,1,0.6c0.3,0.3,0.5,0.5,0.7,0.8c0.2,0.3,0.3,0.6,0.4,0.9l-1.4,0.4c0-0.2-0.1-0.4-0.2-0.6
				c-0.1-0.2-0.2-0.4-0.4-0.5c-0.2-0.1-0.4-0.3-0.6-0.4c-0.2-0.1-0.5-0.1-0.9-0.1c-0.3,0-0.6,0.1-0.8,0.2c-0.3,0.1-0.5,0.3-0.8,0.5
				c-0.2,0.2-0.4,0.5-0.5,0.8c-0.1,0.3-0.2,0.7-0.2,1.2c0,0.4,0.1,0.8,0.2,1.1c0.1,0.3,0.3,0.6,0.5,0.8s0.5,0.4,0.8,0.5
				c0.3,0.1,0.6,0.2,0.9,0.2c0.3,0,0.6,0,0.9-0.1C5,47.2,5.2,47.1,5.4,47c0.2-0.1,0.3-0.3,0.4-0.5C5.9,46.3,6,46.1,6,45.9l1.4,0.4
				C7.3,46.6,7.2,47,7,47.3c-0.2,0.3-0.4,0.6-0.7,0.8c-0.3,0.3-0.6,0.5-1,0.6C4.9,48.9,4.4,49,3.9,49L3.9,49z"/>
			<path d="M10.8,45.9h-0.8v3H8.6v-7.8h3c0.4,0,0.7,0.1,1,0.2c0.3,0.1,0.6,0.3,0.8,0.5c0.2,0.2,0.4,0.5,0.5,0.8s0.2,0.6,0.2,0.9
				c0,0.5-0.1,1-0.4,1.4c-0.3,0.4-0.7,0.6-1.2,0.8l1.6,3.2h-1.6L10.8,45.9z M11.3,44.6c0.4,0,0.7-0.1,0.9-0.3
				c0.2-0.2,0.3-0.5,0.3-0.8c0-0.3-0.1-0.6-0.3-0.8c-0.2-0.2-0.5-0.3-0.9-0.3h-1.2v2.2L11.3,44.6z"/>
			<path d="M14.4,41.1h1.7l1.7,3.1l1.7-3.1h1.7l-2.7,4.5v3.3H17v-3.3L14.4,41.1z"/>
			<path d="M23.6,48.9h-1.5v-7.8H25c0.4,0,0.7,0.1,1,0.2c0.3,0.1,0.6,0.3,0.8,0.5c0.2,0.2,0.4,0.5,0.5,0.8c0.1,0.3,0.2,0.6,0.2,1
				c0,0.4-0.1,0.7-0.2,1c-0.1,0.3-0.3,0.5-0.5,0.8c-0.2,0.2-0.5,0.4-0.8,0.5c-0.3,0.1-0.7,0.2-1,0.2h-1.3L23.6,48.9z M24.8,44.6
				c0.4,0,0.7-0.1,0.9-0.3c0.2-0.2,0.3-0.5,0.3-0.8c0-0.4-0.1-0.6-0.3-0.8c-0.2-0.2-0.5-0.3-0.9-0.3h-1.2v2.2L24.8,44.6L24.8,44.6z"
				/>
			<path d="M31.8,42.5v6.3h-1.5v-6.3h-2.4v-1.4h6.3v1.4H31.8z"/>
			<path d="M34.6,45c0-0.6,0.1-1.2,0.3-1.7c0.2-0.5,0.5-0.9,0.9-1.3c0.3-0.4,0.8-0.6,1.2-0.8c0.5-0.2,1-0.3,1.5-0.3
				c0.5,0,1,0.1,1.5,0.3c0.5,0.2,0.9,0.5,1.2,0.8c0.3,0.4,0.6,0.8,0.9,1.3c0.2,0.5,0.3,1.1,0.3,1.7c0,0.6-0.1,1.2-0.3,1.7
				c-0.2,0.5-0.5,0.9-0.9,1.3c-0.3,0.4-0.8,0.6-1.2,0.8c-0.5,0.2-1,0.3-1.5,0.3c-0.5,0-1-0.1-1.5-0.3c-0.5-0.2-0.9-0.5-1.2-0.8
				c-0.3-0.4-0.6-0.8-0.9-1.3C34.7,46.2,34.6,45.6,34.6,45z M36.1,45c0,0.4,0.1,0.8,0.2,1.2c0.1,0.3,0.3,0.6,0.5,0.8
				s0.5,0.4,0.8,0.5s0.6,0.2,0.9,0.2s0.6-0.1,0.9-0.2c0.3-0.1,0.5-0.3,0.8-0.5c0.2-0.2,0.4-0.5,0.5-0.8c0.1-0.3,0.2-0.7,0.2-1.2
				s-0.1-0.8-0.2-1.2c-0.1-0.3-0.3-0.6-0.5-0.8s-0.5-0.4-0.8-0.5s-0.6-0.2-0.9-0.2s-0.6,0.1-0.9,0.2c-0.3,0.1-0.5,0.3-0.8,0.5
				c-0.2,0.2-0.4,0.5-0.5,0.8C36.1,44.1,36.1,44.5,36.1,45z"/>
		</g>
		<g>
			<path class="st0" d="M45.1,48.9h-1.5v-7.8h2.8c0.4,0,0.7,0.1,1,0.2c0.3,0.1,0.6,0.3,0.8,0.5c0.2,0.2,0.4,0.5,0.5,0.8
				c0.1,0.3,0.2,0.6,0.2,1c0,0.4-0.1,0.7-0.2,1c-0.1,0.3-0.3,0.5-0.5,0.8c-0.2,0.2-0.5,0.4-0.8,0.5c-0.3,0.1-0.7,0.2-1,0.2h-1.4
				L45.1,48.9z M46.3,44.6c0.4,0,0.7-0.1,0.9-0.3c0.2-0.2,0.3-0.5,0.3-0.8c0-0.4-0.1-0.6-0.3-0.8c-0.2-0.2-0.5-0.3-0.9-0.3h-1.2v2.2
				L46.3,44.6L46.3,44.6z"/>
			<path class="st0" d="M54,47.1h-3.1l-0.6,1.8h-1.6l2.9-7.8h1.7l2.9,7.8h-1.6L54,47.1z M51.4,45.7h2.1l-1-2.9L51.4,45.7z"/>
			<path class="st0" d="M55.6,41.1h1.7l1.7,3.1l1.7-3.1h1.7l-2.7,4.5v3.3h-1.5v-3.3L55.6,41.1z"/>
		</g>
		<g id="Group-13">
			<g id="ETH">
				<path id="Fill-506" class="st1" d="M30.6,30.5c0,3.2-2.5,5.8-5.6,5.8c-3.1,0-5.6-2.6-5.6-5.8c0-3.2,2.5-5.8,5.6-5.8
					S30.6,27.3,30.6,30.5z"/>
				<g id="Group">
					<path id="Fill-507" class="st2" d="M24.8,32.5v-6.4l-2.4,5.1L24.8,32.5z"/>
					<path id="Fill-508" class="st2" d="M25,26.1v6.4l2.4-1.3L25,26.1z"/>
					<path id="Fill-509" class="st2" d="M24.8,34.6v-2l-2.4-1.3L24.8,34.6z"/>
					<path id="Fill-510" class="st2" d="M25,32.6v2l2.4-3.2L25,32.6z"/>
				</g>
			</g>
			<g id="LTC">
				<path id="Fill-491" class="st3" d="M39.5,0c-3.3,0-5.9,2.7-5.9,6s2.7,6,5.9,6c3.3,0,5.9-2.7,5.9-6S42.7,0,39.5,0z"/>
				<path id="Fill-492" class="st2" d="M39.5,0.6c3,0,5.4,2.5,5.4,5.5s-2.4,5.5-5.4,5.5c-3,0-5.4-2.5-5.4-5.5S36.5,0.6,39.5,0.6z"/>
				<path id="Fill-493" class="st4" d="M43.3,3.8c-0.1-0.2-0.3-0.4-0.5-0.6l-6.1,6.2c0.2,0.2,0.4,0.3,0.6,0.5L43.3,3.8z"/>
				<path id="Fill-494" class="st4" d="M42.3,2.7c-0.2-0.2-0.4-0.3-0.7-0.5l-5.9,6c0.1,0.2,0.3,0.5,0.4,0.7L42.3,2.7z"/>
				<path id="Fill-495" class="st4" d="M40.8,1.9c-0.3-0.1-0.6-0.2-0.9-0.2l-4.8,4.9c0,0.3,0.1,0.6,0.2,0.9L40.8,1.9z"/>
				<path id="Fill-496" class="st4" d="M39,1.7c-1,0.1-1.9,0.5-2.6,1.3s-1.1,1.7-1.2,2.7L39,1.7z"/>
				<path id="Fill-497" class="st4" d="M43.7,5.4c0-0.3-0.1-0.6-0.2-0.9l-5.6,5.6c0.3,0.1,0.6,0.2,0.9,0.2L43.7,5.4z"/>
				<path id="Fill-498" class="st4" d="M43.8,6.3l-4,4.1c1-0.1,2-0.5,2.8-1.3C43.3,8.4,43.7,7.4,43.8,6.3z"/>
				<path id="Fill-499" class="st5" d="M39,7.6l0.2-1.9l1.6-1.2V3.5l-1.4,1l0.3-2.1H38l-0.4,3.5l-1.1,0.8v1.1l1-0.7l-0.2,2H39h3.9
					V7.6L39,7.6z"/>
				<path id="Fill-500" class="st3" d="M37.6,6.8l-1,0.8V6.7l1.1-0.8L38,2.5h1.5l-0.3,2.3l1.5-1.1v0.8l-1.6,1.2l-0.3,2.1h4v1.2h-5.5
					L37.6,6.8z M43.1,7.5h-4l0.2-1.7L41,4.6V3.2l-1.4,1l0.3-2h-2l-0.4,3.6l-1.1,0.8V8l1-0.7l-0.2,1.8h6L43.1,7.5z"/>
			</g>
			<g id="Group-12">
				<g id="bitcoin">
					<path id="Oval" class="st6" d="M50.2,17.8c0-3.2-2.5-5.8-5.6-5.8c-3.1,0-5.6,2.6-5.6,5.8s2.5,5.8,5.6,5.8
						C47.6,23.6,50.2,21,50.2,17.8z"/>
					<path id="Shape" class="st2" d="M46.1,17.9c0.6,0.3,0.8,0.8,0.6,1.6c-0.3,1-1.1,1.1-2.2,0.9l-0.2,1l-0.6-0.2l0.2-1
						c-0.2,0-0.3-0.1-0.5-0.1l-0.2,1l-0.6-0.2l0.2-1c-0.1,0-0.3-0.1-0.4-0.1l-0.8-0.2l0.3-0.7l0.4,0.1c0.2,0,0.3-0.1,0.3-0.1
						l0.7-2.9c0-0.1,0-0.3-0.3-0.4l-0.4-0.1l0.2-0.7l0.9,0.2c0.1,0,0.2,0.1,0.4,0.1l0.2-1l0.6,0.2l-0.2,1c0.2,0,0.3,0.1,0.5,0.1
						l0.2-1l0.6,0.2l-0.2,1c0.8,0.3,1.3,0.7,1.2,1.5C46.9,17.6,46.6,17.9,46.1,17.9L46.1,17.9z M44,17.9l-0.3,1.4
						c0.4,0.1,1.7,0.5,1.9-0.3C45.7,18.2,44.4,18,44,17.9z M44.4,16l-0.3,1.3c0.3,0.1,1.4,0.4,1.6-0.3C45.9,16.3,44.8,16.1,44.4,16
						L44.4,16z"/>
				</g>
			</g>
			<g id="DASH-Copy">
				<path id="Fill-501" class="st7" d="M23.2,17.8c0,3.2-2.5,5.7-5.6,5.7s-5.6-2.6-5.6-5.7c0-3.2,2.5-5.7,5.6-5.7
					S23.2,14.6,23.2,17.8z"/>
				<path id="Fill-502" class="st2" d="M21.2,17l-0.8,2.4c-0.2,0.5-0.6,0.8-1.1,0.8h-4.9l0.4-1.2h4.5l0.8-2.4h-4.6l0.4-1.2h4.2
					c0.4,0,0.8,0.2,1,0.5C21.3,16.2,21.4,16.6,21.2,17L21.2,17z"/>
				<path id="Fill-503" class="st2" d="M14.2,17.2l-0.4,1.3h3.3l0.3-1.2v-0.1H14.2z"/>
			</g>
			<g id="ETH_1_">
				<path id="Fill-506_1_" class="st1" d="M30.6,30.5c0,3.2-2.5,5.8-5.6,5.8c-3.1,0-5.6-2.6-5.6-5.8c0-3.2,2.5-5.8,5.6-5.8
					S30.6,27.3,30.6,30.5z"/>
				<g id="Group_1_">
					<path id="Fill-507_1_" class="st2" d="M24.8,32.5v-6.4l-2.4,5.1L24.8,32.5z"/>
					<path id="Fill-508_1_" class="st2" d="M25,26.1v6.4l2.4-1.3L25,26.1z"/>
					<path id="Fill-509_1_" class="st2" d="M24.8,34.6v-2l-2.4-1.3L24.8,34.6z"/>
					<path id="Fill-510_1_" class="st2" d="M25,32.6v2l2.4-3.2L25,32.6z"/>
				</g>
			</g>
			<g id="XRP">
				<path id="Fill-513" class="st8" d="M25,0.1c-3.1,0-5.6,2.6-5.6,5.8s2.5,5.8,5.6,5.8c3.1,0,5.6-2.6,5.6-5.8S28.1,0.1,25,0.1z"/>
				<path id="Fill-514" class="st2" d="M25,11.1c-2.9,0-5.2-2.4-5.2-5.3s2.3-5.3,5.2-5.3s5.2,2.4,5.2,5.3S27.8,11.1,25,11.1z"/>
				<path id="Fill-515" class="st9" d="M26.2,6.5c-0.1,0-0.1,0-0.2,0c-0.2-0.2-0.4-0.4-0.4-0.7c0-0.2,0.1-0.4,0.2-0.5
					c0.1,0,0.2,0,0.3,0c0.8,0,1.5-0.7,1.5-1.6S27,2.2,26.1,2.2c-0.8,0-1.5,0.7-1.5,1.6c0,0.4,0.1,0.8,0.4,1c0,0.2-0.1,0.4-0.2,0.5
					c-0.1,0.1-0.4,0.1-0.8,0.1c-0.2-0.6-0.8-1-1.4-1c-0.8,0-1.5,0.7-1.5,1.6c0,0.9,0.7,1.6,1.5,1.6c0.7,0,1.3-0.5,1.5-1.1
					c0.3,0,0.5,0,0.6,0.1c0.2,0.1,0.2,0.4,0.3,0.7c-0.2,0.3-0.3,0.6-0.3,0.9c0,0.9,0.7,1.6,1.5,1.6c0.8,0,1.5-0.7,1.5-1.6
					C27.7,7.2,27,6.5,26.2,6.5z"/>
			</g>
			<g id="ZEC">
				<path id="Fill-686" class="st10" d="M38.9,24.7c-3.1,0-5.6,2.6-5.6,5.7c0,3.2,2.5,5.7,5.6,5.7c3.1,0,5.6-2.6,5.6-5.7
					C44.5,27.3,42,24.7,38.9,24.7z"/>
				<path id="Fill-688" class="st2" d="M38.9,25.3c2.8,0,5.1,2.3,5.1,5.2s-2.3,5.2-5.1,5.2c-2.8,0-5.1-2.3-5.1-5.2
					S36.1,25.3,38.9,25.3z"/>
				<path id="Fill-690" class="st10" d="M41.4,31.5L41.4,31.5c-0.1,0-0.2,0-0.3,0.1c-0.2,0.5-0.5,0.8-0.8,1
					c-0.3,0.2-0.7,0.3-1.1,0.3c-0.1,0-0.2,0-0.4,0h-0.1h-0.9c-0.2,0-0.3-0.2-0.2-0.3l1.1-1.3l0.5-0.6l2.1-2.5c0,0,0-0.1,0-0.1v-0.1
					c0-0.1-0.1-0.2-0.2-0.2h-1.9v-0.9h-0.5v0.9h-1v-0.5c0,0,0-0.1-0.1-0.1h-0.3c0,0-0.1,0-0.1,0L37,27.9l0,0L36.4,29
					c0,0.1,0,0.2,0.1,0.3c0.1,0,0.2,0,0.3-0.1c0.2-0.3,0.3-0.5,0.5-0.6c0.2-0.2,0.4-0.3,0.6-0.4c0.2-0.1,0.5-0.1,0.8-0.1
					c0.1,0,0.2,0,0.3,0h0.2h0.6c0.2,0,0.3,0.2,0.2,0.3l-0.8,1L38.7,30l-2.3,2.9c0,0,0,0.1,0,0.1v0.1c0,0.1,0.1,0.2,0.2,0.2h2.2v0.9
					h0.5v-0.9h1.6c0.1,0,0.2,0,0.2-0.1l0.6-1.4C41.5,31.7,41.5,31.5,41.4,31.5L41.4,31.5z"/>
			</g>
		</g>
	</g>
</g>
</svg>
