<?xml version="1.0" encoding="utf-8"?>
<!-- Generator: Adobe Illustrator 23.0.1, SVG Export Plug-In . SVG Version: 6.00 Build 0)  -->
<svg version="1.1" id="Layer_1" xmlns="http://www.w3.org/2000/svg" xmlns:xlink="http://www.w3.org/1999/xlink" x="0px" y="0px"
	 viewBox="0 0 100 28.2" style="enable-background:new 0 0 100 28.2;" xml:space="preserve">
<style type="text/css">
	.st0{fill-rule:evenodd;clip-rule:evenodd;fill:#00479D;}
	.st1{fill:#00479D;}
	.st2{fill:#8FC31F;}
</style>
<title>epay</title>
<g>
	<g id="图层_1">
		<path class="st0" d="M52.3,12.9c-2.6,5.1-7.2,6.5-12.1,6.5c-5.2,0-4.2-0.7-5.2,3.3c-0.7,2.8-0.7,3.5-2.7,3.7c-0.6,0.1-5.2,0-5.2,0
			s0.3-2,0.8-4.1c1.5-6.5,2.9-13.1,4.2-19.7c0.4-1.7,0.4-2.4,2.4-2.4c4.2,0,7,0,11.1,0c6.2,0,9.4,5.4,7.3,11.3
			C52.7,12,52.5,12.5,52.3,12.9C52.3,12.9,52.3,12.9,52.3,12.9z M36.8,14.6c1.5,0.4,3,0.5,4.5,0.2c4.8-0.9,7.1-5.6,4.9-8.7
			c-2-2.7-7.1-2.4-7.3-1.4C38.3,7.8,37.5,11.3,36.8,14.6z"/>
		<path class="st1" d="M79.5,0.3c0.9,0,3.8,0,3.8,0l2,13l6.6-11.5c0,0,0.4-0.8,1-1.2c0.6-0.4,1.7-0.3,1.7-0.3h5.4
			c0,0-10.5,17.3-11.2,18.5c-1.8,2.9-4.4,6.9-8.5,9.5c-0.4-0.1-1.7-2.1-2.9-3.4c-0.5-0.6-0.5-0.9-0.4-1.5c0.1-0.6,0.5-0.7,1.1-1.2
			c1-0.9,2.4-2.2,2.4-3.6C80.2,16,78.3,4.7,77.9,1.7C77.9,1.5,77.5,0.2,79.5,0.3z"/>
		<path class="st1" d="M71.9,0.4c-2.9-0.5-8.1-0.8-11.9,0.9c-1.4,0.6-2,2.1-2,2.1L57.2,6c0,0,4.4-1.9,8.5-2.2
			C67.3,3.7,69.2,3.6,69,5c-0.1,1-0.2,1.5-0.2,1.5s-6.3-0.1-10.7,2.6c-3.3,2-3.5,4.5-3.6,6.2c-0.1,1.7,1.2,3.9,4.6,4.7
			c4.1,1,9.6,0.5,13.9-1.8c0.5-2.3,2.6-12.3,2.6-12.3S76.6,1.2,71.9,0.4z M67.2,15.2l0,0.1c0,0-0.9,1.5-3.2,1.5
			c-1.8,0.1-2.9-1.9-2.5-3.4c1-4,6.6-3.4,6.6-3.4L67.2,15.2z"/>
		<path class="st2" d="M16.5,3.8c2.7,0,5.5,0,8.3,0c2.8,0,3.2-0.3,3.7-3.5c-7.8,0-13.3,0-16.9,0C6.2,0.2,5.1,1.3,3.9,7
			C3.8,7.5,3.8,7.7,3.7,8.1H0l2.9,3.7c-0.1,0.6-0.2,1.2-0.3,1.8C2,16.5,2.7,19.4,6,19.4c5.6,0,11.4,0,16.9,0c1.3,0,1.6-0.6,1.8-1.4
			c0.1-0.4,0.5-2.1,0.5-2.1h-9.7c-0.8,0-1.6,0-2.4,0c-1.1,0-1.9-0.5-2.3-1l0,0c-0.8-1.2,0.2-3,1.9-3h11.2c0,0,1.4,0,1.8-0.3
			c0.4-0.3,0.6-0.6,0.7-1.1l0.5-2.4H14.8c-2.7-0.2-2.7-2.1-2.7-2.1l0,0c0.1-1.7,1.4-2.3,2.2-2.2C15,3.8,15.2,3.8,16.5,3.8z"/>
	</g>
</g>
</svg>
