<?xml version="1.0" encoding="utf-8"?>
<!-- Generator: Adobe Illustrator 23.0.1, SVG Export Plug-In . SVG Version: 6.00 Build 0)  -->
<svg version="1.1" id="Layer_1" xmlns="http://www.w3.org/2000/svg" xmlns:xlink="http://www.w3.org/1999/xlink" x="0px" y="0px"
	 viewBox="0 0 74.4 16.2" style="enable-background:new 0 0 74.4 16.2;" xml:space="preserve">
<style type="text/css">
	.st0{fill:#547BB0;}
	.st1{fill:#E8953A;}
</style>
<g>
	<path class="st0" d="M69.4,9.6c0.3-1.3,0.7-2.5,1-3.7c0.2-0.6,0.3-1.2,0.5-1.8c0.1-0.2,0.2-0.3,0.4-0.3c1,0,1.8,0,2.8,0
		c0.2,0,0.2,0.1,0.2,0.3c-1.2,3.2-2.4,6.4-3.6,9.6c-0.6,1.7-1.8,2.4-3.6,2.4c-6.4,0-12.7,0-19.1,0c-0.3,0-0.4-0.1-0.3-0.4
		c0.2-0.5,0.2-1,0.3-1.5c0.1-0.3,0.2-0.4,0.5-0.4c3.1,0,6.2,0,9.4,0c2.7,0,5.4,0,8.2,0c0.4,0,0.7-0.1,1-0.2c0.5-0.3,0.6-0.9,0.4-1.4
		c-1.1-2.6-2.2-5.3-3.4-7.9C64,3.7,64,3.7,64.5,3.7c1,0,1.8,0,2.8,0c0.2,0,0.4,0.1,0.5,0.3c0.5,1.6,1,3.2,1.5,4.8
		C69.3,9.2,69.2,9.4,69.4,9.6z"/>
	<path class="st1" d="M17.8,6.1c-0.2,0.2-0.5,0.2-0.7,0.2c-0.8-0.2-1.2,0.2-1.6,1c-0.8,1.8-1.7,3.4-2.6,5.1
		c-0.1,0.2-0.2,0.2-0.5,0.2c-1.3-0.2-2.6-0.2-3.9-0.3c-1.5-0.2-3-0.2-4.6-0.4c-0.1,0-0.2,0-0.2-0.2c0.3,0,0.6-0.1,0.9-0.1
		c1.6,0,3.3,0,4.9,0c0.2,0,0.4-0.1,0.5-0.3c0.5-0.9,0.9-1.8,1.4-2.7c0.2-0.3,0.1-0.3-0.2-0.4C9,8,6.9,7.7,4.8,7.4
		c-1.4-0.2-3-0.3-4.4-0.6C0.2,6.8,0.2,6.8,0,6.7c0.2,0,0.3,0,0.5,0c3.7,0,7.4,0,11.1,0c0.2,0,0.3,0,0.4,0c0.2-0.1,0.2-0.2,0.3-0.4
		c0-0.2-0.2-0.2-0.3-0.2c-1.3-0.2-2.6-0.5-3.8-0.7c-1-0.2-2-0.4-3-0.6c-0.1,0-0.2,0-0.3-0.2c0.6,0,1.2,0,1.8,0c1.6,0,3.1,0,4.7,0
		c0.3,0,0.6-0.1,0.6-0.4c0.2-0.6,0.6-0.8,1.1-0.6c0.1,0,0.1,0,0.2,0c0.2,0,0.4,0,0.4-0.2s-0.2-0.2-0.4-0.2C11.1,3,9,2.7,6.7,2.4
		c-1.4-0.2-3-0.3-4.4-0.6c0.2,0,0.4,0,0.6,0c3.8,0,7.5,0,11.3,0c0.2,0,0.2,0,0.4,0C14.7,1.7,15,1.6,15,1.4s-0.2-0.1-0.4-0.2
		c-2.9-0.4-5.8-0.7-8.6-1c-0.1,0-0.1,0-0.2-0.1c5,0,10.1-0.3,15.2,0.1c-0.3,0.6-0.8,1.2-1.1,1.8c-0.2,0.2-0.3,0.4-0.6,0.3
		c-1-0.2-1.6,0.2-2.1,1C17,3.4,17,3.6,17,3.6c0.1,0.1,0.2,0.1,0.3,0.1c0.4-0.1,0.7-0.1,1.1-0.1c-0.2,0.8-0.7,1.4-1,2.2l0,0
		C17.8,6,17.8,6,17.8,6.1L17.8,6.1z"/>
	<path class="st0" d="M46.4,3.9c0.5-0.1,1,0,1.4-0.1C48,3.8,48,4,48,4c0,0.3,0,0.6,0,1c0.2,0,0.2-0.1,0.2-0.2c1-1,2.1-1.4,3.4-1
		c1.2,0.2,1.8,1,2.3,2.1c0.6,1.4,0.6,2.8,0.3,4.2c-0.6,2.6-3.7,3.7-5.8,2c-0.2-0.2-0.3-0.2-0.3,0.1c-0.2,1.2-0.6,2.5-0.8,3.7
		c-0.1,0.2-0.2,0.3-0.4,0.3c-1.1,0-2.2,0-3.4,0c-0.2,0-0.3-0.1-0.2-0.3c0.2-1,0.5-2.1,0.7-3.1c0.2-0.2,0.3-0.6,0.5-0.9
		c0.9-1.8,1.8-3.7,2.5-5.5C47.5,5.2,47.4,4.4,46.4,3.9z M48.2,8.3c0,0.5,0,0.9,0.2,1.3c0.3,0.6,0.8,0.8,1.4,0.8c0.6,0,1-0.4,1.1-1
		c0.2-0.7,0.2-1.4,0-2.1c-0.2-0.6-0.6-1-1.3-1s-1.1,0.3-1.4,1C48.2,7.5,48.2,7.9,48.2,8.3z"/>
	<path class="st1" d="M17.8,6C18,6,18,5.9,18.1,5.8c1-1.2,2.2-1.8,3.8-2.1c1.4-0.2,2.8-0.2,4.2,0c1.1,0.2,1.6,1,1.4,2
		c-0.1,0.4-0.2,0.7-0.4,1.1c-0.6,1.3-1.3,2.6-2,3.9c-0.2,0.5-0.5,1-0.5,1.5c0,0.2-0.1,0.3-0.3,0.3c-0.8,0-1.7,0-2.5,0
		c-0.3,0-0.5-0.1-0.4-0.4c0-0.2,0.1-0.3,0.1-0.6c-0.4,0.2-0.8,0.5-1.2,0.6c-1.1,0.5-2.3,0.7-3.6,0.5c-1.4-0.2-1.8-1.2-1.1-2.4
		c0.9-1.8,2.4-2.4,4.2-2.7c1.3-0.2,2.6-0.4,3.8-0.8C23.7,6.8,24,6.4,23.9,6c-0.1-0.4-0.4-0.4-0.6-0.4c-0.9-0.1-1.7,0.2-2.2,0.9
		c-0.2,0.1-0.3,0.1-0.5,0.1c-0.9-0.1-1.8-0.2-2.6-0.2c-0.2,0-0.2-0.1-0.2-0.2l0,0C17.8,6,17.9,6,17.8,6L17.8,6z M22.8,8.4
		c-1,0.2-1.8,0.5-2.7,0.7c-0.2,0.1-0.5,0.2-0.6,0.3c-0.3,0.3-0.6,0.6-0.6,1.1c0.1,0.3,0.6,0.4,1.1,0.3C21.4,10.6,22.2,9.8,22.8,8.4z
		"/>
	<path class="st0" d="M61.4,11.6c-1.4,1.3-3,1.4-4.6,1.1c-1.6-0.3-2.4-1.8-1.8-3.3c0.2-0.7,0.8-1.2,1.5-1.4c0.9-0.3,1.8-0.5,2.8-0.6
		c0.5-0.1,1-0.2,1.5-0.4c0.2-0.1,0.5-0.1,0.5-0.3c0-0.3-0.1-0.6-0.3-0.8c-0.7-0.5-2.1-0.1-2.5,0.6c-0.1,0.2-0.2,0.2-0.3,0.2
		c-0.9-0.1-1.8-0.2-2.8-0.2c-0.2,0-0.2-0.2-0.2-0.3c0.2-1,1-1.8,2-2.1c1.4-0.4,2.7-0.4,4.2-0.3c0.2,0,0.6,0.1,0.8,0.1
		c1.7,0.3,2.6,1.4,2.6,3.1c0,1.3,0,2.6,0,3.8c0,0.6,0.1,1.1,0.3,1.7c0.1,0.2,0.1,0.2-0.2,0.2c-0.9,0-1.8,0-2.7,0
		c-0.2,0-0.2-0.1-0.3-0.2C61.5,12.2,61.4,12,61.4,11.6z M61.2,9.1c0-0.1,0-0.2,0-0.3c0-0.2,0-0.2-0.2-0.2c-0.7,0.3-1.6,0.4-2.3,0.7
		c-0.4,0.2-0.6,0.6-0.5,1c0.1,0.4,0.4,0.6,0.8,0.7C59.9,11.1,61.3,10.6,61.2,9.1z"/>
	<path class="st1" d="M46.4,3.9c1,0.6,1.1,1.4,0.6,2.5c-0.7,1.9-1.6,3.7-2.5,5.5c-0.2,0.3-0.2,0.6-0.5,0.9c-2.2,0.2-4.2,0.2-6.4,0.1
		c-0.6-0.1-1.2-0.1-1.8-0.2c-0.8-0.3-1.1-1.1-0.7-1.9c0.3-0.6,0.5-1.1,1-1.6c0.7-0.8,1.7-1.1,2.7-1.4c1.6-0.4,3.2-0.3,4.8-0.4
		c0.2,0,0.2,0,0.4,0c0.7,0.1,1-0.4,1.3-1C45.5,6,45.4,5.6,45,5.5c-0.5-0.2-1-0.2-1.4-0.2c-0.7,0.1-1.5,0.2-2.2,0.3
		c-0.6,0.2-0.9,0.5-1,1c-0.2,0.6-1.6,0.8-2.1,0.3c-0.1-0.1-0.1-0.2,0-0.3c0.5-1.5,1.6-2.4,3.2-2.6c1.1-0.2,2.2-0.2,3.3-0.2
		C45.2,3.6,45.8,3.8,46.4,3.9z M40.1,12.2L40.1,12.2c0.2,0,0.5,0,0.7,0s0.4-0.1,0.4-0.3c0-0.2,0-0.2,0.1-0.4c0.2-0.8,0-1.7,0.7-2.2
		c0.1-0.1,0.1-0.2,0.1-0.2c0.2-0.5-0.1-0.9-0.6-0.9c-0.8,0-1.4,0.7-1.3,1.5c0,0.2,0,0.3-0.1,0.4c-0.3,0.6-0.6,1.3-1,1.8
		c-0.1,0.2-0.1,0.3,0.2,0.3C39.5,12.2,39.8,12.2,40.1,12.2z"/>
	<path class="st1" d="M29,12.8c-0.7,0-1.5-0.1-2.3-0.3c-0.9-0.3-1.4-1.3-1-2.2c0.1-0.2,0.2-0.2,0.3-0.2c1-0.1,2-0.2,3-0.3
		c0.2,0,0.2,0,0.2,0.2c0,0.6,0.2,0.8,0.9,0.9c0.7,0,1.4-0.1,1.8-0.6c0.3-0.4,0.2-0.7-0.2-0.8C31,9.3,30.2,9.2,29.5,9
		c-0.3-0.1-0.6-0.2-1-0.3c-0.7-0.3-1-0.9-0.8-1.7c0.2-1.2,1.1-2,2.1-2.6c0.9-0.5,1.8-0.7,2.8-0.8c1-0.1,1.9-0.1,2.9,0.1
		c1,0.2,1.5,0.8,1.4,1.8C37,5.8,36.9,6,36.6,6c-1,0.1-1.8,0.2-2.8,0.2c-0.2,0-0.3,0-0.3-0.2c0-0.3-0.2-0.5-0.4-0.6
		c-0.6-0.2-1.2-0.2-1.8,0.3C31.1,5.9,31,6,31,6.3c0.1,0.2,0.2,0.3,0.5,0.3c0.9,0.2,1.8,0.2,2.6,0.5c1.3,0.4,1.8,1.3,1.1,2.5
		c-0.8,1.5-2.1,2.4-3.7,2.9C30.8,12.8,29.9,12.8,29,12.8z"/>
	<path class="st1" d="M17.8,6c0.1,0.1,0,0.2-0.1,0.2C17.8,6,17.8,6,17.8,6z"/>
</g>
</svg>
