<?xml version="1.0" encoding="utf-8"?>
<!-- Generator: Adobe Illustrator 23.0.1, SVG Export Plug-In . SVG Version: 6.00 Build 0)  -->
<svg version="1.1" id="Layer_1" xmlns="http://www.w3.org/2000/svg" xmlns:xlink="http://www.w3.org/1999/xlink" x="0px" y="0px"
	 viewBox="0 0 70 43.7" style="enable-background:new 0 0 70 43.7;" xml:space="preserve">
<style type="text/css">
	.st0{fill:#FFFFFF;}
	.st1{fill:#213E7A;}
	.st2{fill:url(#SVGID_1_);}
	.st3{fill:#EA2127;}
</style>
<path class="st0" d="M2.2,2.1h34.5v39.5H2.2L2.2,2.1z"/>
<path class="st1" d="M66.4,0H4C2,0,0,1.5,0,3.5V40c0,2,2,3.7,4,3.7h62.4c2.1,0,3.6-1.7,3.6-3.7V3.5C70,1.5,68.5,0,66.4,0z M4,41.6
	c-0.7,0-1.9-1-1.9-1.6V3.5c0-0.7,1.2-1.4,1.9-1.4h31.7v39.5L4,41.6L4,41.6z"/>
<linearGradient id="SVGID_1_" gradientUnits="userSpaceOnUse" x1="590.2857" y1="180.7321" x2="590.2857" y2="305.7311" gradientTransform="matrix(0.35 0 0 0.35 -171.6 -63.2562)">
	<stop  offset="0" style="stop-color:#FFFFFF;stop-opacity:0.1"/>
	<stop  offset="0.498" style="stop-color:#395389;stop-opacity:0.5"/>
	<stop  offset="1" style="stop-color:#182F5C"/>
</linearGradient>
<path class="st2" d="M66.4,0H4C2,0,0,1.5,0,3.5V40c0,2,2,3.7,4,3.7h62.4c2.1,0,3.6-1.7,3.6-3.7V3.5C70,1.5,68.5,0,66.4,0z M4,41.6
	c-0.7,0-1.9-1-1.9-1.6V3.5c0-0.7,1.3-1.4,1.9-1.4h31.7v39.5L4,41.6L4,41.6z"/>
<g>
	<path class="st0" d="M44.7,22.3c0,1.1-0.6,1.9-1.5,1.9c-0.8,0-1.6-0.8-1.6-1.8c0-1.1,0.6-1.9,1.6-1.9
		C44.2,20.5,44.7,21.3,44.7,22.3L44.7,22.3z M39.1,28.8h2.5v-3.9h0c0.5,0.9,1.4,1.2,2.3,1.2c2.2,0,3.4-1.8,3.4-3.9
		c0-1.7-1.1-3.6-3.2-3.6c-1.2,0-2.2,0.5-2.7,1.5h0v-1.3h-2.3L39.1,28.8L39.1,28.8z M50.9,23.7c0-0.7,0.7-1,1.5-1c0.4,0,0.8,0,1.1,0
		c0,0.8-0.6,1.7-1.6,1.7C51.3,24.4,50.9,24.1,50.9,23.7L50.9,23.7z M56,25.9c-0.1-0.6-0.1-1.1-0.1-1.7v-2.7c0-2.2-1.6-3-3.5-3
		c-1.1,0-2,0.2-2.9,0.5l0,1.7c0.7-0.4,1.5-0.5,2.3-0.5c0.9,0,1.7,0.3,1.7,1.2c-0.3-0.1-0.8-0.1-1.2-0.1c-1.4,0-3.8,0.3-3.8,2.5
		c0,1.6,1.3,2.3,2.8,2.3c1,0,1.8-0.4,2.3-1.3h0c0,0.4,0,0.7,0.1,1.1L56,25.9L56,25.9z M57.1,28.8c0.5,0.1,1,0.2,1.6,0.2
		c2.3,0,2.9-1.8,3.6-3.6l2.7-6.7h-2.5L61,23.4h0l-1.6-4.7h-2.7l3,7.4c-0.2,0.6-0.7,1-1.3,1c-0.4,0-0.7,0-1-0.2
		C57.3,26.9,57.1,28.8,57.1,28.8z"/>
</g>
<path class="st3" d="M8.3,22.3c0-1,0.5-1.8,1.4-1.8c1.1,0,1.6,0.9,1.6,1.7c0,1.1-0.7,1.9-1.6,1.9C9,24,8.3,23.4,8.3,22.3z
	 M13.9,18.7h-2.3V20h0c-0.5-0.9-1.4-1.5-2.5-1.5c-2.3,0-3.3,1.6-3.3,3.7c0,2.1,1.3,3.6,3.3,3.6c1,0,1.9-0.4,2.5-1.2h0v0.4
	c0,1.4-0.8,2.1-2.3,2.1c-1.1,0-1.7-0.2-2.5-0.6l-0.1,2C7.2,28.7,8.2,29,9.4,29c3,0,4.4-1,4.4-3.9L13.9,18.7L13.9,18.7z M18.2,15.7
	h-2.5v1.8h2.5V15.7z M15.6,25.9h2.5v-7.2h-2.5V25.9z M25.3,18.7c-0.3,0-0.6-0.1-0.9-0.1c-1.1,0-1.7,0.6-2.2,1.5h0v-1.3h-2.3v7.2h2.5
	v-3c0-1.4,0.7-2.3,1.9-2.3c0.3,0,0.6,0,0.9,0.1L25.3,18.7L25.3,18.7z M29.6,24.4c-1.2,0-1.7-1-1.7-2c0-1.1,0.5-2,1.7-2
	c1.2,0,1.7,1,1.7,2C31.3,23.4,30.8,24.4,29.6,24.4z M29.6,26.1c2.4,0,4.3-1.4,4.3-3.8c0-2.4-1.9-3.8-4.3-3.8c-2.4,0-4.3,1.4-4.3,3.8
	C25.4,24.7,27.2,26.1,29.6,26.1z"/>
</svg>
