<?xml version="1.0" encoding="UTF-8"?>
<svg width="31px" height="27px" viewBox="0 0 31 27" version="1.1" xmlns="http://www.w3.org/2000/svg" xmlns:xlink="http://www.w3.org/1999/xlink">
    <!-- Generator: Sketch 47.1 (45422) - http://www.bohemiancoding.com/sketch -->
    <title>ideal-betalen-vector-logo</title>
    <desc>Created with Sketch.</desc>
    <defs></defs>
    <g id="Page-1" stroke="none" stroke-width="1" fill="none" fill-rule="evenodd">
        <g id="ideal-betalen-vector-logo">
            <polygon id="Fill-74" fill="#000105" points="3.45479426 23.3907049 8.40426316 23.3907049 8.40426316 15.2156066 3.45479426 15.2156066"></polygon>
            <path d="M8.77789474,11.1284262 C8.77789474,12.6674262 7.52335885,13.9160656 5.97632536,13.9160656 C4.42899522,13.9160656 3.17445933,12.6674262 3.17445933,11.1284262 C3.17445933,9.58942623 4.42899522,8.34152459 5.97632536,8.34152459 C7.52335885,8.34152459 8.77789474,9.58942623 8.77789474,11.1284262" id="Fill-75" fill="#000105"></path>
            <path d="M17.4435072,1.9162623 C20.8851005,1.9162623 23.7534163,2.84385246 25.7383062,4.59855738 C27.9823206,6.5822459 29.1202727,9.58765574 29.1202727,13.5312787 C29.1202727,21.3469672 25.3005981,25.1464426 17.4435072,25.1464426 C16.8327033,25.1464426 3.38033493,25.1464426 1.81001435,25.1464426 C1.81001435,23.5525574 1.81001435,3.51014754 1.81001435,1.9162623 C3.38033493,1.9162623 16.8327033,1.9162623 17.4435072,1.9162623 Z M17.7794641,0.137065574 L0.0213588517,0.137065574 L0.0213588517,26.9254918 L17.7794641,26.9254918 L17.7794641,26.9204754 C21.6586172,26.8679508 24.7313254,25.9095246 26.9118565,24.0639344 C29.5640622,21.819541 30.9089282,18.2756066 30.9089282,13.5312787 C30.9089282,11.2634262 30.5551722,9.22913115 29.8575981,7.48504918 C29.1904306,5.81665574 28.2039187,4.39804918 26.926689,3.26862295 C24.6765933,1.27962295 21.5180048,0.20404918 17.7794641,0.142967213 L17.7794641,0.137065574 L17.7794641,0.137065574 Z" id="Fill-76" fill="#000105"></path>
            <path d="M16.9547751,23.3998525 L10.676756,23.3998525 L10.676756,4.08231148 L16.9547751,4.08231148 L16.7015837,4.08231148 C21.9371722,4.08231148 27.5104976,6.13770492 27.5104976,13.766459 C27.5104976,21.8314918 21.9371722,23.3998525 16.7015837,23.3998525 L16.9547751,23.3998525" id="Fill-77" fill="#B91D63"></path>
            <path d="M10.5368852,9.85677049 L10.5368852,12.9291639 L11.2426172,12.9291639 C11.5067847,12.9291639 11.6973828,12.9144098 11.8144115,12.8849016 C11.9677799,12.8468361 12.0948947,12.7826557 12.1960526,12.691918 C12.2972105,12.6011803 12.3796794,12.4518689 12.4436077,12.2441311 C12.5075359,12.0363934 12.5395742,11.7531148 12.5395742,11.3945902 C12.5395742,11.0360656 12.5075359,10.7607541 12.4436077,10.5688033 C12.3796794,10.3768525 12.2903876,10.2270984 12.1752871,10.119541 C12.0603349,10.0119836 11.9145311,9.93909836 11.7377273,9.90118033 C11.6057177,9.87167213 11.34689,9.85677049 10.961689,9.85677049 L10.5368852,9.85677049 Z M9.59457416,9.06890164 L11.3182632,9.06890164 C11.7070239,9.06890164 12.003378,9.09855738 12.2073254,9.15772131 C12.4812823,9.23798361 12.7160813,9.38065574 12.9114258,9.5857377 C13.1069187,9.79081967 13.2555407,10.0417869 13.3574402,10.3387869 C13.459488,10.6357869 13.5103636,11.0019836 13.5103636,11.437377 C13.5103636,11.8199508 13.4626029,12.1497049 13.3670813,12.4266393 C13.2503493,12.7648033 13.0834833,13.0384918 12.8669282,13.2478525 C12.7033254,13.4063115 12.4824689,13.5299508 12.2042105,13.6187705 C11.9958134,13.6842787 11.7177033,13.7170328 11.3692871,13.7170328 L9.59457416,13.7170328 L9.59457416,9.06890164 L9.59457416,9.06890164 Z" id="Fill-78" fill="#FFFFFE"></path>
            <path d="M11.3182632,9.19593443 C11.6930813,9.19593443 11.9802392,9.22411475 12.1715789,9.27959016 C12.4221005,9.35306557 12.6398421,9.48555738 12.8187225,9.67322951 C13.0004211,9.86385246 13.1410335,10.1016885 13.2367033,10.3798033 C13.3335598,10.6621967 13.3826555,11.017918 13.3826555,11.437377 C13.3826555,11.8040164 13.336823,12.123 13.2461962,12.3853279 C13.1365837,12.7029836 12.9789139,12.9623607 12.777933,13.1566721 C12.6291627,13.3008197 12.4229904,13.415459 12.1650526,13.4977869 C11.9708947,13.5588689 11.7028708,13.59 11.3692871,13.59 C11.3692871,13.59 9.94239713,13.59 9.7222823,13.59 C9.7222823,13.3562951 9.7222823,9.42963934 9.7222823,9.19593443 C9.94135885,9.19593443 11.3182632,9.19593443 11.3182632,9.19593443 Z M9.46686603,8.94186885 L9.46686603,13.8440656 L11.3692871,13.8440656 C11.7291244,13.8440656 12.0229569,13.8090984 12.2427751,13.7399016 C12.5391292,13.6454754 12.7789713,13.5104754 12.9560718,13.3387377 C13.1861244,13.1166885 13.3650048,12.8235246 13.4879665,12.4679508 C13.5876411,12.178918 13.6382201,11.8321967 13.6382201,11.437377 C13.6382201,10.9900328 13.584378,10.6065738 13.4784737,10.2977705 C13.3709378,9.98468852 13.2113397,9.71572131 13.0041292,9.4982459 C12.7938038,9.27781967 12.5379426,9.12201639 12.2433684,9.03570492 C12.0254785,8.97255738 11.7230431,8.94186885 11.3182632,8.94186885 L9.46686603,8.94186885 L9.46686603,8.94186885 Z" id="Fill-79" fill="#FFFFFE"></path>
            <path d="M10.961689,9.98395082 C11.4274306,9.98395082 11.6255933,10.006377 11.7098421,10.0251148 C11.8636555,10.0583115 11.9904737,10.1210164 12.0879234,10.2120492 C12.1867081,10.3045574 12.2656172,10.4379344 12.3224258,10.6087869 C12.3816077,10.7868689 12.4117177,11.0512623 12.4117177,11.3945902 C12.4117177,11.7389508 12.381311,12.0121967 12.3215359,12.2069508 C12.2647273,12.391377 12.1938278,12.5228361 12.1106172,12.5974918 C12.0256268,12.673623 11.9155694,12.7288033 11.7835598,12.7615574 C11.6767656,12.7884098 11.495067,12.8019836 11.2426172,12.8019836 C11.2426172,12.8019836 10.8359091,12.8019836 10.6645933,12.8019836 C10.6645933,12.5786066 10.6645933,10.2073279 10.6645933,9.98395082 C10.7896316,9.98395082 10.961689,9.98395082 10.961689,9.98395082 Z M10.4090287,9.7297377 L10.4090287,13.0561967 L11.2426172,13.0561967 C11.5199856,13.0561967 11.7172584,13.0404098 11.8458565,13.0080984 C12.0185072,12.9653115 12.165201,12.8906557 12.2816364,12.7861967 C12.4014833,12.6787869 12.4944833,12.513541 12.5658278,12.2813115 C12.6340574,12.0594098 12.6672823,11.7693443 12.6672823,11.3945902 C12.6672823,11.0188033 12.6337608,10.7356721 12.5649378,10.5288197 C12.4946316,10.317541 12.3930287,10.1486066 12.262799,10.0268852 C12.1313828,9.90383607 11.9637751,9.8197377 11.7647225,9.77695082 C11.6230718,9.74522951 11.3599426,9.7297377 10.961689,9.7297377 L10.4090287,9.7297377 L10.4090287,9.7297377 Z" id="Fill-80" fill="#FFFFFE"></path>
            <polyline id="Fill-81" fill="#FFFFFE" points="14.5765263 13.7170328 14.5765263 9.06890164 18.0359187 9.06890164 18.0359187 9.85677049 15.5188373 9.85677049 15.5188373 10.8861639 17.8600048 10.8861639 17.8600048 11.6741803 15.5188373 11.6741803 15.5188373 12.9291639 18.1250622 12.9291639 18.1250622 13.7170328 14.5765263 13.7170328"></polyline>
            <path d="M17.9080622,9.19593443 C17.9080622,9.34037705 17.9080622,9.58529508 17.9080622,9.7297377 C17.6778612,9.7297377 15.3909809,9.7297377 15.3909809,9.7297377 L15.3909809,11.0133443 C15.3909809,11.0133443 17.5040239,11.0133443 17.7322967,11.0133443 C17.7322967,11.1577869 17.7322967,11.4027049 17.7322967,11.547 C17.5040239,11.547 15.3909809,11.547 15.3909809,11.547 L15.3909809,13.0561967 C15.3909809,13.0561967 17.7664115,13.0561967 17.9973541,13.0561967 C17.9973541,13.2006393 17.9973541,13.4455574 17.9973541,13.59 C17.7687847,13.59 14.9329522,13.59 14.7042344,13.59 C14.7042344,13.3562951 14.7042344,9.42963934 14.7042344,9.19593443 C14.9322105,9.19593443 17.6800861,9.19593443 17.9080622,9.19593443 Z M14.4488182,8.94186885 L14.4488182,13.8440656 L18.2529187,13.8440656 L18.2529187,12.8019836 C18.2529187,12.8019836 15.8776364,12.8019836 15.6466938,12.8019836 C15.6466938,12.619918 15.6466938,11.9834262 15.6466938,11.8012131 C15.8749665,11.8012131 17.9877129,11.8012131 17.9877129,11.8012131 L17.9877129,10.7591311 C17.9877129,10.7591311 15.8749665,10.7591311 15.6466938,10.7591311 C15.6466938,10.591377 15.6466938,10.1517049 15.6466938,9.98395082 C15.8767464,9.98395082 18.1636268,9.98395082 18.1636268,9.98395082 L18.1636268,8.94186885 L14.4488182,8.94186885 L14.4488182,8.94186885 Z" id="Fill-82" fill="#FFFFFE"></path>
            <path d="M21.6648469,11.8743934 L21.0206699,10.1522951 L20.3893971,11.8743934 L21.6648469,11.8743934 Z M23.4018852,13.7170328 L22.3753254,13.7170328 L21.9675789,12.6622623 L20.1009043,12.6622623 L19.7140718,13.7170328 L18.7128756,13.7170328 L20.5286746,9.06890164 L21.533134,9.06890164 L23.4018852,13.7170328 L23.4018852,13.7170328 Z" id="Fill-83" fill="#FFFFFE"></path>
            <path d="M21.446512,9.19593443 C21.5064354,9.3445082 23.0856555,13.2727869 23.213067,13.59 C22.9879091,13.59 22.580311,13.59 22.4629856,13.59 C22.4094402,13.4513115 22.0553876,12.5352295 22.0553876,12.5352295 L20.0113158,12.5352295 C20.0113158,12.5352295 19.6763971,13.4483607 19.6246316,13.59 C19.5067129,13.59 19.1195837,13.59 18.8997656,13.59 C19.0228756,13.2748525 20.5574498,9.34657377 20.6161866,9.19593443 C20.7483445,9.19593443 21.3158373,9.19593443 21.446512,9.19593443 Z M20.4414593,8.94186885 L18.5262823,13.8440656 L19.8033636,13.8440656 C19.8033636,13.8440656 20.1382823,12.9309344 20.1900478,12.7892951 C20.3441579,12.7892951 21.7283301,12.7892951 21.8799187,12.7892951 C21.9334641,12.9281311 22.2875167,13.8440656 22.2875167,13.8440656 L23.590555,13.8440656 L21.619756,8.94186885 L20.4414593,8.94186885 L20.4414593,8.94186885 Z" id="Fill-84" fill="#FFFFFE"></path>
            <path d="M21.0218565,10.5199672 C21.1620239,10.8944262 21.3987512,11.5272295 21.4809234,11.7472131 C21.2568038,11.7472131 20.7949187,11.7472131 20.572134,11.7472131 C20.652378,11.5281148 20.8845072,10.8950164 21.0218565,10.5199672 Z M20.2068086,12.0014262 L21.848622,12.0014262 L21.0194833,9.78462295 L20.2068086,12.0014262 L20.2068086,12.0014262 Z" id="Fill-85" fill="#FFFFFE"></path>
            <polyline id="Fill-86" fill="#FFFFFE" points="24.1899378 13.7170328 24.1899378 9.10696721 25.1322488 9.10696721 25.1322488 12.9291639 27.4800909 12.9291639 27.4800909 13.7170328 24.1899378 13.7170328"></polyline>
            <path d="M25.0045407,9.23414754 C25.0045407,9.47168852 25.0045407,13.0561967 25.0045407,13.0561967 C25.0045407,13.0561967 27.1236651,13.0561967 27.3522344,13.0561967 C27.3522344,13.2006393 27.3522344,13.4455574 27.3522344,13.59 C27.1257416,13.59 24.5442871,13.59 24.3176459,13.59 C24.3176459,13.3564426 24.3176459,9.46770492 24.3176459,9.23414754 C24.4787273,9.23414754 24.8434593,9.23414754 25.0045407,9.23414754 Z M24.0622297,8.97993443 L24.0622297,13.8440656 L27.607799,13.8440656 L27.607799,12.8019836 C27.607799,12.8019836 25.4886746,12.8019836 25.2601053,12.8019836 C25.2601053,12.5644426 25.2601053,8.97993443 25.2601053,8.97993443 L24.0622297,8.97993443 L24.0622297,8.97993443 Z" id="Fill-87" fill="#FFFFFE"></path>
        </g>
    </g>
</svg>