<?xml version="1.0" encoding="UTF-8"?>
<svg width="26px" height="26px" viewBox="0 0 26 26" version="1.1" xmlns="http://www.w3.org/2000/svg" xmlns:xlink="http://www.w3.org/1999/xlink">
    <!-- Generator: Sketch 49.2 (51160) - http://www.bohemiancoding.com/sketch -->
    <title>qr</title>
    <desc>Created with Sketch.</desc>
    <defs></defs>
    <g id="v3---desktop" stroke="none" stroke-width="1" fill="none" fill-rule="evenodd" stroke-linecap="square">
        <g id="cepbank.00-copy" transform="translate(-754.000000, -291.000000)" stroke="#8492A6" stroke-width="2">
            <g id="step-1" transform="translate(345.000000, 194.000000)">
                <g id="Group-8" transform="translate(378.000000, 64.000000)">
                    <g id="qr" transform="translate(32.000000, 34.000000)">
                        <polygon id="Shape" points="8 8 0 8 0 0 8 0 8 0"></polygon>
                        <rect id="Rectangle-path" x="3.2" y="3.2" width="1.6" height="1.6"></rect>
                        <polygon id="Shape" points="8 24 0 24 0 16 8 16 8 16"></polygon>
                        <rect id="Rectangle-path" x="3.2" y="19.2" width="1.6" height="1.6"></rect>
                        <polygon id="Shape" points="24 8 16 8 16 0 24 0 24 0"></polygon>
                        <rect id="Rectangle-path" x="19.2" y="3.2" width="1.6" height="1.6"></rect>
                        <polyline id="Shape" points="24 24 16.8 24 16.8 20.8 12 20.8 12 19.2"></polyline>
                        <polyline id="Shape" points="15.2 16.8 20.8 16.8 20.8 12 24 12"></polyline>
                        <polyline id="Shape" points="0.8 10.4 0.8 12 5.6 12 5.6 13.6"></polyline>
                        <polyline id="Shape" points="13.6 0.8 13.6 4 11.2 4 11.2 12 16.8 12 16.8 13.6"></polyline>
                        <path d="M20.8,16.8 L24,16.8" id="Shape"></path>
                        <polyline id="Shape" points="20.8 24 20.8 21.6 22.4 21.6 22.4 20"></polyline>
                        <path d="M12,20.8 L12,24" id="Shape"></path>
                        <path d="M5.6,12 L7.2,12" id="Shape"></path>
                        <path d="M22.4,12 L22.4,10.4" id="Shape"></path>
                        <rect id="Rectangle-path" x="11.2" y="12" width="1.6" height="2.4"></rect>
                        <path d="M12.8,8 L11.2,8" id="Shape"></path>
                        <path d="M22.4,21.6 L22.4,24" id="Shape"></path>
                    </g>
                </g>
            </g>
        </g>
    </g>
</svg>