<?xml version="1.0" encoding="utf-8"?>
<!-- Generator: Adobe Illustrator 23.0.1, SVG Export Plug-In . SVG Version: 6.00 Build 0)  -->
<svg version="1.1" id="Layer_1" xmlns="http://www.w3.org/2000/svg" xmlns:xlink="http://www.w3.org/1999/xlink" x="0px" y="0px"
	 viewBox="0 0 70.7 24.6" style="enable-background:new 0 0 70.7 24.6;" xml:space="preserve">
<style type="text/css">
	.st0{fill:none;stroke:#43C4A7;stroke-width:2.7;stroke-linecap:square;}
	.st1{fill:none;stroke:#43C4A7;stroke-width:2.7;stroke-linecap:round;stroke-linejoin:round;}
</style>
<title>aninda bank transfer</title>
<desc>Created with Sketch.</desc>
<g id="Dashboard">
	<g id="aninda-bank-transfer-">
		<g id="Group-18-Copy" transform="translate(8.000000, 18.000000)">
			<g id="Group-17">
				<g id="business-24px-outline_money-11">
					<path id="Rectangle-path" class="st0" d="M28.4-16.6h30.2c1.5,0,2.7,1.2,2.7,2.7V2.5c0,1.5-1.2,2.7-2.7,2.7H28.4
						c-1.5,0-2.7-1.2-2.7-2.7v-16.5C25.7-15.4,26.9-16.6,28.4-16.6z"/>
					<path id="Line" class="st1" d="M16.8-16.6H2.2"/>
					<path id="Line-Copy-4" class="st1" d="M16.8-5.7H-6.7"/>
					<path id="Line-Copy-6" class="st1" d="M16.8,5.2h-17"/>
					<ellipse id="Oval" class="st0" cx="43.5" cy="-5.7" rx="3.2" ry="2.7"/>
					<path id="Shape" class="st0" d="M51.6-12.5H35.4c0,2.3-2.1,4.1-4.9,4.1V-3c2.8,0,4.9,1.8,4.9,4.1h16.2c0-2.3,2.1-4.1,4.9-4.1
						v-5.5C53.7-8.4,51.6-10.2,51.6-12.5z"/>
				</g>
			</g>
		</g>
	</g>
</g>
</svg>
