<?xml version="1.0" encoding="UTF-8"?>
<svg width="50px" height="62px" viewBox="0 0 90 64" version="1.1" xmlns="http://www.w3.org/2000/svg" xmlns:xlink="http://www.w3.org/1999/xlink">
    <!-- Generator: Sketch 47.1 (45422) - http://www.bohemiancoding.com/sketch -->
    <title>ic_redeem_48px copy</title>
    <desc>Created with Sketch.</desc>
    <defs></defs>
    <g id="Page-1" stroke="none" stroke-width="1" fill="none" fill-rule="evenodd">
        <g id="ic_redeem_48px-copy" fill-rule="nonzero" fill="#50E3C2">
            <path d="M62.1,13.8947368 L54.56175,13.8947368 C54.94125,12.8005263 55.2,11.6542105 55.2,10.4210526 C55.2,4.67210526 50.55975,0 44.85,0 C41.24475,0 38.07075,1.85842105 36.225,4.67210526 L34.5,7.03421053 L32.775,4.67210526 C30.92925,1.85842105 27.75525,0 24.15,0 C18.44025,0 13.8,4.67210526 13.8,10.4210526 C13.8,11.6542105 14.0415,12.8005263 14.43825,13.8947368 L6.9,13.8947368 C3.08775,13.8947368 0.0345,17.0036842 0.0345,20.8421053 L0,59.0526316 C0,62.8910526 3.08775,66 6.9,66 L62.1,66 C65.91225,66 69,62.8910526 69,59.0526316 L69,20.8421053 C69,17.0036842 65.91225,13.8947368 62.1,13.8947368 Z M44.85,6.94736842 C46.7475,6.94736842 48.3,8.51052632 48.3,10.4210526 C48.3,12.3315789 46.7475,13.8947368 44.85,13.8947368 C42.9525,13.8947368 41.4,12.3315789 41.4,10.4210526 C41.4,8.51052632 42.9525,6.94736842 44.85,6.94736842 Z M24.15,6.94736842 C26.0475,6.94736842 27.6,8.51052632 27.6,10.4210526 C27.6,12.3315789 26.0475,13.8947368 24.15,13.8947368 C22.2525,13.8947368 20.7,12.3315789 20.7,10.4210526 C20.7,8.51052632 22.2525,6.94736842 24.15,6.94736842 Z M62.1,59.0526316 L6.9,59.0526316 L6.9,52.1052632 L62.1,52.1052632 L62.1,59.0526316 Z M62.1,41.6842105 L6.9,41.6842105 L6.9,20.8421053 L24.426,20.8421053 L17.25,30.69 L22.85625,34.7368421 L31.05,23.4994737 L34.5,18.7752632 L37.95,23.4994737 L46.14375,34.7368421 L51.75,30.69 L44.574,20.8421053 L62.1,20.8421053 L62.1,41.6842105 Z" id="Shape"></path>
        </g>
    </g>
</svg>