<?xml version="1.0" encoding="utf-8"?>
<!-- Generator: Adobe Illustrator 23.0.1, SVG Export Plug-In . SVG Version: 6.00 Build 0)  -->
<svg version="1.1" id="Layer_1" xmlns="http://www.w3.org/2000/svg" xmlns:xlink="http://www.w3.org/1999/xlink" x="0px" y="0px"
	 viewBox="0 0 78 14" style="enable-background:new 0 0 78 14;" xml:space="preserve">
<style type="text/css">
	.st0{fill-rule:evenodd;clip-rule:evenodd;fill:#FF6400;}
</style>
<title>jeton wallet</title>
<desc>Created with Sketch.</desc>
<g id="Dashboard">
	<g id="jeton-wallet">
		<path id="jeton_logo_white" class="st0" d="M38.3,14V0H39v14H38.3z M54.2,2h0.9L52.2,12h-1l-2.8-8.8L45.7,12h-0.9L41.8,2h0.9
			l2.5,8.7L48,2h1l2.8,8.7L54.2,2z M57.3,12.1c-0.4,0-0.7-0.1-0.9-0.2c-0.3-0.1-0.5-0.2-0.7-0.4c-0.2-0.2-0.3-0.4-0.4-0.6
			c-0.1-0.2-0.1-0.5-0.1-0.7c0-0.6,0.2-1,0.5-1.3c0.4-0.3,0.8-0.5,1.5-0.6L58.9,8c0.3,0,0.5-0.1,0.6-0.2c0.1-0.1,0.1-0.2,0.1-0.4
			c0-0.4-0.1-0.8-0.4-1.1c-0.3-0.3-0.7-0.4-1.3-0.4c-0.5,0-1,0.1-1.3,0.4c-0.3,0.3-0.5,0.7-0.6,1.1l-0.8-0.2c0-0.3,0.1-0.6,0.3-0.9
			c0.1-0.3,0.3-0.5,0.6-0.7c0.2-0.2,0.5-0.3,0.8-0.4c0.3-0.1,0.6-0.2,1-0.2c0.4,0,0.8,0.1,1.1,0.2c0.3,0.1,0.6,0.3,0.8,0.5
			C60,6,60.2,6.2,60.3,6.5c0.1,0.3,0.2,0.6,0.2,0.9v3.4c0,0.3,0,0.5,0,0.7c0,0.2,0,0.3,0.1,0.5h-0.8c0-0.1,0-0.2-0.1-0.4
			c0-0.2,0-0.4,0-0.7c-0.1,0.2-0.2,0.3-0.3,0.5c-0.1,0.2-0.3,0.3-0.5,0.4c-0.2,0.1-0.4,0.2-0.7,0.3C57.9,12.1,57.6,12.1,57.3,12.1z
			 M57.4,11.4c0.3,0,0.6-0.1,0.9-0.2c0.3-0.1,0.5-0.2,0.7-0.4c0.2-0.2,0.4-0.4,0.5-0.7c0.1-0.3,0.2-0.6,0.2-0.9V8.5
			c0,0-0.1,0-0.2,0.1c-0.1,0-0.2,0.1-0.3,0.1l-1.9,0.3c-0.4,0.1-0.7,0.2-0.9,0.4C56.1,9.5,56,9.8,56,10.2c0,0.3,0.1,0.6,0.4,0.8
			C56.6,11.3,57,11.4,57.4,11.4z M62.3,11.9V1.8h0.8v10.1H62.3z M65.1,11.9V1.8h0.8v10.1H65.1z M73.5,10.1c-0.1,0.3-0.2,0.5-0.4,0.8
			c-0.2,0.3-0.4,0.5-0.6,0.7c-0.2,0.2-0.5,0.3-0.9,0.4c-0.3,0.1-0.7,0.2-1.1,0.2c-0.4,0-0.9-0.1-1.3-0.2c-0.4-0.2-0.7-0.4-1-0.7
			c-0.3-0.3-0.5-0.7-0.7-1.1c-0.2-0.4-0.3-0.9-0.3-1.5c0-0.5,0.1-1,0.3-1.4c0.2-0.4,0.4-0.8,0.7-1.1c0.3-0.3,0.6-0.5,1-0.7
			c0.4-0.2,0.8-0.3,1.2-0.3c0.5,0,0.9,0.1,1.3,0.3c0.4,0.2,0.7,0.4,1,0.7c0.3,0.3,0.5,0.7,0.6,1.1c0.1,0.4,0.2,0.9,0.2,1.4v0.2
			c0,0,0,0.1,0,0.2h-5.4v0.1c0,0.4,0.1,0.7,0.2,1c0.1,0.3,0.3,0.6,0.5,0.8c0.2,0.2,0.5,0.4,0.8,0.5c0.3,0.1,0.6,0.2,0.9,0.2
			c0.6,0,1.1-0.2,1.4-0.5c0.4-0.3,0.6-0.7,0.8-1.1L73.5,10.1z M72.7,8.1c0-0.3-0.1-0.6-0.2-0.9c-0.1-0.3-0.3-0.5-0.4-0.7
			c-0.2-0.2-0.4-0.4-0.7-0.5c-0.3-0.1-0.6-0.2-0.9-0.2c-0.3,0-0.6,0.1-0.9,0.2c-0.3,0.1-0.5,0.3-0.7,0.5c-0.2,0.2-0.4,0.4-0.5,0.7
			c-0.1,0.3-0.2,0.6-0.2,0.9H72.7z M76.3,5.3H78V6h-1.7v4c0,0.8,0.4,1.2,1.1,1.2c0.1,0,0.2,0,0.3,0c0.1,0,0.2,0,0.3-0.1v0.7
			c-0.1,0-0.2,0.1-0.3,0.1c-0.1,0-0.3,0-0.5,0c-0.5,0-1-0.2-1.3-0.5c-0.3-0.3-0.5-0.8-0.5-1.4V6H74V5.3h0.5c0.3,0,0.6-0.1,0.7-0.2
			c0.1-0.2,0.2-0.4,0.2-0.8V3.1h0.8V5.3z M14,5.5c0.3,0.3,0.6,0.7,0.7,1.2c0.2,0.5,0.2,1,0.2,1.5c0,0.1,0,0.3,0,0.4
			c0,0.2,0,0.2-0.1,0.3l-0.1,0.2H10c0,0.1,0.1,0.2,0.1,0.3c0.1,0.2,0.2,0.3,0.3,0.5c0.1,0.1,0.3,0.2,0.5,0.3
			c0.2,0.1,0.4,0.1,0.6,0.1c0.4,0,0.7-0.1,1-0.3l0.1-0.1l2.1,0.6l-0.2,0.3c-0.2,0.3-0.4,0.5-0.7,0.8c-0.3,0.2-0.6,0.4-1,0.5
			c-0.4,0.1-0.8,0.2-1.2,0.2c-0.5,0-1-0.1-1.4-0.3c-0.5-0.2-0.9-0.4-1.2-0.8C8.5,10.9,8.3,10.5,8,10c-0.2-0.5-0.3-1-0.3-1.6
			c0-0.6,0.1-1.1,0.3-1.6c0.2-0.5,0.5-0.9,0.8-1.2C9.2,5.2,9.6,4.9,10,4.8c0.4-0.2,0.9-0.3,1.4-0.3c0.6,0,1.1,0.1,1.5,0.3
			C13.3,4.9,13.7,5.2,14,5.5z M10.1,7.3h2.7c0-0.1,0-0.1-0.1-0.2c-0.1-0.1-0.1-0.3-0.3-0.4c-0.1-0.1-0.3-0.2-0.4-0.3
			c-0.2-0.1-0.4-0.1-0.6-0.1c-0.2,0-0.4,0-0.6,0.1c-0.2,0.1-0.3,0.2-0.4,0.3c-0.1,0.1-0.2,0.3-0.3,0.4C10.1,7.3,10.1,7.3,10.1,7.3z
			 M26.8,5.6c0.3,0.3,0.6,0.8,0.8,1.2c0.2,0.5,0.3,1,0.3,1.5c0,0.6-0.1,1.1-0.3,1.5c-0.2,0.5-0.5,0.9-0.8,1.2
			c-0.3,0.3-0.8,0.6-1.2,0.8c-0.5,0.2-1,0.3-1.5,0.3c-0.5,0-1.1-0.1-1.5-0.3c-0.5-0.2-0.9-0.5-1.2-0.8c-0.3-0.3-0.6-0.8-0.8-1.2
			c-0.2-0.5-0.3-1-0.3-1.5s0.1-1.1,0.3-1.5c0.2-0.5,0.5-0.9,0.8-1.2C21.6,5.2,22,5,22.5,4.8c0.5-0.2,1-0.3,1.5-0.3
			c0.6,0,1.1,0.1,1.5,0.3C26,5,26.4,5.2,26.8,5.6L26.8,5.6z M25.6,8.4c0-0.3,0-0.6-0.1-0.8c-0.1-0.2-0.2-0.4-0.4-0.6
			c-0.1-0.2-0.3-0.3-0.5-0.3c-0.2-0.1-0.4-0.1-0.6-0.1c-0.2,0-0.4,0-0.6,0.1C23.2,6.7,23,6.8,22.9,7c-0.1,0.2-0.3,0.4-0.4,0.6
			c-0.1,0.2-0.1,0.5-0.1,0.8c0,0.3,0,0.6,0.1,0.8c0.1,0.2,0.2,0.4,0.4,0.6c0.1,0.2,0.3,0.3,0.5,0.3c0.2,0.1,0.4,0.1,0.6,0.1
			c0.2,0,0.4,0,0.6-0.1c0.2-0.1,0.4-0.2,0.5-0.4c0.1-0.2,0.3-0.4,0.4-0.6C25.6,9,25.6,8.7,25.6,8.4z M35,6.3
			c0.1,0.4,0.2,0.7,0.2,1.1V12H33V7.7c0-0.4-0.1-0.7-0.3-0.9c-0.2-0.2-0.4-0.3-0.9-0.3c-0.4,0-0.7,0.1-0.8,0.4
			c-0.2,0.3-0.3,0.6-0.3,1V12h-2.2V4.7h2.2v0.4C30.8,5,31,4.8,31.1,4.8c0.4-0.2,0.8-0.3,1.3-0.3c0.5,0,0.9,0.1,1.2,0.2
			c0.3,0.2,0.6,0.4,0.9,0.7C34.7,5.6,34.9,6,35,6.3L35,6.3z M19.2,10.1c0.1,0,0.2,0,0.2,0l0.3-0.1v1.9l-0.2,0.1c0,0-0.1,0-0.3,0.1
			c-0.2,0-0.4,0.1-0.8,0.1c-0.7,0-1.3-0.2-1.7-0.6c-0.4-0.4-0.6-1-0.6-1.7V6.7h-0.8v-2h0.8l0-2.1h2.2v2.1h1.4v2h-1.4v2.9
			c0,0.2,0,0.4,0.1,0.4c0.1,0.1,0.2,0.1,0.5,0.1C19,10.1,19.1,10.1,19.2,10.1z M4.4,1.8H7v7c0,1.9-1.6,3.5-3.5,3.5S0,10.7,0,8.8h2.6
			c0,0.5,0.4,0.9,0.9,0.9s0.9-0.4,0.9-0.9V1.8z"/>
	</g>
</g>
</svg>
