<?xml version="1.0" encoding="UTF-8" standalone="no"?>
<svg width="90px" height="64px" viewBox="0 0 90 64" version="1.1" xmlns="http://www.w3.org/2000/svg" xmlns:xlink="http://www.w3.org/1999/xlink">
    <!-- Generator: Sketch 46 (44423) - http://www.bohemiancoding.com/sketch -->
    <title>jeton wallet</title>
    <desc>Created with Sketch.</desc>
    <defs></defs>
    <g id="Dashboard" stroke="none" stroke-width="1" fill="none" fill-rule="evenodd">
        <g id="jeton-wallet" fill="#FF6400">
            <path d="M44.3318305,39 L44.3318305,25 L45.0351668,25 L45.0351668,39 L44.3318305,39 Z M60.1588394,27.03 L61.0712353,27.03 L58.2077157,36.97 L57.2391723,36.97 L54.4598738,28.1936389 L51.6805753,36.97 L50.7541424,36.97 L47.8485122,27.03 L48.774945,27.03 L51.2313957,35.7222426 L53.9826205,27.03 L54.9511639,27.03 L57.7164255,35.7222426 L60.1588394,27.03 Z M63.3246377,37.11 C62.970029,37.11 62.6575423,37.0562076 62.3871776,36.9493214 C62.1163931,36.8422954 61.8902496,36.7025749 61.7083272,36.5301597 C61.5264048,36.3578842 61.3864645,36.1576647 61.2885063,35.9293613 C61.1905481,35.7011976 61.141569,35.4660479 61.141569,35.2237725 C61.141569,34.6556687 61.3211124,34.2085629 61.6803392,33.8824551 C62.039426,33.556487 62.5271179,33.3469062 63.1427153,33.2537126 L64.9199572,32.9882435 C65.2090739,32.9417166 65.3979933,32.862495 65.4867155,32.7507186 C65.5752977,32.6389421 65.6196587,32.5039721 65.6196587,32.3455289 C65.6196587,31.8984232 65.4773395,31.5351497 65.1928408,31.2557086 C64.9082022,30.9762675 64.4907603,30.8365469 63.9403751,30.8365469 C63.4086019,30.8365469 62.9768861,30.9740319 62.6459273,31.2487226 C62.3146886,31.5235529 62.1211511,31.9031737 62.065175,32.3874451 L61.2815093,32.2197804 C61.3187334,31.9031737 61.4120736,31.6143713 61.5613899,31.353513 C61.7105663,31.0927944 61.8994857,30.871477 62.1281481,30.6898403 C62.3566707,30.5082036 62.6249362,30.3662475 62.9328049,30.2636926 C63.2406736,30.1612774 63.5716324,30.11 63.926521,30.11 C64.355438,30.11 64.7311777,30.1706387 65.0529005,30.2916367 C65.3747632,30.4127745 65.6382708,30.5780639 65.8435632,30.7876447 C66.0487157,30.9972255 66.2026501,31.2441118 66.3055062,31.5281637 C66.4079425,31.8123553 66.4593006,32.1127545 66.4593006,32.4293613 L66.4593006,35.7966267 C66.4593006,36.0668463 66.4685366,36.2903992 66.4872886,36.4672854 C66.5059007,36.6443114 66.5292707,36.8026148 66.5572588,36.9423353 L65.731611,36.9423353 C65.712859,36.8678643 65.6942469,36.7257685 65.6757748,36.5161876 C65.6568829,36.3066068 65.6476468,36.0668463 65.6476468,35.7966267 C65.5729187,35.9550699 65.4658644,36.110998 65.325924,36.2646906 C65.1859837,36.4183832 65.0179154,36.5581038 64.821999,36.6838523 C64.6262225,36.8096008 64.4044171,36.9121557 64.1572826,36.9912375 C63.910008,37.0701796 63.6325064,37.11 63.3246377,37.11 Z M63.4259185,36.41 C63.7459012,36.41 64.0424431,36.35876 64.3155439,36.256 C64.5885036,36.15338 64.8239013,36.00876 65.0215959,35.822 C65.2192904,35.63538 65.3722212,35.40676 65.4805296,35.136 C65.5885556,34.86538 65.6429216,34.562 65.6429216,34.226 L65.6429216,33.47 C65.6238581,33.48876 65.5699158,33.51676 65.4805296,33.554 C65.3910022,33.59138 65.2804345,33.61938 65.1486852,33.638 L63.2705871,33.918 C62.8753392,33.974 62.5621346,34.10938 62.331538,34.324 C62.1008003,34.53876 61.9855726,34.828 61.9855726,35.192 C61.9855726,35.5 62.1078608,35.78 62.3527196,36.032 C62.5974372,36.284 62.9551231,36.41 63.4259185,36.41 Z M68.3155996,36.9 L68.3155996,26.82 L69.1596032,26.82 L69.1596032,36.9 L68.3155996,36.9 Z M71.0586114,36.9 L71.0586114,26.82 L71.902615,26.82 L71.902615,36.9 L71.0586114,36.9 Z M79.5266858,35.0997614 C79.4326495,35.3808748 79.2987146,35.6479324 79.1248812,35.9009344 C78.9509068,36.1539364 78.7394307,36.3767187 78.4904528,36.5685785 C78.2413339,36.76086 77.956969,36.9106934 77.6376401,37.0183598 C77.3178882,37.1260262 76.9654279,37.18 76.5802594,37.18 C76.1382743,37.18 75.7177188,37.1003044 75.3183109,36.9410537 C74.918621,36.781803 74.5712362,36.550025 74.2750286,36.2452982 C73.9789621,35.940993 73.7439416,35.5685179 73.5701082,35.1278728 C73.3961338,34.6876493 73.3092876,34.1861431 73.3092876,33.6239165 C73.3092876,33.0992185 73.3938781,32.6213258 73.563059,32.1902386 C73.7322399,31.7594324 73.9578144,31.3890656 74.2397826,31.079841 C74.5217508,30.7706163 74.8506667,30.53167 75.2266712,30.363002 C75.6025348,30.194334 76.0020837,30.11 76.4250359,30.11 C76.9231327,30.11 77.3648359,30.194334 77.7502864,30.363002 C78.1355959,30.53167 78.462256,30.7659779 78.7302667,31.0657853 C78.9979955,31.3658738 79.2046782,31.7217632 79.3504557,32.1340159 C79.4960923,32.5465497 79.5689811,33.0009694 79.5689811,33.4974155 L79.5689811,33.6520278 C79.5689811,33.6989738 79.5641876,33.7504175 79.5548827,33.8066402 L74.1692906,33.8066402 L74.1692906,33.8628628 C74.1692906,34.2472853 74.2327334,34.5961469 74.3597601,34.9100099 C74.4865048,35.2240135 74.6603381,35.4933201 74.8812602,35.7182107 C75.1020413,35.9431014 75.3582094,36.1166889 75.6496235,36.2382704 C75.9407556,36.360133 76.2510616,36.420994 76.5802594,36.420994 C77.1815566,36.420994 77.6632992,36.2663817 78.0253463,35.9571571 C78.3869705,35.6479324 78.6384861,35.2733489 78.7794702,34.8327038 L79.5266858,35.0997614 Z M78.7249775,33.12 C78.7154935,32.8100629 78.6588727,32.5190038 78.5551151,32.2465409 C78.4510744,31.9742189 78.3049928,31.7372579 78.116304,31.5350943 C77.9274737,31.3332126 77.6939129,31.1737358 77.4156218,31.0561006 C77.137189,30.9388881 76.8232268,30.88 76.4744427,30.88 C76.1628868,30.88 75.8728469,30.9388881 75.6037566,31.0561006 C75.3348078,31.1737358 75.1012471,31.3332126 74.9030743,31.5350943 C74.7050431,31.7372579 74.546788,31.9742189 74.4288752,32.2465409 C74.3106793,32.5190038 74.2424513,32.8100629 74.2236249,33.12 L78.7249775,33.12 Z M82.2558665,30.2706793 L84,30.2706793 L84,31.0290679 L82.2558665,31.0290679 L82.2558665,35.0738073 C82.2558665,35.8792441 82.6356682,36.2816114 83.3952714,36.2816114 C83.5170893,36.2816114 83.6318738,36.2699547 83.7399062,36.2465008 C83.8475167,36.2233278 83.9344491,36.197346 84,36.1692575 L84,36.9136019 C83.9438738,36.9416904 83.8428747,36.9697788 83.697706,36.9978673 C83.5522561,37.0259558 83.376422,37.04 83.1702038,37.04 C82.6262435,37.04 82.1972083,36.8808788 81.8830983,36.5624961 C81.5687069,36.2443942 81.4118629,35.776019 81.4118629,35.1580727 L81.4118629,31.0290679 L79.9909829,31.0290679 L79.9909829,30.2706793 L80.4975257,30.2706793 C80.8257024,30.2706793 81.0646961,30.193436 81.2149288,30.0389494 C81.3647394,29.8844629 81.4399964,29.6340542 81.4399964,29.2875829 L81.4399964,28.15 L82.2558665,28.15 L82.2558665,30.2706793 Z M20.0270586,30.5320887 C20.3382146,30.8661847 20.5783336,31.2724009 20.7406637,31.7397169 C20.9001803,32.200058 20.981064,32.7209409 20.981064,33.2882765 C20.981064,33.4242864 20.9758593,33.5480205 20.9657313,33.6559914 C20.9511019,33.8063695 20.9373165,33.8724912 20.9094644,33.9284296 L20.8318161,34.0834111 L15.9659946,34.0834111 C15.989908,34.193893 16.0253562,34.298516 16.0721984,34.3953271 C16.1596934,34.5770921 16.2765879,34.7370955 16.4195059,34.8710129 C16.5620018,35.0045118 16.7288332,35.1099718 16.9154986,35.1847424 C17.1008981,35.2592339 17.3044436,35.2970377 17.5205086,35.2970377 C17.9461677,35.2970377 18.2702651,35.2046905 18.4835167,35.0226465 L18.5975978,34.9254169 L20.6600613,35.4951239 L20.4400577,35.8163862 C20.2453742,36.1009607 20.0014572,36.3533113 19.7149179,36.5664632 C19.4292227,36.7789176 19.0994986,36.9477093 18.7348891,37.068235 C18.3701389,37.1889002 17.9616411,37.25 17.5205086,37.25 C17.0193111,37.25 16.5354157,37.1614192 16.0823264,36.9869081 C15.6261425,36.8111415 15.2200361,36.5511185 14.8754013,36.2139535 C14.5314698,35.8781835 14.2526673,35.4629 14.0471524,34.9800998 C13.8410748,34.4970206 13.7366997,33.9419609 13.7366997,33.3301257 C13.7366997,32.7565127 13.8361515,32.227818 14.0323823,31.7584095 C14.2283318,31.2903961 14.496725,30.8826454 14.8302471,30.5467359 C15.1639098,30.2109659 15.5535582,29.946479 15.988642,29.7608081 C16.4252732,29.5744397 16.8839892,29.48 17.3517078,29.48 C17.9108602,29.48 18.4220451,29.5713707 18.8709143,29.7514618 C19.3249883,29.9335057 19.7137926,30.1961792 20.0270586,30.5320887 Z M16.0577096,32.35 L18.7303877,32.35 C18.7150651,32.2847147 18.6955637,32.2205824 18.6724405,32.1580353 C18.6172791,32.00945 18.5330049,31.8759971 18.4219857,31.7611353 C18.3097129,31.6449765 18.1670735,31.5497147 17.9981071,31.4782324 C17.8283049,31.4064618 17.6200569,31.37 17.3792136,31.37 C17.1688762,31.37 16.979294,31.4077588 16.816178,31.4822676 C16.6505547,31.5580735 16.5090297,31.6580912 16.3953639,31.7794382 C16.2784943,31.9045324 16.1837728,32.0473529 16.1138461,32.2041529 C16.0921158,32.2528647 16.0733108,32.3015765 16.0577096,32.35 Z M32.758431,30.5884456 C33.1017998,30.9342594 33.3728656,31.347311 33.5643138,31.8165799 C33.7553399,32.2857093 33.852119,32.8042208 33.852119,33.3580251 C33.852119,33.9118294 33.7554806,34.4324334 33.5647358,34.9053293 C33.3734283,35.3796201 33.1020812,35.7956011 32.758431,36.1415544 C32.4149216,36.4869497 32.0058611,36.7610619 31.5425032,36.9559397 C31.0781605,37.1509569 30.5631776,37.25 30.0119026,37.25 C29.4703336,37.25 28.9580234,37.1510964 28.4894608,36.9562187 C28.0201948,36.7612014 27.6101497,36.4865312 27.2710009,36.1400199 C26.9324148,35.7944851 26.6640216,35.3790621 26.4731362,34.9053293 C26.282532,34.4329914 26.1857529,33.9123874 26.1857529,33.3580251 C26.1857529,32.8036628 26.2826727,32.2850118 26.4735582,31.8167194 C26.6645843,31.3478689 26.9328368,30.9350964 27.2711416,30.5898406 C27.6102904,30.2434688 28.0201948,29.9689381 28.4894608,29.7737813 C28.9580234,29.5789036 29.4703336,29.48 30.0119026,29.48 C30.5631776,29.48 31.0781605,29.5790431 31.5423625,29.7741998 C32.0060018,29.9690776 32.4150622,30.2430503 32.7582904,30.5884456 L32.758431,30.5884456 Z M31.6014427,33.3858955 C31.6014427,33.0653007 31.55612,32.7837754 31.4667296,32.5495 C31.3784548,32.3186097 31.257966,32.1228396 31.1087496,31.9676903 C30.9612066,31.8145157 30.7903747,31.6992821 30.6009953,31.6249515 C30.4064561,31.5486463 30.1986687,31.51 29.9837692,31.51 C29.7685907,31.51 29.5609428,31.5486463 29.3664036,31.6249515 C29.1782793,31.6987179 29.0106548,31.8132463 28.8682717,31.9650104 C28.721147,32.1218522 28.5994032,32.3197381 28.5062475,32.5534493 C28.4132312,32.7864552 28.3660956,33.0665701 28.3660956,33.3858955 C28.3660956,33.7059261 28.4135102,33.9888619 28.5068053,34.2268045 C28.599961,34.464747 28.7215654,34.6644664 28.8681322,34.820603 C29.0121888,34.9743418 29.1813473,35.091691 29.3707267,35.1698299 C29.5638713,35.2495201 29.7701247,35.29 29.9837692,35.29 C30.1972742,35.29 30.4035276,35.2495201 30.5966722,35.1698299 C30.7874461,35.0911269 30.9596726,34.9727903 31.108889,34.8180642 C31.2576871,34.6634791 31.377897,34.4658754 31.4661718,34.2307537 C31.5559805,33.9912597 31.6014427,33.7070545 31.6014427,33.3858955 Z M40.998429,31.3247238 C41.1103109,31.6768717 41.166817,32.0576665 41.166817,32.456488 L41.166817,37.04 L38.9630823,37.04 L38.9630823,32.7359704 C38.9630823,32.3782329 38.8738028,32.0730381 38.6979278,31.8294691 C38.5408411,31.6120318 38.2580285,31.5062477 37.832962,31.5062477 C37.4519701,31.5062477 37.1766446,31.6233508 36.9913048,31.864125 C36.7877419,32.1287948 36.6887151,32.4458677 36.6887151,32.8337893 L36.6887151,37.04 L34.4851217,37.04 L34.4851217,29.6756377 L36.6463356,29.6756377 L36.6463356,30.0818654 C36.7967829,29.9538625 36.9623455,29.8477989 37.1410458,29.7649323 C37.5491605,29.5758625 37.972108,29.48 38.3980221,29.48 C38.8603826,29.48 39.270475,29.5589538 39.6168569,29.7146255 C39.9659228,29.8716946 40.2594716,30.0930447 40.4891685,30.3728067 C40.7130736,30.6460007 40.8844281,30.9661479 40.998429,31.3245841 L40.998429,31.3247238 Z M25.1555449,35.0950559 C25.2961634,35.0774679 25.3365597,35.0688135 25.3456454,35.0664405 L25.6934175,34.9789192 L25.6934175,36.8660012 L25.5179939,36.9362137 C25.4784362,36.9521267 25.4039336,36.9780899 25.1779097,37.0378333 C24.9940993,37.0864097 24.7466891,37.11 24.4214215,37.11 C23.7151143,37.11 23.1462106,36.9048065 22.7306453,36.5002823 C22.3128436,36.0939433 22.1010772,35.5241476 22.1010772,34.806808 L22.1010772,31.6660916 L21.2623986,31.6660916 L21.2623986,29.6699918 L22.1007977,29.6699918 L22.1010772,27.59 L24.2676638,27.59 L24.2676638,29.6699918 L25.6794395,29.6699918 L25.6794395,31.6660916 L24.2676638,31.6660916 L24.2676638,34.5415919 C24.2676638,34.7562773 24.3107159,34.9113589 24.391928,34.989807 C24.4759356,35.0710469 24.6359835,35.1139002 24.8547388,35.1139002 C24.9544018,35.1139002 25.0554626,35.1074792 25.1555449,35.0950559 Z M10.3958521,26.75 L13.0333634,26.75 L13.0333634,33.75 C13.0333634,35.68298 11.4588747,37.25 9.5166817,37.25 C7.57448873,37.25 6,35.68298 6,33.75 L8.63751127,33.75 C8.63751127,34.23328 9.03109829,34.625 9.5166817,34.625 C10.0022651,34.625 10.3958521,34.23328 10.3958521,33.75 L10.3958521,26.75 Z" id="jeton_logo_white"></path>
        </g>
    </g>
</svg>