<?xml version="1.0" encoding="UTF-8" standalone="no"?>
<svg width="90px" height="64px" viewBox="0 0 90 64" version="1.1" xmlns="http://www.w3.org/2000/svg" xmlns:xlink="http://www.w3.org/1999/xlink">
    <!-- Generator: Sketch 46 (44423) - http://www.bohemiancoding.com/sketch -->
    <title>jeton voucher</title>
    <desc>Created with Sketch.</desc>
    <defs></defs>
    <g id="Dashboard" stroke="none" stroke-width="1" fill="none" fill-rule="evenodd">
        <g id="jeton-voucher" fill="#FF6400">
            <path d="M39.6830218,38 L39.6830218,26 L40.2827103,26 L40.2827103,38 L39.6830218,38 Z M49.1342321,27.74 L49.9376947,27.74 L46.6633956,36.26 L45.9079081,36.26 L42.6814642,27.74 L43.4971604,27.74 L46.3035826,35.3467137 L49.1342321,27.74 Z M52.5464598,36.38 C52.1456237,36.38 51.7730324,36.3061355 51.4285658,36.1588845 C51.083979,36.0115139 50.7835022,35.8062948 50.5271353,35.5433466 C50.2706483,35.2803984 50.0683673,34.9656972 49.9201722,34.5991235 C49.7718568,34.2326693 49.6978193,33.8262948 49.6978193,33.38 C49.6978193,32.9338247 49.7699338,32.5254183 49.9141626,32.1549004 C50.0583915,31.7843825 50.2585091,31.4676494 50.5151163,31.2047012 C50.7714831,30.941753 51.0741233,30.7385657 51.4225563,30.5951394 C51.7711094,30.4517131 52.1456237,30.38 52.5464598,30.38 C52.9469353,30.38 53.3195265,30.4517131 53.6641133,30.5951394 C54.00858,30.7385657 54.3090568,30.941753 54.5655438,31.2047012 C54.8219106,31.4676494 55.0241916,31.7843825 55.172507,32.1549004 C55.3207021,32.5254183 55.3948598,32.9338247 55.3948598,33.38 C55.3948598,33.8262948 55.3207021,34.2326693 55.172507,34.5991235 C55.0241916,34.9656972 54.8219106,35.2803984 54.5655438,35.5433466 C54.3090568,35.8062948 54.00858,36.0115139 53.6641133,36.1588845 C53.3195265,36.3061355 52.9469353,36.38 52.5464598,36.38 Z M50.4174455,33.41 C50.4174455,33.7870345 50.4750462,34.1218421 50.590367,34.4145431 C50.7055685,34.7073645 50.8586935,34.9539888 51.0495035,35.1544162 C51.2403135,35.354964 51.4628456,35.5093147 51.7173384,35.6175888 C51.9717119,35.7258629 52.2380111,35.78 52.5164744,35.78 C52.7945799,35.78 53.0608791,35.7258629 53.3153719,35.6175888 C53.5697454,35.5093147 53.7923968,35.354964 53.9832068,35.1544162 C54.1740167,34.9539888 54.3270225,34.7073645 54.4423433,34.4145431 C54.5575448,34.1218421 54.6152648,33.7870345 54.6152648,33.41 C54.6152648,33.0330858 54.5575448,32.6982782 54.4423433,32.4054569 C54.3270225,32.1127558 54.1740167,31.8640863 53.9832068,31.6595685 C53.7923968,31.4550508 53.5697454,31.3007 53.3153719,31.1963959 C53.0608791,31.0922122 52.7945799,31.04 52.5164744,31.04 C52.2380111,31.04 51.9717119,31.0922122 51.7173384,31.1963959 C51.4628456,31.3007 51.2403135,31.4550508 51.0495035,31.6595685 C50.8586935,31.8640863 50.7055685,32.1127558 50.590367,32.4054569 C50.4750462,32.6982782 50.4174455,33.0330858 50.4174455,33.41 Z M60.4682243,35.336 C60.332095,35.61608 60.1122492,35.86004 59.808567,36.068 C59.5046449,36.27596 59.1249221,36.38 58.6691589,36.38 C58.3093458,36.38 57.9954688,36.31796 57.727528,36.194 C57.4595872,36.07004 57.2377025,35.90204 57.0619938,35.69 C56.8860452,35.47808 56.7539938,35.23604 56.6661994,34.964 C56.5780452,34.69208 56.5342679,34.40408 56.5342679,34.1 L56.5342679,30.5 L57.2538941,30.5 L57.2538941,33.98 C57.2538941,34.21208 57.2818396,34.43204 57.3377305,34.64 C57.3936215,34.84808 57.4835748,35.03408 57.6075903,35.198 C57.7316059,35.36204 57.8914829,35.492 58.0873411,35.588 C58.2831994,35.684 58.5211558,35.732 58.8010903,35.732 C59.0567975,35.732 59.2847991,35.68604 59.4847352,35.594 C59.6845514,35.50208 59.8545031,35.378 59.9944704,35.222 C60.1343178,35.066 60.2403427,34.88204 60.3123053,34.67 C60.3842679,34.45808 60.4202492,34.232 60.4202492,33.992 L60.4202492,30.5 L61.1398754,30.5 L61.1398754,35.132 C61.1398754,35.348 61.1476713,35.552 61.1638629,35.744 C61.1798146,35.936 61.1956464,36.09608 61.211838,36.224 L60.5281931,36.224 C60.5120016,36.16004 60.4982087,36.056 60.486095,35.912 C60.4742212,35.768 60.4682243,35.60408 60.4682243,35.42 L60.4682243,35.336 Z M65.2049383,31.0305765 C64.9185097,31.0305765 64.649871,31.0847913 64.3990221,31.1932207 C64.1482927,31.3016501 63.9293223,31.4582704 63.7423497,31.6630815 C63.5553771,31.8678926 63.4061334,32.1190875 63.2946185,32.4160636 C63.1831036,32.7132807 63.1275849,33.046641 63.1275849,33.4160239 C63.1275849,33.7774553 63.1813126,34.1047917 63.2886487,34.3979125 C63.3962236,34.6911539 63.5454674,34.9400596 63.7363799,35.1448708 C63.9275313,35.3496819 64.1482927,35.5083503 64.3990221,35.6207555 C64.649871,35.7334016 64.9185097,35.7894235 65.2049383,35.7894235 C65.4754874,35.7894235 65.7163071,35.7453288 65.9273974,35.6568986 C66.1381296,35.5685889 66.3192518,35.4561837 66.4706446,35.3195626 C66.6216793,35.183062 66.7451337,35.0324656 66.8406497,34.8677734 C66.9361657,34.7032016 67.0079221,34.5405575 67.0555607,34.379841 L67.6884735,34.6448907 C67.6167171,34.8698215 67.5132017,35.0888489 67.3779272,35.3014911 C67.2425332,35.5143742 67.0694105,35.7050895 66.8586783,35.8737575 C66.647588,36.0424254 66.4049774,36.1790465 66.1302495,36.2833797 C65.855641,36.3877129 65.5471244,36.44 65.2049383,36.44 C64.7991148,36.44 64.4268412,36.3656656 64.0885952,36.2171173 C63.7502298,36.068569 63.4559211,35.8597821 63.2050722,35.5906362 C62.9543428,35.3216107 62.7592513,35.0023463 62.6201562,34.6328429 C62.4808222,34.26346 62.411215,33.8578135 62.411215,33.4160239 C62.411215,32.9743547 62.4808222,32.56666 62.6201562,32.1931809 C62.7592513,31.8197018 62.9543428,31.4985097 63.2050722,31.2293638 C63.4559211,30.9603384 63.7522595,30.751672 64.0945649,30.6028827 C64.436751,30.4543344 64.8068754,30.38 65.2049383,30.38 C65.5471244,30.38 65.8537307,30.4281909 66.1242798,30.5245726 C66.3948288,30.6209543 66.6317085,30.7534791 66.8346799,30.9221471 C67.0377708,31.0908151 67.2067147,31.2835785 67.3421087,31.5004374 C67.4773832,31.7172962 67.5768392,31.9462028 67.6405961,32.1871571 L67.0079221,32.4522068 C66.9600447,32.2835388 66.890318,32.1148708 66.7989808,31.9462028 C66.7072855,31.7775348 66.5900396,31.6251312 66.4466462,31.4883897 C66.3033722,31.3518891 66.1282198,31.2414115 65.9213083,31.1570775 C65.7142774,31.0727435 65.4754874,31.0305765 65.2049383,31.0305765 Z M69.5437401,36.2 L68.8278816,36.2 L68.8278816,27.56 L69.5437401,27.56 L69.5437401,31.3893629 C69.6947863,31.1021607 69.9255313,30.8549274 70.2357367,30.6474238 C70.545942,30.4400399 70.9235574,30.3362881 71.3691793,30.3362881 C71.7032466,30.3362881 71.9973451,30.3921729 72.2520714,30.5038227 C72.5065591,30.6155922 72.7173794,30.7670914 72.8844131,30.9585596 C73.0514467,31.1500277 73.176722,31.3756011 73.2602388,31.6346814 C73.3437556,31.8940011 73.385514,32.1712709 73.385514,32.4663712 L73.385514,36.2 L72.6696555,36.2 L72.6696555,32.5860388 C72.6696555,32.3628587 72.6398281,32.1534404 72.5801732,31.9577839 C72.5205183,31.7623668 72.4269795,31.5927978 72.2997953,31.4491967 C72.1724918,31.3055956 72.0134519,31.1919114 71.8225563,31.108144 C71.6316607,31.0243767 71.4007963,30.9824931 71.1305598,30.9824931 C70.8919403,30.9824931 70.6731262,31.0323945 70.4743562,31.1320776 C70.2754668,31.2318803 70.1083138,31.3635147 69.9732552,31.5269806 C69.837958,31.6905662 69.7326074,31.88 69.6570844,32.0954017 C69.5813227,32.3108033 69.5437401,32.5342227 69.5437401,32.7655402 L69.5437401,36.2 Z M79.886056,34.6569384 C79.8058774,34.8978926 79.69168,35.1267992 79.5434637,35.3436581 C79.3951273,35.5605169 79.2148155,35.7514732 79.0025285,35.9159245 C78.7901213,36.0807372 78.5476621,36.2091658 78.2753914,36.3014513 C78.00276,36.3937368 77.7022405,36.44 77.3738327,36.44 C76.9969812,36.44 76.6384012,36.3716895 76.2978525,36.2351889 C75.9570633,36.0986883 75.6608712,35.9000215 75.4083146,35.638827 C75.1558781,35.377994 74.9554917,35.0587296 74.8072754,34.6810338 C74.658939,34.3036994 74.584891,33.873837 74.584891,33.3919284 C74.584891,32.9421873 74.6570157,32.532565 74.8012651,32.1630616 C74.9455144,31.7937992 75.137847,31.4763419 75.3782626,31.2112922 C75.6186783,30.9462425 75.8991231,30.7414314 76.2197174,30.5968588 C76.5401914,30.4522863 76.8808604,30.38 77.2414839,30.38 C77.6661781,30.38 78.0427892,30.4522863 78.3714374,30.5968588 C78.6999654,30.7414314 78.978487,30.9422668 79.207002,31.1992445 C79.4352767,31.4564632 79.6115014,31.7615113 79.7357963,32.1148708 C79.8599709,32.4684712 79.9221184,32.8579738 79.9221184,33.283499 L79.9221184,33.4160239 C79.9221184,33.4562632 79.9180313,33.5003579 79.9100976,33.5485487 L75.3181587,33.5485487 L75.3181587,33.5967396 C75.3181587,33.9262445 75.3722522,34.2252688 75.4805595,34.4942942 C75.5886263,34.7634402 75.7368425,34.9942744 75.9252082,35.1870378 C76.1134537,35.3798012 76.3318713,35.5285905 76.5803409,35.6328032 C76.82857,35.7372569 77.0931474,35.7894235 77.3738327,35.7894235 C77.8865191,35.7894235 78.2972692,35.6568986 78.6059629,35.3918489 C78.914296,35.1267992 79.1287467,34.8057276 79.2489546,34.4280318 L79.886056,34.6569384 Z M79.1425234,32.96 C79.134437,32.6943396 79.0861602,32.4448604 78.9976929,32.2113208 C78.9089843,31.9779019 78.7844301,31.7747925 78.6235477,31.6015094 C78.4625445,31.4284679 78.2634027,31.2917736 78.0261222,31.1909434 C77.788721,31.0904755 77.5210261,31.04 77.2236409,31.04 C76.9579978,31.04 76.7106999,31.0904755 76.4812643,31.1909434 C76.2519495,31.2917736 76.0528077,31.4284679 75.8838388,31.6015094 C75.7149907,31.7747925 75.580057,31.9779019 75.4795206,32.2113208 C75.3787427,32.4448604 75.3205692,32.6943396 75.3045171,32.96 L79.1425234,32.96 Z M84,31.2593789 C83.8548902,31.2192534 83.6855954,31.1991304 83.4921157,31.1991304 C83.0003144,31.1991304 82.5931605,31.3578248 82.2707748,31.6750932 C81.9482683,31.992482 81.7870755,32.4804944 81.7870755,33.1391304 L81.7870755,36.26 L81.0615265,36.26 L81.0615265,30.5122981 L81.7751039,30.5122981 L81.7751039,31.5847205 C81.9521379,31.1831043 82.1961642,30.8918634 82.5065783,30.711118 C82.8168714,30.5303727 83.1657396,30.44 83.5525781,30.44 C83.7460578,30.44 83.8951582,30.460123 84,30.5002484 L84,31.2593789 Z M18.959947,30.7417903 C19.2252492,31.0281583 19.4299829,31.3763436 19.568391,31.7769002 C19.7044003,32.1714783 19.7733645,32.6179494 19.7733645,33.104237 C19.7733645,33.2208169 19.7689268,33.3268747 19.7602913,33.4194212 C19.7478178,33.5484363 19.7360639,33.605112 19.7123162,33.6530592 L19.6461106,33.785781 L15.4973458,33.785781 C15.5177352,33.8804797 15.5479595,33.9701566 15.5878988,34.0531375 C15.6625,34.2089361 15.7621682,34.3460819 15.8840249,34.4608682 C16.0055218,34.5752959 16.1477679,34.6658097 16.3069252,34.7298987 C16.4650031,34.7937487 16.638553,34.8260323 16.8227773,34.8260323 C17.1857087,34.8260323 17.4620452,34.7469971 17.6438707,34.5909594 L17.7411402,34.5076197 L19.4996667,34.99594 L19.3120841,35.2711882 C19.1460903,35.5151092 18.9381184,35.7314097 18.6938053,35.9141113 C18.4502118,36.0962151 18.1690779,36.2410133 17.8581994,36.3442014 C17.5472009,36.4476287 17.1989019,36.5 16.8227773,36.5 C16.3954393,36.5 15.9828536,36.4240736 15.5965343,36.2744926 C15.2075763,36.1238355 14.8613162,35.9009587 14.5674688,35.6120797 C14.2742212,35.3241573 14.0365047,34.9683196 13.8612757,34.5543713 C13.685567,34.140423 13.5965732,33.6645379 13.5965732,33.1401077 C13.5965732,32.6484395 13.6813692,32.1952725 13.8486822,31.793042 C14.0157555,31.391768 14.2445966,31.0422675 14.5289688,30.7543451 C14.8134611,30.4665422 15.1456885,30.2398391 15.5166558,30.0806926 C15.8889424,29.9209483 16.2800592,29.84 16.678852,29.84 C17.1556044,29.84 17.5914579,29.9183178 17.9741791,30.0726815 C18.361338,30.2288388 18.6928458,30.4539874 18.959947,30.7417903 Z M15.5755452,32.3 L17.8543614,32.3 C17.8412968,32.2440412 17.8246692,32.1890706 17.8049536,32.1354588 C17.7579211,32.0082235 17.686066,31.8937118 17.5914073,31.7952588 C17.4956797,31.6956941 17.3740605,31.6140412 17.229994,31.5527706 C17.0852149,31.4912529 16.9076556,31.46 16.7023044,31.46 C16.5229636,31.46 16.3613193,31.4923647 16.2222411,31.5562294 C16.081025,31.6212059 15.960356,31.7069353 15.8634406,31.8110706 C15.7637937,31.9181706 15.6830309,32.0405882 15.623409,32.1749882 C15.6048811,32.2167412 15.5888473,32.2584941 15.5755452,32.3 Z M29.815148,30.7900962 C30.1079159,31.0865081 30.3390358,31.4405522 30.502271,31.8427828 C30.6651464,32.2447741 30.7476636,32.6893321 30.7476636,33.1640215 C30.7476636,33.6385914 30.6652664,34.0848233 30.5026308,34.4902822 C30.3395156,34.8968172 30.1081558,35.2532528 29.815148,35.5497842 C29.5222601,35.8459569 29.1734813,36.0807907 28.7784065,36.2478287 C28.3824922,36.4151059 27.9434003,36.5 27.4733645,36.5 C27.0116044,36.5 26.5747913,36.4152255 26.1752788,36.2481874 C25.7751667,36.0810298 25.4255483,35.8454786 25.1363785,35.5485885 C24.8476885,35.2524158 24.6188474,34.896339 24.4560919,34.4902822 C24.2935763,34.0854212 24.2110592,33.6391892 24.2110592,33.1640215 C24.2110592,32.6887343 24.2936963,32.2442959 24.4564517,31.8427828 C24.6193271,31.4410305 24.8480483,31.0872255 25.1364984,30.7912919 C25.4256682,30.4944018 25.7751667,30.2590898 26.1752788,30.091693 C26.5747913,29.9246549 27.0116044,29.84 27.4733645,29.84 C27.9434003,29.84 28.3824922,29.9247745 28.7782866,30.0921713 C29.1736012,30.2592093 29.5223801,30.4939235 29.815028,30.7900962 L29.815148,30.7900962 Z M28.8286604,33.1879104 C28.8286604,32.9131149 28.7900167,32.6718075 28.7137994,32.471 C28.6385333,32.273094 28.5358005,32.1051701 28.4085735,31.972306 C28.2827733,31.8410134 28.1371162,31.7422418 27.9756449,31.678409 C27.8097742,31.6131254 27.6326076,31.58 27.4493769,31.58 C27.2659085,31.58 27.0888608,31.6131254 26.92299,31.6785299 C26.7625889,31.7417582 26.6196666,31.8399254 26.4982659,31.970009 C26.3728224,32.1043239 26.2690194,32.2739403 26.1895917,32.4742642 C26.1102829,32.6741045 26.0700935,32.9140821 26.0700935,33.1879104 C26.0700935,33.4622224 26.1105207,33.7047388 26.1900673,33.9086896 C26.269495,34.1126403 26.3731791,34.2838284 26.498147,34.4176597 C26.6209745,34.5493149 26.7652048,34.6500209 26.9266761,34.7168761 C27.0913578,34.785303 27.2672164,34.82 27.4493769,34.82 C27.6314186,34.82 27.8072772,34.785303 27.9719589,34.716997 C28.1346193,34.6495373 28.2814654,34.548106 28.4086924,34.4154836 C28.5355627,34.2828612 28.6380577,34.1134866 28.7133238,33.9120746 C28.7898978,33.706794 28.8286604,33.4631896 28.8286604,33.1879104 Z M36.8408504,31.4211919 C36.9362447,31.7230329 36.9844237,32.0494285 36.9844237,32.3912754 L36.9844237,36.32 L35.1054446,36.32 L35.1054446,32.6308318 C35.1054446,32.3241996 35.0293218,32.0627238 34.8793649,31.8538307 C34.7454274,31.6674558 34.5042917,31.5767837 34.1418656,31.5767837 C33.817019,31.5767837 33.5822671,31.6771579 33.4242401,31.8836555 C33.2506754,32.1103956 33.1662418,32.3822921 33.1662418,32.7146765 L33.1662418,36.32 L31.2873832,36.32 L31.2873832,30.0076895 L33.1301076,30.0076895 L33.1301076,30.3558847 C33.2583841,30.2462876 33.3995484,30.1552562 33.5519143,30.0842277 C33.8998868,29.9221678 34.2605062,29.84 34.6236551,29.84 C35.0178793,29.84 35.3675381,29.9076747 35.6628751,30.0412274 C35.9605005,30.1757383 36.2107902,30.3655867 36.4066376,30.6052628 C36.5975467,30.8394292 36.7436494,31.113841 36.8408504,31.4210721 L36.8408504,31.4211919 Z M23.3326688,34.6529051 C23.4525649,34.6378297 23.4870082,34.6302919 23.494755,34.6283776 L23.7912773,34.5533593 L23.7912773,36.1708582 L23.6417051,36.2310403 C23.6079769,36.24468 23.5444534,36.2669342 23.3517378,36.3181428 C23.1950148,36.3597798 22.9840644,36.38 22.7067302,36.38 C22.1045087,36.38 21.6194421,36.2041199 21.265117,35.8572651 C20.908885,35.5089746 20.7283258,35.0206979 20.7283258,34.4058354 L20.7283258,31.7137928 L20.0132399,31.7137928 L20.0132399,30.0027305 L20.7280875,30.0027305 L20.7283258,28.22 L22.5756312,28.22 L22.5756312,30.0027305 L23.7793592,30.0027305 L23.7793592,31.7137928 L22.5756312,31.7137928 L22.5756312,34.1783877 C22.5756312,34.3625234 22.6123389,34.4954505 22.6815831,34.5626917 C22.7532108,34.6322063 22.8896731,34.6689377 23.0761913,34.6689377 C23.1611674,34.6689377 23.2473352,34.6635536 23.3326688,34.6529051 Z M10.748053,27.5 L12.9968847,27.5 L12.9968847,33.5 C12.9968847,35.15684 11.6544221,36.5 9.99844237,36.5 C8.34246262,36.5 7,35.15684 7,33.5 L9.24883178,33.5 C9.24883178,33.91424 9.58441745,34.25 9.99844237,34.25 C10.4124673,34.25 10.748053,33.91424 10.748053,33.5 L10.748053,27.5 Z" id="Combined-Shape"></path>
        </g>
    </g>
</svg>