<?xml version="1.0" encoding="utf-8"?>
<!-- Generator: Adobe Illustrator 23.0.1, SVG Export Plug-In . SVG Version: 6.00 Build 0)  -->
<svg version="1.1" id="Layer_1" xmlns="http://www.w3.org/2000/svg" xmlns:xlink="http://www.w3.org/1999/xlink" x="0px" y="0px"
	 viewBox="0 0 98.7 28.3" style="enable-background:new 0 0 98.7 28.3;" xml:space="preserve">
<style type="text/css">
	.st0{fill-rule:evenodd;clip-rule:evenodd;fill:#1866AC;}
	.st1{fill-rule:evenodd;clip-rule:evenodd;fill:#373536;}
	.st2{fill:#373536;}
</style>
<g>
	<path class="st0" d="M6,0h17.8h0.9c1.3,0,2.4,1.1,2.4,2.5v1.2c0,1.7-2.3,1.7-2.3,0V3.1c0-0.4-0.3-0.8-0.8-0.8H5.3
		c-0.4,0-0.8,0.3-0.8,0.8v0.6c0,1.7-2.2,1.7-2.2,0V2.5C2.3,1.1,3.4,0,4.7,0H6L6,0z M14.6,28.3h12.2c2.8,0,2.8-3,2.5-4.4
		c-0.2-1-1.8-1-2,0V25c0,0.5-0.4,0.9-0.9,0.9H14.6h-0.9H3.1c-0.5,0-0.9-0.4-0.9-0.9v-1.1c-0.2-1-1.8-1-2,0c-0.3,1.5-0.3,4.4,2.5,4.4
		h11.1H14.6z"/>
	<path class="st1" d="M22.2,13h1.9v0c0.9-0.1,1.6-0.9,1.6-1.8l0,0c0-1-0.8-1.8-1.8-1.8h-3.9v9.6h5c1,0,1.9-0.9,1.9-1.9l0,0
		c0-1-0.9-1.9-1.9-1.9h-0.8v0h-1.9c-0.6,0-1.1-0.5-1.1-1.1l0,0C21.1,13.5,21.6,13,22.2,13L22.2,13z M26.7,13.9
		c1.3,0.6,2.2,1.9,2.2,3.3l0,0c0,2-1.8,3.7-4,3.7h-6.1c-0.6,0-1-0.4-1-1V8.4c0-0.6,0.5-1,1-1h5.1c2.1,0,3.9,1.8,3.9,3.9l0,0
		C27.8,12.3,27.4,13.2,26.7,13.9z"/>
	<path class="st2" d="M16.8,19.8c0.1,0.7-0.4,1.3-1.1,1.3c-0.7,0.1-1.3-0.4-1.3-1.1l-1-9.2l-3.6,9l0,0l0,0v0l0,0l0,0l0,0l0,0l0,0
		l0,0l0,0l0,0l0,0c-0.1,0.1-0.2,0.2-0.2,0.3l0,0l0,0c-0.1,0.1-0.1,0.1-0.2,0.2l0,0l0,0l0,0l0,0l0,0l0,0l0,0l0,0l0,0l0,0l0,0l0,0l0,0
		l0,0l0,0l0,0c-0.1,0-0.2,0.1-0.4,0.1l0,0h0h0h0h0l0,0c-0.1,0-0.3,0-0.4-0.1l0,0l0,0l0,0l0,0l0,0l0,0l0,0l0,0l0,0l0,0l0,0l0,0
		c-0.1,0-0.1-0.1-0.2-0.1l0,0c0,0,0,0,0,0l0,0c0,0,0,0,0,0c0,0,0,0,0,0l0,0c0,0,0,0,0,0l0,0c0-0.1-0.1-0.1-0.1-0.2l0,0l0,0l0,0l0,0
		l0,0l0,0l0,0l0,0l0,0l0,0l0,0l0,0l-3.6-9l-1,9.2c-0.1,0.7-0.7,1.2-1.3,1.1c-0.7-0.1-1.2-0.7-1.1-1.3L1.7,8.9l0,0l0,0l0,0
		c0-0.1,0-0.3,0.1-0.4c0-0.1,0.1-0.2,0.1-0.4c0.3-0.6,0.9-1,1.5-1.1l0,0c0,0,0,0,0.1,0c0.1,0,0.2,0,0.3,0l0,0v0c0.1,0,0.3,0,0.4,0
		c0.6,0.1,1.2,0.6,1.4,1.2l3,7.7l3-7.7c0.3-0.6,0.8-1.1,1.4-1.2c0.1,0,0.2,0,0.4,0v0l0,0c0.1,0,0.2,0,0.3,0c0,0,0,0,0.1,0l0,0
		c0.7,0.1,1.2,0.5,1.5,1.1c0.1,0.1,0.1,0.2,0.1,0.4c0,0.1,0.1,0.3,0.1,0.4l0,0l0,0l0,0L16.8,19.8z"/>
	<g>
		<path class="st2" d="M47.3,11.2c0-0.4,0.3-0.7,0.7-0.7s0.7,0.3,0.7,0.7v4v0h0c0,0.9-0.4,1.7-1,2.3c-0.6,0.6-1.4,1-2.3,1v0h0h0v0
			c-0.9,0-1.7-0.4-2.3-1c-0.6-0.6-1-1.4-1-2.3h0v0v-4c0-0.4,0.3-0.7,0.7-0.7c0.4,0,0.7,0.3,0.7,0.7v4v0h0c0,0.5,0.2,1,0.5,1.3
			c0.3,0.3,0.8,0.5,1.3,0.5v0h0h0v0c0.5,0,1-0.2,1.3-0.5c0.3-0.3,0.5-0.8,0.5-1.3h0v0L47.3,11.2L47.3,11.2z"/>
		<path class="st2" d="M54.2,17.1c0.4,0,0.7,0.3,0.7,0.7c0,0.4-0.3,0.7-0.7,0.7h-2h0v0c-0.8,0-1.5-0.3-2-0.8c-0.5-0.5-0.8-1.2-0.8-2
			h0v0v-4.5c0-0.4,0.3-0.7,0.7-0.7c0.4,0,0.7,0.3,0.7,0.7v4.5v0h0c0,0.4,0.1,0.7,0.4,0.9c0.2,0.2,0.6,0.4,0.9,0.4v0h0
			C52.2,17.1,54.2,17.1,54.2,17.1z"/>
		<path class="st2" d="M41.8,17.7c0,0.4-0.2,0.8-0.6,0.8c-0.4,0-0.8-0.2-0.8-0.6l-0.6-5.3l-2.3,5.2c-0.2,0.4-0.6,0.5-1,0.4
			c-0.2-0.1-0.3-0.2-0.4-0.4h0l-2.3-5.2l-0.6,5.3c0,0.4-0.4,0.7-0.8,0.6c-0.4,0-0.7-0.4-0.6-0.8l0.7-6.2c0-0.4,0.3-0.7,0.6-0.9
			c0,0,0.1,0,0.1-0.1c0,0,0,0,0.1,0c0.1,0,0.1,0,0.2,0v0l0,0l0,0c0.4,0,0.8,0.1,1,0.3c0.1,0.1,0.1,0.1,0.2,0.2c0,0,0.1,0.1,0.1,0.1
			c0,0,0,0.1,0,0.1l1.9,4.4l1.9-4.4c0.2-0.4,0.5-0.6,0.9-0.7c0.1,0,0.1,0,0.2,0c0.1,0,0.1,0,0.2,0l0,0l0,0c0,0,0,0,0.1,0l0,0l0,0
			l0,0c0.4,0,0.7,0.3,0.9,0.6h0c0,0.1,0.1,0.1,0.1,0.2c0,0,0,0.1,0,0.1c0,0,0,0.1,0,0.1l0,0L41.8,17.7z"/>
		<path class="st2" d="M57.5,17.8c0,0.4-0.3,0.7-0.7,0.7c-0.4,0-0.7-0.3-0.7-0.7V12h-2.1c-0.4,0-0.7-0.3-0.7-0.7
			c0-0.4,0.3-0.7,0.7-0.7h2.8h2.8c0.4,0,0.7,0.3,0.7,0.7c0,0.4-0.3,0.7-0.7,0.7h-2.1L57.5,17.8L57.5,17.8z"/>
		<path class="st2" d="M62.1,17.8c0,0.4-0.3,0.7-0.7,0.7c-0.4,0-0.7-0.3-0.7-0.7v-6.6c0-0.4,0.3-0.7,0.7-0.7c0.4,0,0.7,0.3,0.7,0.7
			V17.8z"/>
		<path class="st2" d="M77.2,17.7c0,0.4-0.2,0.8-0.6,0.8c-0.4,0-0.8-0.2-0.8-0.6l-0.3-2.1h-2.6c-0.4,0-0.7-0.3-0.7-0.7
			c0-0.4,0.3-0.7,0.7-0.7h2.4l-0.1-0.5l0,0c0,0,0,0,0-0.1c0-0.1,0-0.2-0.1-0.4c0-0.1-0.1-0.3-0.2-0.4c-0.3-0.6-0.8-1-1.5-1l0,0h0v0
			c-0.1,0-0.3,0-0.4,0c-0.1,0-0.2,0.1-0.3,0.1c-0.6,0.3-0.9,0.9-1,1.6l-0.5,4.1c0,0.4-0.4,0.7-0.8,0.7c-0.4,0-0.7-0.4-0.7-0.8
			l0.5-4.1c0.1-1.2,0.8-2.3,1.8-2.8c0.2-0.1,0.4-0.2,0.7-0.2c0.2-0.1,0.5-0.1,0.7-0.1v0h0l0,0c1.3,0,2.3,0.7,2.8,1.8
			c0.1,0.2,0.2,0.4,0.3,0.6c0.1,0.2,0.1,0.4,0.1,0.6c0,0,0,0,0,0.1l0,0L77.2,17.7z"/>
		<path class="st2" d="M79.5,17.8c0,0.4-0.3,0.7-0.7,0.7S78,18.2,78,17.8v-6.1v0c0,0,0-0.1,0-0.1c0-0.1,0-0.2,0.1-0.2l0,0l0,0
			c0,0,0-0.1,0.1-0.1l0,0l0,0c0.1-0.2,0.3-0.4,0.6-0.5c0,0,0.1,0,0.1,0c0,0,0.1,0,0.1,0l0,0v0c0,0,0.1,0,0.2,0h0h0h0
			c0.3,0,0.6,0.2,0.8,0.4l3.9,5v-4.8c0-0.4,0.3-0.7,0.7-0.7c0.4,0,0.7,0.3,0.7,0.7v6.1c0,0.3-0.1,0.6-0.4,0.8c0,0-0.1,0.1-0.2,0.1
			c0,0-0.1,0-0.1,0l0,0l0,0c0,0,0,0-0.1,0l0,0v0h0l0,0l0,0c-0.3,0.1-0.5,0.1-0.8,0c0,0-0.1,0-0.1,0c-0.1,0-0.1-0.1-0.1-0.1
			c0,0-0.1-0.1-0.1-0.1l0,0l0,0l0,0l0,0l-3.9-5L79.5,17.8L79.5,17.8z"/>
		<path class="st2" d="M91,17.1c0.4,0,0.7,0.3,0.7,0.7c0,0.4-0.3,0.7-0.7,0.7h-2.2h0v0c-0.8,0-1.5-0.3-2.1-0.9
			c-0.5-0.5-0.9-1.3-0.9-2.1h0v0v-2.2v0h0c0-0.8,0.3-1.5,0.9-2.1c0.5-0.5,1.3-0.9,2.1-0.9v0h0H91c0.4,0,0.7,0.3,0.7,0.7
			c0,0.4-0.3,0.7-0.7,0.7h-2.2h0v0c-0.4,0-0.8,0.2-1,0.4c-0.3,0.3-0.4,0.6-0.4,1h0v0v2.2v0h0c0,0.4,0.2,0.8,0.4,1
			c0.3,0.3,0.6,0.4,1,0.4v0h0L91,17.1L91,17.1z"/>
		<path class="st2" d="M95.3,10.5L95.3,10.5L95.3,10.5c0.9,0,1.8,0.4,2.4,1c0.6,0.6,1,1.4,1,2.4h0v0v1.4v0h0c0,0.9-0.4,1.8-1,2.4
			c-0.6,0.6-1.5,1-2.4,1v0h0h0v0c-0.9,0-1.8-0.4-2.4-1c-0.6-0.6-1-1.4-1-2.4h0v0v-1.4v0h0c0-0.9,0.4-1.8,1-2.4
			C93.5,10.9,94.3,10.5,95.3,10.5L95.3,10.5L95.3,10.5L95.3,10.5z M95.3,12L95.3,12L95.3,12L95.3,12L95.3,12c-0.5,0-1,0.2-1.4,0.6
			c-0.4,0.3-0.6,0.8-0.6,1.3h0v0v1.4v0h0c0,0.5,0.2,1,0.6,1.3c0.4,0.3,0.9,0.6,1.4,0.6v0h0h0v0c0.5,0,1-0.2,1.4-0.6
			c0.4-0.3,0.6-0.8,0.6-1.3h0v0v-1.4v0h0c0-0.5-0.2-1-0.6-1.3C96.3,12.2,95.8,12,95.3,12z"/>
		<path class="st2" d="M62.7,14.5v-3.2v0c0-0.1,0-0.2,0.1-0.3c0-0.1,0.1-0.2,0.2-0.3l0,0v0c0.1-0.1,0.3-0.2,0.5-0.2c0,0,0,0,0,0v0h0
			h2.8h0v0c0.6,0,1.2,0.3,1.7,0.7c0.4,0.4,0.7,1,0.7,1.7h0v0v0v0h0c0,0.5-0.1,0.9-0.4,1.3c0.2,0.1,0.3,0.2,0.4,0.3c0,0,0,0,0,0
			c0.4,0.4,0.7,1,0.7,1.6h0v0l0,0v0h0c0,0.7-0.3,1.3-0.7,1.7c-0.4,0.4-1,0.7-1.7,0.7v0h0h-3.6c-0.4,0-0.7-0.3-0.7-0.7L62.7,14.5
			L62.7,14.5z M64.2,12v2.5v2.6H67h0v0c0.3,0,0.5-0.1,0.7-0.3c0.2-0.2,0.3-0.4,0.3-0.7h0v0l0,0v0h0c0-0.2-0.1-0.5-0.2-0.6l0,0
			c-0.2-0.2-0.4-0.3-0.7-0.3v0h0h-0.7h0H66c-0.4,0-0.7-0.3-0.7-0.7l0,0c0-0.4,0.3-0.7,0.7-0.7h0.3h0h0.1c0.2,0,0.4-0.1,0.6-0.3l0,0
			l0,0c0.2-0.2,0.3-0.4,0.3-0.6h0v0v0v0h0c0-0.2-0.1-0.5-0.3-0.6c-0.2-0.2-0.4-0.3-0.6-0.3v0h0L64.2,12L64.2,12z"/>
	</g>
</g>
</svg>
