<?xml version="1.0" encoding="utf-8"?>
<!-- Generator: Adobe Illustrator 23.0.1, SVG Export Plug-In . SVG Version: 6.00 Build 0)  -->
<svg version="1.1" id="Warstwa_1" xmlns="http://www.w3.org/2000/svg" xmlns:xlink="http://www.w3.org/1999/xlink" x="0px" y="0px"
	 viewBox="0 0 88.8 30" style="enable-background:new 0 0 88.8 30;" xml:space="preserve">
<style type="text/css">
	.st0{fill-rule:evenodd;clip-rule:evenodd;fill:#D13239;}
	.st1{fill:#D13239;}
	.st2{fill-rule:evenodd;clip-rule:evenodd;fill:#B3B2B1;}
</style>
<g>
	<polygon class="st0" points="18.6,17.3 25.9,17.3 25.7,18.9 19.5,24.8 24.7,24.8 24.4,26.6 16.8,26.6 17.1,24.7 23,19.1 18.3,19.1 
			"/>
	<path class="st0" d="M10.6,14.4c-0.2-0.2-0.4-0.3-0.6-0.4c-0.3-0.1-0.6-0.2-0.9-0.2c-0.4-0.1-0.7-0.1-1-0.1c-0.2,0-0.4,0-0.4,0H4.5
		H2.1L0,26.6h2l0.8-4.8l3.9,0c0,0,1.5,0.1,2.6-0.5c1.1-0.6,1.4-1.9,1.4-1.9s0.1-0.5,0.2-1.1c0.1-0.6,0.2-1.4,0.3-1.8
		c0-0.2,0-0.3,0-0.3s0-0.1,0-0.3c0-0.3,0-0.7-0.3-1.1C10.8,14.7,10.7,14.5,10.6,14.4z M9,16.7c0,0-0.2,1.1-0.4,2.3
		c-0.1,0.5-0.4,0.7-0.9,0.8c-0.7,0.1-1.4,0.1-1.4,0.1l-3.2,0l0.7-4.3l2.9,0c0,0,0.2,0,0.5,0c0.3,0,0.7,0,1.1,0.1
		c0.3,0,0.5,0.1,0.6,0.2C9,16,9,16.2,9.1,16.3C9.1,16.5,9,16.7,9,16.7z"/>
	<polygon class="st0" points="35.9,13.7 37.8,13.7 35.6,26.6 33.7,26.6 	"/>
	<polygon class="st0" points="46.1,17.3 48,17.3 48.6,23.8 51.5,17.3 53.7,17.3 54.4,23.8 57.2,17.3 59.2,17.3 55.1,26.6 52.8,26.6 
		52.2,20 49.3,26.6 47.1,26.6 	"/>
	<g>
		<path class="st1" d="M32.3,17.3c-0.5-0.2-1.5-0.2-2.3-0.2c-0.8,0-1.1,0-1.4,0.1c0,0-1.4,0.2-2.1,1.2c-0.8,1-1,3-1,3
			s-0.5,2.3-0.3,3.1c0.1,0.8,0.4,1.5,1.2,1.8c0.9,0.3,1.6,0.3,1.6,0.3s1.6,0.1,2.7-0.2c1.2-0.3,1.8-1.1,1.8-1.1s0.3-0.4,0.5-0.8
			c0.2-0.4,0.3-0.7,0.3-0.8l0.1-0.5l-2,0c0,0-0.1,1.3-1.2,1.4c-1.1,0.1-1.6,0.1-1.9,0.1c-0.2,0-1.4,0-1.3-0.9c0,0,0,0,0-0.1
			c0.1-1.1,0.2-1.4,0.2-1.4l6.3,0l0.3-1.5C34.2,19.2,33.9,17.9,32.3,17.3z M31.9,20.7l-4.3,0l0.2-0.7c0,0,0.1-0.5,0.4-0.8
			c0.3-0.2,0.7-0.3,1-0.3c0.4,0,1.3-0.1,2.1,0.1c0.3,0.1,0.5,0.2,0.6,0.4C32.1,20,31.9,20.7,31.9,20.7z"/>
		<path class="st1" d="M27.2,23.9C27.2,23.9,27.2,23.9,27.2,23.9C27.1,24,27.2,23.9,27.2,23.9z"/>
	</g>
	<g>
		<path class="st1" d="M39,23.9C39,23.9,39,24,39,23.9C39,24,39,23.9,39,23.9z"/>
		<path class="st1" d="M44.1,17.3c-0.5-0.2-1.5-0.2-2.3-0.2c-0.8,0-1.1,0-1.4,0.1c0,0-1.4,0.2-2.1,1.2c-0.8,1-1,3-1,3
			s-0.5,2.3-0.3,3.1c0.1,0.8,0.4,1.5,1.2,1.8c0.9,0.3,1.6,0.3,1.6,0.3s1.6,0.1,2.7-0.2c1.2-0.3,1.8-1.1,1.8-1.1s0.3-0.4,0.5-0.8
			c0.2-0.4,0.3-0.7,0.3-0.8l0.1-0.5l-2,0c0,0-0.1,1.3-1.2,1.4c-1.1,0.1-1.7,0.1-1.9,0.1c-0.2,0-1.4,0-1.3-0.9c0,0,0,0,0-0.1
			c0.1-1.1,0.2-1.4,0.2-1.4l6.3,0l0.3-1.5C46,19.2,45.7,17.9,44.1,17.3z M43.7,20.7l-4.3,0l0.2-0.7c0,0,0.2-0.5,0.4-0.8
			s0.7-0.3,1-0.3c0.4,0,1.3-0.1,2.1,0.1c0.3,0.1,0.5,0.2,0.6,0.4C43.9,20,43.7,20.7,43.7,20.7z"/>
	</g>
	<path class="st0" d="M61.4,17.3l1.2,6.8l3.5-6.8l2,0L63,27c0,0-0.9,1.8-1.5,2.2s-0.9,0.6-1.4,0.7c-0.5,0-0.6,0.1-1.1,0l-0.5-0.1
		l0.3-1.7c0,0,0.8,0.1,1.2,0c0.5-0.2,0.8-1,0.8-1l0.2-0.4l-1.8-9.4L61.4,17.3L61.4,17.3z"/>
	<path class="st2" d="M68.8,18.2l2,0l0.1-0.8c0,0,0.2-1.4,0.7-1.7c0.2-0.1,0.4-0.2,0.7-0.2c0.5-0.1,1.2-0.1,1.7-0.1
		c0.8,0,1.2,0,2,0.1c0.9,0.1,0.6,0.9,0.6,0.9l-0.2,1.2c0,0-0.1,0.6-0.3,0.9c-0.2,0.3-0.7,0.5-0.9,0.6c-0.7,0.2-2.9,0.8-2.9,0.8
		l-1.8,0.5c0,0-1.1,0.3-1.7,1c-0.6,0.7-0.9,1.5-0.9,1.9s-0.6,3.2-0.6,3.2l9.7,0l0.3-1.9l-7.6,0l0.1-0.8c0,0,0.1-0.8,0.4-1.1
		c0.1-0.1,0.2-0.2,0.8-0.4c0.4-0.1,1.6-0.5,1.6-0.5l2.9-0.8c0,0,1.6-0.4,2.2-1.3c0.6-0.9,0.9-2.5,0.9-2.5s0.2-1.6,0-2.1
		c-0.1-0.5-0.6-1.1-1.2-1.4s-1.2-0.4-2.9-0.4s-2.6,0.1-3.5,0.4c-0.9,0.3-1.4,0.9-1.7,1.7C69,16.5,68.8,18.2,68.8,18.2L68.8,18.2z"/>
	<path class="st2" d="M86.9,21.8l1.4-8.1h-2.4l-7.5,8l-0.3,2h6.5l-0.5,2.9l2,0l0.5-2.9l1.9,0l0.3-1.9L86.9,21.8z M85,21.8l-4.2,0
		l5.1-5.5L85,21.8z"/>
	<path class="st2" d="M14.8,14.7H21c0,0,1.4-1.1,2.4-1.8c1-0.7,2.8-1.8,2.8-1.8l-3.5-1.6c0,0-2.9,1.8-4.2,2.7
		C17.2,12.9,14.8,14.7,14.8,14.7L14.8,14.7z"/>
	<path class="st2" d="M28,9.9L25.2,8c0,0,2.6-1.5,6-2.8c3.4-1.4,5.3-1.9,5.3-1.9l0.6,2.7c0,0-3.3,1.1-5.2,2C29.9,8.8,28,9.9,28,9.9
		L28,9.9z"/>
	<path class="st2" d="M39.2,5.3l-0.5-2.8c0,0,3.5-0.9,6.8-1.5c3.2-0.6,7.5-0.9,7.5-0.9l-1.4,4.3c0,0-3.8-0.5-7.3,0
		C41.5,4.7,39.2,5.3,39.2,5.3L39.2,5.3z"/>
	<path class="st2" d="M53.8,4.8L56.1,0c0,0,5.2-0.1,9.7,0.6c4.5,0.7,8.6,1.8,8.5,1.8L63,8.4c0,0-2.7-1.7-6-2.7
		C55.1,5.1,53.8,4.8,53.8,4.8L53.8,4.8z"/>
	<path class="st2" d="M65,9.7l2.5,1.9h20.6c0,0,0-0.7-0.6-1.6c-0.3-0.6-1-1.2-1.6-1.9c-0.2-0.2-1.2-1-1.9-1.4
		c-1.8-1.2-2.8-1.6-4.7-2.5L65,9.7L65,9.7z"/>
	<path class="st1" d="M16.2,17.3c-0.8,0-1.5,0.3-2.1,0.6l0.1-0.6h-2l-1.6,9.3h2.1l0.9-5.1c0.2-1,1-2.3,2.5-2.3l1.1,0l0.3-1.8H16.2z"
		/>
</g>
</svg>
