<?xml version="1.0" encoding="utf-8"?>
<!-- Generator: Adobe Illustrator 23.0.1, SVG Export Plug-In . SVG Version: 6.00 Build 0)  -->
<svg version="1.1" id="Layer_1" xmlns="http://www.w3.org/2000/svg" xmlns:xlink="http://www.w3.org/1999/xlink" x="0px" y="0px"
	 viewBox="0 0 99.8 17.5" style="enable-background:new 0 0 99.8 17.5;" xml:space="preserve">
<style type="text/css">
	.st0{fill:#F00F0F;}
</style>
<path class="st0" d="M65.1,0.9h2.6c0.1,0,0.2,0.1,0.3,0.2l-0.3,0.3h-0.2c-1,0.2-1.2,0.4-1.2,1.5l0.2,8.7c0,0.7,0.3,1,1,1h0.2
	c0.1,0.1,0.2,0.2,0.3,0.2c-0.1,0.1-0.2,0.2-0.3,0.2h-3.9c-0.1,0-0.2-0.1-0.3-0.2c0.1-0.1,0.2-0.2,0.3-0.2c1.1-0.1,1.1-0.2,1.1-1.3
	V3.5c-0.1,0-0.1,0-0.2-0.1c-1.6,3.2-3.2,6.5-4.9,9.8c-1.6-3.4-3.1-6.6-4.6-9.9h-0.1c-0.1,1.1-0.2,2.1-0.2,3.2
	c-0.1,1.4-0.1,2.9-0.1,4.3v0.6c0.1,0.8,0.3,1,1.1,1h0.2c0.1,0.1,0.2,0.2,0.3,0.2c-0.1,0.1-0.2,0.2-0.3,0.2h-3.5
	c-0.1,0-0.2-0.1-0.3-0.2c0.1-0.1,0.1-0.2,0.2-0.2c1.2-0.3,1.3-0.4,1.4-1.6l0.5-8.1c0.1-1.2-0.1-1.2-1.2-1.5l-0.4-0.3
	c0.1-0.1,0.3-0.2,0.4-0.2h2.5c0.9,3.5,3,6.4,4.5,9.7C62,7.4,63.8,4.3,65.1,0.9z M78.4,5.3l0.1,1.2C79,6.3,79.3,6,79.7,5.9
	c0.5-0.2,1.1-0.4,1.7-0.4c1.3,0,2,0.9,2,2.2v4c0,0.6,0.2,0.8,0.8,0.9c0.1,0,0.3,0.2,0.4,0.3c-0.1,0.1-0.3,0.2-0.4,0.2h-2.8
	c-0.1,0-0.3-0.1-0.4-0.2c0.1-0.1,0.2-0.2,0.4-0.3c0.5-0.1,0.7-0.4,0.7-0.8V8.1c0-1.1-0.7-1.7-1.8-1.6c-1.1,0-1.7,0.6-1.7,1.7v3.5
	c0,0.7,0.1,0.8,0.8,1c0.1,0,0.2,0.2,0.3,0.3c-0.1,0.1-0.2,0.2-0.3,0.2h-2.9c-0.1,0-0.2-0.1-0.3-0.2l0.2-0.3c0.8-0.2,0.8-0.3,0.8-1.1
	V7.8c0-0.5-0.1-0.8-0.5-1.1c-0.3-0.2-0.3-0.3,0.1-0.5C77.2,5.9,77.8,5.6,78.4,5.3L78.4,5.3z M4.4,7.2H2.9V2.7c0-0.9-0.2-1-1.1-1.2
	c-0.2,0-0.3-0.2-0.5-0.3C1.5,1.1,1.6,1,1.8,1c1.7,0,3.3-0.1,5,0c2.4,0.2,3.7,2.2,3.1,4.4C9.5,6.7,8.5,7.2,7.4,7.6
	C5.7,8.2,4,8.2,2.3,7.9C1.5,7.8,0.7,7.7,0,7.6h3.2c1,0,2-0.1,3-0.3C7.8,7,8.6,5.7,8.4,4.1C8.2,2.3,7.3,1.5,5.5,1.4H5.4c-1,0-1,0-1,1
	C4.4,2.4,4.4,7.2,4.4,7.2z M22.5,6.4c0.1-0.1,0.2-0.3,0.4-0.3c0.6-0.2,0.7-0.6,0.8-1.2c0.1-1.2,0.3-2.4,1-3.4
	c0.9-1.2,2.2-1.8,3.6-1.4c0.3,0.1,0.7,0.3,0.9,0.6c0.3,0.3,0.2,0.6-0.1,0.9c-0.3,0.3-0.6,0.2-0.9,0c-0.2-0.1-0.3-0.3-0.4-0.4
	c-0.9-0.7-2-0.5-2.3,0.7c-0.2,0.6-0.3,1.3-0.4,1.9v1.7c0,0.4,0.1,0.5,0.5,0.5h1.9c0.2,0.6,0.1,0.7-0.5,0.7h-1.5
	c-0.1,0-0.4,0.2-0.4,0.4V12c0,0.5,0.2,0.7,0.7,0.8h0.3c0.1,0.1,0.2,0.2,0.4,0.3c-0.1,0.1-0.2,0.2-0.4,0.2h-2.5c-0.3,0-0.5,0.1-0.8,0
	c-0.1,0-0.2-0.1-0.3-0.2c0.1-0.1,0.1-0.2,0.2-0.2c0.9-0.3,1-0.4,1-1.3v-4c0-0.7,0-0.7-0.7-0.7h-0.3C22.5,6.5,22.5,6.4,22.5,6.4z
	 M75.7,9.3c0,2.3-1.5,3.9-3.9,4c-2.1,0-3.8-1.6-3.8-3.8c0-2.3,1.6-4,3.9-4C74.1,5.5,75.7,7.1,75.7,9.3z M69.6,9.4
	c0,0.9,0.2,2,1.1,2.8c0.8,0.7,2,0.7,2.7-0.1c1.1-1.4,1-4.2-0.3-5.5c-0.8-0.8-2.1-0.7-2.8,0.2C69.8,7.5,69.6,8.4,69.6,9.4z
	 M95.9,11.3c0.5-1.2,1-2.2,1.4-3.3c0.2-0.4,0.3-0.7,0.4-1.1s0-0.6-0.4-0.7c-0.1,0-0.3,0-0.4-0.1c-0.1,0-0.1-0.2-0.2-0.3
	c0,0,0.1-0.1,0.2-0.1h2.7c0.1,0,0.2,0.1,0.2,0.2c-0.1,0.1-0.1,0.3-0.2,0.3c-0.8,0.1-1.1,0.7-1.4,1.3l-4.3,9c-0.4,0.8-0.8,1.1-1.4,1
	c-0.4-0.1-0.7-0.3-0.7-0.7S92,16,92.4,16c0.9,0.1,1.2-0.5,1.5-1.1c0,0,0-0.1,0.1-0.1c0.8-1.2,0.9-2.4,0.3-3.7
	c-0.6-1.2-1-2.5-1.4-3.8c-0.2-0.6-0.5-1.1-1.2-1.2c-0.1,0-0.2-0.2-0.3-0.3c0.1-0.1,0.2-0.2,0.3-0.2h2.9c0.1,0,0.2,0.1,0.3,0.2
	l-0.3,0.3c-0.7,0.3-0.7,0.3-0.5,1l1.2,3.4C95.7,10.8,95.8,11,95.9,11.3z M88.5,8.3h-2c-0.2,0-0.5,0.2-0.5,0.3
	c-0.1,1.6,0.7,3.5,2.9,3.6c0.6,0,1.1-0.2,1.6-0.6c0.1-0.1,0.3-0.2,0.5-0.3l-0.2,0.6c-0.9,1.1-2.1,1.5-3.4,1.2
	c-1.4-0.3-2.1-1.2-2.5-2.5c-0.5-2.2,0.6-4.4,2.6-5c1.4-0.4,2.7,0,3.3,1.1L91,7.1c0.3,0.8,0.1,1.1-0.8,1.1
	C89.7,8.3,89.1,8.3,88.5,8.3z M86.2,7.7H89c0.2,0,0.7-0.2,0.7-0.3c0-0.3-0.1-0.7-0.3-0.9C88.9,6,88.3,6,87.6,6.3
	C86.9,6.5,86.4,6.9,86.2,7.7z M13.4,8.3h-2c-0.2,0-0.4,0.2-0.4,0.3c-0.3,1.7,1,3.5,2.8,3.6c0.6,0,1.2-0.2,1.7-0.6
	c0.1-0.1,0.3-0.2,0.5-0.2c0,0.2,0,0.4-0.1,0.6c-0.9,1.1-2,1.5-3.4,1.2c-1.3-0.2-2.1-1-2.5-2.2c-0.7-2.1,0.3-4.4,2.2-5.2
	c1.1-0.4,2.1-0.4,3.1,0.4c0.3,0.2,0.5,0.5,0.6,0.8c0.4,0.9,0.1,1.3-0.8,1.3C15.1,8.3,13.4,8.3,13.4,8.3z M11.2,7.7h2.7
	c0.2,0,0.6-0.2,0.7-0.3c0.2-0.4,0-0.8-0.4-1s-0.9-0.3-1.3-0.2C12,6.2,11.2,7,11.2,7.7z M31.1,8.3h-1.8c-0.7,0-0.7,0-0.7,0.7
	c0.1,1.7,1,2.9,2.5,3.2c0.8,0.1,1.4,0,2-0.6l0.4-0.2c0,0.2,0,0.3-0.1,0.5c-0.7,1.1-2.1,1.6-3.5,1.3c-1.3-0.3-2.3-1.3-2.5-2.7
	c-0.2-1.5,0-3,1.2-4.1s3.2-1.2,4.2-0.2c0.2,0.2,0.4,0.5,0.5,0.7c0.4,1,0.2,1.3-0.8,1.3C32.1,8.3,31.6,8.3,31.1,8.3z M28.8,7.7h2.8
	c0.2,0,0.7-0.2,0.7-0.3c0-0.3-0.1-0.7-0.3-0.9c-0.5-0.4-1.1-0.4-1.7-0.2C29.5,6.5,29,6.9,28.8,7.7z M34.2,9.7c0-2.3,1.5-3.9,3.6-4.1
	c0.7-0.1,1.3,0,2,0.1c0.6,0.1,0.8,0.5,0.7,1c0,0.2-0.1,0.4-0.3,0.4c-0.1,0-0.3-0.1-0.4-0.2c-0.6-0.6-1.3-1-2.2-0.8
	c-0.6,0.1-1.1,0.5-1.5,1c-1.3,1.9-0.2,4.8,2,5c0.9,0.1,1.6-0.1,2.2-0.8c0.1-0.1,0.3-0.2,0.4-0.2v0.5c-0.6,1.2-2.1,1.7-3.6,1.5
	c-1.4-0.2-2.4-1.3-2.7-2.6C34.3,10.3,34.2,9.9,34.2,9.7z M16.7,6.3l2.1-1c0,0.5,0,0.9,0.1,1.3c0.4-0.3,0.7-0.5,1-0.7
	c0.4-0.2,0.8-0.3,1.3-0.3s0.7,0.5,0.5,1c-0.2,0.4-0.6,0.6-1,0.4c-0.1,0-0.2-0.1-0.3-0.2C19.6,6.4,19,6.7,19,7.6
	c-0.1,1.4,0,2.9,0,4.3c0,0.4,0.3,0.6,0.6,0.6h0.5l0.3,0.2c-0.1,0.1-0.2,0.2-0.3,0.2c-0.8,0-1.6,0-2.5-0.1c-0.3,0-0.5,0.1-0.8,0
	c-0.1,0-0.2-0.1-0.3-0.2c0.1-0.1,0.1-0.2,0.2-0.2c0.9-0.3,0.9-0.3,0.9-1.2V7.6c0-0.5,0-1-0.6-1.3C16.9,6.5,16.8,6.4,16.7,6.3z
	 M46.2,12.2L46,12.6c-0.7,0.6-2,0.8-2.8,0.4c-0.6-0.3-0.8-0.8-0.8-1.5v-4c0-1,0-1-1.1-1.1L41.7,6c0.7-0.2,1.2-0.7,1.5-1.3l0.3-0.3
	c0.1,0.1,0.2,0.3,0.2,0.4c0,0.9,0,0.8,0.9,0.8h1.2c0.2,0,0.4,0,0.4,0.3s-0.1,0.4-0.4,0.4h-1.6c-0.3,0-0.5,0.1-0.5,0.4
	c0,1.4,0,2.9,0.1,4.3c0.1,1.1,1,1.5,2,1c0.1-0.1,0.2-0.1,0.3-0.1C46.1,12.2,46.1,12.2,46.2,12.2z M2.9,8.5l1.5,0.1v2.5
	c0,1.2,0.2,1.4,1.4,1.5l0.4,0.3c-0.1,0.1-0.3,0.2-0.4,0.2h-4c-0.1,0-0.3-0.1-0.4-0.2c0.1-0.1,0.2-0.2,0.3-0.2c1-0.2,1.2-0.4,1.2-1.5
	C3,10.3,2.9,9.4,2.9,8.5z"/>
</svg>
