
<svg xmlns="http://www.w3.org/2000/svg" xmlns:xlink="http://www.w3.org/1999/xlink" version="1.1" width="100" height="55" id="Layer_1" x="0px" y="0px" viewBox="892.5 234.4 287.5 96.5" enable-background="new 892.5 234.4 287.5 96.5" xml:space="preserve"><path fill="#2F68B2" d="M1171.3 284.6c0 0 0 4.2 0 6.2 1.4 0.1 2.6 0.2 3.6 0.2 0.6 0.8 0.4 1.5 0.2 2.4 -1.2 0.1-2.4 0.2-3.8 0.2 0.5 5.7-0.8 11.4 0.8 16.9 1.5 0.4 2.6 0.7 3.7 0.9 0.6 1.1 0.2 1.7-0.8 2.2 -4 2.2-9-0.5-9.1-5 -0.1-4.9 0-9.8 0-14.6 -0.8-1-2-0.2-2.6-0.8 -0.4-0.6-0.2-1.2-0.2-1.8 0.8-0.8 1.9-0.2 2.7-0.8 0.1-1 0.2-3.1 0.2-3.1L1171.3 284.6z"/><path fill="#2E68B2" d="M1119.6 309.5c0-4.3 0-8.5-0.1-12.8 0-1.6-0.7-3.1-2-4.1 -3.1-2.2-10.2-1.2-12.6 1.6 -1 1.2-1.4 2.5-0.7 3.8 0.8 1.4 2 1.4 3.4 0.8 3.1-4.3 3.1-4.3 5.6-3.9 1.4 2 1.4 2 1.1 5.6 -2.7 0.9-5.5 1.4-8 2.8 -4.2 2.4-4.9 7.7-1.5 10.4 3.4 2.7 11.6 2 14.8-1.5C1119.6 311.5 1119.6 310.5 1119.6 309.5zM1114.1 311.7c-3.1 0.8-5.5 0.1-5.9-2.3 -0.6-3.1 1.6-5.1 5.9-5.6C1114.1 307.8 1114.1 309.5 1114.1 311.7z"/><path fill="#2E68B2" d="M1161.5 305.9c-1.6-1-2 0.4-2.8 1.2 -2.8 3.1-6.9 3.2-9.1 0.2 -0.9-1.4-1.5-2.9-1.6-4.7 4.4-1 9-1.1 13.2-2.3 0.7-3.8-0.8-7.1-3.8-8.8 -3.2-1.8-7.9-1.2-10.6 1.2 -4.3 4.1-4.2 9.4-3 14.5 1.2 5.3 5.3 7.7 10.6 7.1C1158.8 314.1 1162.2 309.9 1161.5 305.9zM1151.8 294.1c2-0.2 3.5 1.2 4 4.3 -2.7 0.4-5.2 1.2-7.7 1.1C1148.1 296.3 1149.6 294.2 1151.8 294.1z"/><path fill="#F78F20" d="M959.4 300.2c-0.7-3.2-2.2-5.7-4.3-7.5 -0.8-0.8-1.6-1.2-2.6-1.9 -0.5-0.2-0.8-0.4-1.5-0.7 -1.1-0.4-2.6-0.9-4.3-0.7 0.8-0.4 2.2-0.5 3.6-0.4 1.1 0.1 2 0.4 3.1 0.7 0.8 0.4 1.6 0.8 2.4 1.4 2-5.9 1.2-13.9-1-19 -2.1-5.5-5.2-9.9-9.2-13.4 -3.9-3.6-8.7-6.3-15-7.7 -3.1-0.7-6.9-0.6-9.8 0.1 -3 0.8-5.5 2-7.5 3.7 -2 1.8-3.9 3.7-5.3 6.1 -0.5 0.5-0.7 1.2-1.1 1.8 -0.2 0.7-0.6 1.4-0.8 2 -0.4 1.4-1 2.7-1.2 4.4 -0.7 2.9-0.8 6.9-0.4 10.1 0.4 3.4 1.4 6.1 2.4 8.8 0.7 1.2 1.2 2.6 2 3.7 0.7 1.2 1.5 2.2 2.3 3.3 1.8 2 3.7 3.7 5.9 5.3 4.6 3 9.8 5.3 17 5.6 0.2-0.2-0.2-0.8-0.2-1.2 -0.1-0.4-0.2-0.9-0.2-1.4 -0.1-0.9-0.2-2.1 0-3.1 0.2 0.1 0.2 0.4 0.4 0.6s0.2 0.4 0.4 0.5c0.2 0.5 0.6 0.8 0.8 1.2 0.7 0.7 1.2 1.5 2 2 0.7 0.7 1.6 1.2 2.4 1.7 0.8 0.4 1.6 1 2.7 1.4 1.8 0.9 4.2 1.2 6.5 1.6 2.4 0.4 4.7 0.8 6.9 1.2 2 0.7 4.1 1.4 5.7 2.4 0.8 0.5 1.7 1 2.5 1.6 0.4 0.4 0.8 0.5 1.2 0.9 0.5 0.2 0.7 0.6 1.2 0.8 1.4 1.4 2.7 2.6 3.9 4.2 0.5 0.8 1.1 1.6 1.5 2.6 0.4 0.4 0.4 0.9 0.7 1.4 0 0.5 0.5 1.1 0.1 1.5 -0.7 0.1-0.5-0.6-0.8-0.9 -0.2-0.4-0.5-0.7-0.6-1.1 -1-1.1-2-2.3-3.1-3.3 -1.1-1-2.2-2-3.6-2.8 -2.5-1.8-5.3-3.1-8.8-4 -3.3-0.9-7.1-1.4-11.4-1.1 -1.9 0.2-3.7 0.6-5.3 1.2 -1.7 0.4-3.6 0.7-5.5 0.9 -7.3 0.4-15.5-1.2-20.9-3.9 -2.9-1.4-5.6-2.9-7.9-4.9 -1.2-0.9-2.3-2-3.3-3.1 -0.9-1.2-2-2.3-2.7-3.7 -0.9-1.2-1.5-2.8-2.3-4.1 -0.5-1.6-1.2-3-1.6-4.7 -0.5-1.6-0.8-3.4-1.1-5.3 0-0.5-0.2-1.6-0.2-2.4 0-0.1 0.1-0.2 0.1-0.2 0-0.8-0.2-2 0-2.6 0-1.8 0.2-3.9 0.6-5.6 0.4-1.8 0.8-3.4 1.4-5 0.5-1.6 1.2-3.1 1.9-4.6 0.4-0.7 0.8-1.4 1.2-2 0.4-0.7 0.8-1.2 1.2-2 0.4-0.2 0.4-0.7 0.7-0.9 0.2-0.4 0.5-0.6 0.6-1 0.2-0.2 0.5-0.5 0.7-0.9 0.2-0.2 0.6-0.5 0.7-0.9 1.1-1 2-2.2 3.1-3.2s2.4-2 3.5-3c0.8-0.4 1.2-0.9 2-1.2 0.5-0.5 1.4-0.8 1.9-1.2 1.5-0.7 2.7-1.5 4.4-2 1.4-0.7 3.1-1.2 4.7-1.7 3.4-0.8 6.9-1.4 11.2-1.4 0.2 0 0.2-0.2 0.2 0 8.1 0.2 14 2.7 19 5.9 5 3.3 8.8 7.7 11.6 13.4 2.7 5.5 4.3 12.9 3 20.8 -0.7 3.6-1.7 6.6-3 9.5 -0.8 1.4-1.4 2.8-2.2 4 -0.4 0.7-0.8 1.2-1.2 1.9 -0.2 0.4-0.4 0.6-0.6 0.9 -0.1 0.2-0.2 0.4-0.4 0.4 0 0.1-0.1 0.2-0.2 0.2C959.5 300.2 959.4 300.3 959.4 300.2z"/><path fill="#0769B3" d="M1067.5 283.6c1.8 0 3.5 0 5.3 0 0.5 0.7 0.6 1.6 0.8 2.6 1.6 6.1 3.1 12 4.6 18.2 0.4 0 0.2-0.4 0.4-0.6 0.2-0.2 0.1-0.5 0.2-0.7 0.1-0.5 0.4-0.8 0.4-1.4 0.4-0.8 0.5-1.8 0.8-2.6 0.4-1.8 1-3.5 1.5-5.3 0.5-1.8 1.2-3.5 1.5-5.3 0.8-1.5 0.9-3.7 1.8-5 0.8 0 1.4 0 2.2 0 0.8 1.5 1.1 3.5 1.8 5.1 0.4 1.8 1.1 3.5 1.5 5.3 1.1 3.5 2.2 6.9 3.2 10.4 0.4-0.7 0.4-1.8 0.8-2.6 0.2-0.8 0.4-1.8 0.7-2.6 0.8-3.5 1.7-7.1 2.7-10.4 0.4-1.8 0.8-3.6 1.4-5.1 1.2-0.2 3.3-0.2 4.6 0 0.1 1.2-0.5 2.7-0.8 3.9 -0.2 1.4-0.8 2.6-1 3.9 -0.8 2.6-1.4 5.2-2.2 7.7 -0.6 2.6-1.4 5.2-2.1 7.8 -0.4 1.2-0.8 2.6-1.1 3.9 -0.4 1.2-0.6 2.7-1.2 3.7 -1 0-2 0-3.1 0 -0.8-1.4-1.1-3.3-1.8-4.7 -1.5-4.9-3.3-9.7-4.7-14.6 -0.5 0.5-0.5 1.6-0.8 2.4 -0.2 0.8-0.5 1.7-0.8 2.5 -0.4 1.7-1.1 3.1-1.4 4.9 -0.6 1.5-1.1 3.2-1.5 4.9 -0.7 1.4-0.8 3.3-1.7 4.7 -0.8 0.2-2.1 0-3.1 0.1 -0.8-0.8-0.8-2.5-1.4-3.7 -0.4-1.2-0.6-2.6-1.1-3.8 -0.6-2.7-1.5-5.1-2.1-7.8 -0.8-2.5-1.5-5.1-2.2-7.7 -0.4-1.2-0.7-2.6-1.1-3.8 -0.2-1.4-1.1-2.6-0.8-4C1067.3 283.7 1067.5 283.6 1067.5 283.6z"/><g><g><path fill="#0769B3" d="M1016.4 313.4h-43.6l-6.8-6.8h50.4c3.3 0 6.1-2.7 6.1-6.1v-44.4c0-3.3-2.7-6.1-6.1-6.1h-53.8l-8.5-6.8h62.3c7.1 0 12.8 5.8 12.8 12.8v44.4C1029.2 307.6 1023.4 313.4 1016.4 313.4z"/></g><path fill="#0769B3" d="M1014.7 267.8c-6.3 0-11.4 5.1-11.4 11.4 0 6.3 5.1 11.4 11.4 11.4h8.3v-22.8H1014.7L1014.7 267.8zM1013.6 284.6c-3.1 0-5.5-2.5-5.5-5.5 0-3 2.5-5.5 5.5-5.5 3.1 0 5.5 2.5 5.5 5.5C1019.2 282.1 1016.7 284.6 1013.6 284.6z"/></g><rect x="1133.9" y="280.9" fill="#2E68B2" width="5.5" height="33.6"/><rect x="1123.8" y="280.9" fill="#2E68B2" width="5.5" height="33.6"/><g><path fill="#0769B3" d="M1051.6 273.9c0.3 1.2 0.9 2.2 1.7 3 0.7 0.8 1.6 1.6 2.6 2.1 1 0.6 2 1.1 3.2 1.5 0.6 0.2 1.2 0.4 1.9 0.5 0.5 0.2 1.1 0.4 1.2 1.2 0 0.9-0.6 1.2-1.3 1.3 -0.7-0.2-1.7-0.2-2.3-0.4 -1.6-0.2-2.8-0.7-4.1-1.2 -2.6-1-4.6-2.4-6.5-4.1 -0.3-0.6-0.8-1.1-1.2-1.7 -0.4-0.6-0.7-1.3-1.1-1.9 -3.1-0.4-5.2-1.8-7.1-3.4 -1.7-2-3.1-4.3-3.7-7.4 -0.7-3-0.4-6.7 0.3-9.5 1.7-5.6 5.3-9.3 12.1-9.8 1.9 0.1 3.5 0.2 5 0.8s2.9 1.6 4.1 2.6c0.1 0.1 0.2 0.1 0.2 0.2 0.2 0.3 0.8 0.8 1.2 1.2 0.1 0.1 0 0.2 0.1 0.3 0.2 0.2 0.3 0.2 0.4 0.4 0.1 0.1 0.1 0.2 0.1 0.3 0.1 0.2 0.2 0.3 0.3 0.5 0.1 0.1 0.2 0.2 0.2 0.2 0.2 0.3 0.2 0.7 0.4 1.2 0.2 0.4 0.4 0.7 0.5 1.2 0.4 1.2 0.7 2.6 0.8 4.1 0.4 4.2-0.4 8-2 10.7 -0.7 1.5-1.7 2.7-2.9 3.7C1054.5 272.5 1053 273.2 1051.6 273.9zM1046.6 247.7c-0.9 0.1-1.4 0.5-2.2 0.7 -0.5 0.4-1.1 0.7-1.5 1.3 -0.6 0.3-0.7 1.1-1.2 1.6 -0.4 1-0.8 2.2-1.1 3.4 -0.2 1.2-0.4 2.7-0.4 4.1 0 3.6 0.7 7.1 2.2 9.3 0.8 1 1.8 1.9 3.2 2.5 0.7 0.1 1.3 0.3 2.1 0.3 0.4-0.2 1.2 0 1.5-0.3 0.7 0.1 0.8-0.4 1.3-0.4 0.3-0.3 0.7-0.6 1.1-0.7 0.3-0.4 0.7-0.8 1.2-1.2 0.2-0.3 0.3-0.7 0.7-0.9 1.8-3.5 2-9.8 0.8-13.9 -0.4-1.5-1.1-2.7-1.7-3.7 -0.7-0.8-1.7-1.5-2.7-2 -0.8-0.2-1.6-0.4-2.7-0.3 -0.1 0-0.1 0-0.1 0.1C1046.7 247.7 1046.6 247.7 1046.6 247.7z"/><path fill="#0769B3" d="M1068.5 244.8c1.7 0.1 3.6-0.2 5 0.1 0.3 0.5 0.2 1.1 0.2 1.7 0.1 7.6 0 15.8 0 23.6 0 0.7 0 1.2 0 1.9 0 0.5 0.1 1.1-0.2 1.6 -0.7 0.2-1.7 0.1-2.7 0.1s-2 0.2-2.6-0.2c-0.2-9.2-0.2-19.2 0-28.5C1068.3 245 1068.3 244.9 1068.5 244.8z"/><path fill="#0769B3" d="M1081 244.8c1.7 0 3.2 0 4.9 0 0.4 0.6 0.6 1.5 0.7 2.4 1.5 5.6 2.9 11.2 4.2 17 0.3 0 0.2-0.3 0.3-0.5 0.2-0.2 0.1-0.5 0.2-0.7 0.1-0.5 0.3-0.7 0.3-1.2 0.3-0.7 0.5-1.7 0.8-2.4 0.4-1.7 1-3.2 1.5-4.9s1.1-3.2 1.5-5c0.7-1.4 0.8-3.4 1.7-4.6 0.7 0 1.4 0 2.1 0 0.7 1.4 1 3.3 1.7 4.8 0.4 1.7 1 3.2 1.5 4.9 1 3.2 2.1 6.5 3 9.8 0.4-0.7 0.4-1.7 0.7-2.4 0.2-0.8 0.3-1.7 0.7-2.4 0.8-3.3 1.6-6.6 2.5-9.8 0.3-1.7 0.7-3.3 1.2-4.8 1.2-0.2 3.1-0.2 4.2 0 0.1 1.2-0.5 2.6-0.8 3.7 -0.2 1.3-0.7 2.3-0.9 3.7 -0.7 2.3-1.3 4.9-2.1 7.2 -0.6 2.5-1.4 4.8-2 7.3 -0.4 1.2-0.7 2.4-1.1 3.7 -0.4 1.2-0.6 2.5-1.2 3.4 -1 0-1.9 0-2.9 0 -0.7-1.3-1-3.1-1.7-4.5 -1.4-4.6-3.1-9-4.5-13.6 -0.5 0.5-0.5 1.5-0.8 2.2 -0.2 0.7-0.4 1.6-0.7 2.3 -0.4 1.6-1 3-1.3 4.6 -0.6 1.4-1 3-1.5 4.6 -0.6 1.3-0.8 3.2-1.6 4.4 -0.7 0.2-2 0-2.9 0.1 -0.7-0.8-0.8-2.3-1.2-3.4 -0.3-1.2-0.6-2.5-1.1-3.6 -0.6-2.6-1.4-4.8-2-7.3 -0.7-2.3-1.4-4.8-2.1-7.2 -0.3-1.2-0.7-2.4-1.1-3.6 -0.2-1.2-1-2.4-0.7-3.7C1080.8 244.9 1080.9 244.9 1081 244.8z"/><path fill="#0769B3" d="M1122.1 244.8c1.7 0.1 3.6-0.2 5 0.1 0.3 1.1 0.2 2.2 0.2 3.4 0 7.1 0 14.6 0 21.8 0 1.2 0.2 2.3-0.2 3.4 -1.2 0.2-2.8 0.2-4.1 0.1 -0.4 0-0.9 0.1-1.2-0.2 -0.3-1.1-0.2-2.2-0.2-3.4 0-7.1 0-14.3 0-21.7 0-1.3-0.1-2.6 0.2-3.4C1121.9 244.9 1122 244.9 1122.1 244.8z"/></g></svg>