<?xml version="1.0" encoding="utf-8"?>
<!-- Generator: Adobe Illustrator 23.0.1, SVG Export Plug-In . SVG Version: 6.00 Build 0)  -->
<svg version="1.1" id="Layer_1" xmlns="http://www.w3.org/2000/svg" xmlns:xlink="http://www.w3.org/1999/xlink" x="0px" y="0px"
	 viewBox="0 0 98.3 28.8" style="enable-background:new 0 0 98.3 28.8;" xml:space="preserve">
<style type="text/css">
	.st0{fill:#2F68B2;}
	.st1{fill:#2E68B2;}
	.st2{fill:#F78F20;}
	.st3{fill:#0769B3;}
</style>
<path class="st0" d="M96.6,14.4c0,0,0,1.5,0,2.2c0.5,0,0.9,0.1,1.3,0.1c0.2,0.3,0.1,0.5,0.1,0.8c-0.4,0-0.8,0.1-1.3,0.1
	c0.2,2-0.3,4,0.3,5.9c0.5,0.1,0.9,0.2,1.3,0.3c0.2,0.4,0.1,0.6-0.3,0.8c-1.4,0.8-3.1-0.2-3.2-1.7c0-1.7,0-3.4,0-5.1
	c-0.3-0.3-0.7-0.1-0.9-0.3c-0.1-0.2-0.1-0.4-0.1-0.6c0.3-0.3,0.7-0.1,0.9-0.3c0-0.3,0.1-1.1,0.1-1.1L96.6,14.4z"/>
<path class="st1" d="M78.6,23.1c0-1.5,0-3,0-4.5c0-0.6-0.2-1.1-0.7-1.4c-1.1-0.8-3.5-0.4-4.4,0.6c-0.3,0.4-0.5,0.9-0.2,1.3
	c0.3,0.5,0.7,0.5,1.2,0.3c1.1-1.5,1.1-1.5,1.9-1.4c0.5,0.7,0.5,0.7,0.4,1.9c-0.9,0.3-1.9,0.5-2.8,1c-1.5,0.8-1.7,2.7-0.5,3.6
	c1.2,0.9,4,0.7,5.1-0.5C78.6,23.8,78.6,23.4,78.6,23.1z M76.7,23.9c-1.1,0.3-1.9,0-2.1-0.8c-0.2-1.1,0.6-1.8,2.1-1.9
	C76.7,22.5,76.7,23.1,76.7,23.9z"/>
<path class="st1" d="M93.2,21.8c-0.6-0.3-0.7,0.1-1,0.4c-1,1.1-2.4,1.1-3.2,0.1c-0.3-0.5-0.5-1-0.6-1.6c1.5-0.3,3.1-0.4,4.6-0.8
	c0.2-1.3-0.3-2.5-1.3-3.1c-1.1-0.6-2.7-0.4-3.7,0.4c-1.5,1.4-1.5,3.3-1,5c0.4,1.8,1.8,2.7,3.7,2.5C92.3,24.7,93.5,23.2,93.2,21.8z
	 M89.8,17.7c0.7-0.1,1.2,0.4,1.4,1.5c-0.9,0.1-1.8,0.4-2.7,0.4C88.6,18.5,89.1,17.8,89.8,17.7z"/>
<path class="st2" d="M22.9,19.9c-0.2-1.1-0.8-2-1.5-2.6c-0.3-0.3-0.6-0.4-0.9-0.7c-0.2-0.1-0.3-0.1-0.5-0.2
	c-0.4-0.1-0.9-0.3-1.5-0.2c0.3-0.1,0.8-0.2,1.3-0.1c0.4,0,0.7,0.1,1.1,0.2c0.3,0.1,0.6,0.3,0.8,0.5c0.7-2.1,0.4-4.8-0.3-6.6
	c-0.7-1.9-1.8-3.4-3.2-4.7c-1.4-1.3-3-2.2-5.2-2.7c-1.1-0.2-2.4-0.2-3.4,0c-1,0.3-1.9,0.7-2.6,1.3C6.2,4.7,5.5,5.4,5,6.2
	C4.9,6.4,4.8,6.6,4.7,6.8C4.6,7.1,4.5,7.3,4.4,7.5C4.2,8,4,8.4,4,9c-0.2,1-0.3,2.4-0.1,3.5c0.1,1.2,0.5,2.1,0.8,3.1
	c0.2,0.4,0.4,0.9,0.7,1.3c0.2,0.4,0.5,0.8,0.8,1.1c0.6,0.7,1.3,1.3,2.1,1.8c1.6,1,3.4,1.8,5.9,1.9c0.1-0.1-0.1-0.3-0.1-0.4
	c0-0.1-0.1-0.3-0.1-0.5c0-0.3-0.1-0.7,0-1.1c0.1,0,0.1,0.1,0.1,0.2c0.1,0.1,0.1,0.1,0.1,0.2c0.1,0.2,0.2,0.3,0.3,0.4
	c0.2,0.2,0.4,0.5,0.7,0.7c0.2,0.2,0.6,0.4,0.8,0.6c0.3,0.1,0.6,0.3,0.9,0.5c0.6,0.3,1.5,0.4,2.3,0.6c0.8,0.1,1.6,0.3,2.4,0.4
	c0.7,0.2,1.4,0.5,2,0.8c0.3,0.2,0.6,0.3,0.9,0.6c0.1,0.1,0.3,0.2,0.4,0.3c0.2,0.1,0.2,0.2,0.4,0.3c0.5,0.5,0.9,0.9,1.4,1.5
	c0.2,0.3,0.4,0.6,0.5,0.9c0.1,0.1,0.1,0.3,0.2,0.5c0,0.2,0.2,0.4,0,0.5c-0.2,0-0.2-0.2-0.3-0.3c-0.1-0.1-0.2-0.2-0.2-0.4
	c-0.3-0.4-0.7-0.8-1.1-1.1c-0.4-0.3-0.8-0.7-1.3-1c-0.9-0.6-1.8-1.1-3.1-1.4c-1.1-0.3-2.5-0.5-4-0.4c-0.7,0.1-1.3,0.2-1.8,0.4
	c-0.6,0.1-1.3,0.2-1.9,0.3c-2.5,0.1-5.4-0.4-7.3-1.4c-1-0.5-1.9-1-2.7-1.7c-0.4-0.3-0.8-0.7-1.1-1.1c-0.3-0.4-0.7-0.8-0.9-1.3
	c-0.3-0.4-0.5-1-0.8-1.4c-0.2-0.6-0.4-1-0.6-1.6c-0.2-0.6-0.3-1.2-0.4-1.8C0.1,14.4,0,14,0,13.7c0,0,0-0.1,0-0.1C0,13.4,0,13,0,12.8
	c0-0.6,0.1-1.4,0.2-1.9c0.1-0.6,0.3-1.2,0.5-1.7C0.9,8.5,1.1,8,1.4,7.5C1.5,7.2,1.7,7,1.8,6.8c0.1-0.2,0.3-0.4,0.4-0.7
	C2.4,6,2.4,5.8,2.5,5.8c0.1-0.1,0.2-0.2,0.2-0.3c0.1-0.1,0.2-0.2,0.2-0.3C3,5,3.1,4.9,3.2,4.8C3.5,4.4,3.9,4,4.2,3.7s0.8-0.7,1.2-1
	c0.3-0.1,0.4-0.3,0.7-0.4C6.3,2,6.6,1.9,6.8,1.8c0.5-0.2,0.9-0.5,1.5-0.7C8.8,0.9,9.4,0.7,10,0.5C11.2,0.2,12.4,0,13.9,0
	c0.1,0,0.1-0.1,0.1,0c2.8,0.1,4.9,0.9,6.6,2.1c1.7,1.1,3.1,2.7,4,4.7c0.9,1.9,1.5,4.5,1,7.2c-0.2,1.3-0.6,2.3-1,3.3
	c-0.3,0.5-0.5,1-0.8,1.4c-0.1,0.2-0.3,0.4-0.4,0.7c-0.1,0.1-0.1,0.2-0.2,0.3c0,0.1-0.1,0.1-0.1,0.1C23.1,19.8,23,19.9,22.9,19.9
	C23,19.9,22.9,19.9,22.9,19.9z"/>
<path class="st3" d="M60.5,14.1c0.6,0,1.2,0,1.8,0c0.2,0.2,0.2,0.6,0.3,0.9c0.6,2.1,1.1,4.2,1.6,6.3c0.1,0,0.1-0.1,0.1-0.2
	c0.1-0.1,0-0.2,0.1-0.2c0-0.2,0.1-0.3,0.1-0.5c0.1-0.3,0.2-0.6,0.3-0.9c0.1-0.6,0.3-1.2,0.5-1.8s0.4-1.2,0.5-1.8
	c0.3-0.5,0.3-1.3,0.6-1.7c0.3,0,0.5,0,0.8,0c0.3,0.5,0.4,1.2,0.6,1.8c0.1,0.6,0.4,1.2,0.5,1.8c0.4,1.2,0.8,2.4,1.1,3.6
	c0.1-0.2,0.1-0.6,0.3-0.9c0.1-0.3,0.1-0.6,0.2-0.9c0.3-1.2,0.6-2.5,0.9-3.6c0.1-0.6,0.3-1.3,0.5-1.8c0.4-0.1,1.1-0.1,1.6,0
	c0,0.4-0.2,0.9-0.3,1.4c-0.1,0.5-0.3,0.9-0.3,1.4c-0.3,0.9-0.5,1.8-0.8,2.7c-0.2,0.9-0.5,1.8-0.7,2.7c-0.1,0.4-0.3,0.9-0.4,1.4
	c-0.1,0.4-0.2,0.9-0.4,1.3c-0.3,0-0.7,0-1.1,0c-0.3-0.5-0.4-1.1-0.6-1.6c-0.5-1.7-1.1-3.4-1.6-5.1c-0.2,0.2-0.2,0.6-0.3,0.8
	c-0.1,0.3-0.2,0.6-0.3,0.9c-0.1,0.6-0.4,1.1-0.5,1.7c-0.2,0.5-0.4,1.1-0.5,1.7c-0.2,0.5-0.3,1.1-0.6,1.6c-0.3,0.1-0.7,0-1.1,0
	c-0.3-0.3-0.3-0.9-0.5-1.3c-0.1-0.4-0.2-0.9-0.4-1.3c-0.2-0.9-0.5-1.8-0.7-2.7c-0.3-0.9-0.5-1.8-0.8-2.7c-0.1-0.4-0.2-0.9-0.4-1.3
	c-0.1-0.5-0.4-0.9-0.3-1.4C60.5,14.1,60.5,14.1,60.5,14.1z"/>
<g>
	<g>
		<path class="st3" d="M42.7,24.4H27.6l-2.4-2.4h17.5c1.1,0,2.1-0.9,2.1-2.1V4.5c0-1.1-0.9-2.1-2.1-2.1H24l-3-2.4h21.7
			c2.5,0,4.5,2,4.5,4.5v15.4C47.2,22.4,45.2,24.4,42.7,24.4z"/>
	</g>
	<path class="st3" d="M42.2,8.6c-2.2,0-4,1.8-4,4s1.8,4,4,4H45V8.6H42.2L42.2,8.6z M41.8,14.4c-1.1,0-1.9-0.9-1.9-1.9
		s0.9-1.9,1.9-1.9c1.1,0,1.9,0.9,1.9,1.9C43.7,13.6,42.9,14.4,41.8,14.4z"/>
</g>
<rect x="83.6" y="13.1" class="st1" width="1.9" height="11.7"/>
<rect x="80.1" y="13.1" class="st1" width="1.9" height="11.7"/>
<g>
	<path class="st3" d="M55,10.7c0.1,0.4,0.3,0.8,0.6,1c0.2,0.3,0.6,0.6,0.9,0.7c0.3,0.2,0.7,0.4,1.1,0.5c0.2,0.1,0.4,0.1,0.7,0.2
		c0.2,0.1,0.4,0.1,0.4,0.4c0,0.3-0.2,0.4-0.5,0.5C58,14,57.6,14,57.4,13.9c-0.6-0.1-1-0.2-1.4-0.4c-0.9-0.3-1.6-0.8-2.3-1.4
		c-0.1-0.2-0.3-0.4-0.4-0.6c-0.1-0.2-0.2-0.5-0.4-0.7c-1.1-0.1-1.8-0.6-2.5-1.2c-0.6-0.7-1.1-1.5-1.3-2.6c-0.2-1-0.1-2.3,0.1-3.3
		c0.6-1.9,1.8-3.2,4.2-3.4c0.7,0,1.2,0.1,1.7,0.3c0.5,0.2,1,0.6,1.4,0.9c0,0,0.1,0,0.1,0.1C56.8,1.7,57,1.9,57.1,2c0,0,0,0.1,0,0.1
		c0.1,0.1,0.1,0.1,0.1,0.1c0,0,0,0.1,0,0.1c0,0.1,0.1,0.1,0.1,0.2c0,0,0.1,0.1,0.1,0.1c0.1,0.1,0.1,0.2,0.1,0.4
		c0.1,0.1,0.1,0.2,0.2,0.4c0.1,0.4,0.2,0.9,0.3,1.4c0.1,1.5-0.1,2.8-0.7,3.7c-0.2,0.5-0.6,0.9-1,1.3C56,10.2,55.5,10.5,55,10.7z
		 M53.3,1.6c-0.3,0-0.5,0.2-0.8,0.2C52.3,2,52.1,2.1,52,2.3c-0.2,0.1-0.2,0.4-0.4,0.6c-0.1,0.3-0.3,0.8-0.4,1.2
		C51.1,4.4,51,5,51,5.5c0,1.3,0.2,2.5,0.8,3.2c0.3,0.3,0.6,0.7,1.1,0.9c0.2,0,0.5,0.1,0.7,0.1c0.1-0.1,0.4,0,0.5-0.1
		c0.2,0,0.3-0.1,0.5-0.1c0.1-0.1,0.2-0.2,0.4-0.2c0.1-0.1,0.2-0.3,0.4-0.4c0.1-0.1,0.1-0.2,0.2-0.3c0.6-1.2,0.7-3.4,0.3-4.8
		c-0.1-0.5-0.4-0.9-0.6-1.3c-0.2-0.3-0.6-0.5-0.9-0.7c-0.3-0.1-0.6-0.1-0.9-0.1c0,0,0,0,0,0C53.3,1.6,53.3,1.6,53.3,1.6z"/>
	<path class="st3" d="M60.9,0.6c0.6,0,1.3-0.1,1.7,0c0.1,0.2,0.1,0.4,0.1,0.6c0,2.6,0,5.5,0,8.2c0,0.2,0,0.4,0,0.7
		c0,0.2,0,0.4-0.1,0.6c-0.2,0.1-0.6,0-0.9,0c-0.3,0-0.7,0.1-0.9-0.1c-0.1-3.2-0.1-6.7,0-9.9C60.8,0.7,60.8,0.6,60.9,0.6z"/>
	<path class="st3" d="M65.2,0.6c0.6,0,1.1,0,1.7,0c0.1,0.2,0.2,0.5,0.2,0.8c0.5,1.9,1,3.9,1.5,5.9c0.1,0,0.1-0.1,0.1-0.2
		c0.1-0.1,0-0.2,0.1-0.2c0-0.2,0.1-0.2,0.1-0.4c0.1-0.2,0.2-0.6,0.3-0.8c0.1-0.6,0.3-1.1,0.5-1.7s0.4-1.1,0.5-1.7
		c0.2-0.5,0.3-1.2,0.6-1.6c0.2,0,0.5,0,0.7,0c0.2,0.5,0.3,1.1,0.6,1.7c0.1,0.6,0.3,1.1,0.5,1.7c0.3,1.1,0.7,2.3,1,3.4
		c0.1-0.2,0.1-0.6,0.2-0.8C74,6.3,74.1,6,74.2,5.7c0.3-1.1,0.6-2.3,0.9-3.4c0.1-0.6,0.2-1.1,0.4-1.7c0.4-0.1,1.1-0.1,1.5,0
		c0,0.4-0.2,0.9-0.3,1.3c-0.1,0.5-0.2,0.8-0.3,1.3c-0.2,0.8-0.5,1.7-0.7,2.5c-0.2,0.9-0.5,1.7-0.7,2.5c-0.1,0.4-0.2,0.8-0.4,1.3
		c-0.1,0.4-0.2,0.9-0.4,1.2c-0.3,0-0.7,0-1,0c-0.2-0.5-0.3-1.1-0.6-1.6C72,7.6,71.4,6,71,4.4c-0.2,0.2-0.2,0.5-0.3,0.8
		c-0.1,0.2-0.1,0.6-0.2,0.8c-0.1,0.6-0.3,1-0.5,1.6c-0.2,0.5-0.3,1-0.5,1.6c-0.2,0.5-0.3,1.1-0.6,1.5c-0.2,0.1-0.7,0-1,0
		c-0.2-0.3-0.3-0.8-0.4-1.2c-0.1-0.4-0.2-0.9-0.4-1.3c-0.2-0.9-0.5-1.7-0.7-2.5c-0.2-0.8-0.5-1.7-0.7-2.5c-0.1-0.4-0.2-0.8-0.4-1.3
		c-0.1-0.4-0.3-0.8-0.2-1.3C65.1,0.6,65.2,0.6,65.2,0.6z"/>
	<path class="st3" d="M79.5,0.6c0.6,0,1.3-0.1,1.7,0c0.1,0.4,0.1,0.8,0.1,1.2c0,2.5,0,5.1,0,7.6c0,0.4,0.1,0.8-0.1,1.2
		c-0.4,0.1-1,0.1-1.4,0c-0.1,0-0.3,0-0.4-0.1c-0.1-0.4-0.1-0.8-0.1-1.2c0-2.5,0-5,0-7.5c0-0.5,0-0.9,0.1-1.2
		C79.4,0.6,79.5,0.6,79.5,0.6z"/>
</g>
</svg>
