<?xml version="1.0" encoding="utf-8"?>
<!-- Generator: Adobe Illustrator 23.0.1, SVG Export Plug-In . SVG Version: 6.00 Build 0)  -->
<svg version="1.1" id="Layer_1" xmlns="http://www.w3.org/2000/svg" xmlns:xlink="http://www.w3.org/1999/xlink" x="0px" y="0px"
	 viewBox="0 0 38.3 36.7" style="enable-background:new 0 0 38.3 36.7;" xml:space="preserve">
<style type="text/css">
	.st0{fill:#50E3C2;}
</style>
<title>ic_redeem_48px copy</title>
<desc>Created with Sketch.</desc>
<g id="Page-1">
	<g id="ic_redeem_48px-copy">
		<path id="Shape" class="st0" d="M34.5,7.7h-4.2c0.2-0.6,0.4-1.2,0.4-1.9c0-3.2-2.6-5.8-5.8-5.8c-2,0-3.8,1-4.8,2.6l-1,1.3l-1-1.3
			C17.2,1,15.4,0,13.4,0c-3.2,0-5.8,2.6-5.8,5.8c0,0.7,0.1,1.3,0.4,1.9H3.8C1.7,7.7,0,9.4,0,11.6l0,21.2c0,2.1,1.7,3.9,3.8,3.9h30.7
			c2.1,0,3.8-1.7,3.8-3.9V11.6C38.3,9.4,36.6,7.7,34.5,7.7z M24.9,3.9c1.1,0,1.9,0.9,1.9,1.9S26,7.7,24.9,7.7S23,6.9,23,5.8
			S23.9,3.9,24.9,3.9z M13.4,3.9c1.1,0,1.9,0.9,1.9,1.9s-0.9,1.9-1.9,1.9c-1.1,0-1.9-0.9-1.9-1.9S12.4,3.9,13.4,3.9z M34.5,32.8H3.8
			v-3.9h30.7V32.8z M34.5,23.2H3.8V11.6h9.7l-4,5.5l3.1,2.2l4.6-6.2l1.9-2.6l1.9,2.6l4.6,6.2l3.1-2.2l-4-5.5h9.7V23.2z"/>
	</g>
</g>
</svg>
