
<?xml version="1.0" encoding="utf-8"?>
<!-- Generator: Adobe Illustrator 16.0.4, SVG Export Plug-In . SVG Version: 6.00 Build 0)  -->
<!DOCTYPE svg PUBLIC "-//W3C//DTD SVG 1.1//EN" "http://www.w3.org/Graphics/SVG/1.1/DTD/svg11.dtd">
<svg version="1.1" id="Layer_1" xmlns="http://www.w3.org/2000/svg" xmlns:xlink="http://www.w3.org/1999/xlink" x="0px" y="0px"
	 width="124px" height="48px" viewBox="0 0 124 48" enable-background="new 0 0 124 48" xml:space="preserve">
<g>
	<g>
		<path fill="#344E75" d="M55.969,39.403H48.69c-0.078,0.487-0.136,0.8-0.136,1.054c0,0.896,0.487,1.344,2.277,1.344
			c1.148,0,2.122-0.058,4.204-0.194l-0.37,2.241c-0.915,0.215-2.511,0.487-4.496,0.487c-3.191,0-4.885-1.188-4.885-3.995
			c0-0.566,0.079-1.189,0.195-1.872l0.098-0.584c0.642-3.899,2.938-5.244,6.169-5.244c3.25,0,4.554,1.657,4.554,4.074
			C56.3,37.493,56.203,38.254,55.969,39.403z M51.435,35.058c-1.654,0-2.16,1.13-2.374,2.338l-0.039,0.157h3.97
			c0.078-0.41,0.117-0.762,0.117-1.015C53.108,35.7,52.738,35.058,51.435,35.058z"/>
		<path fill="#344E75" d="M60.934,38.352l-2.784-5.419h3.64l1.674,3.255l2.743-3.255h3.191l-4.768,5.535l2.88,5.575h-3.639
			l-1.771-3.411l-2.978,3.411h-3.211L60.934,38.352z"/>
		<path fill="#344E75" d="M80.455,39.189c-0.739,4.035-2.764,5.126-6.072,5.126c-0.642,0-1.479-0.077-1.926-0.175L71.775,48H68.39
			l2.646-15.067h3.134l-0.117,0.701c1.148-0.701,2.374-0.994,3.348-0.994c2.335,0,3.426,1.17,3.426,3.353
			C80.826,36.655,80.709,37.767,80.455,39.189z M75.94,35.232c-0.564,0-1.129,0.117-2.024,0.468l-1.07,5.887
			c0.564,0.117,1.109,0.175,1.635,0.175c1.479,0,2.161-0.447,2.628-2.865c0.272-1.461,0.312-1.969,0.312-2.358
			C77.42,35.563,76.933,35.232,75.94,35.232z"/>
		<path fill="#344E75" d="M90.188,35.486c-1.226,0-2.608,0.214-3.522,0.506l-1.42,8.051H81.84l1.965-11.11h3.134l-0.156,0.916
			c1.266-1.014,2.686-1.209,3.894-1.209L90.188,35.486z"/>
		<path fill="#344E75" d="M101.05,39.403h-7.279c-0.078,0.487-0.136,0.8-0.136,1.054c0,0.896,0.486,1.344,2.276,1.344
			c1.149,0,2.122-0.058,4.204-0.194l-0.369,2.241c-0.915,0.215-2.512,0.487-4.496,0.487c-3.192,0-4.885-1.188-4.885-3.995
			c0-0.566,0.078-1.189,0.194-1.872l0.097-0.584c0.643-3.899,2.939-5.244,6.17-5.244c3.251,0,4.554,1.657,4.554,4.074
			C101.38,37.493,101.283,38.254,101.05,39.403z M96.515,35.058c-1.654,0-2.161,1.13-2.374,2.338l-0.039,0.157h3.97
			c0.078-0.41,0.117-0.762,0.117-1.015C98.188,35.7,97.818,35.058,96.515,35.058z"/>
		<path fill="#344E75" d="M111.969,35.135c-1.382-0.136-2.705-0.214-3.542-0.214c-0.817,0-1.79,0.038-1.79,0.975
			c0,0.468,0.35,0.662,1.266,1.032l0.933,0.371c1.928,0.76,2.706,1.617,2.706,3.178c0,2.885-2.394,3.839-5.547,3.839
			c-1.557,0-3.309-0.253-3.893-0.429l0.351-2.047c1.44,0.078,2.103,0.215,3.737,0.215c1.069,0,1.965-0.176,1.965-1.13
			c0-0.546-0.271-0.722-1.459-1.21l-0.818-0.33c-1.692-0.683-2.607-1.639-2.607-3.256c0-2.943,2.511-3.489,5.08-3.489
			c1.673,0,3.113,0.215,3.97,0.448L111.969,35.135z"/>
		<path fill="#344E75" d="M122.538,35.135c-1.382-0.136-2.706-0.214-3.542-0.214c-0.818,0-1.79,0.038-1.79,0.975
			c0,0.468,0.35,0.662,1.265,1.032l0.934,0.371c1.928,0.76,2.705,1.617,2.705,3.178c0,2.885-2.393,3.839-5.546,3.839
			c-1.558,0-3.31-0.253-3.893-0.429l0.351-2.047c1.439,0.078,2.102,0.215,3.736,0.215c1.07,0,1.966-0.176,1.966-1.13
			c0-0.546-0.272-0.722-1.46-1.21l-0.817-0.33c-1.692-0.683-2.607-1.639-2.607-3.256c0-2.943,2.511-3.489,5.08-3.489
			c1.673,0,3.113,0.215,3.97,0.448L122.538,35.135z"/>
	</g>
	<g>
		<path fill="#198A83" d="M52.708,5.346c-3.108-0.293-4.973-0.477-8.08-0.477c-2.45,0-4.79,0.404-4.79,2.857
			c0,1.208,0.585,1.758,2.522,2.6l3.583,1.574c3.546,1.575,5.448,3.552,5.448,7.324c0,6.444-4.936,9.191-11.846,9.191
			c-3.803,0-7.532-0.439-9.25-0.879l0.731-4.467c2.121,0.22,4.534,0.402,8.299,0.402c2.815,0,5.082-0.842,5.082-3.442
			c0-1.245-0.731-1.904-2.706-2.82l-3.656-1.647c-3.035-1.355-5.046-3.442-5.046-7.251C33.001,1.647,38.668,0,44.848,0
			c3.839,0,7.056,0.548,8.591,0.915L52.708,5.346z"/>
		<path fill="#198A83" d="M76.801,5.566H65.138l-1.097,5.932h10.895l-0.804,4.761H63.235l-1.205,6.554h11.663l-0.842,4.98h-18.5
			l4.79-27.208h18.5L76.801,5.566z"/>
		<path fill="#198A83" d="M102.027,10.179c-1.39,8.093-8.701,8.313-16.453,8.313l-1.682,9.301h-6.581l4.826-27.208
			c2.853-0.22,5.374-0.33,8.373-0.33c6.727,0,11.735,1.355,11.735,7.507C102.246,8.568,102.174,9.337,102.027,10.179z M90.474,5.383
			c-0.877,0-1.827,0.036-2.596,0.036l-1.426,7.91h0.475c4.718,0,8.593,0,8.593-5.2C95.52,5.822,93.801,5.383,90.474,5.383z"/>
		<path fill="#198A83" d="M116.943,27.793l-0.658-6.847h-7.714l-3.217,6.847h-7.131l12.358-27.208h10.604L124,27.793H116.943z
			 M115.518,8.825c-0.109-1.318-0.146-2.783-0.109-4.175h-0.256c-0.476,1.392-1.023,2.857-1.609,4.175l-3.217,7.213h5.85
			L115.518,8.825z"/>
	</g>
	<g>
		
			<radialGradient id="SVGID_1_" cx="21.9082" cy="14.3062" r="17.461" gradientTransform="matrix(0.9984 0 0 1 -11.3091 0)" gradientUnits="userSpaceOnUse">
			<stop  offset="0" style="stop-color:#345C86"/>
			<stop  offset="0.2949" style="stop-color:#325982"/>
			<stop  offset="0.6005" style="stop-color:#2E5176"/>
			<stop  offset="0.9099" style="stop-color:#254261"/>
			<stop  offset="0.9951" style="stop-color:#233D5A"/>
		</radialGradient>
		<path fill="url(#SVGID_1_)" d="M27.598,14.305c0-6.942-5.115-12.692-11.772-13.667c-2.946,1.943-5.232,4.804-6.432,8.194h4.638
			l-0.733,4.153H8.513c-0.037,0.434-0.059,0.877-0.059,1.32c0,0.488,0.026,0.969,0.067,1.452h5.532l-0.778,4.156H9.439
			c1.211,3.328,3.473,6.147,6.381,8.062C22.481,26.995,27.598,21.25,27.598,14.305z"/>
		<g>
			<defs>
				<path id="SVGID_2_" d="M4.859,8.832c1.162-3.308,3.359-6.117,6.191-8.076C6.58,1.66,2.896,4.737,1.127,8.832H4.859z"/>
			</defs>
			<clipPath id="SVGID_3_">
				<use xlink:href="#SVGID_2_"  overflow="visible"/>
			</clipPath>
			
				<radialGradient id="SVGID_4_" cx="14.374" cy="14.3057" r="22.5339" gradientTransform="matrix(0.9984 0 0 1 -11.3091 0)" gradientUnits="userSpaceOnUse">
				<stop  offset="0" style="stop-color:#5A9F97"/>
				<stop  offset="0.279" style="stop-color:#589B93"/>
				<stop  offset="0.5676" style="stop-color:#518F87"/>
				<stop  offset="0.6" style="stop-color:#508D85"/>
			</radialGradient>
			<ellipse clip-path="url(#SVGID_3_)" fill="url(#SVGID_4_)" cx="13.799" cy="14.305" rx="13.799" ry="13.821"/>
		</g>
		<g>
			<defs>
				<path id="SVGID_5_" d="M3.921,14.305c0-0.443,0.021-0.887,0.058-1.32H0.065C0.023,13.418,0,13.859,0,14.305
					c0,0.489,0.025,0.973,0.079,1.452h3.909C3.947,15.274,3.921,14.793,3.921,14.305z"/>
			</defs>
			<clipPath id="SVGID_6_">
				<use xlink:href="#SVGID_5_"  overflow="visible"/>
			</clipPath>
			
				<radialGradient id="SVGID_7_" cx="14.374" cy="14.3057" r="22.5339" gradientTransform="matrix(0.9984 0 0 1 -11.3091 0)" gradientUnits="userSpaceOnUse">
				<stop  offset="0" style="stop-color:#5A9F97"/>
				<stop  offset="0.279" style="stop-color:#589B93"/>
				<stop  offset="0.5676" style="stop-color:#518F87"/>
				<stop  offset="0.6" style="stop-color:#508D85"/>
			</radialGradient>
			<ellipse clip-path="url(#SVGID_6_)" fill="url(#SVGID_7_)" cx="13.799" cy="14.305" rx="13.799" ry="13.821"/>
		</g>
		<g>
			<defs>
				<path id="SVGID_8_" d="M4.904,19.913H1.189c1.786,4.025,5.435,7.037,9.853,7.934C8.253,25.923,6.081,23.159,4.904,19.913z"/>
			</defs>
			<clipPath id="SVGID_9_">
				<use xlink:href="#SVGID_8_"  overflow="visible"/>
			</clipPath>
			
				<radialGradient id="SVGID_10_" cx="14.374" cy="14.3057" r="22.5339" gradientTransform="matrix(0.9984 0 0 1 -11.3091 0)" gradientUnits="userSpaceOnUse">
				<stop  offset="0" style="stop-color:#5A9F97"/>
				<stop  offset="0.279" style="stop-color:#589B93"/>
				<stop  offset="0.5676" style="stop-color:#518F87"/>
				<stop  offset="0.6" style="stop-color:#508D85"/>
			</radialGradient>
			<ellipse clip-path="url(#SVGID_9_)" fill="url(#SVGID_10_)" cx="13.799" cy="14.305" rx="13.799" ry="13.821"/>
		</g>
	</g>
</g>
</svg>
