<?xml version="1.0" encoding="utf-8"?>
<!-- Generator: Adobe Illustrator 23.0.1, SVG Export Plug-In . SVG Version: 6.00 Build 0)  -->
<svg version="1.1" id="Layer_1" xmlns="http://www.w3.org/2000/svg" xmlns:xlink="http://www.w3.org/1999/xlink" x="0px" y="0px"
	 viewBox="0 0 78.7 14.3" style="enable-background:new 0 0 78.7 14.3;" xml:space="preserve">
<style type="text/css">
	.st0{fill:#F48120;}
</style>
<g id="XMLID_79_">
	<path id="XMLID_77_" class="st0" d="M21.8,0.2h-7.9c-1.2,0-2.5,0-3.6,0.6c-1.1,0.6-2,1.7-2.8,3.9C7.3,5.1,7.2,5.5,7.2,5.9
		c0,0.4,0.1,0.7,0.2,0.9c0.2,0.3,0.4,0.6,0.8,0.9C8.5,8,8.9,8.2,9.4,8.3c0,0,0.2,0.1,0.5,0.1c0.3,0.1,0.6,0.2,0.8,0.2
		c0.1,0,0.3,0.1,0.4,0.1c0.1,0.1,0.2,0.2,0.3,0.3c0,0.1,0.1,0.2,0.1,0.3c0,0.1,0,0.2-0.1,0.3c-0.1,0.3-0.3,0.5-0.5,0.6
		c-0.3,0.1-0.7,0.1-1.4,0.2H1.3L0,14.1h8.7c0.8,0,2.3,0,3.8-0.6c1.5-0.6,2.8-1.8,3.4-4.3c0.2-0.9,0.1-1.7-0.2-2.3
		c-0.4-0.6-1-1-2-1.3c0,0-0.2-0.1-0.5-0.1c-0.2-0.1-0.5-0.1-0.7-0.2c-0.2-0.1-0.4-0.2-0.5-0.4C12,4.7,11.9,4.5,12,4.3
		c0.1-0.2,0.2-0.4,0.4-0.5c0.2-0.1,0.5-0.2,0.9-0.2h5.1c0-0.1,0.1-0.1,0.1-0.2C19.4,2,20.5,1,21.8,0.2"/>
	<path id="XMLID_76_" class="st0" d="M21.8,0.2h-7.9c-1.2,0-2.5,0-3.6,0.6c-1.1,0.6-2,1.7-2.8,3.9C7.3,5.1,7.2,5.5,7.2,5.9
		c0,0.4,0.1,0.7,0.2,0.9c0.2,0.3,0.4,0.6,0.8,0.9c0.3,0.3,0.7,0.5,1.2,0.6c0,0,0.2,0.1,0.5,0.1c0.3,0.1,0.6,0.2,0.8,0.2
		c0.1,0,0.3,0.1,0.4,0.1c0.1,0.1,0.2,0.2,0.3,0.3c0,0.1,0.1,0.2,0.1,0.3c0,0.1,0,0.2-0.1,0.3c-0.1,0.3-0.3,0.5-0.5,0.6
		c-0.3,0.1-0.7,0.1-1.4,0.2H1.3L0,14.1h8.7c0.8,0,2.3,0,3.8-0.6c1.5-0.6,2.8-1.8,3.4-4.3c0.2-0.9,0.1-1.7-0.2-2.3
		c-0.4-0.6-1-1-2-1.3c0,0-0.2-0.1-0.5-0.1c-0.2-0.1-0.5-0.1-0.7-0.2c-0.2-0.1-0.4-0.2-0.5-0.4C12,4.7,11.9,4.5,12,4.3
		s0.2-0.4,0.4-0.5c0.2-0.1,0.5-0.2,0.9-0.2h5.1c0-0.1,0.1-0.1,0.1-0.2C19.4,2,20.5,0.9,21.8,0.2"/>
	<path id="XMLID_17_" class="st0" d="M64.9,0.2c0.3,0.2,0.5,0.5,0.7,0.7c0.5,0.7,0.7,1.6,0.6,2.5h2.5l-3.8,10.5h3.8l3.8-10.6h4.9
		l1.2-3.3L64.9,0.2L64.9,0.2z"/>
	<path id="XMLID_99_" class="st0" d="M64.7,1.6c-0.6-0.9-1.9-1.4-3.9-1.4h-4.7l-5,13.8h4.3l1.8-4.9c0.1,0.2,1.2,4.9,1.2,4.9h4.5
		c0,0-0.8-3.4-1.4-4.8c-0.1-0.4-0.3-0.8-0.5-1.1c1.3-0.5,3.1-1.5,3.9-3.5C65.3,3.3,65.3,2.3,64.7,1.6 M61,4.6
		c-0.4,1.1-1.2,1.8-2.5,1.8l0,0h-0.7L59,3.1h0.7C61,3.1,61.5,3.5,61,4.6"/>
	<path id="XMLID_96_" class="st0" d="M29.5,1.5C28.9,0.5,27.7,0,26,0c-1.1,0-2.1,0.2-3.1,0.7c-1.4,0.7-2.7,1.8-3.7,3.2
		C18.5,4.9,18,6,17.5,7.2c-0.9,2.3-0.8,4.2,0,5.5c0.5,0.7,1.5,1.5,3.6,1.5l0,0c3.8,0,6.6-2.5,8.4-7.4C30.1,5.6,30.7,3.1,29.5,1.5
		 M25.5,7.1c-1.2,3.3-2,4.1-3.3,4.1l0,0c-1.3,0-1.7-0.8-0.5-4c0.9-2.4,2-4,3.4-4l0,0C26.3,3.1,26.6,3.9,25.5,7.1"/>
	<path id="XMLID_12_" class="st0" d="M44.7,0.2h-8.1c-2.3,0-3.9,1.2-4.7,3.3l-3.8,10.5h4.2l2-5.4H38L39,5.7h-3.7l0.6-1.7
		c0.1-0.3,0.4-0.5,0.9-0.5c0.2,0,3,0,4.4,0c0-0.1,0.1-0.1,0.1-0.2C42.2,2,43.5,1,44.7,0.2"/>
	<path id="XMLID_92_" class="st0" d="M52.5,1.5C51.8,0.5,50.6,0,49,0c-1.1,0-2.1,0.2-3.1,0.7c-1.4,0.7-2.7,1.8-3.7,3.2
		c-0.7,0.9-1.2,2.1-1.7,3.3c-0.9,2.3-0.8,4.2,0,5.5c0.5,0.7,1.5,1.5,3.6,1.5l0,0c3.8,0,6.6-2.5,8.4-7.4C53,5.6,53.6,3.1,52.5,1.5
		 M48.4,7.1c-1.2,3.3-2,4.1-3.3,4.1l0,0c-1.3,0-1.7-0.8-0.5-4c0.9-2.4,2-4,3.4-4l0,0C49.3,3.1,49.6,3.9,48.4,7.1"/>
	<path id="XMLID_9_" class="st0" d="M64.9,0.2c0.3,0.2,0.5,0.5,0.7,0.7c0.5,0.7,0.7,1.6,0.6,2.5h2.5L64.9,14h3.8l3.8-10.6h4.9
		l1.2-3.3L64.9,0.2L64.9,0.2z"/>
	<path id="XMLID_88_" class="st0" d="M64.7,1.6c-0.6-0.9-1.9-1.4-3.9-1.4h-4.7l-5,13.8h4.3l1.8-4.9c0.1,0.2,1.2,4.9,1.2,4.9h4.5
		c0,0-0.8-3.4-1.4-4.8c-0.1-0.4-0.3-0.8-0.5-1.1c1.3-0.5,3.1-1.5,3.9-3.5C65.3,3.3,65.3,2.3,64.7,1.6 M61,4.6
		c-0.4,1.1-1.2,1.8-2.5,1.8l0,0h-0.7L59,3h0.7C61,3.1,61.5,3.4,61,4.6"/>
	<path id="XMLID_85_" class="st0" d="M29.6,1.5C28.9,0.5,27.7,0,26,0c-1.1,0-2.1,0.2-3.1,0.7c-1.4,0.7-2.7,1.8-3.7,3.2
		C18.6,4.9,18,6,17.5,7.2c-0.9,2.3-0.8,4.2,0,5.5c0.5,0.7,1.5,1.5,3.6,1.5l0,0c3.8,0,6.6-2.5,8.4-7.4C30.1,5.6,30.7,3.1,29.6,1.5
		 M25.5,7c-1.2,3.3-2,4.1-3.3,4.1l0,0c-1.3,0-1.7-0.8-0.5-4c0.9-2.4,2-4,3.4-4l0,0C26.3,3.1,26.6,3.9,25.5,7"/>
	<path id="XMLID_4_" class="st0" d="M44.7,0.2h-8.1c-2.3,0-3.9,1.2-4.7,3.3L28.1,14h4.2l2-5.4H38L39,5.7h-3.7L35.9,4
		c0.1-0.3,0.4-0.5,0.9-0.5c0.2,0,3,0,4.4,0c0-0.1,0.1-0.1,0.1-0.2C42.2,2,43.5,0.9,44.7,0.2"/>
	<path id="XMLID_81_" class="st0" d="M52.5,1.5C51.8,0.5,50.6,0,49,0c-1.1,0-2.1,0.2-3.1,0.7c-1.4,0.7-2.7,1.8-3.7,3.2
		c-0.7,0.9-1.2,2.1-1.7,3.3c-0.9,2.3-0.8,4.2,0,5.5c0.5,0.7,1.5,1.5,3.6,1.5l0,0c3.8,0,6.6-2.5,8.4-7.4C53,5.6,53.6,3.1,52.5,1.5
		 M48.4,7c-1.2,3.3-2,4.1-3.3,4.1l0,0c-1.3,0-1.7-0.8-0.5-4c0.9-2.4,2-4,3.4-4l0,0C49.3,3.1,49.6,3.9,48.4,7"/>
</g>
</svg>
