<?xml version="1.0" encoding="utf-8"?>
<!-- Generator: Adobe Illustrator 23.0.1, SVG Export Plug-In . SVG Version: 6.00 Build 0)  -->
<svg version="1.1" id="svg" xmlns="http://www.w3.org/2000/svg" xmlns:xlink="http://www.w3.org/1999/xlink" x="0px" y="0px"
	 viewBox="0 0 397.8 123.3" style="enable-background:new 0 0 397.8 123.3;" xml:space="preserve">
<style type="text/css">
	.st0{fill-rule:evenodd;clip-rule:evenodd;}
	.st1{fill-rule:evenodd;clip-rule:evenodd;fill:#62CE02;}
</style>
<g id="svgg">
	<path id="path0" class="st0" d="M329.1,38.6c-0.7,0.4-0.7,2.2-0.7,29.2c0,27,0,28.8,0.7,29.1c1.4,0.6,15.1,0.3,15.8-0.3
		c1.1-0.9,1-57.4-0.1-58C343.8,38.1,330.1,38.1,329.1,38.6 M115.3,39.4c-0.9,0.4-0.9,0.5-0.9,6.8c0,7.8-0.6,7.2,7.9,7.2
		c5.5,0,6.4,0.1,6.6,0.6c0.1,0.3,0.2,10,0.2,21.4c0,18.8,0.1,20.8,0.7,21.3c1.1,0.9,17.1,0.8,18-0.2c0.7-0.7,0.7-2.2,0.9-21.8
		l0.2-21.1l7.3-0.2c8.8-0.2,8.1,0.4,8-7.4c-0.1-5.9-0.1-6-1.1-6.5C162,38.9,116.8,38.8,115.3,39.4 M305.7,45
		c-6.9,1.2-7.7,1.9-7.7,6.8v2.8h-2.2c-3.2,0-3.4,0.3-3.4,5.8c0,5.2,0.4,5.8,3.3,5.8h1.5l0,10.5c0,18.1,2.2,21.3,14.2,21.3
		c9.3,0,10-0.4,9.4-6c-0.6-5.9-0.9-6.6-2.9-6.6c-2.7,0-2.7,0.1-2.7-9.9v-8.9h2.5c4,0,4.3-0.3,4.3-5.7c0-6-0.2-6.3-4.4-6.3h-3.2
		l-0.1-5.1l-0.1-5.1l-2.2-0.1C310.8,44.3,308,44.6,305.7,45 M266.2,53.6c-16.8,3.9-18.7,19.4-3.1,26.2c6.8,3,7.8,3.9,6.2,5.2
		c-1.2,1-8.1,1.1-12.9,0.1c-4.4-0.9-4.6-0.7-4.6,4.6c0,6.6,0.1,6.7,9,7.9c18.6,2.5,28.2-2,28.2-13.2c0-6.8-3.3-10.9-12.4-15.5
		c-5.5-2.7-6-3.3-4.6-4.4c1.1-0.9,3.2-0.9,8.2-0.2c4.9,0.7,5.4,0.3,6.3-5.3c0.5-3.5,0.2-4.6-1.4-5.2C283.1,53,269.3,52.9,266.2,53.6
		 M183.2,54.6c-11.2,0.3-12.7,0.6-14.8,3.8l-1,1.6l-0.1,17.5c-0.1,19.1-0.2,18.8,2.2,19.5c2.1,0.6,12.3,0.5,13.4,0
		c1.4-0.8,1.5-0.9,1.5-12.6c0-15.8,0.5-16.8,9.3-17.3c4.8-0.3,4.7-0.1,4.7-6.7c0-6.1-0.1-6.2-3.5-6
		C193.9,54.3,188.6,54.5,183.2,54.6 M204.5,55.7c-1.2,1.5-1.3,31-0.1,34.6c1.9,6,4.2,6.9,19.9,7c21.3,0.3,21.2,0.4,21.2-25V56.1
		l-0.9-0.8c-1.6-1.3-14.9-1.2-15.8,0.1c-0.5,0.8-0.6,2.7-0.6,12.7c0,13.6-0.1,14-3.2,14c-3,0-3-0.1-3.2-13.8l-0.1-12.1l-1-0.8
		c-0.9-0.7-1.6-0.8-8.1-0.8h-7.1L204.5,55.7 M350.3,54.9c-0.7,0.7,0,2.9,4.4,13.6c2.6,6.3,6.1,15,7.8,19.3c1.7,4.3,3.1,8,3.1,8.3
		c0,0.5-3.1,8.2-5,12.4c-2,4.3-1.8,4.5,6.2,4.5h5.9l1.1-1.1c1.3-1.3,1.1-1,10.5-23.1c4.1-9.7,8.9-20.9,10.6-25
		c4.3-10,4.7-9.2-4.5-9.2c-8.2,0-7.4-0.6-11.8,10.2c-1.9,4.6-3.4,8.4-3.5,8.5s-0.5-1-1-2.4c-4.1-11.7-5.1-14.2-6-15.2l-1.1-1.1h-8.3
		C354.3,54.6,350.4,54.7,350.3,54.9"/>
	<path id="path1" class="st1" d="M45.4,0.8C29.9,4.3,21.2,15.7,21.2,32.4v6.5l-8.3,0.1C-1.8,39.3-1.8,39.3,2.4,58.3
		c8.7,39.1,7.9,36.4,11.5,38.1l1.9,0.9h35.6h35.6l2-1c3.2-1.6,3.4-2.3,7.8-21.9c2.1-9.6,4.5-19.9,5.1-23c2.5-10.9,1.4-12-12.1-12.2
		l-8.3-0.1v-6.3C81.6,11.4,64.5-3.6,45.4,0.8 M55,10.6c10.3,1.9,15.8,9.8,15.8,22.8V39H51.4H32v-5.5C32,17.5,41.5,8.1,55,10.6
		 M63.7,51.8c0.7,0.4,0.8,0.9,0.8,3.6v3.2l-4.1,0.1l-4.1,0.1L56,70.2l-0.2,11.4H51h-4.8L46,70.2l-0.2-11.4l-3.7-0.1l-3.7-0.1v-3.4
		c0-2.3,0.2-3.4,0.5-3.6C39.9,51.3,62.9,51.4,63.7,51.8 M27.1,100c-13,4.9-9.1,24.2,4.7,23.3c12.3-0.8,15.5-17.1,4.5-22.8
		C34.2,99.4,29.3,99.1,27.1,100 M68.2,99.8c-5.2,1.5-9.1,7.6-8.4,13.1c2.1,14.7,23.8,13.3,23.8-1.5C83.6,103.2,76,97.6,68.2,99.8"/>
</g>
</svg>
