<?xml version="1.0" encoding="utf-8"?>
<!-- Generator: Adobe Illustrator 23.0.1, SVG Export Plug-In . SVG Version: 6.00 Build 0)  -->
<svg version="1.1" id="Layer_1" xmlns="http://www.w3.org/2000/svg" xmlns:xlink="http://www.w3.org/1999/xlink" x="0px" y="0px"
	 viewBox="0 0 80 31.5" style="enable-background:new 0 0 80 31.5;" xml:space="preserve">
<style type="text/css">
	.st0{fill:#272525;}
	.st1{fill:#FF0000;}
</style>
<path class="st0" d="M35.2,11.9c-1.8,0-3.7,1.3-3.7,1.3v-0.9c0-0.2-0.1-0.3-0.3-0.3h-2.3c-0.2,0-0.3,0.1-0.3,0.3v18.3
	c0,0.2,0.1,0.3,0.3,0.3h2.4c0.2,0,0.3-0.1,0.3-0.3V15.1c0,0,1.1-0.7,2.4-0.7c1.3,0,2.3,0.6,2.3,1.9v14.4c0,0.2,0.1,0.3,0.3,0.3h2.3
	c0.2,0,0.3-0.2,0.3-0.3V15.5C39.1,13.2,37.7,11.9,35.2,11.9z M53.4,2.8H51c-0.2,0-0.3,0.1-0.3,0.3v9.2c-0.9-0.3-1.7-0.5-2.4-0.5
	c-3.8,0-6.4,3.6-6.4,10.6c0,6,2.5,9.2,5.8,9.2c1.4,0,2.5-0.8,3.4-1.5l0.5,0.9C51.8,31,51.9,31,52,31l1.3,0c0.2,0,0.3-0.1,0.3-0.3V3
	C53.6,2.8,53.6,2.8,53.4,2.8z M45.1,21.7c0-3.8,1.1-7.6,3.4-7.6c0.8,0,1.5,0.3,2.3,0.8v13.5c-0.6,0.3-1.3,0.6-2.1,0.6
	C46.2,29.1,45.1,26.1,45.1,21.7z M62.3,11.8c-3.9,0-5.8,5.1-5.8,10.6c0,5.8,2.7,9,6.3,9c1.5,0,3.1-0.6,4.1-1.2
	c0.2-0.1,0.2-0.2,0.1-0.4l-0.3-1.2c0-0.1-0.1-0.2-0.3-0.2c-0.1,0-1.4,0.4-2.6,0.4c-2.9,0-4.2-2.6-4.2-6v-0.8c0,0,1.4,0.2,2.3,0.2
	h5.4v-1.6C67.4,14.9,65.3,11.8,62.3,11.8L62.3,11.8z M62.1,19.9c-0.9,0-2.4,0.2-2.4,0.2s0-0.6,0.1-1.2c0.3-3.2,1.1-4.8,2.4-4.8
	c1.1,0,1.9,1.6,2.1,4.5c0,0.6,0,1.3,0,1.3H62.1z M24.1,14.1c-0.9-1.7-2.4-2.4-4.2-2.4c-1.1,0-2.9,0.4-4.1,1
	c-0.2,0.1-0.4,0.2-0.4,0.4c0,0.1,0.1,0.2,0.1,0.3l0.8,1.7c0.1,0.2,0.2,0.2,0.3,0.2c0.1,0,0.2-0.1,0.3-0.1c1.2-0.7,2-1.1,2.7-1.1
	c0.9,0,1.5,0.6,1.9,1.5c0.3,0.8,0.5,2,0.5,3.3c0,0.2,0,0.4,0,0.4c-0.7-0.5-2-0.7-2.6-0.7c-3.4,0-5.2,3.2-5.2,6.6
	c0,3.7,2.1,6.4,4.7,6.4c1.4,0,2.7-0.8,3.6-1.9c0,0,0.5,1.1,0.5,1.2c0.1,0.1,0.1,0.2,0.3,0.2l1.4,0c0.2,0,0.3-0.1,0.3-0.3V20.1
	C24.9,17.5,24.8,15.5,24.1,14.1z M22,28.1c-0.7,0.6-1.5,1-2.2,1c-0.7,0-1.3-0.3-1.7-1c-0.5-0.8-0.8-1.9-0.8-3.2c0-2,0.7-4.1,2.3-4.1
	c0.8,0,1.6,0.3,2.4,0.8C22,21.7,22,28.1,22,28.1z M79.7,12.2h-2.1c-0.2,0-0.4,0.1-0.4,0.3c-0.5,1.2-0.9,2.4-1.4,3.6
	c-0.3,0.7-1,2.7-1,2.7l-0.1,0c0,0-0.5-1.4-0.8-2.1c-0.2-0.6-1.4-3.6-1.5-4c-0.1-0.2-0.2-0.4-0.5-0.4h-2.3c-0.3,0-0.4,0.3-0.3,0.4
	c0.1,0.2,3.7,8.4,3.7,8.4s-3.9,9.3-4,9.5c-0.1,0.2,0,0.5,0.3,0.5h2c0.3,0,0.5-0.2,0.6-0.5c0.3-0.8,0.7-1.9,1.3-3.7
	c0.4-1.1,1-3.2,1-3.2h0.1c0,0,0.7,2,1,2.7c0.7,1.7,1.5,3.9,1.6,4.1c0.1,0.2,0.2,0.4,0.5,0.4h2.3c0.2,0,0.3-0.3,0.2-0.5
	c-0.3-0.5-2.4-5.8-3.9-9.2c0,0,3.9-8.6,4-8.8C80,12.4,80,12.2,79.7,12.2L79.7,12.2z"/>
<path class="st1" d="M16.6,0H14c-0.2,0-0.4,0.1-0.4,0.3c0,0.2-3.9,12.1-4.2,13.1c-0.2,0.7-0.9,3.2-1,3.8L7,13.4
	c-0.3-1-3.5-9.9-3.6-10.2C3.3,3,3.2,2.8,2.9,2.8H0.3C0.1,2.8-0.1,3,0,3.2c0.1,0.1,4.7,12.5,6.6,17.2v10.4c0,0.2,0.1,0.3,0.3,0.3h2.4
	c0.2,0,0.3-0.1,0.3-0.3V20.5c1.6-4.4,7.3-19.9,7.3-20C16.9,0.2,16.9,0,16.6,0z"/>
</svg>
