<?xml version="1.0" encoding="UTF-8"?>
<svg width="159px" height="39px" viewBox="0 0 159 39" version="1.1" xmlns="http://www.w3.org/2000/svg" xmlns:xlink="http://www.w3.org/1999/xlink">
    <title>Group 7</title>
    <g id="Landing-Page" stroke="none" stroke-width="1" fill="none" fill-rule="evenodd">
        <g id="WIP_JetCash_LP.00" transform="translate(-510.000000, -69.000000)">
            <g id="Group-7" transform="translate(510.000000, 69.000000)">
                <g id="Group-Copy-3" transform="translate(80.000000, 0.000000)" fill="#B3BBC8" font-family="SFProRounded-Bold, SF Pro Rounded" font-size="32" font-weight="bold" letter-spacing="0.435267994">
                    <text id="Cash-Copy">
                        <tspan x="1.38626845" y="30.7741935">Cash</tspan>
                    </text>
                </g>
                <g id="Group-2" transform="translate(0.000000, 8.000000)" fill="#FF6300" fill-rule="nonzero">
                    <path d="M14.6769231,-3.98450503e-13 L10.4492308,-3.98450503e-13 C10.3540656,-0.00047455009 10.2741308,0.071466734 10.2646154,0.166156203 L10.2646154,15.1938485 C10.2769321,16.254614 9.70140112,17.2351482 8.76923077,17.7415408 C8.3957043,17.9463821 7.97677482,18.0542882 7.55076923,18.055387 L7.45846154,18.055387 C6.50664277,18.0533438 5.61648818,17.584115 5.07692308,16.8000024 C4.81756918,16.3774582 4.67723679,15.8926736 4.67076923,15.3969254 C4.67124614,15.3017603 4.59930485,15.2218255 4.50461538,15.21231 L0.166153846,15.21231 C0.0997127064,15.2165501 0.0387010169,15.2504455 -6.55885602e-14,15.3046177 C-6.55885602e-14,15.3046177 -6.55885602e-14,15.3046177 -6.55885602e-14,15.415387 C0.0804283687,19.4360051 3.36319301,22.6531144 7.38461538,22.6523102 L7.53230769,22.6523102 C11.6107182,22.6523102 14.9169231,19.3461051 14.9169231,15.2676947 L14.9169231,0.166156203 C14.9074076,0.071466734 14.8274729,-0.00047455009 14.7323077,-3.98450503e-13 L14.6769231,-3.98450503e-13 Z" id="Path"></path>
                    <path d="M60.1476923,11.1692331 C59.3613107,9.244409 57.8297708,7.71952799 55.9015385,6.94154082 C53.8642815,6.12020745 51.5880262,6.12020745 49.5507692,6.94154082 C47.6048283,7.69591558 46.0689655,9.2384852 45.3230769,11.1876947 C44.9063483,12.1814308 44.6929182,13.2485811 44.6953846,14.3261562 C44.6875233,15.430636 44.8879461,16.5266983 45.2861538,17.5569254 C45.6529345,18.5209587 46.2119575,19.4003207 46.9292308,20.1415408 C47.6552702,20.8910119 48.5378074,21.4709649 49.5138462,21.8400024 C51.5690376,22.6340976 53.846347,22.6340976 55.9015385,21.8400024 C56.8472556,21.4339796 57.7107032,20.8583479 58.4492308,20.1415408 C59.1749675,19.3961498 59.7514741,18.5188572 60.1476923,17.5569254 C60.5517815,16.5277958 60.7584597,15.4317753 60.7569231,14.3261562 C60.7642696,13.2319798 60.557299,12.1469521 60.1476923,11.13231 L60.1476923,11.1692331 Z M50.4,11.4830793 C50.6930977,11.194532 51.0460418,10.973942 51.4338462,10.8369254 C52.2617197,10.5301192 53.1721264,10.5301192 54,10.8369254 C54.3964925,10.9956659 54.7596945,11.2273637 55.0707692,11.5200024 C55.3896766,11.8634144 55.6402917,12.2643986 55.8092308,12.7015408 C56.1975732,13.8132172 56.1975732,15.0237106 55.8092308,16.135387 L55.8092308,16.135387 C55.6481899,16.5819 55.396801,16.9904069 55.0707692,17.335387 C54.774179,17.6547883 54.4076945,17.9012175 54,18.055387 C53.1587108,18.3718537 52.2288979,18.3586649 51.3969231,18.0184639 C51.0002693,17.8635033 50.6459766,17.6167637 50.3630769,17.2984639 C50.0370451,16.9534838 49.7856563,16.5449769 49.6246154,16.0984639 C49.21922,14.9960917 49.21922,13.7854515 49.6246154,12.6830793 C49.782337,12.2263121 50.0483894,11.8145643 50.4,11.4830793 L50.4,11.4830793 Z" id="Shape"></path>
                    <path d="M76.8369231,12.7569254 L76.8369231,22.4861562 C76.8224574,22.5712131 76.7558262,22.6378444 76.6707692,22.65231 L72.4246154,22.65231 C72.3365835,22.6438702 72.2669014,22.5741881 72.2584615,22.4861562 L72.2584615,22.4861562 L72.2584615,13.53231 C72.2712648,13.1282517 72.2277706,12.7243776 72.1292308,12.33231 C72.0160335,11.9720145 71.8200309,11.6432359 71.5569231,11.37231 C71.4569226,11.2807005 71.3521619,11.1944269 71.2430769,11.1138485 C70.7854014,10.8623232 70.2698415,10.7350244 69.7476923,10.7446177 C68.9524977,10.7522302 68.2127069,11.1532383 67.7723077,11.815387 C67.6108227,12.0740741 67.5040139,12.363086 67.4584615,12.6646177 C67.4310139,12.9161789 67.4310139,13.1699796 67.4584615,13.4215408 L67.4584615,22.4861562 C67.4439959,22.5712131 67.3773646,22.6378444 67.2923077,22.65231 L63.0461538,22.65231 C62.9539711,22.6453996 62.8780873,22.5771042 62.8615385,22.4861562 L62.8615385,22.4861562 L62.8615385,6.75692543 C62.8710539,6.66223596 62.9509887,6.59029468 63.0461538,6.59077159 L67.2923077,6.59077159 C67.3379909,6.58459331 67.3839389,6.60010026 67.4165359,6.63269724 C67.4491329,6.66529423 67.4646398,6.71124222 67.4584615,6.75692543 L67.4584615,6.75692543 L67.4584615,7.56923313 C67.7116927,7.37134418 67.9913156,7.20978429 68.2892308,7.08923313 C69.9677833,6.3748348 71.8623559,6.36153955 73.5507692,7.05231005 C74.2644462,7.35718812 74.8967376,7.82508376 75.3969231,8.4184639 C75.8853042,8.99383536 76.2441923,9.66753754 76.4492308,10.3938485 C76.6980455,11.1572018 76.8287844,11.9540863 76.8369231,12.7569254 L76.8369231,12.7569254 Z" id="Path"></path>
                    <path d="M42.5353846,6.59077159 L40.0061538,6.59077159 C39.9210969,6.57630595 39.8544656,6.50967468 39.84,6.42461774 L39.84,6.42461774 L39.84,0.166156203 C39.8315601,0.0781243432 39.761878,0.00844225419 39.6738462,-1.45934546e-13 L35.4276923,-1.45934546e-13 C35.3325271,-0.00047455009 35.2525924,0.071466734 35.2430769,0.166156203 L35.2430769,0.166156203 L35.2430769,6.12923313 C35.2430769,6.22099736 35.1686873,6.29538697 35.0769231,6.29538697 L33.7107692,6.29538697 C33.6125846,6.30397227 33.5347391,6.3818177 33.5261507,6.48000236 L33.5261507,6.48000236 L33.5261507,10.4307716 C33.5258599,10.4782317 33.5458759,10.5235522 33.5811534,10.555302 C33.616431,10.5870517 33.6636021,10.6021998 33.7107692,10.5969254 L35.0769231,10.5969254 C35.1716125,10.6064409 35.2435538,10.6863756 35.2430769,10.7815408 L35.2430769,10.7815408 L35.2430769,16.17231 C35.2283319,17.8745226 35.8916843,19.5126099 37.0866849,20.7249294 C38.2816856,21.9372489 39.9100591,22.624101 41.6123077,22.6338485 L42.5723077,22.6338485 C42.6487094,22.6040484 42.6996892,22.53122 42.7015385,22.4492331 L42.7015385,18.0184639 C42.7015385,17.9743972 42.684033,17.9321353 42.6528731,17.9009754 C42.6217132,17.8698155 42.5794514,17.85231 42.5353846,17.85231 L41.5384615,17.85231 C40.6805452,17.8596355 39.9518749,17.2260092 39.84,16.375387 L39.84,11.0584639 C39.84,10.9666997 39.9143896,10.89231 40.0061538,10.89231 L42.5353846,10.89231 C42.6234165,10.8838702 42.6930986,10.8141881 42.7015385,10.7261562 L42.7015385,10.7261562 L42.7015385,6.79384851 C42.7015385,6.66461774 42.7015385,6.59077159 42.5353846,6.59077159 L42.5353846,6.59077159 Z" id="Path"></path>
                    <path d="M29.8338462,8.14154082 L29.5938462,7.95692543 C27.9353125,6.74629221 25.859409,6.2539305 23.8338462,6.59077159 L23.7046154,6.59077159 C23.0131453,6.66906387 22.3359034,6.84303425 21.6923077,7.10769466 C20.7541785,7.50940672 19.8971023,8.07870546 19.1630769,8.78769466 C18.4434131,9.52720254 17.8730118,10.3984749 17.4830769,11.3538485 C16.6703515,13.4182786 16.6703515,15.7140338 17.4830769,17.7784639 C17.8574491,18.7320856 18.4228782,19.5990769 19.1446154,20.3261562 C19.8734456,21.054883 20.7393175,21.6321309 21.6923077,22.0246177 C22.595986,22.39346 23.5595731,22.5936859 24.5353846,22.615387 L25.2553846,22.615387 L25.7723077,22.615387 C28.2019944,22.4370009 30.4083502,21.1323138 31.7353846,19.0892331 C31.7428446,19.0526869 31.7428446,19.0150102 31.7353846,18.9784639 C31.7353846,18.9784639 31.7353846,18.9784639 31.7353846,18.9784639 C31.7353846,18.9784639 31.7353846,18.9784639 31.7353846,18.9784639 L27.9507692,17.9261562 L27.9507692,17.9261562 C27.8480673,17.8978595 27.739625,17.8978595 27.6369231,17.9261562 L27.2123077,18.0184639 L27.2123077,18.0184639 C26.2853819,18.602624 25.1404116,18.7252994 24.1107692,18.3507716 L24.1107692,18.3507716 C23.1197087,17.9805219 22.3516353,17.178463 22.0246154,16.17231 L22.0246154,16.17231 L32.0307692,16.17231 C32.0681104,16.1777018 32.1059431,16.1665061 32.1343366,16.1416618 C32.1627302,16.1168175 32.1788488,16.0808057 32.1784615,16.0430793 C32.6333573,14.4870261 32.5553843,12.8236026 31.9569231,11.3169254 C31.5315914,10.0947363 30.800741,9.00163833 29.8338462,8.14154082 L29.8338462,8.14154082 Z M27.7292308,12.33231 L22.0615385,12.33231 C22.07904,12.2390692 22.1168585,12.1508261 22.1723077,12.0738485 L22.1723077,12.0738485 L22.1723077,12.0738485 C22.2830769,11.9446177 22.3938462,11.7600024 22.5046154,11.6492331 C22.7892234,11.341642 23.1438866,11.1073109 23.5384615,10.9661562 C24.3718639,10.6547701 25.2896746,10.6547701 26.1230769,10.9661562 C26.7452578,11.2181906 27.2741043,11.6567462 27.6369231,12.2215408 C27.6649783,12.2606436 27.6958282,12.2976634 27.7292308,12.33231 L27.7292308,12.33231 Z" id="Shape"></path>
                </g>
            </g>
        </g>
    </g>
</svg>