<?xml version="1.0" encoding="UTF-8"?>
<svg id="Layer_1" xmlns="http://www.w3.org/2000/svg" version="1.1" viewBox="0 0 297.6 107.4">
  <!-- Generator: Adobe Illustrator 29.2.1, SVG Export Plug-In . SVG Version: 2.1.0 Build 116)  -->
  <defs>
    <style>
      .st0 {
        fill: #f3971f;
      }

      .st1 {
        fill: #333;
      }
    </style>
  </defs>
  <g>
    <path class="st0" d="M49.3,49.8c.2.6.2,1.1,0,1.4-.2.4-.7.5-1.3.5h-10.1c-1,0-1.6-.5-1.9-1.4l-2.3-7.4h-16.3l-2.3,7.5c-.3,1-.9,1.4-1.9,1.4H3c-.6,0-1.1-.2-1.3-.5-.2-.4-.3-.8-.1-1.4L17.5,3.7c.4-.9,1-1.4,1.9-1.4h11.9c.9,0,1.6.5,1.9,1.4l16.1,46.1ZM20.4,32.4h10l-4.7-15.2h-.6l-4.7,15.2Z"/>
    <path class="st0" d="M53.1,51.8c-1.1,0-1.7-.6-1.7-1.7V4.2c0-1.1.6-1.7,1.7-1.7h8.7c.9,0,1.6.4,2.1,1.1l18.1,25.9h.5V4.2c0-1.1.5-1.7,1.6-1.7h10c1.1,0,1.7.6,1.7,1.7v45.9c0,1.1-.6,1.7-1.7,1.7h-8.5c-.9,0-1.6-.3-2.1-1l-18.2-25.4h-.5v24.7c0,1.1-.5,1.7-1.6,1.7h-10.1Z"/>
    <path class="st0" d="M99.8,51.8c-1.1,0-1.7-.6-1.7-1.7V4.1c0-1.1.6-1.7,1.7-1.7h9.8c1.1,0,1.7.6,1.7,1.7v46c0,1.1-.5,1.7-1.6,1.7h-9.9Z"/>
    <path class="st0" d="M115.2,51.8c-1.1,0-1.7-.6-1.7-1.7V4.2c0-1.1.6-1.7,1.7-1.7h8.7c.9,0,1.6.4,2.1,1.1l18.1,25.9h.5V4.2c-.1-1.1.5-1.7,1.6-1.7h10c1.1,0,1.7.6,1.7,1.7v45.9c0,1.1-.6,1.7-1.7,1.7h-8.5c-.9,0-1.6-.3-2.1-1l-18.3-25.3h-.5v24.7c0,1.1-.5,1.7-1.6,1.7h-10Z"/>
    <path class="st0" d="M161.9,51.8c-1.1,0-1.7-.6-1.7-1.7V4.1c0-1.1.6-1.7,1.7-1.7h16.6c8.3,0,14.6,2.2,19,6.5s6.6,10.4,6.6,18.2-2.2,13.9-6.6,18.2c-4.4,4.3-10.7,6.5-19,6.5h-16.6ZM173.4,40.3h5.4c7.7,0,11.6-4.4,11.6-13.2s-3.9-13.2-11.6-13.2h-5.4v26.4Z"/>
    <path class="st0" d="M246.1,49.8c.2.6.2,1.1-.1,1.4-.2.4-.7.5-1.3.5h-10.1c-1,0-1.6-.5-1.9-1.4l-2.3-7.5h-16.3l-2.3,7.5c-.3,1-.9,1.4-1.9,1.4h-10.1c-.6,0-1.1-.2-1.3-.5-.2-.4-.3-.8-.1-1.4l15.9-46.1c.4-.9,1-1.4,1.9-1.4h11.9c.9,0,1.6.5,1.9,1.4l16.1,46.1ZM217.3,32.4h10l-4.7-15.2h-.7l-4.6,15.2Z"/>
  </g>
  <g>
    <path class="st1" d="M60.6,105.1c-1,0-1.4-.5-1.4-1.4v-46.8c0-.9.5-1.4,1.4-1.4h16.9c11.5,0,17.3,4.3,17.3,13.1s-2.3,9-6.9,10.7v.6c5.8,1.8,8.7,5.6,8.7,11.3s-1.6,8.3-4.9,10.5c-3.3,2.2-8.1,3.3-14.5,3.3h-16.6ZM70.7,95.5h6.5c2.5,0,4.4-.4,5.6-1.2,1.2-.8,1.9-2.2,1.9-4.3,0-3.8-2.4-5.7-7.1-5.7h-6.9v11.2ZM70.7,75.5h6.3c1.8,0,3.3-.5,4.3-1.4,1.1-.9,1.6-2.2,1.6-3.9,0-3.3-2.1-5-6.4-5h-5.8v10.3h0Z"/>
    <path class="st1" d="M146.1,103.5c.4,1.1,0,1.6-1.2,1.6h-9.1c-.9,0-1.4-.4-1.6-1.2l-2.8-8.7h-17.9l-2.8,8.7c-.2.8-.7,1.2-1.6,1.2h-9c-1.1,0-1.5-.5-1.2-1.6l16.8-46.8c.3-.7.8-1.1,1.6-1.1h10.5c.8,0,1.3.4,1.6,1.1l16.7,46.8ZM116.8,85.5h11.5l-5.4-16.4h-.8l-5.3,16.4Z"/>
    <path class="st1" d="M152.9,105.1c-1,0-1.4-.5-1.4-1.4v-46.7c0-.9.5-1.4,1.4-1.4h8.4c.7,0,1.3.3,1.7.9l20,28.7h.5v-28.3c-.1-.9.4-1.4,1.3-1.4h9c1,0,1.4.5,1.4,1.4v46.7c0,.9-.5,1.4-1.4,1.4h-8c-.7,0-1.3-.3-1.7-.8l-20.4-28.5h-.5v27.9c.1.9-.4,1.4-1.3,1.4h-9Z"/>
    <path class="st1" d="M206.5,105.1c-1,0-1.4-.5-1.4-1.4v-46.8c0-.9.5-1.4,1.4-1.4h8.9c.9,0,1.4.5,1.4,1.4v17.6h6.4l10.7-18c.4-.6.9-1,1.6-1h10.4c.6,0,1,.2,1.2.5s.1.7-.1,1.2l-14,22.6,14.7,23.6c.3.5.4.8.2,1.2-.2.3-.6.5-1.2.5h-10.6c-.7,0-1.3-.3-1.7-1l-11.4-18.4h-6.3v18c0,.9-.5,1.4-1.4,1.4h-8.8Z"/>
    <path class="st1" d="M296,103.5c.4,1.1,0,1.6-1.2,1.6h-9.1c-.9,0-1.4-.4-1.6-1.2l-2.8-8.7h-17.9l-2.8,8.7c-.2.8-.7,1.2-1.6,1.2h-9.1c-1.1,0-1.5-.5-1.2-1.6l16.8-46.8c.3-.7.8-1.1,1.6-1.1h10.5c.8,0,1.3.4,1.6,1.1l16.8,46.8ZM266.6,85.5h11.5l-5.4-16.4h-.8l-5.3,16.4Z"/>
  </g>
</svg>