<?xml version="1.0" encoding="UTF-8"?><svg xmlns="http://www.w3.org/2000/svg" viewBox="0 0 630.58 547.3"><defs><style>.cls-1{fill:#f9c700;}.cls-2{fill:#ededed;}.cls-3{fill:#fff;}.cls-4{fill:#fd6050;}.cls-5{fill:#e4e4e4;}.cls-6{fill:#b3b3b3;}.cls-7{fill:#32343a;}.cls-8{fill:#333;}.cls-9{fill:#34383c;}.cls-10{fill:#343940;}.cls-11{fill:#dbdbdb;mix-blend-mode:multiply;}.cls-12{isolation:isolate;}</style></defs><g class="cls-12"><g id="Layer_1"><path class="cls-5" d="m52.09,235.38c8.24,8.24,19.41,12.86,31.06,12.86,8.75,0,17.23-2.61,24.4-7.4l-31.27,31.27c-8.24,8.24-12.86,19.41-12.86,31.06s4.63,22.82,12.86,31.06c8.24,8.24,19.41,12.86,31.06,12.86,8.75,0,17.23-2.61,24.4-7.4l-16.41,16.41c-8.24,8.24-12.86,19.41-12.86,31.06s4.63,22.82,12.86,31.06c8.24,8.24,19.41,12.86,31.06,12.86,8.75,0,17.23-2.61,24.4-7.4l-4.01,4.01c-8.24,8.24-12.86,19.41-12.86,31.06s4.63,22.82,12.86,31.06c8.24,8.24,19.41,12.86,31.06,12.86s22.82-4.63,31.06-12.86l41.62-41.62c-4.79,7.17-7.4,15.65-7.4,24.4,0,11.65,4.63,22.82,12.86,31.06,8.24,8.24,19.41,12.86,31.06,12.86s22.82-4.63,31.06-12.86l63.24-63.24c-4.79,7.17-7.4,15.65-7.4,24.4,0,11.65,4.63,22.82,12.86,31.06,8.24,8.24,19.41,12.86,31.06,12.86s22.82-4.63,31.06-12.86l98.45-98.45c8.24-8.24,12.86-19.41,12.86-31.06s-4.63-22.82-12.86-31.06c-8.24-8.24-19.41-12.86-31.06-12.86-8.75,0-17.23,2.61-24.4,7.4l20.61-20.61c8.24-8.24,12.86-19.41,12.86-31.06s-4.63-22.82-12.86-31.06c-8.24-8.24-19.41-12.86-31.06-12.86-8.75,0-17.23,2.61-24.4,7.4l41.62-41.62c8.24-8.24,12.86-19.41,12.86-31.06s-4.63-22.82-12.86-31.06c-8.24-8.24-19.41-12.86-31.06-12.86-8.75,0-17.23,2.61-24.4,7.4l26.5-26.5c8.24-8.24,12.86-19.41,12.86-31.06s-4.63-22.82-12.86-31.06c-8.24-8.24-19.41-12.86-31.06-12.86s-22.82,4.63-31.06,12.86l-59.04,59.04c4.79-7.17,7.4-15.65,7.4-24.4,0-11.65-4.63-22.82-12.86-31.06-8.24-8.24-19.41-12.86-31.06-12.86s-22.82,4.63-31.06,12.86l-82.87,82.87c4.79-7.17,7.4-15.65,7.4-24.4,0-11.65-4.63-22.82-12.86-31.06-8.24-8.24-19.41-12.86-31.06-12.86s-22.82,4.63-31.06,12.86l-98.45,98.45c-8.24,8.24-12.86,19.41-12.86,31.06s4.63,22.82,12.86,31.06Z"/><path class="cls-9" d="m578.91,422.59l-3.04,3.04c-1.19,1.19-1.19,3.11,0,4.3,1.19,1.19,3.11,1.19,4.3,0l3.04-3.04,3.04,3.04c1.19,1.19,3.11,1.19,4.3,0,1.19-1.19,1.19-3.11,0-4.3l-3.04-3.04,3.04-3.04c1.19-1.19,1.19-3.11,0-4.3-.59-.59-1.37-.89-2.15-.89s-1.56.3-2.15.89l-3.04,3.04-3.04-3.04c-.59-.59-1.37-.89-2.15-.89s-1.56.3-2.15.89c-1.19,1.19-1.19,3.11,0,4.3l3.04,3.04Z"/><path class="cls-7" d="m144.67,488.06l-3.04,3.04c-1.19,1.19-1.19,3.11,0,4.3,1.19,1.19,3.11,1.19,4.3,0l3.04-3.04,3.04,3.04c1.19,1.19,3.11,1.19,4.3,0,1.19-1.19,1.19-3.11,0-4.3l-3.04-3.04,3.04-3.04c1.19-1.19,1.19-3.11,0-4.3-.59-.59-1.37-.89-2.15-.89s-1.56.3-2.15.89l-3.04,3.04-3.04-3.04c-.59-.59-1.37-.89-2.15-.89s-1.56.3-2.15.89c-1.19,1.19-1.19,3.11,0,4.3l3.04,3.04Z"/><path class="cls-9" d="m66.92,218.69l-3.04,3.04c-1.19,1.19-1.19,3.11,0,4.3,1.19,1.19,3.11,1.19,4.3,0l3.04-3.04,3.04,3.04c1.19,1.19,3.11,1.19,4.3,0,1.19-1.19,1.19-3.11,0-4.3l-3.04-3.04,3.04-3.04c1.19-1.19,1.19-3.11,0-4.3-.59-.59-1.37-.89-2.15-.89s-1.56.3-2.15.89l-3.04,3.04-3.04-3.04c-.59-.59-1.37-.89-2.15-.89s-1.56.3-2.15.89c-1.19,1.19-1.19,3.11,0,4.3l3.04,3.04Z"/><path class="cls-9" d="m432.69,62.51l-3.04,3.04c-1.19,1.19-1.19,3.11,0,4.3,1.19,1.19,3.11,1.19,4.3,0l3.04-3.04,3.04,3.04c1.19,1.19,3.11,1.19,4.3,0,1.19-1.19,1.19-3.11,0-4.3l-3.04-3.04,3.04-3.04c1.19-1.19,1.19-3.11,0-4.3-.59-.59-1.37-.89-2.15-.89s-1.56.3-2.15.89l-3.04,3.04-3.04-3.04c-.59-.59-1.37-.89-2.15-.89s-1.56.3-2.15.89c-1.19,1.19-1.19,3.11,0,4.3l3.04,3.04Z"/><path class="cls-9" d="m377.05,492.3c4.9,0,8.88,3.99,8.88,8.88s-3.99,8.88-8.88,8.88-8.88-3.99-8.88-8.88,3.99-8.88,8.88-8.88Zm0,11.69c1.54,0,2.8-1.26,2.8-2.8s-1.26-2.8-2.8-2.8-2.8,1.26-2.8,2.8,1.26,2.8,2.8,2.8Z"/><path class="cls-7" d="m544.5,209.19c4.9,0,8.88,3.99,8.88,8.88s-3.99,8.88-8.88,8.88-8.88-3.99-8.88-8.88,3.99-8.88,8.88-8.88Zm0,11.69c1.54,0,2.8-1.26,2.8-2.8s-1.26-2.8-2.8-2.8-2.8,1.26-2.8,2.8,1.26,2.8,2.8,2.8Z"/><path class="cls-7" d="m172.56,66.59c4.9,0,8.88,3.99,8.88,8.88s-3.99,8.88-8.88,8.88-8.88-3.99-8.88-8.88,3.99-8.88,8.88-8.88Zm0,11.69c1.54,0,2.8-1.26,2.8-2.8s-1.26-2.8-2.8-2.8-2.8,1.26-2.8,2.8,1.26,2.8,2.8,2.8Z"/><path class="cls-9" d="m69.05,344c4.9,0,8.88,3.99,8.88,8.88s-3.99,8.88-8.88,8.88-8.88-3.99-8.88-8.88,3.99-8.88,8.88-8.88Zm0,11.69c1.54,0,2.8-1.26,2.8-2.8s-1.26-2.8-2.8-2.8-2.8,1.26-2.8,2.8,1.26,2.8,2.8,2.8Z"/><polygon class="cls-1" points="348.69 322.04 467.12 268.62 467.12 394.16 348.69 322.04"/><path class="cls-6" d="m467,259.04c-.56-4.93-3.01-9.44-6.92-12.62l-19.1-18.02-1.82-1.71-1.23-1.16-2.98-2.81v63.68l2.98-1.34,1.23-.56,1.82-.82,4.28-1.93,21.86-9.86v-10.66c0-.73-.04-1.46-.12-2.18Zm-2.92,10.88l-18.82,8.49-4.28,1.93v-47.74l17.09,16.12.05.04c.24.2.48.4.71.61.06.05.12.11.18.17.06.05.12.11.18.17.06.05.11.11.16.16.05.05.1.1.15.15.05.05.11.11.16.16.09.09.17.18.26.28.1.11.2.22.29.33.02.02.04.05.06.07.1.11.19.23.28.34.1.12.2.25.29.38,0,0,0,0,0,0,0,0,0,0,0,0,.05.06.09.13.14.19.03.04.06.08.08.11.05.07.1.14.15.21.13.19.26.38.38.58.04.06.07.11.11.17.03.04.05.08.08.12.04.07.08.14.13.21.05.09.11.18.16.28.03.05.06.1.08.15.05.1.1.19.15.29.07.13.13.26.2.4,0,0,0,.01,0,.02.06.13.12.26.18.38,0,0,0,0,0,0,.05.11.1.22.14.34.01.03.03.07.04.1.05.13.1.25.15.38.04.11.09.23.12.34.02.05.04.11.06.16.02.06.04.12.06.18.02.07.04.14.07.2,0,.02.01.04.02.07.03.1.06.2.09.31.03.1.06.2.08.31.02.07.04.15.06.22,0,0,0,.02,0,.03.06.22.11.45.15.67.01.07.03.14.04.21.02.11.04.21.06.32.02.13.04.26.06.38,0,.03,0,.06.01.09.02.12.03.23.04.35,0,.03,0,.06,0,.1.01.1.02.2.03.3.01.16.03.33.04.5,0,.05,0,.1,0,.14,0,.1,0,.21.01.31,0,.02,0,.05,0,.08,0,.14,0,.28,0,.42v8.69Z"/><path class="cls-6" d="m464.08,261.22v8.69l-23.09,10.42v-47.74l17.09,16.12.05.04c3.78,3.06,5.95,7.61,5.95,12.47Z"/><path class="cls-6" d="m267.68,144.21l30.02-28.32.25-.2c3.33-2.61,7.51-4.04,11.77-4.04s8.44,1.44,11.77,4.04l.25.2,30.02,28.32h-84.07Z"/><polygon class="cls-1" points="152.31 268.62 270.75 322.04 152.31 394.16 152.31 268.62"/><path class="cls-6" d="m182.73,224.36l-1.23,1.16-3.05,2.87-19.1,18.02c-4.47,3.64-7.04,9.03-7.04,14.8v10.66l1.23.56,24.91,11.24,3.05,1.37,2.98,1.34v-63.68l-1.75,1.65Zm-27.37,36.86c0-4.86,2.17-9.41,5.95-12.47l.05-.04,17.09-16.13v47.74l-18.82-8.49-4.28-1.93v-8.69Z"/><path class="cls-6" d="m178.45,232.59v47.74l-23.09-10.42v-8.69c0-4.86,2.17-9.41,5.95-12.47l.05-.04,17.09-16.13Z"/><path class="cls-3" d="m373.52,221.64c0,8.61-1.69,16.97-5.02,24.84-3.22,7.6-7.81,14.42-13.67,20.28-5.86,5.86-12.68,10.46-20.28,13.67-7.87,3.33-16.23,5.02-24.84,5.02s-16.97-1.69-24.84-5.02c-7.6-3.21-14.42-7.81-20.28-13.67-5.86-5.86-10.46-12.68-13.67-20.28-3.33-7.87-5.02-16.23-5.02-24.84s1.69-16.97,5.02-24.84c3.22-7.6,7.81-14.42,13.67-20.28,5.86-5.86,12.68-10.46,20.28-13.67,7.87-3.33,16.23-5.02,24.84-5.02s16.97,1.69,24.84,5.02c7.6,3.21,14.42,7.81,20.28,13.67,5.86,5.86,10.46,12.68,13.67,20.28,3.33,7.87,5.02,16.23,5.02,24.84Z"/><path class="cls-3" d="m437.87,156.28c-.55-6.14-4.47-11.32-9.9-13.68-2.02-.88-4.24-1.36-6.57-1.36h-223.37c-9.12,0-16.54,7.42-16.54,16.53v127.28l2.98,1.34,3.05,1.37,73.49,33.15,3.37,1.52,3.29,1.48,3.08-1.88,3.15-1.92,27.44-16.71c2.54-1.55,5.43-2.36,8.38-2.36s5.84.82,8.38,2.36l27.44,16.71,3.15,1.92,3.08,1.88,3.29-1.48,1.79-.81,1.58-.71,73.49-33.15,3.05-1.38,2.98-1.34v-127.28c0-.5-.02-1-.07-1.49Zm-2.98,126.8l-2.98,1.34-76.64,34.57-3.08-1.88-30.96-18.85c-3.48-2.12-7.46-3.24-11.51-3.24s-8.03,1.12-11.51,3.24l-30.96,18.85-3.08,1.88-75.34-33.99-1.3-.58-2.98-1.34v-125.31c0-7.44,6.05-13.49,13.49-13.49h223.37c4.81,0,9.04,2.53,11.43,6.34,1.3,2.07,2.06,4.53,2.06,7.15v125.31Z"/><path class="cls-3" d="m432.83,150.61c-2.39-3.8-6.62-6.34-11.43-6.34h-223.37c-7.44,0-13.49,6.05-13.49,13.49v125.31l2.98,1.34,1.3.58,75.34,33.99,3.08-1.88,30.96-18.85c3.48-2.12,7.46-3.24,11.51-3.24s8.03,1.12,11.51,3.24l30.96,18.85,3.08,1.88,76.64-34.57,2.98-1.34v-125.31c0-2.63-.75-5.08-2.06-7.15Zm-166.05,118.22c-.74-.68-1.47-1.37-2.18-2.09-5.86-5.86-10.46-12.68-13.67-20.28-3.33-7.87-5.02-16.23-5.02-24.84s1.69-16.97,5.02-24.84c3.22-7.6,7.81-14.42,13.67-20.28,5.86-5.86,12.68-10.46,20.28-13.67,7.87-3.33,16.23-5.02,24.84-5.02s16.97,1.69,24.84,5.02c7.6,3.21,14.42,7.81,20.28,13.67.71.71,1.41,1.44,2.09,2.19,0,0,0,0,0,0,.15.16.3.33.45.5.14.16.28.32.42.48.01.01.03.03.04.04.1.12.2.23.3.35.19.23.39.45.58.68.14.16.27.32.4.48.2.25.4.5.6.75.08.11.17.21.25.32.43.55.85,1.1,1.26,1.66.1.13.19.27.29.4.04.05.07.1.11.15.12.16.23.33.35.49.13.18.26.37.38.55s.25.37.38.56c.13.19.25.37.37.56.38.58.75,1.17,1.12,1.76.07.12.14.24.21.36.23.39.46.78.69,1.18.09.15.17.3.26.45.09.16.18.32.26.48.07.13.15.26.22.4.33.61.65,1.23.97,1.86.06.12.12.24.18.37.1.2.19.39.28.59.06.13.12.25.18.38.05.11.1.21.15.32.14.31.28.62.42.93.06.14.13.28.18.42.09.21.18.42.27.62,3.33,7.87,5.02,16.23,5.02,24.84s-1.69,16.97-5.02,24.84c-3.22,7.6-7.81,14.42-13.67,20.28-5.86,5.86-12.68,10.46-20.28,13.67-7.87,3.33-16.23,5.02-24.84,5.02s-16.97-1.69-24.84-5.02c-.73-.31-1.46-.63-2.18-.97-.2-.09-.41-.19-.61-.29-.01,0-.03-.01-.04-.02-.2-.09-.39-.19-.58-.28-.04-.02-.08-.04-.12-.06-.22-.11-.43-.22-.65-.33-.18-.09-.36-.19-.54-.28-.55-.28-1.09-.58-1.62-.88-.15-.08-.3-.17-.45-.26-.18-.1-.35-.2-.53-.3-.12-.07-.24-.14-.36-.21-.16-.1-.32-.19-.48-.29-.01,0-.03-.02-.04-.02-.17-.1-.34-.21-.51-.31-.88-.54-1.74-1.11-2.59-1.69-.13-.08-.25-.17-.37-.26-.15-.1-.3-.21-.45-.32-.16-.12-.33-.24-.49-.36-.14-.1-.27-.2-.41-.3-.12-.09-.24-.18-.36-.27-.38-.28-.75-.57-1.12-.86-.19-.15-.38-.3-.57-.46-.32-.26-.64-.52-.96-.79-.14-.11-.27-.23-.41-.35-.14-.12-.29-.25-.43-.37-.14-.12-.27-.24-.41-.35-.26-.23-.52-.47-.78-.7t0,0Z"/><path class="cls-4" d="m309.72,282.4c-8.2,0-16.16-1.61-23.65-4.78-7.24-3.06-13.73-7.44-19.31-13.02-5.58-5.58-9.96-12.08-13.02-19.31-3.17-7.49-4.78-15.45-4.78-23.65s1.61-16.16,4.78-23.65c3.06-7.24,7.44-13.73,13.02-19.31,5.58-5.58,12.08-9.96,19.31-13.02,7.49-3.17,15.45-4.78,23.65-4.78s16.16,1.61,23.65,4.78c7.24,3.06,13.73,7.44,19.31,13.02,5.58,5.58,9.96,12.08,13.02,19.31,3.17,7.49,4.78,15.45,4.78,23.65s-1.61,16.16-4.78,23.65c-3.06,7.24-7.44,13.73-13.02,19.31-5.58,5.58-12.08,9.96-19.31,13.02-7.49,3.17-15.45,4.78-23.65,4.78Z"/><polygon class="cls-3" points="296.87 236.78 275.7 215.62 265.27 226.05 296.87 257.65 351.25 203.26 340.82 192.83 296.87 236.78"/><path class="cls-2" d="m358.21,324.35l-3.15-1.92-3.08-1.88-3.15-1.92-29.18-17.77c-.87-.53-1.77-.99-2.7-1.37-2.29-.94-4.74-1.43-7.22-1.43-3.49,0-6.92.97-9.92,2.79l-29.18,17.77-3.15,1.92-2.14,1.3-.94.57-3.15,1.92-2.21,1.35-99.37,60.51-6.09,3.71-1.23.75v6.88c0,.06,0,.12,0,.18,0,.53.03,1.05.08,1.56.12,1.35.39,2.66.78,3.92.16.54.35,1.06.56,1.57,1.49,3.63,4.07,6.7,7.33,8.8,2.41,1.56,5.18,2.59,8.17,2.92.71.08,1.43.12,2.17.12h276.65c3.8,0,7.35-1.12,10.33-3.05,3.72-2.41,6.56-6.07,7.9-10.39.39-1.25.65-2.54.77-3.88.05-.52.07-1.05.08-1.58,0-.06,0-.12,0-.18v-6.88l-108.91-66.32Zm105.86,73.19c0,8.84-7.19,16.04-16.04,16.04H171.39c-.11,0-.23,0-.34,0-.05,0-.1,0-.15,0-.11,0-.22,0-.33-.01-.09,0-.18,0-.27-.02-.15,0-.3-.02-.45-.04-.07,0-.15-.01-.22-.02-.06,0-.12-.01-.17-.02-.06,0-.11-.01-.17-.02-.22-.03-.44-.06-.66-.1-.07-.01-.13-.02-.2-.04-.1-.02-.21-.04-.31-.06-.12-.02-.23-.05-.34-.08-.49-.11-.98-.25-1.45-.41-.06-.02-.13-.04-.19-.06-.07-.02-.14-.05-.21-.07-.29-.11-.58-.22-.87-.35-.06-.02-.11-.05-.17-.07-.07-.03-.14-.06-.2-.09-.32-.15-.64-.31-.96-.48-.1-.05-.2-.11-.29-.16-.02,0-.04-.02-.05-.03-.1-.06-.2-.12-.3-.18-.11-.07-.22-.13-.33-.2-.11-.07-.22-.14-.32-.21-.01,0-.02-.02-.03-.02,0,0,0,0,0,0-.04-.02-.07-.05-.11-.08-.08-.05-.15-.11-.23-.16-.06-.04-.11-.08-.17-.12-.05-.03-.09-.07-.14-.1-.08-.06-.16-.12-.24-.18-.21-.16-.41-.33-.61-.5-.05-.05-.11-.09-.16-.14-.06-.05-.11-.1-.17-.15-.07-.06-.14-.13-.22-.2-.01,0-.02-.02-.03-.03-.09-.08-.18-.17-.27-.26-.09-.09-.18-.18-.27-.28-.23-.24-.45-.48-.66-.74-.06-.07-.12-.14-.17-.21-.05-.06-.09-.11-.14-.17-.17-.22-.34-.44-.5-.66-.04-.06-.09-.12-.13-.19-.04-.06-.08-.12-.12-.18-.03-.05-.06-.09-.09-.14-.06-.08-.11-.16-.16-.24-.03-.04-.06-.09-.08-.14-.07-.1-.13-.21-.19-.31,0-.01-.02-.03-.03-.04-.08-.13-.15-.26-.22-.39-.13-.25-.26-.49-.38-.75-.04-.07-.07-.14-.1-.22-.02-.05-.04-.1-.07-.14-.03-.07-.07-.15-.1-.22-.03-.06-.05-.12-.08-.18-.09-.2-.17-.41-.24-.62-.04-.11-.08-.22-.12-.34-.05-.15-.1-.31-.15-.47-.03-.11-.06-.21-.09-.32-.04-.13-.07-.25-.1-.38,0,0,0,0,0,0-.03-.12-.06-.25-.09-.37,0,0,0,0,0,0-.03-.11-.05-.23-.08-.34-.06-.29-.11-.59-.16-.89-.01-.08-.02-.17-.04-.25-.02-.13-.03-.25-.04-.38,0-.06-.01-.13-.02-.19,0-.09-.02-.19-.02-.28,0-.06,0-.13-.01-.19,0-.09-.01-.18-.02-.27,0-.1,0-.21-.01-.31,0-.05,0-.1,0-.15,0-.12,0-.24,0-.36v-5.16l109.23-66.51,9.39-5.72,27.4-16.68c2.57-1.57,5.46-2.35,8.34-2.35s5.77.78,8.34,2.35l27.4,16.68,9.39,5.72,109.23,66.51v5.16Z"/><path class="cls-2" d="m464.08,392.38v5.16c0,8.84-7.19,16.04-16.04,16.04H171.39c-8.84,0-16.04-7.19-16.04-16.04v-5.16l109.23-66.51,9.39-5.72,27.4-16.68c2.57-1.57,5.46-2.35,8.34-2.35s5.77.78,8.34,2.35l27.4,16.68,9.39,5.72,109.23,66.51Z"/><path class="cls-11" d="m440.99,280.33l-1.82.82v.08l1.82-.82,4.28-1.93v-.08l-4.28,1.93Zm25.38-31.93l-.97-.91-18.94-17.87-1.2-1.14v-66.44c0-6.49-3.17-12.25-8.05-15.81-2.65-1.94-5.81-3.23-9.24-3.63-.75-.09-1.52-.14-2.3-.14h-71.59l-1.3-1.23-.24-.23-2.99-2.82-21.35-20.14-.2-.19-.22-.17-.14-.11c-3.08-2.41-6.78-3.96-10.65-4.49h0c-.99-.14-1.99-.21-2.99-.21-4.94,0-9.79,1.67-13.65,4.69l-.14.11-.22.17-.2.19-21.35,20.14-2.99,2.82-.24.23-1.3,1.23h-71.59c-10.8,0-19.58,8.78-19.58,19.58v66.44l-1.2,1.14-.02.02-3.05,2.87-16.84,15.89c-5.13,4.22-8.07,10.44-8.07,17.09v138.36l.09-.05c.03.33.07.65.11.98.43,3.2,1.55,6.19,3.2,8.8.34.55.71,1.08,1.11,1.6,1.3,1.71,2.84,3.23,4.57,4.5h302.77c2.25-1.65,4.19-3.72,5.68-6.09,1.66-2.63,2.77-5.63,3.2-8.84.04-.31.08-.62.1-.94v-5.16s.09-133.15.09-133.15c0-6.65-2.94-12.87-8.08-17.1Zm1.98,141.13l-1.23-.75-3.05-1.86-98.22-59.81,1.58-.71,68.76-31.01,5.49-2.47,3.59-1.62,18.82-8.49,3.05-1.37,1.23-.56v108.65ZM188.82,162.04c0-7.44,6.05-13.49,13.49-13.49h223.37c2.63,0,5.08.75,7.15,2.06,2.17,1.36,3.93,3.33,5.04,5.66.83,1.75,1.3,3.7,1.3,5.77v125.31l-2.98,1.34-4.28,1.93-70.78,31.93-1.58.71-2.63-1.6-.07-.04-.38-.23-2.7-1.64-.07-.04-3.08-1.88-25.11-15.29c-2.55-1.55-5.37-2.57-8.29-3-.09-.01-.18-.03-.28-.04-.97-.13-1.96-.2-2.95-.2-4.05,0-8.03,1.12-11.51,3.24l-28.75,17.5-2.21,1.35-.94.57-2.14,1.3-3.12-1.41-3.37-1.52-70.15-31.65-2.98-1.34v-125.31Zm273.58,90.98c2.02,1.64,3.59,3.7,4.6,6.01.78,1.78,1.24,3.7,1.33,5.69.01.26.02.51.02.77v8.69l-1.23.56-3.05,1.37-18.82,8.49v-47.74l15.6,14.72,1.49,1.4.05.04Zm-178.24-111.86l3.16-2.98,16.65-15.71.14-.11c2.8-2.19,6.31-3.4,9.89-3.4s7.09,1.21,9.89,3.4l.14.11,16.65,15.71,3.16,2.98.07.07,1.3,1.23h-62.42l1.3-1.23.07-.07Zm-124.52,124.33c0-4.86,2.17-9.41,5.95-12.47l.05-.04,12.82-12.09,2.98-2.81.07-.06,1.23-1.16v47.74l-1.23-.56-3.05-1.37-18.82-8.49v-8.69Zm0,15.38l23.09,10.42,3.59,1.62,5.48,2.47,63.84,28.8,3.29,1.48.08.03,3.12,1.41-102.5,62.41v-108.65Zm16.04,136.98c-2.29,0-4.47-.48-6.44-1.35-1.65-.72-3.15-1.72-4.45-2.92-.89-.83-1.69-1.75-2.38-2.77,0,0,0,0,0,0-1.74-2.57-2.76-5.66-2.76-8.99v-5.16l109.23-66.51,9.39-5.72,27.4-16.68c2.57-1.57,5.46-2.35,8.34-2.35s5.77.78,8.34,2.35l27.4,16.68,9.39,5.72,104.95,63.91,3.05,1.86,1.23.75v5.16c0,.96-.08,1.9-.25,2.81-.62,3.51-2.39,6.63-4.9,8.95-2.86,2.65-6.69,4.28-10.89,4.28H175.67Zm265.31-137.53l-1.82.82v.08l1.82-.82,4.28-1.93v-.08l-4.28,1.93Z"/><path class="cls-11" d="m372.78,201.08c-3.22-7.6-7.81-14.42-13.67-20.28-.71-.71-1.44-1.41-2.18-2.08,0,0,0,0,0,0-5.35-4.87-11.42-8.76-18.09-11.58-3.62-1.53-7.34-2.71-11.14-3.54h0c-4.47-.98-9.04-1.47-13.7-1.47-8.61,0-16.97,1.69-24.84,5.02-7.6,3.21-14.42,7.81-20.28,13.67-5.86,5.86-10.46,12.68-13.67,20.28-3.33,7.87-5.02,16.23-5.02,24.84,0,4.65.49,9.23,1.47,13.7.83,3.8,2.01,7.52,3.54,11.13,2.82,6.67,6.71,12.74,11.58,18.09t0,0c.68.74,1.37,1.47,2.09,2.19,5.86,5.86,12.68,10.46,20.28,13.67,7.87,3.33,16.23,5.02,24.84,5.02s16.97-1.69,24.84-5.02c7.6-3.21,14.42-7.81,20.28-13.67,5.86-5.86,10.46-12.68,13.67-20.28,3.33-7.87,5.02-16.23,5.02-24.84s-1.69-16.97-5.02-24.84Zm-75.95,79.95c-10.02-3.12-18.87-8.89-25.72-16.5-9.21-10.23-14.82-23.76-14.82-38.61,0-31.87,25.84-57.71,57.71-57.71,14.85,0,28.39,5.61,38.61,14.82,7.61,6.85,13.38,15.7,16.5,25.72,0,0,0,0,0,0,1.69,5.42,2.59,11.19,2.59,17.16,0,31.87-25.84,57.71-57.71,57.71-5.98,0-11.74-.91-17.16-2.59,0,0,0,0,0,0Z"/><path class="cls-8" d="m440.99,280.41l-1.82.82v3.34l1.82-.82,4.28-1.93v-3.34l-4.28,1.93Zm0,0l-1.82.82v3.34l1.82-.82,4.28-1.93v-3.34l-4.28,1.93Zm27.35-15.68l-1.21.55-3.05,1.38v3.27l-18.82,8.49-4.28,1.93v-3.27l-1.82.82-1.16.52-.07.03-2.98,1.34-.07.03v3.27l-2.98,1.34-76.64,34.57-3.08-1.88-1.58.71-1.71.77-.08.03-3.29,1.48-.08.03,9.39,5.72,109.23,66.51v3.49l3.05,1.85,1.23.75.31.19,1.42.86c.03-.29.05-.58.06-.88.02-.36.03-.73.03-1.1v-133.65l-1.84.83Zm-4.26,124.01l-105.79-64.41-3.08-1.88,1.71-.77,1.58-.71,73.41-33.12,7.26-3.27,1.82-.82,4.28-1.93,18.82-8.49v115.4Z"/><path class="cls-8" d="m465.4,247.49c-.97-1.22-2.08-2.35-3.31-3.36l-16.83-15.88-3.07-2.9-1.2-1.14-1.82-1.71-1.23-1.16-3.05-2.87v64.62l-2.98,1.34v6.69l5.49-2.47,3.59-1.62,23.09-10.42,2.51-1.13.54-.24,3.05-1.38v-12.63c0-5.06-1.7-9.86-4.77-13.73Zm-27.4-17.71l1.16,1.1,1.82,1.72,17.09,16.12.05.04c.24.2.48.4.71.61.06.05.12.11.18.17.06.05.12.11.18.17.06.05.11.11.16.16.05.05.1.1.15.15.05.05.11.11.16.16.09.09.17.18.26.28.1.11.2.22.29.33.02.02.04.05.06.07.1.11.19.23.28.34.1.12.2.25.29.38,0,0,0,0,0,0,0,0,0,0,0,0,.05.06.09.13.14.19.03.04.06.08.08.11.05.07.1.14.15.21.13.19.26.38.38.58.04.06.07.11.11.17.03.04.05.08.08.12.04.07.08.14.13.21.05.09.11.18.16.28.03.05.06.1.08.15.05.1.1.19.15.29.07.13.13.26.2.4,0,0,0,.01,0,.02.06.13.12.26.18.38,0,0,0,0,0,0,.05.11.1.22.14.34.01.03.03.07.04.1.05.13.1.25.15.38.04.11.09.23.12.34.02.05.04.11.06.16.02.06.04.12.06.18.02.07.04.14.07.2,0,.02.01.04.02.07.03.1.06.2.09.31.03.1.06.2.08.31.02.07.04.15.06.22,0,0,0,.02,0,.03.06.22.11.45.15.67.01.07.03.14.04.21.02.11.04.21.06.32.02.13.04.26.06.38,0,.03,0,.06.01.09.02.12.03.23.04.35,0,.03,0,.06,0,.1.01.1.02.2.03.3.01.16.03.33.04.5,0,.05,0,.1,0,.14,0,.1,0,.21.01.31,0,.02,0,.05,0,.08,0,.14,0,.28,0,.42v8.69l-18.82,8.49-4.28,1.93-1.82.82-1.16.52v-51.9Z"/><path class="cls-8" d="m354.34,142.46l-1.3-1.23-3.23-3.05-1.54-1.46-24.34-22.96-.2-.19-.22-.17-.14-.11c-3.86-3.02-8.71-4.69-13.65-4.69s-9.79,1.67-13.65,4.69l-.14.11-.22.17-.2.19-24.34,22.96-1.54,1.46-3.23,3.05-1.3,1.23-1.93,1.82h93.1l-1.93-1.82Zm-34.59-24.26l21.18,19.98,3.16,2.98h-68.73l3.16-2.98,21.18-19.98.14-.11c2.8-2.19,6.31-3.4,9.89-3.4s7.09,1.21,9.89,3.4l.14.11Z"/><path class="cls-8" d="m261.15,324.32l-2.21,1.35.08.03,2.21-1.35-.08-.03Zm12.76-4.2l-.16-.07-3.12-1.41-.08-.03-3.29-1.48-3.08,1.88-75.34-33.99-1.3-.58-2.98-1.34v-3.27l-.07-.03-1.75-.79-1.23-.56-.07-.03-2.98-1.34v3.27l-18.82-8.49-4.28-1.93v-3.27l-1.82-.82-1.23-.56-3.05-1.37v133.65c0,.37,0,.74.03,1.1.01.29.03.59.06.88l1.42-.87,1.54-.94,1.23-.75,1.82-1.11v-3.49l109.23-66.51,9.39-5.72-.08-.03Zm-14.97,5.55l-99.3,60.46-4.28,2.6v-115.4l23.09,10.42,9.07,4.09,73.41,33.12,3.29,1.48-3.08,1.88-2.21,1.35Zm2.21-1.35l-2.21,1.35.08.03,2.21-1.35-.08-.03Z"/><path class="cls-8" d="m184.55,283.08v-64.62l-1.82,1.71-1.23,1.16-3.05,2.87-1.2,1.14-19.91,18.78c-5.13,4.22-8.07,10.44-8.07,17.09v12.63l3.05,1.38.54.24.69.31,1.82.82,23.09,10.42,3.59,1.62,5.48,2.47v-6.69l-2.98-1.34Zm-29.19-21.86c0-4.86,2.17-9.41,5.95-12.47l.05-.04,17.09-16.13,2.98-2.81v51.9l-2.98-1.34-18.82-8.49-4.28-1.93v-8.69Z"/><path class="cls-8" d="m437.21,146.23c-3.56-4.87-9.32-8.04-15.81-8.04h-223.37c-10.8,0-19.58,8.78-19.58,19.58v129.25l3.59,1.62,5.48,2.47,70.33,31.73,3.29,1.48.08.03,3.29,1.48.08.03,9.39-5.72,27.4-16.68c2.57-1.57,5.46-2.35,8.34-2.35s5.77.78,8.34,2.35l27.4,16.68,9.39,5.72.08-.03,3.29-1.48.08-.03,3.29-1.48,70.33-31.73,5.49-2.47,3.59-1.62v-129.25c0-4.31-1.4-8.3-3.77-11.54Zm-4.38,4.38c1.3,2.07,2.06,4.53,2.06,7.15v125.31l-2.98,1.34-76.64,34.57-1.58.71-1.71.77-3.08-1.88-29.22-17.79c-.8-.49-1.62-.91-2.46-1.27-2.4-1.03-4.95-1.54-7.5-1.54-3.44,0-6.89.93-9.96,2.81l-29.22,17.79-3.08,1.88-3.29-1.48-75.34-33.99-1.3-.58-2.98-1.34v-125.31c0-7.44,6.05-13.49,13.49-13.49h223.37c4.81,0,9.04,2.53,11.43,6.34Z"/><path class="cls-8" d="m368.51,196.8c-.09-.21-.18-.42-.27-.62-.06-.14-.12-.28-.18-.42-.14-.31-.28-.62-.42-.93-.05-.11-.1-.21-.15-.32-.06-.13-.12-.25-.18-.38-.09-.2-.19-.39-.28-.59-.06-.12-.12-.25-.18-.37-.31-.63-.63-1.25-.97-1.86-.07-.13-.14-.27-.22-.4-.09-.16-.17-.32-.26-.48-.08-.15-.17-.3-.26-.45-.22-.4-.45-.79-.69-1.18-.07-.12-.14-.24-.21-.36-.36-.59-.73-1.18-1.12-1.76-.12-.19-.25-.37-.37-.56-.12-.19-.25-.37-.38-.56s-.25-.37-.38-.55c-.12-.16-.23-.33-.35-.49-.04-.05-.07-.1-.11-.15-.1-.13-.19-.27-.29-.4-.41-.56-.83-1.11-1.26-1.66-.08-.11-.17-.21-.25-.32-.2-.25-.4-.5-.6-.75-.13-.16-.27-.32-.4-.48-.19-.23-.38-.46-.58-.68-.1-.12-.2-.23-.3-.35-.01-.01-.03-.03-.04-.04-.14-.16-.28-.32-.42-.48-.15-.17-.3-.33-.45-.5,0,0,0,0,0,0-.68-.74-1.37-1.47-2.09-2.19-5.86-5.86-12.68-10.46-20.28-13.67-7.87-3.33-16.23-5.02-24.84-5.02s-16.97,1.69-24.84,5.02c-7.6,3.21-14.42,7.81-20.28,13.67-5.86,5.86-10.46,12.68-13.67,20.28-3.33,7.87-5.02,16.23-5.02,24.84s1.69,16.97,5.02,24.84c3.22,7.6,7.81,14.42,13.67,20.28.71.71,1.44,1.41,2.18,2.09t0,0c.26.24.52.47.78.7.14.12.27.24.41.35.14.12.29.25.43.37.14.12.27.23.41.35.32.27.64.53.96.79.19.15.38.3.57.46.37.29.74.58,1.12.86.12.09.24.18.36.27.14.1.27.2.41.3.16.12.33.24.49.36.15.11.3.21.45.32.12.09.25.18.37.26.85.59,1.71,1.15,2.59,1.69.17.11.34.21.51.31.01,0,.03.02.04.02.16.1.32.19.48.29.12.07.24.14.36.21.17.1.35.2.53.3.15.09.3.17.45.26.54.3,1.08.59,1.62.88.18.1.36.19.54.28.22.11.43.22.65.33.04.02.08.04.12.06.19.1.39.19.58.28.01,0,.03.01.04.02.2.1.41.19.61.29.72.34,1.45.66,2.18.97,7.87,3.33,16.23,5.02,24.84,5.02s16.97-1.69,24.84-5.02c7.6-3.21,14.42-7.81,20.28-13.67,5.86-5.86,10.46-12.68,13.67-20.28,3.33-7.87,5.02-16.23,5.02-24.84s-1.69-16.97-5.02-24.84Zm-97.4,67.72c-11.72-10.56-19.1-25.86-19.1-42.88,0-31.87,25.84-57.71,57.71-57.71,17.02,0,32.33,7.37,42.89,19.1,9.21,10.23,14.82,23.77,14.82,38.61,0,31.87-25.84,57.71-57.71,57.71-14.85,0-28.39-5.61-38.61-14.82Z"/><path class="cls-8" d="m468.35,387.85l-1.11-.67-.12-.07-3.05-1.86-96.65-58.85-5.85-3.56-.45-.28-2.63-1.6-.07-.04-3.08-1.88-.07-.04-3.08-1.88-30.96-18.85c-3.48-2.12-7.46-3.24-11.51-3.24s-8.03,1.12-11.51,3.24l-30.96,18.85-3.08,1.88-.07.04-2.14,1.3-.94.57-.07.04-3.08,1.88-2.21,1.35-96.01,58.46-4.28,2.6-1.82,1.11-1.23.75-.12.07-2.93,1.78v8.59c0,.37,0,.74.03,1.1.01.29.03.59.06.88h0c.16,1.81.54,3.56,1.12,5.22,1.17,3.39,3.14,6.42,5.69,8.84.6.57,1.22,1.1,1.88,1.6,3.71,2.82,8.34,4.5,13.36,4.5h276.65c5.9,0,11.26-2.32,15.23-6.09,2.55-2.42,4.52-5.44,5.69-8.84.57-1.66.95-3.41,1.12-5.21h0c.03-.29.05-.58.06-.88.02-.36.03-.73.03-1.1v-8.59l-1.82-1.11Zm-297.3,25.73c-.05,0-.1,0-.15,0-.11,0-.22,0-.33-.01-.09,0-.18,0-.27-.02-.15,0-.3-.02-.45-.04-.07,0-.15-.01-.22-.02-.06,0-.12-.01-.17-.02-.06,0-.11-.01-.17-.02-.22-.03-.44-.06-.66-.1-.07-.01-.13-.02-.2-.04-.1-.02-.21-.04-.31-.06-.12-.02-.23-.05-.34-.08-.49-.11-.98-.25-1.45-.41-.06-.02-.13-.04-.19-.06-.07-.02-.14-.05-.21-.07-.29-.11-.58-.22-.87-.35-.06-.02-.11-.05-.17-.07-.07-.03-.14-.06-.2-.09-.32-.15-.64-.31-.96-.48-.1-.05-.2-.11-.29-.16-.02,0-.04-.02-.05-.03-.1-.06-.2-.12-.3-.18-.11-.07-.22-.13-.33-.2-.11-.07-.22-.14-.32-.21-.01,0-.02-.02-.03-.02,0,0,0,0,0,0-.04-.02-.07-.05-.11-.08-.08-.05-.15-.11-.23-.16-.06-.04-.11-.08-.17-.12-.05-.03-.09-.07-.14-.1-.08-.06-.16-.12-.24-.18-.21-.16-.41-.33-.61-.5-.05-.05-.11-.09-.16-.14-.06-.05-.11-.1-.17-.15-.07-.06-.14-.13-.22-.2-.01,0-.02-.02-.03-.03-.09-.08-.18-.17-.27-.26-.09-.09-.18-.18-.27-.28-.23-.24-.45-.48-.66-.74-.06-.07-.12-.14-.17-.21-.05-.06-.09-.11-.14-.17-.17-.22-.34-.44-.5-.66-.04-.06-.09-.12-.13-.19-.04-.06-.08-.12-.12-.18-.03-.05-.06-.09-.09-.14-.06-.08-.11-.16-.16-.24-.03-.04-.06-.09-.08-.14-.07-.1-.13-.21-.19-.31,0-.01-.02-.03-.03-.04-.08-.13-.15-.26-.22-.39-.13-.25-.26-.49-.38-.75-.04-.07-.07-.14-.1-.22-.02-.05-.04-.1-.07-.14-.03-.07-.07-.15-.1-.22-.03-.06-.05-.12-.08-.18-.09-.2-.17-.41-.24-.62-.04-.11-.08-.22-.12-.34-.05-.15-.1-.31-.15-.47-.03-.11-.06-.21-.09-.32-.04-.13-.07-.25-.1-.38,0,0,0,0,0,0-.03-.12-.06-.25-.09-.37,0,0,0,0,0,0-.03-.11-.05-.23-.08-.34-.06-.29-.11-.59-.16-.89-.01-.08-.02-.17-.04-.25-.02-.13-.03-.25-.04-.38,0-.06-.01-.13-.02-.19,0-.09-.02-.19-.02-.28,0-.06,0-.13-.01-.19,0-.09-.01-.18-.02-.27,0-.1,0-.21-.01-.31,0-.05,0-.1,0-.15,0-.12,0-.24,0-.36v-5.16l109.23-66.51,9.39-5.72,27.4-16.68c2.57-1.57,5.46-2.35,8.34-2.35s5.77.78,8.34,2.35l27.4,16.68,9.39,5.72,109.23,66.51v5.16c0,8.84-7.19,16.04-16.04,16.04H171.39c-.11,0-.23,0-.34,0Z"/><path class="cls-10" d="m527.75,416.63c0,1.68-1.37,3.05-3.05,3.05H94.75c-1.68,0-3.05-1.36-3.05-3.05s1.37-3.05,3.05-3.05h429.95c1.68,0,3.05,1.36,3.05,3.05Z"/><path class="cls-10" d="m82.18,419.68h-13.88c-1.68,0-3.05-1.36-3.05-3.05s1.36-3.05,3.05-3.05h13.88c1.68,0,3.05,1.36,3.05,3.05s-1.36,3.05-3.05,3.05Z"/><path class="cls-10" d="m150.52,404.74h-13.88c-1.68,0-3.05-1.36-3.05-3.05s1.36-3.05,3.05-3.05h13.88c1.68,0,3.05,1.36,3.05,3.05s-1.36,3.05-3.05,3.05Z"/><path class="cls-10" d="m124.07,404.74h-13.88c-1.68,0-3.05-1.36-3.05-3.05s1.36-3.05,3.05-3.05h13.88c1.68,0,3.05,1.36,3.05,3.05s-1.36,3.05-3.05,3.05Z"/><path class="cls-10" d="m482.81,404.74h-13.88c-1.68,0-3.05-1.36-3.05-3.05s1.36-3.05,3.05-3.05h13.88c1.68,0,3.05,1.36,3.05,3.05s-1.36,3.05-3.05,3.05Z"/><path class="cls-10" d="m509.26,404.74h-13.88c-1.68,0-3.05-1.36-3.05-3.05s1.36-3.05,3.05-3.05h13.88c1.68,0,3.05,1.36,3.05,3.05s-1.36,3.05-3.05,3.05Z"/><path class="cls-10" d="m551.15,419.68h-13.88c-1.68,0-3.05-1.36-3.05-3.05s1.36-3.05,3.05-3.05h13.88c1.68,0,3.05,1.36,3.05,3.05s-1.36,3.05-3.05,3.05Z"/></g></g></svg>