<svg id="FaceID_icon" xmlns="http://www.w3.org/2000/svg" width="30" height="30" viewBox="0 0 30 30">
  <path id="Path_37" data-name="Path 37" d="M10.625,29.857H5.214a1.071,1.071,0,0,1-1.071-1.071V23.321a1.071,1.071,0,0,0-2.143,0v5.464A3.214,3.214,0,0,0,5.214,32h5.411a1.071,1.071,0,1,0,0-2.143Zm20.3-7.607a1.071,1.071,0,0,0-1.071,1.071v5.464a1.071,1.071,0,0,1-1.071,1.071H23.375a1.071,1.071,0,1,0,0,2.143h5.411A3.214,3.214,0,0,0,32,28.786V23.321A1.071,1.071,0,0,0,30.929,22.25ZM3.071,11.643a1.071,1.071,0,0,0,1.071-1.071V5.214A1.071,1.071,0,0,1,5.214,4.143h5.411a1.071,1.071,0,1,0,0-2.143H5.214A3.214,3.214,0,0,0,2,5.214v5.357a1.071,1.071,0,0,0,1.071,1.071ZM28.786,2H23.375a1.071,1.071,0,0,0,0,2.143h5.411a1.071,1.071,0,0,1,1.071,1.071v5.357a1.071,1.071,0,1,0,2.143,0V5.214A3.214,3.214,0,0,0,28.786,2Z" transform="translate(-2 -2)" fill="#3c6df1"/>
  <circle id="Ellipse_1" data-name="Ellipse 1" cx="2" cy="2" r="2" transform="translate(9 9)" fill="#5d5d5d"/>
  <circle id="Ellipse_2" data-name="Ellipse 2" cx="2" cy="2" r="2" transform="translate(17 9)" fill="#5d5d5d"/>
  <path id="Path_38" data-name="Path 38" d="M24.787,18.392a1.261,1.261,0,0,0-1.782-.044,7.884,7.884,0,0,1-10.875,0,1.262,1.262,0,1,0-1.738,1.829,10.4,10.4,0,0,0,14.351,0,1.261,1.261,0,0,0,.044-1.785Z" transform="translate(-2.568 -0.604)" fill="#5d5d5d"/>
</svg>
