<svg width="631" height="547" viewBox="0 0 631 547" fill="none" xmlns="http://www.w3.org/2000/svg">
<rect width="631" height="547" fill="white"/>
<path d="M57.87 235.41C66.11 243.65 77.28 248.27 88.93 248.27C97.68 248.27 106.16 245.66 113.33 240.87L82.06 272.14C73.82 280.38 69.2 291.55 69.2 303.2C69.2 314.85 73.83 326.02 82.06 334.26C90.3 342.5 101.47 347.12 113.12 347.12C121.87 347.12 130.35 344.51 137.52 339.72L121.11 356.13C112.87 364.37 108.25 375.54 108.25 387.19C108.25 398.84 112.88 410.01 121.11 418.25C129.35 426.49 140.52 431.11 152.17 431.11C160.92 431.11 169.4 428.5 176.57 423.71L172.56 427.72C164.32 435.96 159.7 447.13 159.7 458.78C159.7 470.43 164.33 481.6 172.56 489.84C180.8 498.08 191.97 502.7 203.62 502.7C215.27 502.7 226.44 498.07 234.68 489.84L276.3 448.22C271.51 455.39 268.9 463.87 268.9 472.62C268.9 484.27 273.53 495.44 281.76 503.68C290 511.92 301.17 516.54 312.82 516.54C324.47 516.54 335.64 511.91 343.88 503.68L407.12 440.44C402.33 447.61 399.72 456.09 399.72 464.84C399.72 476.49 404.35 487.66 412.58 495.9C420.82 504.14 431.99 508.76 443.64 508.76C455.29 508.76 466.46 504.13 474.7 495.9L573.15 397.45C581.39 389.21 586.01 378.04 586.01 366.39C586.01 354.74 581.38 343.57 573.15 335.33C564.91 327.09 553.74 322.47 542.09 322.47C533.34 322.47 524.86 325.08 517.69 329.87L538.3 309.26C546.54 301.02 551.16 289.85 551.16 278.2C551.16 266.55 546.53 255.38 538.3 247.14C530.06 238.9 518.89 234.28 507.24 234.28C498.49 234.28 490.01 236.89 482.84 241.68L524.46 200.06C532.7 191.82 537.32 180.65 537.32 169C537.32 157.35 532.69 146.18 524.46 137.94C516.22 129.7 505.05 125.08 493.4 125.08C484.65 125.08 476.17 127.69 469 132.48L495.5 105.98C503.74 97.74 508.36 86.57 508.36 74.92C508.36 63.27 503.73 52.1 495.5 43.86C487.26 35.62 476.09 31 464.44 31C452.79 31 441.62 35.63 433.38 43.86L374.34 102.9C379.13 95.73 381.74 87.25 381.74 78.5C381.74 66.85 377.11 55.68 368.88 47.44C360.64 39.2 349.47 34.58 337.82 34.58C326.17 34.58 315 39.21 306.76 47.44L223.89 130.31C228.68 123.14 231.29 114.66 231.29 105.91C231.29 94.26 226.66 83.09 218.43 74.85C210.19 66.61 199.02 61.99 187.37 61.99C175.72 61.99 164.55 66.62 156.31 74.85L57.86 173.3C49.62 181.54 45 192.71 45 204.36C45 216.01 49.63 227.18 57.86 235.42L57.87 235.41Z" fill="#E4E4E4"/>
<path d="M521.713 485.26L518.673 488.3C517.483 489.49 517.483 491.41 518.673 492.6C519.863 493.79 521.783 493.79 522.973 492.6L526.013 489.56L529.053 492.6C530.243 493.79 532.163 493.79 533.353 492.6C534.543 491.41 534.543 489.49 533.353 488.3L530.313 485.26L533.353 482.22C534.543 481.03 534.543 479.11 533.353 477.92C532.763 477.33 531.983 477.03 531.203 477.03C530.423 477.03 529.643 477.33 529.053 477.92L526.013 480.96L522.973 477.92C522.383 477.33 521.603 477.03 520.823 477.03C520.043 477.03 519.263 477.33 518.673 477.92C517.483 479.11 517.483 481.03 518.673 482.22L521.713 485.26Z" fill="#34383C"/>
<path d="M192.713 469.26L189.673 472.3C188.483 473.49 188.483 475.41 189.673 476.6C190.863 477.79 192.783 477.79 193.973 476.6L197.013 473.56L200.053 476.6C201.243 477.79 203.163 477.79 204.353 476.6C205.543 475.41 205.543 473.49 204.353 472.3L201.313 469.26L204.353 466.22C205.543 465.03 205.543 463.11 204.353 461.92C203.763 461.33 202.983 461.03 202.203 461.03C201.423 461.03 200.643 461.33 200.053 461.92L197.013 464.96L193.973 461.92C193.383 461.33 192.603 461.03 191.823 461.03C191.043 461.03 190.263 461.33 189.673 461.92C188.483 463.11 188.483 465.03 189.673 466.22L192.713 469.26Z" fill="#32343A"/>
<path d="M72.7001 218.72L69.6601 221.76C68.4701 222.95 68.4701 224.87 69.6601 226.06C70.8501 227.25 72.7701 227.25 73.9601 226.06L77.0001 223.02L80.0401 226.06C81.2301 227.25 83.1501 227.25 84.3401 226.06C85.5301 224.87 85.5301 222.95 84.3401 221.76L81.3001 218.72L84.3401 215.68C85.5301 214.49 85.5301 212.57 84.3401 211.38C83.7501 210.79 82.9701 210.49 82.1901 210.49C81.4101 210.49 80.6301 210.79 80.0401 211.38L77.0001 214.42L73.9601 211.38C73.3701 210.79 72.5901 210.49 71.8101 210.49C71.0301 210.49 70.2501 210.79 69.6601 211.38C68.4701 212.57 68.4701 214.49 69.6601 215.68L72.7001 218.72Z" fill="#34383C"/>
<path d="M438.47 62.5401L435.43 65.5801C434.24 66.7701 434.24 68.6901 435.43 69.8801C436.62 71.0701 438.54 71.0701 439.73 69.8801L442.77 66.8401L445.81 69.8801C447 71.0701 448.92 71.0701 450.11 69.8801C451.3 68.6901 451.3 66.7701 450.11 65.5801L447.07 62.5401L450.11 59.5001C451.3 58.3101 451.3 56.3901 450.11 55.2001C449.52 54.6101 448.74 54.3101 447.96 54.3101C447.18 54.3101 446.4 54.6101 445.81 55.2001L442.77 58.2401L439.73 55.2001C439.14 54.6101 438.36 54.3101 437.58 54.3101C436.8 54.3101 436.02 54.6101 435.43 55.2001C434.24 56.3901 434.24 58.3101 435.43 59.5001L438.47 62.5401Z" fill="#34383C"/>
<path d="M346.66 422.03C351.56 422.03 355.54 426.02 355.54 430.91C355.54 435.8 351.55 439.79 346.66 439.79C341.77 439.79 337.78 435.8 337.78 430.91C337.78 426.02 341.77 422.03 346.66 422.03ZM346.66 433.72C348.2 433.72 349.46 432.46 349.46 430.92C349.46 429.38 348.2 428.12 346.66 428.12C345.12 428.12 343.86 429.38 343.86 430.92C343.86 432.46 345.12 433.72 346.66 433.72Z" fill="#34383C"/>
<path d="M550.28 209.22C555.18 209.22 559.16 213.21 559.16 218.1C559.16 222.99 555.17 226.98 550.28 226.98C545.39 226.98 541.4 222.99 541.4 218.1C541.4 213.21 545.39 209.22 550.28 209.22ZM550.28 220.91C551.82 220.91 553.08 219.65 553.08 218.11C553.08 216.57 551.82 215.31 550.28 215.31C548.74 215.31 547.48 216.57 547.48 218.11C547.48 219.65 548.74 220.91 550.28 220.91Z" fill="#32343A"/>
<path d="M178.34 66.6201C183.24 66.6201 187.22 70.6101 187.22 75.5001C187.22 80.3901 183.23 84.3801 178.34 84.3801C173.45 84.3801 169.46 80.3901 169.46 75.5001C169.46 70.6101 173.45 66.6201 178.34 66.6201ZM178.34 78.3101C179.88 78.3101 181.14 77.0501 181.14 75.5101C181.14 73.9701 179.88 72.7101 178.34 72.7101C176.8 72.7101 175.54 73.9701 175.54 75.5101C175.54 77.0501 176.8 78.3101 178.34 78.3101Z" fill="#32343A"/>
<path d="M74.8301 344.03C79.7301 344.03 83.7101 348.02 83.7101 352.91C83.7101 357.8 79.7201 361.79 74.8301 361.79C69.9401 361.79 65.9501 357.8 65.9501 352.91C65.9501 348.02 69.9401 344.03 74.8301 344.03ZM74.8301 355.72C76.3701 355.72 77.6301 354.46 77.6301 352.92C77.6301 351.38 76.3701 350.12 74.8301 350.12C73.2901 350.12 72.0301 351.38 72.0301 352.92C72.0301 354.46 73.2901 355.72 74.8301 355.72Z" fill="#34383C"/>
<path d="M533.53 401.66C533.53 403.34 532.16 404.71 530.48 404.71H100.53C98.85 404.71 97.48 403.35 97.48 401.66C97.48 399.97 98.85 398.61 100.53 398.61H530.48C532.16 398.61 533.53 399.97 533.53 401.66Z" fill="#343940"/>
<path d="M87.96 404.71H74.08C72.4 404.71 71.03 403.35 71.03 401.66C71.03 399.97 72.39 398.61 74.08 398.61H87.96C89.64 398.61 91.01 399.97 91.01 401.66C91.01 403.35 89.65 404.71 87.96 404.71Z" fill="#343940"/>
<path d="M156.3 389.77H142.42C140.74 389.77 139.37 388.41 139.37 386.72C139.37 385.03 140.73 383.67 142.42 383.67H156.3C157.98 383.67 159.35 385.03 159.35 386.72C159.35 388.41 157.99 389.77 156.3 389.77Z" fill="#343940"/>
<path d="M129.85 389.77H115.97C114.29 389.77 112.92 388.41 112.92 386.72C112.92 385.03 114.28 383.67 115.97 383.67H129.85C131.53 383.67 132.9 385.03 132.9 386.72C132.9 388.41 131.54 389.77 129.85 389.77Z" fill="#343940"/>
<path d="M488.59 389.77H474.71C473.03 389.77 471.66 388.41 471.66 386.72C471.66 385.03 473.02 383.67 474.71 383.67H488.59C490.27 383.67 491.64 385.03 491.64 386.72C491.64 388.41 490.28 389.77 488.59 389.77Z" fill="#343940"/>
<path d="M515.04 389.77H501.16C499.48 389.77 498.11 388.41 498.11 386.72C498.11 385.03 499.47 383.67 501.16 383.67H515.04C516.72 383.67 518.09 385.03 518.09 386.72C518.09 388.41 516.73 389.77 515.04 389.77Z" fill="#343940"/>
<path d="M556.93 404.71H543.05C541.37 404.71 540 403.35 540 401.66C540 399.97 541.36 398.61 543.05 398.61H556.93C558.61 398.61 559.98 399.97 559.98 401.66C559.98 403.35 558.62 404.71 556.93 404.71Z" fill="#343940"/>
<rect x="207.78" y="163.03" width="216" height="162" rx="14" fill="white"/>
<path d="M348.78 316.412L450.78 270.03V379.03L348.78 316.412Z" fill="#F9C700"/>
<path d="M452.679 261.399C452.209 257.141 450.153 253.246 446.871 250.5L430.841 234.936L429.313 233.459L428.281 232.457L425.78 230.03V285.03L428.281 283.873L429.313 283.389L430.841 282.681L434.433 281.014L452.78 272.498V263.291C452.78 262.66 452.746 262.03 452.679 261.408V261.399ZM450.229 270.796L434.433 278.129L430.841 279.796V238.563L445.184 252.486L445.226 252.521C445.428 252.693 445.629 252.866 445.822 253.047C445.873 253.091 445.923 253.142 445.973 253.194C446.024 253.237 446.074 253.289 446.124 253.341C446.175 253.384 446.217 253.436 446.259 253.479C446.301 253.522 446.343 253.566 446.385 253.609C446.427 253.652 446.477 253.704 446.519 253.747C446.594 253.825 446.662 253.903 446.737 253.989C446.821 254.084 446.905 254.179 446.981 254.274C446.997 254.291 447.014 254.317 447.031 254.334C447.115 254.429 447.19 254.533 447.266 254.628C447.35 254.732 447.434 254.844 447.509 254.956C447.551 255.008 447.585 255.069 447.627 255.12C447.652 255.155 447.677 255.189 447.694 255.215C447.736 255.276 447.778 255.336 447.82 255.397C447.929 255.561 448.038 255.725 448.139 255.898C448.172 255.949 448.198 255.993 448.231 256.044C448.256 256.079 448.273 256.114 448.298 256.148C448.332 256.209 448.365 256.269 448.407 256.329C448.449 256.407 448.5 256.485 448.542 256.571C448.567 256.615 448.592 256.658 448.609 256.701C448.651 256.787 448.693 256.865 448.735 256.951C448.793 257.064 448.844 257.176 448.903 257.297C448.903 257.297 448.903 257.305 448.903 257.314C448.953 257.426 449.003 257.539 449.054 257.642C449.096 257.737 449.138 257.832 449.171 257.936C449.179 257.962 449.196 257.996 449.205 258.022C449.247 258.135 449.289 258.238 449.331 258.351C449.364 258.446 449.406 258.549 449.431 258.644C449.448 258.687 449.465 258.739 449.482 258.782C449.498 258.834 449.515 258.886 449.532 258.938C449.549 258.998 449.566 259.059 449.591 259.111C449.591 259.128 449.599 259.145 449.608 259.171C449.633 259.257 449.658 259.344 449.683 259.439C449.708 259.525 449.733 259.612 449.75 259.707C449.767 259.767 449.784 259.836 449.801 259.897C449.801 259.897 449.801 259.914 449.801 259.922C449.851 260.112 449.893 260.311 449.926 260.501C449.935 260.562 449.952 260.622 449.96 260.683C449.977 260.778 449.994 260.864 450.01 260.959C450.027 261.071 450.044 261.183 450.061 261.287C450.061 261.313 450.061 261.339 450.069 261.365C450.086 261.468 450.094 261.563 450.103 261.667C450.103 261.693 450.103 261.719 450.103 261.754C450.111 261.84 450.119 261.926 450.128 262.013C450.136 262.151 450.153 262.298 450.161 262.444C450.161 262.488 450.161 262.531 450.161 262.565C450.161 262.652 450.161 262.747 450.17 262.833C450.17 262.85 450.17 262.876 450.17 262.902C450.17 263.023 450.17 263.144 450.17 263.265V270.77L450.229 270.796Z" fill="#B3B3B3"/>
<path d="M449.78 263.618V271.081L429.78 280.03V239.03L444.583 252.874L444.626 252.909C447.9 255.537 449.78 259.444 449.78 263.618Z" fill="#B3B3B3"/>
<path d="M279.78 161.03L305.487 136.676L305.701 136.504C308.553 134.26 312.132 133.03 315.78 133.03C319.428 133.03 323.007 134.268 325.859 136.504L326.073 136.676L351.78 161.03H279.789H279.78Z" fill="#B3B3B3"/>
<path d="M180.78 270.03L281.78 316.412L180.78 379.03V270.03Z" fill="#F9C700"/>
<path d="M206.311 231.464L205.279 232.466L202.719 234.944L186.689 250.508C182.937 253.652 180.78 258.307 180.78 263.291V272.498L181.812 272.981L202.719 282.689L205.279 283.873L207.78 285.03V230.03L206.311 231.455V231.464ZM183.34 263.299C183.34 259.102 185.161 255.172 188.334 252.529L188.376 252.495L202.719 238.563V279.796L186.924 272.463L183.331 270.796V263.291L183.34 263.299Z" fill="#B3B3B3"/>
<path d="M202.78 239.039V280.03L182.78 271.083V263.621C182.78 259.448 184.66 255.542 187.934 252.914L187.977 252.88L202.78 239.03V239.039Z" fill="#B3B3B3"/>
<path d="M426.711 173.039C426.235 167.728 422.841 163.248 418.141 161.206C416.392 160.445 414.471 160.03 412.454 160.03H219.098C211.203 160.03 204.78 166.448 204.78 174.328V284.418L207.36 285.577L210 286.762L273.615 315.435L276.532 316.75L279.38 318.03L282.046 316.404L284.773 314.743L308.526 300.29C310.725 298.949 313.226 298.249 315.78 298.249C318.334 298.249 320.835 298.958 323.034 300.29L346.787 314.743L349.514 316.404L352.18 318.03L355.028 316.75L356.577 316.049L357.945 315.435L421.56 286.762L424.2 285.569L426.78 284.41V174.319C426.78 173.886 426.763 173.454 426.719 173.03L426.711 173.039ZM424.131 282.714L421.552 283.873L355.21 313.774L352.543 312.148L325.743 295.844C322.731 294.01 319.286 293.042 315.78 293.042C312.274 293.042 308.829 294.01 305.817 295.844L279.017 312.148L276.35 313.774L211.134 284.375L210.008 283.873L207.429 282.714V174.328C207.429 167.892 212.666 162.659 219.106 162.659H412.462C416.626 162.659 420.288 164.848 422.357 168.143C423.482 169.934 424.14 172.061 424.14 174.328V282.714H424.131Z" fill="white"/>
<path d="M357.332 317.652L354.631 316L351.989 314.382L349.288 312.73L324.262 297.439C323.516 296.983 322.744 296.587 321.946 296.26C319.982 295.452 317.881 295.03 315.754 295.03C312.761 295.03 309.819 295.865 307.247 297.431L282.221 312.721L279.519 314.373L277.684 315.492L276.878 315.982L274.176 317.635L272.281 318.796L187.058 370.863L181.835 374.055L180.78 374.701V380.621C180.78 380.673 180.78 380.724 180.78 380.776C180.78 381.232 180.806 381.679 180.849 382.118C180.952 383.28 181.183 384.407 181.518 385.491C181.655 385.956 181.818 386.403 181.998 386.842C183.276 389.966 185.488 392.607 188.284 394.414C190.351 395.757 192.727 396.643 195.291 396.927C195.9 396.996 196.518 397.03 197.152 397.03H434.416C437.675 397.03 440.72 396.066 443.276 394.406C446.466 392.332 448.902 389.183 450.051 385.465C450.386 384.39 450.608 383.28 450.711 382.127C450.754 381.679 450.771 381.223 450.78 380.767C450.78 380.716 450.78 380.664 450.78 380.612V374.692L357.375 317.626L357.332 317.652ZM448.121 380.629C448.121 388.236 441.955 394.431 434.365 394.431H197.109C197.015 394.431 196.912 394.431 196.818 394.431C196.775 394.431 196.732 394.431 196.689 394.431C196.595 394.431 196.5 394.431 196.406 394.423C196.329 394.423 196.252 394.423 196.175 394.406C196.046 394.406 195.917 394.388 195.789 394.371C195.729 394.371 195.66 394.363 195.6 394.354C195.548 394.354 195.497 394.345 195.454 394.337C195.403 394.337 195.36 394.328 195.308 394.32C195.12 394.294 194.931 394.268 194.742 394.234C194.682 394.225 194.631 394.216 194.571 394.199C194.485 394.182 194.391 394.165 194.305 394.147C194.202 394.13 194.108 394.104 194.013 394.079C193.593 393.984 193.173 393.864 192.77 393.726C192.718 393.709 192.658 393.691 192.607 393.674C192.547 393.657 192.487 393.631 192.427 393.614C192.178 393.519 191.929 393.425 191.681 393.313C191.629 393.296 191.586 393.27 191.535 393.253C191.475 393.227 191.415 393.201 191.363 393.175C191.089 393.046 190.814 392.908 190.54 392.762C190.454 392.719 190.368 392.667 190.291 392.624C190.274 392.624 190.257 392.607 190.248 392.599C190.163 392.547 190.077 392.495 189.991 392.444C189.897 392.383 189.802 392.332 189.708 392.272C189.614 392.211 189.519 392.151 189.434 392.091C189.425 392.091 189.416 392.074 189.408 392.074C189.374 392.057 189.348 392.031 189.313 392.005C189.245 391.962 189.185 391.91 189.116 391.867C189.065 391.833 189.022 391.798 188.97 391.764C188.928 391.738 188.893 391.704 188.85 391.678C188.782 391.626 188.713 391.575 188.645 391.523C188.464 391.385 188.293 391.239 188.121 391.093C188.078 391.05 188.027 391.015 187.984 390.972C187.933 390.929 187.89 390.886 187.838 390.843C187.778 390.792 187.718 390.731 187.65 390.671C187.641 390.671 187.633 390.654 187.624 390.645C187.547 390.576 187.47 390.499 187.392 390.422C187.315 390.344 187.238 390.267 187.161 390.181C186.964 389.974 186.775 389.768 186.595 389.544C186.543 389.484 186.492 389.423 186.449 389.363C186.406 389.312 186.372 389.269 186.329 389.217C186.183 389.028 186.037 388.838 185.9 388.649C185.866 388.597 185.823 388.546 185.789 388.486C185.754 388.434 185.72 388.382 185.686 388.331C185.66 388.288 185.634 388.253 185.608 388.21C185.557 388.141 185.514 388.073 185.471 388.004C185.446 387.969 185.42 387.926 185.403 387.883C185.343 387.797 185.291 387.703 185.24 387.617C185.24 387.608 185.223 387.591 185.214 387.582C185.145 387.47 185.085 387.358 185.025 387.246C184.914 387.031 184.802 386.825 184.699 386.601C184.665 386.541 184.639 386.481 184.614 386.412C184.596 386.369 184.579 386.326 184.554 386.291C184.528 386.231 184.494 386.162 184.468 386.102C184.442 386.05 184.425 385.999 184.399 385.947C184.322 385.775 184.253 385.594 184.193 385.414C184.159 385.319 184.125 385.224 184.09 385.121C184.048 384.992 184.005 384.854 183.962 384.717C183.936 384.622 183.91 384.536 183.885 384.441C183.85 384.33 183.825 384.226 183.799 384.114C183.773 384.011 183.747 383.899 183.722 383.796C183.696 383.701 183.679 383.598 183.653 383.503C183.602 383.254 183.559 382.996 183.516 382.738C183.507 382.669 183.499 382.591 183.482 382.523C183.464 382.411 183.456 382.307 183.447 382.196C183.447 382.144 183.439 382.084 183.43 382.032C183.43 381.955 183.413 381.869 183.413 381.791C183.413 381.74 183.413 381.679 183.404 381.628C183.404 381.55 183.396 381.473 183.387 381.395C183.387 381.309 183.387 381.215 183.379 381.129C183.379 381.086 183.379 381.043 183.379 380.999C183.379 380.896 183.379 380.793 183.379 380.69V376.25L277.058 319.02L285.111 314.098L308.61 299.745C310.814 298.394 313.293 297.723 315.763 297.723C318.233 297.723 320.711 298.394 322.916 299.745L346.415 314.098L354.468 319.02L448.147 376.25V380.69L448.121 380.629Z" fill="#EDEDED"/>
<path d="M448.78 377.367V381.91C448.78 389.692 442.585 396.03 434.96 396.03H196.6C188.984 396.03 182.78 389.701 182.78 381.91V377.367L276.892 318.818L284.982 313.782L308.59 299.099C310.804 297.717 313.294 297.03 315.776 297.03C318.257 297.03 320.747 297.717 322.961 299.099L346.569 313.782L354.659 318.818L448.771 377.367H448.78Z" fill="#F9C700"/>
<g style="mix-blend-mode:multiply">
<path d="M428.978 279.674L427.412 280.383V280.452L428.978 279.744L432.659 278.076V278.007L428.978 279.674ZM450.805 252.095L449.971 251.309L433.682 235.873L432.65 234.889V177.501C432.65 171.895 429.924 166.92 425.727 163.845C423.448 162.169 420.73 161.055 417.78 160.709C417.135 160.632 416.473 160.589 415.802 160.589H354.233L353.115 159.526L352.908 159.327L350.337 156.892L331.975 139.496L331.803 139.332L331.614 139.185L331.494 139.09C328.845 137.008 325.663 135.669 322.334 135.211C321.483 135.09 320.623 135.03 319.763 135.03C315.514 135.03 311.343 136.472 308.023 139.081L307.903 139.176L307.714 139.323L307.542 139.487L289.18 156.883L286.609 159.319L286.402 159.517L285.284 160.58H223.715C214.427 160.58 206.876 168.164 206.876 177.492V234.88L205.844 235.865L205.826 235.882L203.203 238.361L188.72 252.086C184.309 255.731 181.78 261.104 181.78 266.848V386.357L181.857 386.314C181.883 386.599 181.918 386.875 181.952 387.16C182.322 389.924 183.285 392.507 184.704 394.761C184.997 395.236 185.315 395.694 185.659 396.143C186.777 397.62 188.101 398.933 189.589 400.03H449.98C451.915 398.605 453.583 396.817 454.865 394.77C456.292 392.498 457.247 389.907 457.617 387.134C457.651 386.866 457.685 386.599 457.703 386.322V381.865L457.78 266.856C457.78 261.112 455.252 255.74 450.831 252.086L450.805 252.095ZM452.508 373.996L451.45 373.349L448.827 371.742L364.355 320.081L365.714 319.468L424.85 292.683L429.571 290.549L432.659 289.15L448.844 281.817L451.467 280.633L452.525 280.149V373.996H452.508ZM212.105 177.501C212.105 171.075 217.308 165.849 223.706 165.849H415.811C418.073 165.849 420.18 166.497 421.96 167.628C423.826 168.803 425.34 170.504 426.294 172.517C427.008 174.029 427.412 175.713 427.412 177.501V285.738L424.85 286.895L421.169 288.562L360.296 316.142L358.937 316.755L356.675 315.373L356.615 315.339L356.288 315.14L353.966 313.724L353.906 313.689L351.257 312.065L329.662 298.858C327.469 297.52 325.043 296.639 322.532 296.267C322.455 296.259 322.377 296.241 322.291 296.233C321.457 296.12 320.606 296.06 319.754 296.06C316.271 296.06 312.848 297.027 309.855 298.858L285.13 313.974L283.229 315.14L282.42 315.633L280.58 316.755L277.897 315.538L274.998 314.225L214.667 286.887L212.105 285.729V177.492V177.501ZM447.391 256.085C449.128 257.502 450.478 259.281 451.347 261.276C452.018 262.814 452.413 264.472 452.491 266.191C452.499 266.416 452.508 266.632 452.508 266.856V274.362L451.45 274.846L448.827 276.029L432.641 283.363V242.127L446.058 254.841L447.339 256.051L447.382 256.085H447.391ZM294.1 159.466L296.817 156.892L311.137 143.322L311.257 143.227C313.665 141.335 316.684 140.29 319.763 140.29C322.842 140.29 325.86 141.335 328.269 143.227L328.389 143.322L342.708 156.892L345.426 159.466L345.486 159.526L346.604 160.589H292.921L294.039 159.526L294.1 159.466ZM187.009 266.856C187.009 262.658 188.875 258.728 192.126 256.085L192.169 256.051L203.195 245.608L205.758 243.181L205.818 243.129L206.876 242.127V283.363L205.818 282.879L203.195 281.696L187.009 274.362V266.856ZM187.009 280.141L206.867 289.141L209.955 290.54L214.667 292.674L269.572 317.55L272.401 318.828L272.47 318.854L275.153 320.072L187 373.979V280.132L187.009 280.141ZM200.804 398.458C198.834 398.458 196.96 398.043 195.265 397.292C193.846 396.67 192.556 395.806 191.438 394.77C190.673 394.053 189.985 393.258 189.391 392.377C187.895 390.157 187.018 387.488 187.018 384.612V380.155L280.958 322.707L289.034 317.766L312.599 303.359C314.809 302.002 317.295 301.329 319.771 301.329C322.248 301.329 324.734 302.002 326.944 303.359L350.509 317.766L358.584 322.707L448.844 377.909L451.467 379.516L452.525 380.164V384.621C452.525 385.45 452.456 386.262 452.31 387.048C451.777 390.08 450.255 392.774 448.096 394.778C445.636 397.067 442.342 398.475 438.73 398.475H200.795L200.804 398.458ZM428.978 279.666L427.412 280.374V280.443L428.978 279.735L432.659 278.068V277.999L428.978 279.666Z" fill="#DBDBDB"/>
</g>
<path d="M428.521 280.168L426.945 280.869V283.726L428.521 283.024L432.227 281.374V278.517L428.521 280.168ZM428.521 280.168L426.945 280.869V283.726L428.521 283.024L432.227 281.374V278.517L428.521 280.168ZM452.204 266.757L451.156 267.227L448.515 268.408V271.204L432.218 278.466L428.512 280.116V277.32L426.936 278.021L425.931 278.466L425.871 278.491L423.29 279.637L423.23 279.663V282.46L420.649 283.606L354.284 313.172L351.616 311.564L350.248 312.172L348.768 312.83L348.698 312.856L345.849 314.122L345.78 314.147L353.911 319.04L448.498 375.923V378.908L451.139 380.491L452.204 381.132L452.472 381.294L453.702 382.03C453.728 381.782 453.745 381.534 453.754 381.277C453.771 380.969 453.78 380.653 453.78 380.337V266.03L452.187 266.74L452.204 266.757ZM448.515 372.819L356.907 317.731L354.24 316.123L355.721 315.465L357.089 314.857L420.658 286.531L426.945 283.734L428.521 283.033L432.227 281.382L448.524 274.121V372.819H448.515Z" fill="#333333"/>
<path d="M450.658 252.195C449.822 251.137 448.865 250.157 447.804 249.282L433.292 235.511L430.644 232.996L429.61 232.008L428.04 230.525L426.98 229.519L424.35 227.03V283.067L421.78 284.229V290.03L426.514 287.888L429.61 286.483L449.52 277.447L451.684 276.467L452.15 276.259L454.78 275.063V264.11C454.78 259.722 453.314 255.56 450.667 252.204L450.658 252.195ZM427.031 236.838L428.032 237.792L429.601 239.283L444.338 253.262L444.381 253.297C444.588 253.47 444.795 253.644 444.993 253.826C445.045 253.869 445.096 253.921 445.148 253.973C445.2 254.016 445.252 254.068 445.303 254.12C445.355 254.164 445.398 254.216 445.441 254.259C445.485 254.303 445.528 254.346 445.571 254.389C445.614 254.433 445.666 254.485 445.709 254.528C445.786 254.606 445.855 254.684 445.933 254.771C446.019 254.866 446.105 254.962 446.183 255.057C446.2 255.074 446.217 255.1 446.235 255.118C446.321 255.213 446.399 255.317 446.476 255.413C446.562 255.517 446.649 255.629 446.726 255.742C446.769 255.794 446.804 255.855 446.847 255.907C446.873 255.942 446.899 255.976 446.916 256.002C446.959 256.063 447.002 256.124 447.045 256.184C447.157 256.349 447.269 256.514 447.373 256.687C447.407 256.739 447.433 256.783 447.468 256.835C447.494 256.869 447.511 256.904 447.537 256.939C447.571 256.999 447.606 257.06 447.649 257.121C447.692 257.199 447.744 257.277 447.787 257.364C447.813 257.407 447.839 257.45 447.856 257.494C447.899 257.58 447.942 257.659 447.985 257.745C448.046 257.858 448.097 257.971 448.158 258.092C448.158 258.092 448.158 258.101 448.158 258.109C448.209 258.222 448.261 258.335 448.313 258.439C448.356 258.534 448.399 258.63 448.434 258.734C448.442 258.76 448.459 258.795 448.468 258.821C448.511 258.933 448.554 259.037 448.597 259.15C448.632 259.245 448.675 259.35 448.701 259.445C448.718 259.488 448.735 259.54 448.753 259.584C448.77 259.636 448.787 259.688 448.804 259.74C448.822 259.8 448.839 259.861 448.865 259.913C448.865 259.931 448.873 259.948 448.882 259.974C448.908 260.061 448.934 260.147 448.96 260.243C448.985 260.329 449.011 260.416 449.029 260.512C449.046 260.572 449.063 260.642 449.08 260.702C449.08 260.702 449.08 260.72 449.08 260.728C449.132 260.919 449.175 261.119 449.21 261.309C449.218 261.37 449.235 261.431 449.244 261.491C449.261 261.587 449.279 261.674 449.296 261.769C449.313 261.882 449.33 261.994 449.348 262.098C449.348 262.124 449.348 262.15 449.356 262.176C449.373 262.281 449.382 262.376 449.391 262.48C449.391 262.506 449.391 262.532 449.391 262.567C449.399 262.653 449.408 262.74 449.417 262.827C449.425 262.966 449.442 263.113 449.451 263.26C449.451 263.304 449.451 263.347 449.451 263.382C449.451 263.469 449.451 263.564 449.46 263.651C449.46 263.668 449.46 263.694 449.46 263.72C449.46 263.841 449.46 263.963 449.46 264.084V271.62L433.231 278.982L429.541 280.656L427.971 281.367L426.971 281.818V236.812L427.031 236.838Z" fill="#333333"/>
<path d="M354.122 160.449L353.005 159.38L350.229 156.73L348.906 155.462L327.991 135.513L327.819 135.348L327.63 135.2L327.509 135.105C324.192 132.481 320.025 131.03 315.78 131.03C311.535 131.03 307.368 132.481 304.051 135.105L303.93 135.2L303.741 135.348L303.57 135.513L282.654 155.462L281.331 156.73L278.556 159.38L277.438 160.449L275.78 162.03H355.78L354.122 160.449ZM324.399 139.371L342.599 156.73L345.314 159.319H286.255L288.97 156.73L307.17 139.371L307.29 139.275C309.696 137.373 312.712 136.321 315.789 136.321C318.865 136.321 321.881 137.373 324.287 139.275L324.407 139.371H324.399Z" fill="#333333"/>
<path d="M273.773 317.697L271.877 318.851L271.946 318.877L273.842 317.722L273.773 317.697ZM284.72 314.105L284.583 314.045L281.906 312.839L281.837 312.813L279.015 311.547L276.372 313.155L211.737 284.085L210.621 283.589L208.065 282.443V279.646L208.005 279.62L206.503 278.945L205.448 278.466L205.388 278.44L202.831 277.294V280.091L186.685 272.829L183.013 271.179V268.382L181.452 267.681L180.397 267.202L177.78 266.03V380.337C177.78 380.653 177.78 380.969 177.806 381.277C177.814 381.525 177.832 381.782 177.857 382.03L179.075 381.286L180.397 380.482L181.452 379.841L183.013 378.891V375.906L276.724 319.022L284.78 314.13L284.711 314.105H284.72ZM271.877 318.851L186.685 370.561L183.013 372.785V274.087L202.823 282.999L210.604 286.497L273.584 314.823L276.407 316.089L273.764 317.697L271.868 318.851H271.877ZM273.773 317.697L271.877 318.851L271.946 318.877L273.842 317.722L273.773 317.697Z" fill="#333333"/>
<path d="M208.21 283.074V227.03L206.64 228.513L205.579 229.519L202.948 232.008L201.913 232.997L184.741 249.285C180.316 252.945 177.78 258.339 177.78 264.107V275.061L180.411 276.257L180.876 276.466L181.472 276.734L183.041 277.446L202.957 286.483L206.053 287.888L210.78 290.03V284.228L208.21 283.066V283.074ZM183.033 264.115C183.033 259.9 184.904 255.954 188.165 253.3L188.208 253.266L202.948 239.276L205.519 236.839V281.851L202.948 280.689L186.716 273.326L183.024 271.652V264.115H183.033Z" fill="#333333"/>
<path d="M426.503 163.97C423.425 159.766 418.445 157.03 412.834 157.03H219.709C210.371 157.03 202.78 164.609 202.78 173.932V285.503L205.884 286.901L210.622 289.033L271.429 316.423L274.274 317.701L274.343 317.727L277.187 319.004L277.256 319.03L285.375 314.092L309.065 299.694C311.287 298.339 313.786 297.665 316.276 297.665C318.766 297.665 321.264 298.339 323.486 299.694L347.176 314.092L355.295 319.03L355.364 319.004L358.209 317.727L358.278 317.701L361.122 316.423L421.93 289.033L426.676 286.901L429.78 285.503V173.932C429.78 170.211 428.57 166.767 426.521 163.97H426.503ZM422.716 167.751C423.84 169.538 424.497 171.662 424.497 173.923V282.093L421.921 283.25L355.658 313.091L354.292 313.704L352.814 314.369L350.151 312.746L324.887 297.389C324.195 296.966 323.486 296.604 322.76 296.293C320.685 295.404 318.48 294.964 316.276 294.964C313.301 294.964 310.319 295.766 307.664 297.389L282.401 312.746L279.738 314.369L276.893 313.091L211.755 283.75L210.631 283.25L208.054 282.093V173.923C208.054 167.501 213.285 162.278 219.717 162.278H412.843C417.001 162.278 420.659 164.462 422.725 167.751H422.716Z" fill="#333333"/>
<path d="M452.198 372.452L451.243 371.871L451.14 371.811L448.517 370.199L365.395 319.21L360.364 316.125L359.977 315.883L357.715 314.496L357.655 314.462L355.006 312.833L354.946 312.798L352.297 311.169L325.67 294.837C322.677 293 319.255 292.03 315.771 292.03C312.288 292.03 308.865 293 305.872 294.837L279.246 311.169L276.597 312.798L276.537 312.833L274.697 313.959L273.888 314.453L273.828 314.488L271.179 316.117L269.278 317.286L186.707 367.938L183.026 370.19L181.461 371.152L180.403 371.802L180.3 371.863L177.78 373.405V380.847C177.78 381.168 177.78 381.489 177.806 381.8C177.814 382.052 177.832 382.312 177.857 382.563C177.995 384.131 178.322 385.647 178.821 387.086C179.827 390.023 181.521 392.648 183.714 394.745C184.23 395.239 184.763 395.698 185.331 396.131C188.522 398.574 192.504 400.03 196.821 400.03H434.748C439.822 400.03 444.432 398.02 447.846 394.754C450.039 392.657 451.733 390.04 452.739 387.094C453.23 385.656 453.556 384.14 453.703 382.58C453.728 382.329 453.746 382.078 453.754 381.818C453.771 381.506 453.78 381.185 453.78 380.865V373.422L452.215 372.46L452.198 372.452ZM196.511 394.745C196.468 394.745 196.425 394.745 196.382 394.745C196.288 394.745 196.193 394.745 196.099 394.736C196.021 394.736 195.944 394.736 195.866 394.719C195.737 394.719 195.608 394.702 195.479 394.684C195.419 394.684 195.35 394.676 195.29 394.667C195.239 394.667 195.187 394.658 195.144 394.65C195.092 394.65 195.049 394.641 194.998 394.632C194.809 394.606 194.619 394.58 194.43 394.546C194.37 394.537 194.318 394.528 194.258 394.511C194.172 394.494 194.078 394.476 193.992 394.459C193.888 394.442 193.794 394.416 193.699 394.39C193.278 394.294 192.856 394.173 192.452 394.034C192.4 394.017 192.34 394 192.289 393.982C192.228 393.965 192.168 393.939 192.108 393.922C191.859 393.826 191.609 393.731 191.36 393.618C191.308 393.601 191.265 393.575 191.214 393.558C191.153 393.532 191.093 393.506 191.042 393.48C190.766 393.35 190.491 393.211 190.216 393.064C190.13 393.021 190.044 392.969 189.967 392.925C189.949 392.925 189.932 392.908 189.924 392.899C189.838 392.847 189.752 392.795 189.666 392.743C189.571 392.683 189.476 392.631 189.382 392.57C189.287 392.509 189.193 392.449 189.107 392.388C189.098 392.388 189.089 392.371 189.081 392.371C189.046 392.354 189.021 392.328 188.986 392.302C188.917 392.258 188.857 392.206 188.788 392.163C188.737 392.128 188.694 392.094 188.642 392.059C188.599 392.033 188.565 391.998 188.522 391.972C188.453 391.92 188.384 391.868 188.315 391.816C188.135 391.678 187.963 391.53 187.791 391.383C187.748 391.34 187.696 391.305 187.653 391.262C187.602 391.218 187.559 391.175 187.507 391.132C187.447 391.08 187.387 391.019 187.318 390.959C187.309 390.959 187.301 390.941 187.292 390.933C187.215 390.863 187.137 390.785 187.06 390.707C186.982 390.629 186.905 390.551 186.828 390.465C186.63 390.257 186.441 390.049 186.26 389.824C186.208 389.763 186.157 389.702 186.114 389.642C186.071 389.59 186.036 389.546 185.993 389.494C185.847 389.304 185.701 389.113 185.563 388.922C185.529 388.87 185.486 388.818 185.451 388.758C185.417 388.706 185.383 388.654 185.348 388.602C185.322 388.559 185.297 388.524 185.271 388.481C185.219 388.411 185.176 388.342 185.133 388.273C185.107 388.238 185.082 388.195 185.064 388.151C185.004 388.065 184.953 387.969 184.901 387.883C184.901 387.874 184.884 387.857 184.875 387.848C184.806 387.735 184.746 387.623 184.686 387.51C184.574 387.294 184.462 387.086 184.359 386.86C184.325 386.8 184.299 386.739 184.273 386.67C184.256 386.626 184.239 386.583 184.213 386.548C184.187 386.488 184.153 386.418 184.127 386.358C184.101 386.306 184.084 386.254 184.058 386.202C183.981 386.029 183.912 385.847 183.852 385.665C183.817 385.569 183.783 385.474 183.749 385.37C183.706 385.24 183.663 385.102 183.62 384.963C183.594 384.868 183.568 384.781 183.542 384.686C183.508 384.573 183.482 384.469 183.456 384.356C183.43 384.252 183.405 384.14 183.379 384.036C183.353 383.941 183.336 383.837 183.31 383.741C183.258 383.49 183.215 383.23 183.172 382.97C183.164 382.901 183.155 382.823 183.138 382.753C183.121 382.641 183.112 382.537 183.104 382.424C183.104 382.372 183.095 382.312 183.086 382.26C183.086 382.182 183.069 382.095 183.069 382.017C183.069 381.965 183.069 381.904 183.061 381.852C183.061 381.774 183.052 381.696 183.043 381.618C183.043 381.532 183.043 381.437 183.035 381.35C183.035 381.307 183.035 381.263 183.035 381.22C183.035 381.116 183.035 381.012 183.035 380.908V376.437L276.976 318.811L285.051 313.855L308.616 299.403C310.826 298.043 313.312 297.367 315.789 297.367C318.265 297.367 320.751 298.043 322.961 299.403L346.526 313.855L354.602 318.811L448.542 376.437V380.908C448.542 388.567 442.359 394.805 434.748 394.805H196.804C196.709 394.805 196.606 394.805 196.511 394.805V394.745Z" fill="#333333"/>
<path d="M364.669 246.252L365.21 237.89L358.209 242.578L355.313 237.479L362.854 233.806L355.313 230.133L358.209 225.033L365.21 229.722L364.669 221.36H370.482L369.92 229.722L376.921 225.033L379.816 230.133L372.297 233.806L379.816 237.479L376.921 242.578L369.92 237.89L370.482 246.252H364.669Z" fill="#333333"/>
<path d="M330.325 246.252L330.865 237.89L323.864 242.578L320.969 237.479L328.51 233.806L320.969 230.133L323.864 225.033L330.865 229.722L330.325 221.36H336.137L335.575 229.722L342.576 225.033L345.471 230.133L337.952 233.806L345.471 237.479L342.576 242.578L335.575 237.89L336.137 246.252H330.325Z" fill="#333333"/>
<path d="M295.98 246.252L296.52 237.89L289.519 242.578L286.624 237.479L294.165 233.806L286.624 230.133L289.519 225.033L296.52 229.722L295.98 221.36H301.792L301.23 229.722L308.231 225.033L311.127 230.133L303.607 233.806L311.127 237.479L308.231 242.578L301.23 237.89L301.792 246.252H295.98Z" fill="#333333"/>
<path d="M261.635 246.252L262.175 237.89L255.174 242.578L252.279 237.479L259.82 233.806L252.279 230.133L255.174 225.033L262.175 229.722L261.635 221.36H267.447L266.886 229.722L273.886 225.033L276.782 230.133L269.262 233.806L276.782 237.479L273.886 242.578L266.886 237.89L267.447 246.252H261.635Z" fill="#333333"/>
</svg>
