<svg id="mobile_respond_icon" xmlns="http://www.w3.org/2000/svg" width="157.991" height="141.792" viewBox="0 0 157.991 141.792">
  <g id="Group_9" data-name="Group 9" transform="translate(-673.141 -289.708)">
    <path id="Path_1" data-name="Path 1" d="M3.758,59.694a12.83,12.83,0,0,0,16.2,1.594L10.823,70.42a12.827,12.827,0,0,0,16.2,19.735l-4.792,4.792a12.827,12.827,0,0,0,16.2,19.735l-1.171,1.171a12.828,12.828,0,0,0,18.141,18.141L67.546,121.84a12.827,12.827,0,0,0,19.735,16.2l18.468-18.468a12.827,12.827,0,0,0,19.735,16.2l28.75-28.75a12.827,12.827,0,0,0-16.2-19.735l6.019-6.019a12.827,12.827,0,0,0-16.2-19.735L140.016,49.37a12.827,12.827,0,0,0-16.2-19.735l7.739-7.739A12.828,12.828,0,0,0,113.418,3.755L96.177,21A12.827,12.827,0,0,0,76.442,4.8L52.241,29a12.827,12.827,0,0,0-19.735-16.2L3.755,41.556a12.831,12.831,0,0,0,0,18.141Z" transform="translate(673.141 289.708)" fill="#e4e4e4"/>
    <path id="Path_2" data-name="Path 2" d="M429.566,282.182l-.888.888a.888.888,0,0,0,1.256,1.256l.888-.888.888.888a.888.888,0,0,0,1.256-1.256l-.888-.888.888-.888a.888.888,0,0,0-1.256-1.256l-.888.888-.888-.888a.888.888,0,0,0-1.256,1.256Z" transform="translate(369.834 91.633)" fill="#34383c"/>
    <path id="Path_3" data-name="Path 3" d="M102.666,451.263l-.888.888a.888.888,0,0,0,1.256,1.256l.888-.888.888.888a.888.888,0,1,0,1.256-1.256l-.888-.888.888-.888a.888.888,0,0,0-1.256-1.256l-.888.888-.888-.888a.888.888,0,0,0-1.256,1.256Z" transform="translate(601.27 -28.072)" fill="#32343a"/>
    <path id="Path_4" data-name="Path 4" d="M80.811,158.842l-.888.888a.888.888,0,0,0,1.256,1.256l.888-.888.888.888a.888.888,0,0,0,1.256-1.256l-.888-.888.888-.888a.888.888,0,0,0-1.256-1.256l-.888.888-.888-.888a.888.888,0,0,0-1.256,1.256Z" transform="translate(616.742 178.954)" fill="#34383c"/>
    <path id="Path_5" data-name="Path 5" d="M382.453,52.73l-.888.888a.888.888,0,1,0,1.256,1.256l.888-.888.888.888a.888.888,0,1,0,1.256-1.256l-.888-.888.888-.888a.888.888,0,0,0-1.256-1.256l-.888.888-.888-.888a.888.888,0,0,0-1.256,1.256Z" transform="translate(403.189 254.078)" fill="#34383c"/>
    <path id="Path_6" data-name="Path 6" d="M331.543,461.33a2.593,2.593,0,1,1-2.593,2.593,2.6,2.6,0,0,1,2.593-2.593m0,3.414a.818.818,0,1,0-.818-.818.82.82,0,0,0,.818.818" transform="translate(440.254 -36.9)" fill="#34383c"/>
    <path id="Path_7" data-name="Path 7" d="M475.683,152.98a2.593,2.593,0,1,1-2.593,2.593,2.6,2.6,0,0,1,2.593-2.593m0,3.414a.818.818,0,1,0-.818-.818.82.82,0,0,0,.818.818" transform="translate(338.207 181.403)" fill="#32343a"/>
    <path id="Path_8" data-name="Path 8" d="M127.053,35.62a2.593,2.593,0,1,1-2.593,2.593,2.6,2.6,0,0,1,2.593-2.593m0,3.414a.818.818,0,1,0-.818-.818.82.82,0,0,0,.818.818" transform="translate(585.027 264.49)" fill="#32343a"/>
    <path id="Path_9" data-name="Path 9" d="M46.193,270.9a2.593,2.593,0,1,1-2.593,2.593,2.6,2.6,0,0,1,2.593-2.593m0,3.414a.818.818,0,1,0-.818-.818.82.82,0,0,0,.818.818" transform="translate(642.274 97.92)" fill="#34383c"/>
    <path id="Path_10" data-name="Path 10" d="M181.4,383.874a.738.738,0,0,1-.736.737H76.847a.736.736,0,1,1,0-1.473H180.662a.736.736,0,0,1,.736.736" transform="translate(619.258 18.458)" fill="#343940"/>
    <path id="Path_11" data-name="Path 11" d="M50.234,384.391H46.181a.891.891,0,0,1,0-1.781h4.053a.891.891,0,1,1,0,1.781" transform="translate(641.077 18.831)" fill="#343940"/>
    <path id="Path_12" data-name="Path 12" d="M135.754,372.5H131.7a.891.891,0,1,1,0-1.781h4.053a.891.891,0,1,1,0,1.781" transform="translate(580.531 27.249)" fill="#343940"/>
    <path id="Path_13" data-name="Path 13" d="M109.3,372.5h-4.053a.891.891,0,0,1,0-1.781H109.3a.891.891,0,1,1,0,1.781" transform="translate(599.257 27.249)" fill="#343940"/>
    <path id="Path_14" data-name="Path 14" d="M368.888,372.5h-4.053a.891.891,0,0,1,0-1.781h4.053a.891.891,0,0,1,0,1.781" transform="translate(415.479 27.249)" fill="#343940"/>
    <path id="Path_15" data-name="Path 15" d="M395.338,372.5h-4.053a.891.891,0,0,1,0-1.781h4.053a.891.891,0,1,1,0,1.781" transform="translate(396.754 27.249)" fill="#343940"/>
    <path id="Path_16" data-name="Path 16" d="M449.827,384.391h-4.054a.891.891,0,0,1,0-1.781h4.054a.891.891,0,0,1,0,1.781" transform="translate(358.177 18.831)" fill="#343940"/>
    <path id="Path_17" data-name="Path 17" d="M214.109,85.52H169.5a6.918,6.918,0,0,0-6.918,6.918V182.88A6.918,6.918,0,0,0,169.5,189.8h44.6a6.918,6.918,0,0,0,6.918-6.918V92.438a6.918,6.918,0,0,0-6.918-6.918" transform="translate(558.035 229.163)" fill="#333"/>
    <path id="Path_18" data-name="Path 18" d="M255.672,399.4a4.9,4.9,0,1,0-4.9,4.9,4.9,4.9,0,0,0,4.9-4.9" transform="translate(499.067 10.414)" fill="#fffffa"/>
    <path id="Path_19" data-name="Path 19" d="M251.024,97.028H237.168a.726.726,0,0,0-.724.724V97.9a.726.726,0,0,0,.724.724h13.856a.726.726,0,0,0,.724-.724v-.144a.726.726,0,0,0-.724-.724" transform="translate(505.746 221.015)" fill="#fffffa"/>
    <path id="Path_20" data-name="Path 20" d="M221.1,115.622H181.559a5.519,5.519,0,0,0-5.52,5.519v66.1a5.519,5.519,0,0,0,5.52,5.519H221.1a5.519,5.519,0,0,0,5.519-5.519v-66.1a5.519,5.519,0,0,0-5.519-5.519" transform="translate(548.511 207.851)" fill="#b3b3b3"/>
    <path id="Path_21" data-name="Path 21" d="M225.631,121.513h-37.4a5.519,5.519,0,0,0-5.519,5.519v64.375a5.519,5.519,0,0,0,5.519,5.519h37.4a5.519,5.519,0,0,0,5.519-5.519V127.032a5.519,5.519,0,0,0-5.519-5.519" transform="translate(543.788 203.681)" fill="#fff"/>
    <path id="Path_23" data-name="Path 23" d="M309.366,216.607a1.533,1.533,0,1,0-1.533,1.532,1.533,1.533,0,0,0,1.533-1.532" transform="translate(456.289 137.442)" fill="#fff"/>
    <path id="Path_24" data-name="Path 24" d="M335.586,216.607a1.533,1.533,0,1,0-1.532,1.532,1.532,1.532,0,0,0,1.532-1.532" transform="translate(437.726 137.442)" fill="#fff"/>
    <path id="Path_25" data-name="Path 25" d="M361.928,216.607a1.533,1.533,0,1,0-1.533,1.532,1.532,1.532,0,0,0,1.533-1.532" transform="translate(419.077 137.442)" fill="#fff"/>
    <rect id="Rectangle_2" data-name="Rectangle 2" width="157.991" height="141.792" transform="translate(673.141 289.708)" fill="none"/>
  </g>
  <g id="Group_10" data-name="Group 10" transform="translate(-1006.696 -1831.986)">
    <path id="Path_45" data-name="Path 45" d="M227.785,166a18,18,0,1,1,7.024-1.42,17.925,17.925,0,0,1-7.024,1.42" transform="translate(876.854 1747.188)" fill="#fd6050"/>
    <path id="Path_46" data-name="Path 46" d="M235.435,174.912l-6.287-6.284-3.1,3.1,9.385,9.385,16.15-16.153-3.1-3.1Z" transform="translate(865.388 1724.727)" fill="#fff"/>
    <path id="Path_50" data-name="Path 50" d="M247.377,142.727a18.9,18.9,0,0,0-4.06-6.023c-.211-.211-.428-.419-.647-.618a18.962,18.962,0,0,0-31.263,18.092,18.675,18.675,0,0,0,1.051,3.305,18.866,18.866,0,0,0,3.439,5.372h0c.2.22.407.437.621.65a18.954,18.954,0,0,0,30.859-20.777Zm-22.556,23.744a17.156,17.156,0,1,1,5.1.769,17.14,17.14,0,0,1-5.1-.769" transform="translate(875.989 1746.309)" fill="#dbdbdb"/>
    <path id="Path_57" data-name="Path 57" d="M243.107,138.433c-.027-.062-.053-.125-.08-.184l-.053-.125-.125-.276c-.015-.033-.03-.062-.045-.1s-.036-.074-.053-.113c-.027-.059-.056-.116-.083-.175-.018-.036-.036-.074-.053-.11-.092-.187-.187-.371-.288-.552-.021-.039-.042-.08-.065-.119s-.05-.1-.077-.143-.05-.089-.077-.134c-.065-.119-.134-.235-.2-.35l-.062-.107c-.107-.175-.217-.35-.333-.523-.036-.056-.074-.11-.11-.166s-.074-.11-.113-.166-.074-.11-.113-.163-.068-.1-.1-.146c-.012-.015-.021-.03-.033-.045-.03-.039-.056-.08-.086-.119-.122-.166-.247-.33-.374-.493-.024-.033-.05-.062-.074-.1l-.178-.223c-.039-.048-.08-.1-.119-.143-.056-.068-.113-.137-.172-.2l-.089-.1-.012-.012-.125-.143c-.045-.05-.089-.1-.134-.148-.2-.22-.407-.437-.621-.65a18.95,18.95,0,1,0-26.8,26.8c.211.211.428.419.647.621h0c.077.071.154.14.232.208.042.036.08.071.122.1l.128.11.122.1c.1.08.19.157.285.235.056.045.113.089.169.137.11.086.22.172.333.255l.107.08.122.089.146.107c.045.033.089.062.134.1s.074.053.11.077c.252.175.508.342.769.5.05.033.1.062.151.092,0,0,.009.006.012.006l.143.086.107.062c.05.03.1.059.157.089l.134.077c.16.089.321.175.481.261.053.03.107.056.16.083l.193.1.036.018c.056.03.116.056.172.083a.023.023,0,0,1,.012.006c.059.03.122.056.181.086.214.1.431.2.647.288A18.958,18.958,0,0,0,243.1,138.433Zm-28.926,20.112a17.136,17.136,0,1,1,11.466,4.4,17.1,17.1,0,0,1-11.466-4.4Z" transform="translate(878.991 1749.332)" fill="#333"/>
  </g>
</svg>
