<svg width="200" height="200" viewBox="0 0 200 200" fill="none" xmlns="http://www.w3.org/2000/svg">
  <rect x="60" y="20" width="80" height="160" rx="15" stroke="#2D5A27" stroke-width="8"/>

  <path d="M64 50H136V75H64V50Z" fill="#43A047"/>

  <rect x="70" y="58" width="15" height="2" rx="1" fill="white" fill-opacity="0.8"/>
  <rect x="70" y="64" width="15" height="2" rx="1" fill="white" fill-opacity="0.8"/>

  <rect x="70" y="90" width="40" height="6" rx="3" fill="#A5D6A7"/>
  <rect x="115" y="90" width="15" height="6" rx="3" fill="#A5D6A7"/>
  <rect x="70" y="105" width="50" height="6" rx="3" fill="#C8E6C9"/>

  <rect x="70" y="125" width="60" height="12" rx="6" fill="#C8E6C9"/>
  <rect x="70" y="145" width="60" height="18" rx="9" fill="#2D5A27"/>

  <rect x="115" y="10" width="60" height="40" rx="10" fill="#43A047"/>
  <path d="M140 50L145 60L150 50H140Z" fill="#43A047"/>

  <rect x="125" y="20" width="40" height="20" rx="3" stroke="white" stroke-width="2" fill="none"/>
  <path d="M125 22L145 32L165 22" stroke="white" stroke-width="2"/>

  <circle cx="100" cy="170" r="6" fill="#2D5A27"/>
</svg>
