<svg id="sms_icon" xmlns="http://www.w3.org/2000/svg" xmlns:xlink="http://www.w3.org/1999/xlink" width="157.991" height="141.792" viewBox="0 0 157.991 141.792">
  <defs>
    <clipPath id="clip-path">
      <rect id="Rectangle_2" data-name="Rectangle 2" width="157.991" height="141.792" fill="none"/>
    </clipPath>
  </defs>
  <g id="Group_1" data-name="Group 1" clip-path="url(#clip-path)">
    <path id="Path_1" data-name="Path 1" d="M3.758,59.694a12.83,12.83,0,0,0,16.2,1.594L10.823,70.42a12.827,12.827,0,0,0,16.2,19.735l-4.792,4.792a12.827,12.827,0,0,0,16.2,19.735l-1.171,1.171a12.828,12.828,0,0,0,18.141,18.141L67.546,121.84a12.827,12.827,0,0,0,19.735,16.2l18.468-18.468a12.827,12.827,0,0,0,19.735,16.2l28.75-28.75a12.827,12.827,0,0,0-16.2-19.735l6.019-6.019a12.827,12.827,0,0,0-16.2-19.735L140.016,49.37a12.827,12.827,0,0,0-16.2-19.735l7.739-7.739A12.828,12.828,0,0,0,113.418,3.755L96.177,21A12.827,12.827,0,0,0,76.442,4.8L52.241,29a12.827,12.827,0,0,0-19.735-16.2L3.755,41.556a12.831,12.831,0,0,0,0,18.141Z" transform="translate(0 0)" fill="#e4e4e4"/>
    <path id="Path_2" data-name="Path 2" d="M429.566,282.182l-.888.888a.888.888,0,0,0,1.256,1.256l.888-.888.888.888a.888.888,0,0,0,1.256-1.256l-.888-.888.888-.888a.888.888,0,0,0-1.256-1.256l-.888.888-.888-.888a.888.888,0,0,0-1.256,1.256Z" transform="translate(-303.307 -198.075)" fill="#34383c"/>
    <path id="Path_3" data-name="Path 3" d="M102.666,451.263l-.888.888a.888.888,0,0,0,1.256,1.256l.888-.888.888.888a.888.888,0,1,0,1.256-1.256l-.888-.888.888-.888a.888.888,0,0,0-1.256-1.256l-.888.888-.888-.888a.888.888,0,0,0-1.256,1.256Z" transform="translate(-71.871 -317.78)" fill="#32343a"/>
    <path id="Path_4" data-name="Path 4" d="M80.811,158.842l-.888.888a.888.888,0,0,0,1.256,1.256l.888-.888.888.888a.888.888,0,0,0,1.256-1.256l-.888-.888.888-.888a.888.888,0,0,0-1.256-1.256l-.888.888-.888-.888a.888.888,0,0,0-1.256,1.256Z" transform="translate(-56.399 -110.754)" fill="#34383c"/>
    <path id="Path_5" data-name="Path 5" d="M382.453,52.73l-.888.888a.888.888,0,1,0,1.256,1.256l.888-.888.888.888a.888.888,0,1,0,1.256-1.256l-.888-.888.888-.888a.888.888,0,0,0-1.256-1.256l-.888.888-.888-.888a.888.888,0,0,0-1.256,1.256Z" transform="translate(-269.953 -35.63)" fill="#34383c"/>
    <path id="Path_6" data-name="Path 6" d="M331.543,461.33a2.593,2.593,0,1,1-2.593,2.593,2.6,2.6,0,0,1,2.593-2.593m0,3.414a.818.818,0,1,0-.818-.818.82.82,0,0,0,.818.818" transform="translate(-232.887 -326.608)" fill="#34383c"/>
    <path id="Path_7" data-name="Path 7" d="M475.683,152.98a2.593,2.593,0,1,1-2.593,2.593,2.6,2.6,0,0,1,2.593-2.593m0,3.414a.818.818,0,1,0-.818-.818.82.82,0,0,0,.818.818" transform="translate(-334.934 -108.305)" fill="#32343a"/>
    <path id="Path_8" data-name="Path 8" d="M127.053,35.62a2.593,2.593,0,1,1-2.593,2.593,2.6,2.6,0,0,1,2.593-2.593m0,3.414a.818.818,0,1,0-.818-.818.82.82,0,0,0,.818.818" transform="translate(-88.114 -25.218)" fill="#32343a"/>
    <path id="Path_9" data-name="Path 9" d="M46.193,270.9a2.593,2.593,0,1,1-2.593,2.593,2.6,2.6,0,0,1,2.593-2.593m0,3.414a.818.818,0,1,0-.818-.818.82.82,0,0,0,.818.818" transform="translate(-30.868 -191.789)" fill="#34383c"/>
    <path id="Path_10" data-name="Path 10" d="M181.4,383.874a.738.738,0,0,1-.736.737H76.847a.736.736,0,1,1,0-1.473H180.662a.736.736,0,0,1,.736.736" transform="translate(-53.884 -271.251)" fill="#343940"/>
    <path id="Path_11" data-name="Path 11" d="M50.234,384.391H46.181a.891.891,0,0,1,0-1.781h4.053a.891.891,0,1,1,0,1.781" transform="translate(-32.064 -270.877)" fill="#343940"/>
    <path id="Path_12" data-name="Path 12" d="M135.754,372.5H131.7a.891.891,0,1,1,0-1.781h4.053a.891.891,0,1,1,0,1.781" transform="translate(-92.61 -262.459)" fill="#343940"/>
    <path id="Path_13" data-name="Path 13" d="M109.3,372.5h-4.053a.891.891,0,0,1,0-1.781H109.3a.891.891,0,1,1,0,1.781" transform="translate(-73.884 -262.459)" fill="#343940"/>
    <path id="Path_14" data-name="Path 14" d="M368.888,372.5h-4.053a.891.891,0,0,1,0-1.781h4.053a.891.891,0,0,1,0,1.781" transform="translate(-257.662 -262.459)" fill="#343940"/>
    <path id="Path_15" data-name="Path 15" d="M395.338,372.5h-4.053a.891.891,0,0,1,0-1.781h4.053a.891.891,0,1,1,0,1.781" transform="translate(-276.388 -262.459)" fill="#343940"/>
    <path id="Path_16" data-name="Path 16" d="M449.827,384.391h-4.054a.891.891,0,0,1,0-1.781h4.054a.891.891,0,0,1,0,1.781" transform="translate(-314.964 -270.877)" fill="#343940"/>
    <path id="Path_17" data-name="Path 17" d="M214.109,85.52H169.5a6.918,6.918,0,0,0-6.918,6.918V182.88A6.918,6.918,0,0,0,169.5,189.8h44.6a6.918,6.918,0,0,0,6.918-6.918V92.438a6.918,6.918,0,0,0-6.918-6.918" transform="translate(-115.106 -60.546)" fill="#333"/>
    <path id="Path_18" data-name="Path 18" d="M255.672,399.4a4.9,4.9,0,1,0-4.9,4.9,4.9,4.9,0,0,0,4.9-4.9" transform="translate(-174.074 -279.295)" fill="#fffffa"/>
    <path id="Path_19" data-name="Path 19" d="M251.024,97.028H237.168a.726.726,0,0,0-.724.724V97.9a.726.726,0,0,0,.724.724h13.856a.726.726,0,0,0,.724-.724v-.144a.726.726,0,0,0-.724-.724" transform="translate(-167.396 -68.693)" fill="#fffffa"/>
    <path id="Path_20" data-name="Path 20" d="M221.1,115.622H181.559a5.519,5.519,0,0,0-5.52,5.519v66.1a5.519,5.519,0,0,0,5.52,5.519H221.1a5.519,5.519,0,0,0,5.519-5.519v-66.1a5.519,5.519,0,0,0-5.519-5.519" transform="translate(-124.631 -81.857)" fill="#b3b3b3"/>
    <path id="Path_21" data-name="Path 21" d="M225.631,121.513h-37.4a5.519,5.519,0,0,0-5.519,5.519v64.375a5.519,5.519,0,0,0,5.519,5.519h37.4a5.519,5.519,0,0,0,5.519-5.519V127.032a5.519,5.519,0,0,0-5.519-5.519" transform="translate(-129.353 -86.028)" fill="#fff"/>
    <path id="Path_22" data-name="Path 22" d="M291.959,155.53A18.922,18.922,0,0,0,281.7,190.348l-3.1,6.737,6.823-4.873a18.923,18.923,0,1,0,6.536-36.682" transform="translate(-193.303 -110.111)" fill="#f9c700"/>
    <path id="Path_23" data-name="Path 23" d="M309.366,216.607a1.533,1.533,0,1,0-1.533,1.532,1.533,1.533,0,0,0,1.533-1.532" transform="translate(-216.852 -152.266)" fill="#fff"/>
    <path id="Path_24" data-name="Path 24" d="M335.586,216.607a1.533,1.533,0,1,0-1.532,1.532,1.532,1.532,0,0,0,1.532-1.532" transform="translate(-235.415 -152.266)" fill="#fff"/>
    <path id="Path_25" data-name="Path 25" d="M361.928,216.607a1.533,1.533,0,1,0-1.533,1.532,1.532,1.532,0,0,0,1.533-1.532" transform="translate(-254.065 -152.266)" fill="#fff"/>
  </g>
</svg>
