<?xml version="1.0" encoding="utf-8"?>
<!-- Generator: Adobe Illustrator 28.2.0, SVG Export Plug-In . SVG Version: 6.00 Build 0)  -->
<svg version="1.1" id="Layer_1" xmlns="http://www.w3.org/2000/svg" xmlns:xlink="http://www.w3.org/1999/xlink" x="0px" y="0px"
	 viewBox="0 0 32 32" style="enable-background:new 0 0 32 32;" xml:space="preserve">
<style type="text/css">
	.st0{fill:#EF4723;}
</style>
<path id="_44152e22bf1903e60cf43dfa74a8abc3" class="st0" d="M16,0C7.2,0,0,7.2,0,16s7.2,16,16,16s16-7.2,16-16C32,7.2,24.8,0,16,0z
	 M14.5,23.7v-1.1c0-0.9,0.7-1.5,1.5-1.5c0.9,0,1.6,0.7,1.6,1.5v1.1c0,0.9-0.7,1.6-1.5,1.6C15.1,25.3,14.5,24.6,14.5,23.7L14.5,23.7z
	 M17.6,18.1c0,0.9-0.7,1.6-1.5,1.6c-0.9,0-1.6-0.7-1.6-1.6l0,0V8.3c0-0.9,0.7-1.6,1.5-1.6c0.9,0,1.6,0.7,1.6,1.6V18.1z"/>
</svg>
